<?xml version="1.0" encoding="UTF-8" standalone="no"?>
<!-- Created with Inkscape (http://www.inkscape.org/) -->

<svg
   width="1780"
   height="3164"
   viewBox="0 0 470.95832 837.14166"
   version="1.1"
   id="svg5"
   xml:space="preserve"
   inkscape:version="1.2 (dc2aeda, 2022-05-15)"
   sodipodi:docname="part1.svg"
   xmlns:inkscape="http://www.inkscape.org/namespaces/inkscape"
   xmlns:sodipodi="http://sodipodi.sourceforge.net/DTD/sodipodi-0.dtd"
   xmlns="http://www.w3.org/2000/svg"
   xmlns:svg="http://www.w3.org/2000/svg"><sodipodi:namedview
     id="namedview7"
     pagecolor="#ffffff"
     bordercolor="#000000"
     borderopacity="0.25"
     inkscape:showpageshadow="2"
     inkscape:pageopacity="0.0"
     inkscape:pagecheckerboard="0"
     inkscape:deskcolor="#d1d1d1"
     inkscape:document-units="mm"
     showgrid="false"
     inkscape:zoom="0.16604267"
     inkscape:cx="620.32246"
     inkscape:cy="1761.5953"
     inkscape:window-width="1052"
     inkscape:window-height="805"
     inkscape:window-x="282"
     inkscape:window-y="25"
     inkscape:window-maximized="0"
     inkscape:current-layer="layer1" /><defs
     id="defs2" /><g
     inkscape:label="Layer 1"
     inkscape:groupmode="layer"
     id="layer1"><path
       style="fill:#000000;stroke-width:0.262397"
       d="m 61.315006,254.25828 c -0.45755,-0.45753 -0.434075,-0.51468 0.9315,-2.26898 0.685525,-0.88065 1.61,-2.106 2.054375,-2.723 1.08835,-1.5111 6.326525,-9.94693 6.663175,-10.73068 0.1475,-0.34355 0.385425,-0.80177 0.5286,-1.01825 0.58975,-0.8917 4.13945,-7.37085 5.0356,-9.19132 9.253914,-18.67893 17.295022,-32.48977 26.640874,-49.84793 1.01803,-1.88375 3.51045,-6.1902 4.37893,-7.56595 0.3759,-0.5955 0.68347,-1.15687 0.68347,-1.24752 0,-0.0905 0.5904,-1.0475 1.312,-2.12635 0.72158,-1.07888 1.31198,-2.04683 1.31198,-2.15103 0,-0.10425 0.26567,-0.55557 0.5904,-1.0031 0.3247,-0.44752 0.7675,-1.07302 0.98397,-1.39 2.42963,-3.5576 4.41875,-5.8384 6.02793,-6.9118 0.84177,-0.56152 0.91347,-0.55222 1.68405,0.21825 0.40177,0.40178 0.7181,1.09785 0.82605,1.81768 0.0434,3.19467 -0.90919,6.71444 -2.40875,9.3344 -12.96438,22.65064 -27.656493,47.69497 -39.895779,68.27945 -0.62275,0.96647 -1.13225,1.81147 -1.13225,1.87777 0,0.174 -3.99855,5.46698 -5.876825,7.77928 -2.61645,3.22108 -6.990125,7.57643 -8.44315,8.40775 -1.56035,0.89275 -1.483375,0.87403 -1.89615,0.46125 z"
       id="path544" /><path
       style="fill:#000000;stroke-width:0.262397"
       d="m 62.224656,347.28665 c 2.369692,-7.84256 7.607074,-15.17505 11.183294,-22.75729 9.04906,-17.32029 17.866602,-34.78316 28.33026,-51.31203 7.93209,-15.94454 17.03485,-31.23782 25.95728,-46.62353 11.23434,-22.67861 25.85732,-43.42871 37.02942,-66.1401 6.96452,-12.32195 13.24626,-24.94085 19.41802,-37.65487 1.18752,-5.00657 9.2611,-11.47037 8.60633,-2.1418 0.13475,8.10863 -5.48731,14.42869 -9.0796,21.05174 -2.52613,3.17562 -4.34243,11.03631 -7.53354,15.5141 -5.92837,12.06856 -14.82132,22.32602 -20.33581,34.63763 -9.35861,15.21881 -18.99371,30.30674 -27.00917,46.30641 -10.91591,16.66803 -18.77674,35.08616 -29.218634,52.00182 -9.932161,16.10696 -17.471466,33.76437 -29.47281,48.58374 -2.455458,2.41324 -4.454726,7.84895 -7.87504,8.53418 z"
       id="path542" /><path
       style="fill:#000000;stroke-width:0.262397"
       d="m 52.622481,463.53673 c -0.34431,-13.75515 9.989293,-25.94069 14.961956,-38.57391 11.227073,-22.78887 22.044456,-45.77704 34.568223,-67.89425 19.38614,-37.45144 39.2999,-74.6078 59.46174,-111.64157 23.46187,-42.65278 47.21947,-85.11252 70.12786,-128.04748 2.10517,-7.17568 19.53482,-31.230052 15.82193,-9.5599 -9.69201,19.65841 -22.62241,37.8348 -32.24675,57.61148 -27.04033,48.61589 -54.21977,97.39538 -80.04081,146.80275 -15.55863,29.54823 -30.93834,59.16811 -47.384124,88.2309 -10.81167,21.42349 -23.829218,41.74529 -33.765037,63.59782 l -0.714313,0.13393 -0.79085,-0.66075 z"
       id="path540" /><path
       style="fill:#000000;stroke-width:0.262397"
       d="m 279.15912,467.24395 c 2.35464,-9.38459 8.76367,-17.57837 11.8304,-26.89392 8.31285,-19.71653 19.24721,-38.17875 27.91616,-57.74054 12.06961,-23.03176 22.82439,-46.73571 35.43803,-69.48012 11.20661,-24.93891 24.93732,-48.59683 37.49303,-72.86248 5.90505,-10.00929 10.65266,-20.71013 17.06978,-30.41282 2.578,8.02323 -1.79985,17.42617 -5.03924,25.07321 -8.43185,17.07451 -17.9887,33.56464 -26.75789,50.4675 -10.4484,17.57537 -18.04378,36.65196 -28.78615,54.06365 -8.63163,16.53544 -16.51638,33.44693 -25.52076,49.78948 -7.08642,15.60814 -15.5777,30.47285 -24.03878,45.34922 -5.65386,11.45947 -12.13729,22.54146 -19.0172,33.2654 l -0.34457,-0.10926 -0.24301,-0.50937 z"
       id="path538" /><path
       style="fill:#000000;stroke-width:0.262397"
       d="m 226.58168,469.2309 c 4.25723,-10.8085 9.71865,-22.37335 14.19238,-33.59724 9.61574,-20.06575 20.87512,-39.29171 30.56829,-59.33072 11.32919,-19.4118 20.10623,-40.13629 31.38598,-59.57701 13.56526,-28.01424 28.39415,-55.3922 42.28286,-83.25239 12.36467,-24.32201 25.30036,-48.37404 39.69991,-71.55298 4.26922,-10.22165 8.6407,-3.76982 5.37323,3.48096 -6.56795,17.87824 -18.14267,33.35501 -26.90901,50.15098 -13.64414,25.83534 -26.86021,51.88952 -40.21582,77.86547 -9.70627,17.64189 -17.73642,36.19138 -28.03271,53.51883 -9.57803,21.07214 -22.03511,40.63176 -32.04977,61.49756 -10.38188,18.15538 -18.49907,37.62979 -30.17641,55.00657 -1.58229,1.04827 -4.28374,6.99663 -6.11893,5.78997 z"
       id="path536" /><path
       style="fill:#000000;stroke-width:0.262397"
       d="m 174.53043,473.23705 c 2.95122,-11.00451 9.5387,-21.36323 13.7321,-32.1995 9.73227,-21.15211 21.77842,-41.14318 31.9594,-62.08835 11.68677,-20.47459 21.39998,-42.01355 33.82427,-62.07151 12.55271,-24.58549 25.9731,-48.69284 39.16707,-72.93159 11.91408,-19.80863 22.8535,-40.16721 34.41352,-60.20196 6.9409,-12.26089 11.75767,-26.92105 22.77975,-35.99412 1.09327,17.05416 -11.96317,30.1099 -18.03073,45.01776 -9.48768,16.6209 -19.92558,32.65467 -28.76002,49.66952 -12.53354,19.03516 -21.59575,39.96481 -33.73019,59.25822 -11.20291,23.56085 -25.88033,45.22599 -37.1464,68.76695 -12.92718,22.7097 -23.65291,46.5727 -36.56215,69.29948 -6.75389,11.12196 -10.2267,26.74186 -21.64669,33.4751 z"
       id="path534" /><path
       style="fill:#000000;stroke-width:0.262397"
       d="m 317.67659,514.5558 c 1.54826,-6.84544 5.21633,-14.00114 7.72068,-20.90797 8.72885,-22.18335 18.97312,-43.66564 29.92228,-64.87524 15.08256,-29.57177 30.21182,-59.214 44.44896,-89.11769 6.75559,-12.37721 12.04476,-25.73604 20.84113,-36.86297 2.45599,5.68567 -1.64801,13.83134 -3.5373,19.86632 -6.83149,17.26791 -16.70579,33.18746 -24.4685,50.04795 -16.78052,33.63026 -34.26174,66.97277 -50.81644,100.73776 -5.8038,13.43178 -12.70836,26.46778 -20.94084,38.57377 -0.80015,0.43981 -2.08159,3.56487 -3.16997,2.53807 z"
       id="path532" /><path
       style="fill:#000000;stroke-width:0.262397"
       d="m 51.281506,572.13875 c 0.992512,-17.07346 11.983494,-32.54513 17.26117,-48.84644 15.52224,-37.94317 34.878534,-74.01801 52.573534,-110.98128 20.30286,-40.56518 42.02913,-80.28365 62.0939,-121.00233 22.1311,-40.85284 45.13,-81.25258 65.7352,-122.9017 12.34716,-22.79637 24.82664,-45.58057 37.20798,-68.2853 10.19796,6.42387 -4.76845,29.37474 -10.6095,39.78407 -24.44822,43.29362 -47.42701,87.07964 -71.79906,130.32888 -30.15272,57.30998 -60.0097,114.82034 -88.87947,172.80814 -12.28661,25.86446 -25.868175,51.08556 -37.753598,77.16194 -8.143011,17.64115 -16.235806,35.32632 -25.009331,52.65555 l -0.82005,-0.7216 z"
       id="path530" /><path
       style="fill:#000000;stroke-width:0.239075"
       d="m 344.79181,555.2336 c 6.56485,-16.01383 13.97827,-31.71021 22.32605,-47.00646 9.37171,-19.95845 21.02609,-38.90784 30.85174,-58.66926 10.63691,-19.11344 19.958,-38.90073 32.3249,-57.15786 3.18,3.79597 -2.93532,10.77831 -4.21714,15.49638 -5.2323,10.86672 -10.58211,21.67596 -16.53801,32.23365 -9.17094,16.39544 -17.22891,33.30997 -26.61734,49.58303 -7.59589,13.95005 -14.41458,28.25931 -22.99586,41.74354 -4.67745,7.79269 -8.67434,15.94509 -13.92936,23.43322 0.75119,0.3045 -1.81916,1.28374 -1.20498,0.34376 z"
       id="path528" /><path
       style="fill:#000000;stroke-width:0.262397"
       d="m 373.99242,603.6911 c 1.72048,-3.15328 3.04814,-6.72201 4.45722,-10.12455 3.6129,-9.16374 8.28647,-17.85311 12.18827,-26.89016 6.56789,-13.85396 12.64848,-27.93161 19.66807,-41.56911 4.07616,-7.99359 7.30562,-16.49552 12.38866,-23.9258 1.94593,2.48452 0.006,7.4628 -0.56547,10.7497 -2.60668,7.87974 -6.76512,15.14476 -10.51768,22.52026 -6.90344,13.51887 -13.74887,27.07271 -20.4377,40.69934 -3.87213,7.96993 -7.76077,15.95369 -12.22484,23.60728 -1.353,1.43613 -2.9775,5.38403 -4.95653,4.93304 z"
       id="path526" /><path
       style="fill:#000000;stroke-width:0.262397"
       d="m 53.662256,656.31975 c 3.045949,-17.03095 13.484813,-32.22086 19.495264,-48.5055 16.073215,-39.29696 33.68023,-77.94076 51.45076,-116.4971 25.18081,-53.49406 51.33277,-106.58629 78.5483,-159.07457 30.47683,-55.07265 56.52151,-112.52616 88.87162,-166.56231 4.03501,-10.22551 15.14928,-16.55893 8.68724,-0.322 -14.26454,28.94428 -31.69098,56.21494 -45.85362,85.27893 -20.48953,38.00732 -40.80604,76.13517 -60.81851,114.40498 -30.23852,61.97999 -62.01667,123.24889 -89.4217,186.56405 -16.4915,35.23335 -32.944222,70.48274 -50.452654,105.22107 l -0.505725,-0.50755 z"
       id="path524" /><path
       style="fill:#000000;stroke-width:0.262397"
       d="m 307.68689,741.23393 c -16.54271,-9.31651 -36.10512,-7.39656 -54.39643,-6.70698 -12.19752,2.02273 -24.57591,3.34448 -36.69127,0.24599 -19.24879,-0.49726 -39.09222,-1.86251 -57.45574,4.95839 -19.76557,4.26736 -0.48698,-24.61943 -19.59282,-22.87605 -11.39475,-3.32603 -19.50093,-13.80049 -31.49792,-14.18253 -7.50646,-10.31433 -27.537059,-16.15586 -21.321759,-32.48254 0.403695,-14.51533 13.863379,-20.67954 22.356919,-30.14684 1.82221,-10.78108 5.30184,-21.67565 7.39118,-32.59496 2.2175,-13.18741 13.75124,-20.43866 20.16076,-30.99941 7.19156,-14.83499 12.71696,-30.36571 16.8006,-46.313 4.14056,-14.17731 17.36444,-23.54192 31.73192,-25.03797 13.17196,-2.41871 26.59606,-14.62643 38.74008,-2.95333 13.43999,7.83508 24.6652,-6.42335 37.02858,-3.91942 12.29363,3.89983 25.91564,6.36065 37.35551,13.45055 14.87982,9.98572 17.99537,28.23091 22.66149,44.10556 4.40345,13.54264 12.8706,24.9305 20.67162,36.55049 5.86204,16.56359 10.36091,33.68893 16.85483,49.97875 8.04616,10.29872 28.37445,16.05618 23.16857,32.26538 -4.7463,13.32755 -16.82298,22.33681 -28.34476,29.5905 -13.2403,2.96197 -25.16804,9.94021 -36.87352,16.59054 -10.62717,1.37964 13.76115,22.36318 -8.74784,20.47688 z m -10.1707,-86.47743 c 10.93651,-3.98651 25.12356,-2.9063 33.92127,-10.29063 2.50382,-12.98972 -15.66867,-20.15468 -17.53272,-33.9203 -2.74393,-15.54522 -20.65424,-18.92068 -26.41727,-32.78462 -2.35367,-0.6443 0.47341,15.30682 -1.85711,20.01923 -4.02529,16.1524 -3.55492,32.75953 -4.74762,49.23345 -3.50531,8.30748 11.73766,8.19622 16.63345,7.74287 z m -119.70406,-1.00285 c 11.62987,-4.51958 3.64712,-20.51734 4.9086,-30.17626 -1.53051,-14.08171 -6.54649,-27.53889 -6.97067,-41.81489 -3.57116,1.55807 -12.43386,16.08641 -19.4152,21.22245 -4.63977,13.03532 -12.29062,24.74582 -20.97548,34.6803 1.84608,9.58757 3.40709,16.43081 14.53594,13.54165 9.21358,1.1767 18.57933,4.59539 27.91681,2.54675 z m 103.81716,-92.50822 c -0.6123,-0.90125 -0.75572,0.50011 0,0 z"
       id="path522" /><path
       style="fill:#000000;stroke-width:0.262397"
       d="m 255.53029,826.30528 c -76.62673,-0.57803 -185.506018,-1.36307 -226.472077,-2.70078 -7.875876,-0.25717 -8.010149,-13.70269 -9.704112,-22.3022 -4.271113,-21.68257 -0.783567,-49.13464 -4.94044,-69.95432 -4.8893123,-59.57346 -7.4031724,-119.52807 -1.39913,-179.0598 -0.459593,-69.08478 1.934505,-138.29987 1.51399,-207.45135 2.84481,-67.73318 -2.008553,-135.53429 1.551325,-203.26942 0.313988,-39.70388 -0.670511,-79.491237 -1.87378,-119.106647 26.381646,-5.883739 55.04281,0.64191 82.217415,-3.763446 42.324999,-1.12745 84.872139,4.925138 127.222599,-0.27741 48.08044,-1.913128 96.06297,0.337985 144.09561,1.58041 28.2673,3.328164 58.26289,-1.519364 85.5618,4.79385 0.6144,52.537538 6.27054,105.314513 1.99719,157.945923 1.78019,68.54667 3.62446,137.04766 2.95477,205.63638 2.06605,97.81511 -2.51657,195.56656 -1.1063,293.39144 -1.03097,45.77688 -0.69779,92.36299 3.19347,137.48362 -28.34063,4.9206 -60.15043,4.0425 -89.84351,5.15446 -38.30231,1.68426 -76.63744,1.81254 -114.96882,1.89929 z m 11.27913,-8.5002 c 62.05012,-0.10659 124.07838,-2.54521 186.00652,-5.59748 -8.77059,-79.67696 -1.17728,-160.01057 -3.94158,-239.96521 2.54254,-98.66969 -0.59519,-197.33799 -0.66414,-296.02236 -2.98581,-49.07096 -3.04808,-98.26802 -1.6077,-147.31931 -2.23057,-33.054594 -2.40036,-66.056035 -0.53495,-99.071103 -50.64758,1.718646 -101.2784,-1.232715 -151.73633,-2.98147 -55.02833,-1.443014 -109.99252,4.711859 -164.97648,0.15555 -36.818855,0.793892 -71.542823,6.872149 -108.164478,0.613925 10.751843,87.673098 2.022649,175.534268 3.368829,263.689128 1.427537,93.48255 -0.712584,187.02502 -2.981707,280.49912 -6.964992,72.48634 4.75433,145.01033 6.093457,217.52981 -0.691803,10.63567 -0.790627,20.29814 2.455145,24.01666 5.985102,6.85683 19.285896,1.61623 32.58065,2.26019 68.025964,-1.8734 136.052264,3.22387 204.102764,2.19255 z"
       id="path362"
       sodipodi:nodetypes="cssccccccccccccccccccccccccsccscc" /></g></svg>
