<?xml version="1.0" encoding="UTF-8" standalone="no"?>
<!-- Created with Inkscape (http://www.inkscape.org/) -->

<svg
   width="1780"
   height="3164"
   viewBox="0 0 470.95832 837.14166"
   version="1.1"
   id="svg5"
   xml:space="preserve"
   inkscape:version="1.2 (dc2aeda, 2022-05-15)"
   sodipodi:docname="book3-part4.svg"
   inkscape:export-filename="book3-part4-from-svg.png"
   inkscape:export-xdpi="96"
   inkscape:export-ydpi="96"
   xmlns:inkscape="http://www.inkscape.org/namespaces/inkscape"
   xmlns:sodipodi="http://sodipodi.sourceforge.net/DTD/sodipodi-0.dtd"
   xmlns="http://www.w3.org/2000/svg"
   xmlns:svg="http://www.w3.org/2000/svg"><sodipodi:namedview
     id="namedview7"
     pagecolor="#ffffff"
     bordercolor="#000000"
     borderopacity="0.25"
     inkscape:showpageshadow="2"
     inkscape:pageopacity="0.0"
     inkscape:pagecheckerboard="0"
     inkscape:deskcolor="#d1d1d1"
     inkscape:document-units="mm"
     showgrid="false"
     inkscape:zoom="0.16604267"
     inkscape:cx="689.58178"
     inkscape:cy="1650.1782"
     inkscape:window-width="1320"
     inkscape:window-height="794"
     inkscape:window-x="14"
     inkscape:window-y="25"
     inkscape:window-maximized="0"
     inkscape:current-layer="layer1" /><defs
     id="defs2" /><g
     inkscape:label="Layer 1"
     inkscape:groupmode="layer"
     id="layer1"><path
       style="fill:#000000;stroke-width:0.264583"
       d="m 255.4151,825.70923 c -3.1287,-0.12459 -19.85698,-0.27853 -37.17396,-0.34208 -17.31698,-0.0635 -34.19014,-0.24236 -37.4959,-0.39732 -21.60807,-1.01293 -33.31883,-1.27323 -73.36452,-1.63071 -22.172626,-0.19793 -33.042976,-0.19457 -38.310526,0.0119 -8.08742,0.31694 -30.72075,0.66574 -36.56656,0.56353 -8.20923,-0.14353 -10.26532,-0.8155 -11.83854,-3.86889 -1.1338,-2.20054 -1.29294,-3.42837 -1.52605,-11.77396 -0.12398,-4.43839 -0.29776,-9.20089 -0.38618,-10.58334 -0.13031,-2.03734 -1.49135,-31.09108 -2.11948,-45.24375 -0.0807,-1.81901 -0.26464,-7.41494 -0.40868,-12.43541 -0.30021,-10.46332 -0.56459,-15.08247 -2.37755,-41.53958 -1.23476,-18.01927 -1.97521,-29.8063 -2.65102,-42.20105 -0.46684,-8.56197 -0.62436,-32.05609 -0.28295,-42.20104 0.64167,-19.06746 1.96701,-43.18473 2.66807,-48.55104 0.90041,-6.89229 1.1853,-12.69291 0.87065,-17.72708 -0.38016,-6.08219 -0.26969,-53.03475 0.14442,-61.38333 0.71075,-14.32904 0.90392,-29.22046 1.11032,-85.59271 0.1291,-35.26219 0.32751,-60.89674 0.49147,-63.5 0.56407,-8.95575 0.82575,-24.11206 0.82455,-47.75729 -6.9e-4,-13.38792 -0.11361,-27.2587 -0.25095,-30.82396 -1.09237,-28.35688 -0.95313,-72.23021 0.29768,-93.79479 1.05306,-18.15525 0.0523,-126.624107 -1.24981,-135.46667 -0.61777,-4.195175 -0.62296,-8.883888 -0.0118,-10.673624 0.57553,-1.685433 1.6959,-3.035315 3.17708,-3.827901 l 1.08338,-0.579751 14.02292,0.132292 c 34.34099,0.323971 45.68939,0.100244 59.79584,-1.178844 16.263256,-1.474654 17.153686,-1.478958 36.777076,-0.177775 18.88367,1.252134 23.89737,1.409063 46.30209,1.449249 21.35407,0.0383 23.34549,-0.02046 39.02604,-1.151568 15.78508,-1.138647 32.42015,-1.695906 50.40313,-1.688458 14.32546,0.0059 27.45007,0.403665 30.82395,0.934095 3.35442,0.527368 16.83822,0.589335 23.9557,0.110091 5.20231,-0.350287 7.30551,-0.387123 9.91097,-0.173582 1.81901,0.149086 7.71261,0.394242 13.09688,0.544792 14.23371,0.397989 24.4961,0.799614 27.51666,1.076881 8.2,0.752701 21.33037,1.205635 45.64063,1.574378 9.96818,0.1512 19.7313,0.394465 21.69583,0.540589 1.96453,0.146125 5.29828,0.267841 7.40834,0.270481 5.76275,0.0072 8.59387,0.639168 10.3891,2.319045 1.16051,1.08592 1.35583,2.318661 0.97562,6.157602 -0.36176,3.652695 -0.19481,16.805897 0.26501,20.87844 0.66567,5.895499 1.07955,15.406103 1.87111,42.994791 0.27043,9.424835 0.47482,14.077337 1.09265,24.870837 0.41907,7.32142 0.41894,28.35819 -2.4e-4,34.13125 -0.17963,2.47385 -0.52837,6.46245 -0.77499,8.86354 -0.64013,6.23216 -0.63,41.8616 0.0169,59.92812 0.25017,6.985 0.57465,17.34344 0.7211,23.01875 0.14642,5.67532 0.53279,15.97422 0.85857,22.88646 0.5669,12.02775 0.58878,14.33539 0.50922,53.71042 -0.0796,39.37233 0.0854,64.14219 0.77957,117.07984 0.31488,24.01017 0.12504,49.05746 -0.56645,74.74307 -0.94022,34.92519 -1.06355,47.42114 -1.24542,126.20625 -0.10229,44.3111 -0.17984,91.10266 -0.1723,103.98125 0.0156,26.60846 0.38111,38.21708 1.5829,50.27083 0.22489,2.25558 0.50937,6.83948 0.63219,10.18646 0.12282,3.34698 0.42953,7.51417 0.68154,9.26042 0.25202,1.74625 0.46937,4.88087 0.483,6.96582 0.0286,4.37946 0.12092,4.20658 -2.71296,5.08188 -2.75587,0.85119 -5.77522,1.05632 -12.82541,0.87127 -5.37062,-0.14094 -7.10623,-0.0936 -9.525,0.25977 -5.22409,0.76327 -28.79783,1.88026 -48.33374,2.2902 -13.0016,0.27284 -19.82655,0.46887 -42.20104,1.21211 -10.55148,0.3505 -35.12378,0.68379 -73.68646,0.99947 -7.78537,0.0637 -16.71505,0.014 -19.84375,-0.11068 z m 0.7276,-8.36665 -0.7276,-0.1102 v -5.90571 -5.90569 l 1.05833,-3.23472 1.05833,-3.23471 -2.6e-4,-8.63523 c -2.7e-4,-6.8825 -0.0879,-9.09175 -0.43144,-10.88422 -0.23709,-1.23693 -0.5114,-3.73724 -0.60958,-5.55625 -0.11791,-2.18469 -0.3307,-3.65504 -0.62689,-4.33179 -0.37354,-0.85325 -0.44849,-1.92873 -0.44849,-6.43379 0,-5.35088 0.007,-5.41861 0.65626,-6.26973 1.27579,-1.67264 1.52548,-2.88075 1.34634,-6.51412 -0.0897,-1.81983 -0.40657,-4.79639 -0.7041,-6.61458 -0.72298,-4.4182 -1.09328,-11.98134 -1.12046,-22.88495 -0.0152,-6.07981 0.0887,-9.76773 0.32048,-11.37708 0.1886,-1.30969 0.40287,-4.68636 0.47616,-7.50369 0.12424,-4.77639 0.0946,-5.22835 -0.43824,-6.68981 -0.45387,-1.24478 -0.51805,-1.74249 -0.31186,-2.41818 0.15128,-0.49578 0.32342,-8.08257 0.41251,-18.18103 0.092,-10.42884 0.26327,-17.85702 0.43006,-18.65313 0.59815,-2.85488 1.40918,-12.79728 1.42989,-17.52885 l 0.0165,-3.77055 46.61191,2.3e-4 46.61191,2.2e-4 0.15843,2.05052 c 0.0872,1.12778 0.2595,8.89661 0.38301,17.26406 0.17664,11.96763 0.31332,15.68683 0.64056,17.43175 0.60656,3.23417 0.88633,12.55083 0.41807,13.92137 -0.29583,0.86585 -0.39728,8.25225 -0.55767,40.61355 -0.10784,21.75536 -0.22825,40.62677 -0.2676,41.93645 -0.0609,2.02634 0.0172,2.5613 0.52377,3.58926 l 0.59532,1.20801 v 21.6535 21.65347 l 3.77031,-0.16182 c 2.07367,-0.089 9.48531,-0.31236 16.47031,-0.49635 6.985,-0.184 12.49164,-0.37656 12.23698,-0.42794 -0.40224,-0.0811 -0.46302,-0.42601 -0.46302,-2.62731 0,-2.2287 0.0876,-2.71235 0.7276,-4.01548 l 0.72761,-1.48159 v -9.40376 -9.40377 l -0.72761,-1.40243 -0.7276,-1.40242 v -28.98722 -28.98725 l 0.7276,-1.48156 c 0.63011,-1.28307 0.72761,-1.80067 0.72761,-3.86284 0,-1.30968 -0.16042,-3.69093 -0.35645,-5.29166 -0.46651,-3.80897 -0.76695,-12.37388 -0.99113,-28.25607 l -0.18222,-12.91024 0.76489,-1.50956 c 0.96057,-1.89571 1.19184,-4.89188 0.52797,-6.84022 -0.35689,-1.0474 -0.42452,-2.67925 -0.42452,-10.24334 0,-8.79639 0.0132,-9.02446 0.59531,-10.20548 0.64651,-1.31191 0.69493,-2.64205 0.32578,-8.95228 l -0.17444,-2.98175 18.74282,0.12626 c 10.30857,0.0695 20.35017,0.19925 22.3147,0.28847 2.48668,0.11295 3.89342,0.064 4.63021,-0.16105 0.58208,-0.17783 2.07036,-0.29901 3.30729,-0.26932 1.48516,0.0356 2.64215,-0.0855 3.40669,-0.35687 0.93049,-0.3302 2.47568,-0.41084 7.87136,-0.41084 h 6.71361 l -0.0445,-16.20573 c -0.0243,-8.91315 -0.0912,-15.75925 -0.14827,-15.21354 l -0.10377,0.99218 h -32.59391 -32.59391 l -0.0889,-2.71169 c -0.25403,-7.74916 -0.15216,-23.82988 0.16968,-26.78874 0.27958,-2.57019 0.34131,-27.66946 0.324,-131.7625 -0.019,-114.45303 0.023,-128.75614 0.38222,-130.12176 0.49922,-1.89762 0.52015,-4.54674 0.0467,-5.90696 -0.19629,-0.56398 -0.55882,-2.39466 -0.8056,-4.06815 -0.4101,-2.78138 -0.43923,-6.39453 -0.33896,-42.06875 0.11743,-41.77134 0.21281,-44.97997 1.50239,-50.53542 0.34583,-1.48989 0.53408,-10.55764 0.65915,-31.75 0.0978,-16.57196 0.32732,-23.57444 0.96695,-29.50104 0.24135,-2.2361 0.31787,-6.4838 0.25884,-14.36414 l -0.0839,-11.18915 8.55787,0.10728 c 4.70684,0.059 9.33178,0.24325 10.27766,0.40943 1.19066,0.20919 7.75804,0.298 21.34521,0.28866 l 19.62542,-0.0135 0.10575,0.60676 c 0.16055,0.92099 -0.19849,-6.89341 -0.99938,-21.75054 -0.20789,-3.856302 -0.3824,-8.023494 -0.38778,-9.260421 -0.005,-1.238607 -0.10535,-2.09845 -0.22246,-1.913943 -0.16854,0.265525 -3.36465,0.317915 -15.40793,0.252566 -12.8239,-0.06959 -15.69077,-0.155173 -18.37028,-0.548423 -2.69698,-0.395814 -4.71864,-0.453755 -13.42774,-0.384855 l -10.25276,0.08111 1.5e-4,-32.979667 1.4e-4,-32.979664 -3.50573,-0.152529 c -1.92815,-0.08389 -6.06558,-0.220768 -9.19427,-0.304176 -5.45039,-0.145298 -11.45411,-0.460419 -15.54427,-0.815885 l -1.91823,-0.166707 0.005,32.244105 c 0.004,30.095558 -0.0262,32.345328 -0.46302,33.763198 l -0.46789,1.519092 -49.27865,0.0024 -49.27855,0.0015 V 55.967802 21.213917 l -2.02429,-0.171116 c -4.27783,-0.361609 -29.05705,-0.04631 -28.39746,0.361345 0.47217,0.291819 0.1816,53.35823 -0.30278,55.294622 -0.27063,1.081913 -0.34419,3.067921 -0.28674,7.742026 l 0.0773,6.286818 -34.07622,-0.12999 c -18.74193,-0.0715 -35.7431,-0.160068 -37.78039,-0.196826 -2.03729,-0.03676 -7.21651,-0.0094 -11.50938,0.06088 -4.29286,0.07024 -8.0731,0.0304 -8.40052,-0.08855 l -0.59557,-0.216268 V 55.940592 21.724327 l -0.99219,-0.198717 c -1.32777,-0.265929 -15.34782,-0.172658 -21.62969,0.143895 -2.76489,0.139327 -5.62239,0.254931 -6.35,0.256898 l -1.32291,0.0036 0.0703,24.540124 c 0.0604,21.087299 0.0139,24.814003 -0.33073,26.486654 -0.30865,1.498048 -0.40105,3.866219 -0.40105,10.278431 V 91.56711 L 97.789574,91.415568 c -5.63893,-0.08334 -11.80041,-0.297273 -13.69219,-0.475419 -2.44703,-0.230434 -11.44637,-0.327777 -31.18635,-0.337328 l -27.74677,-0.01343 0.16207,1.719792 c 0.0891,0.945885 0.16293,7.748367 0.16396,15.116627 l 0.002,13.39683 2.57969,0.15817 c 1.41883,0.087 3.3536,0.29117 4.29948,0.45372 1.18414,0.2035 12.94166,0.33318 37.74953,0.41638 l 36.029736,0.12083 0.15457,3.75571 c 0.19457,4.72733 0.19785,3.98632 -0.0781,17.64632 -0.2299,11.38084 -0.34906,12.87035 -1.15361,14.41979 -0.95338,1.83609 -1.52922,4.40607 -1.52922,6.82497 0,2.55209 0.20182,3.94162 1.21835,8.38857 0.52648,2.3032 0.63494,3.49233 0.63439,6.95586 -5.3e-4,3.69436 -0.0637,4.30124 -0.54529,5.24531 l -0.54464,1.06758 0.023,157.30821 0.023,157.3082 -0.60284,1.22357 c -0.51505,1.04539 -0.5924,1.57032 -0.53117,3.60481 0.0394,1.30969 0.13037,14.70311 0.20212,29.76317 0.0991,20.79691 0.0548,27.57339 -0.18416,28.17812 -0.22764,0.57613 -0.34502,5.60716 -0.42464,18.20093 l -0.11003,17.40474 -10.889976,-0.10406 c -6.70217,-0.064 -11.95833,-0.23673 -13.66811,-0.44911 -1.52796,-0.18976 -4.68312,-0.32559 -7.01145,-0.30181 -2.32834,0.0238 -14.54277,0.0278 -27.14318,0.009 l -22.90985,-0.0343 -0.1725,5.78963 c -0.40207,13.49447 -0.50707,21.02864 -0.32632,23.41452 l 0.1927,2.54362 7.1879,0.14359 c 5.61946,0.11224 7.49406,0.23874 8.59091,0.57963 2.11746,0.65809 5.84687,0.97745 13.01679,1.11458 6.32963,0.12107 6.49787,0.13846 7.14375,0.73758 0.36381,0.33745 1.19724,0.89455 1.85209,1.23798 1.16963,0.61341 1.31657,0.624 8.33437,0.59971 5.34177,-0.0185 7.79375,-0.13528 9.72059,-0.46302 2.04195,-0.34732 4.40356,-0.43863 11.37708,-0.43979 5.31051,0 9.19559,-0.11126 9.79718,-0.27832 0.90051,-0.25008 1.09831,-0.20516 2.04488,0.46448 l 1.047926,0.74136 0.006,3.87818 c 0.005,3.72018 -0.024,3.93528 -0.72195,5.27918 l -0.727606,1.401 -0.15832,7.55311 c -0.1107,5.28066 -0.29247,8.31062 -0.6042,10.07084 -0.3937,2.22321 -0.43029,4.18861 -0.31277,16.80104 0.0732,7.85582 0.25998,16.60504 0.41507,19.44269 0.41404,7.57558 0.62826,55.77205 0.25755,57.94375 -0.16147,0.94589 -0.52387,2.42406 -0.80535,3.28486 -0.28147,0.86076 -0.51175,2.28951 -0.51173,3.175 4e-5,1.76929 0.91514,5.10849 1.82048,6.64294 0.559016,0.94745 0.560726,1.0169 0.560726,22.73467 v 21.78434 l 4.82865,0.15819 c 2.65576,0.087 9.85904,0.19669 16.00729,0.24373 l 11.17865,0.0855 1.3e-4,-6.49888 c 1.2e-4,-5.85769 0.0523,-6.63626 0.52917,-7.8908 0.49013,-1.28956 0.52903,-2.03312 0.52903,-10.1104 0,-8.08074 -0.0388,-8.82231 -0.53101,-10.13772 -0.52435,-1.40147 -0.52958,-1.88148 -0.41721,-38.30838 0.12651,-41.01095 0.44271,-61.90859 0.98651,-65.19953 0.41299,-2.49936 0.51472,-32.66141 0.1226,-36.35287 -0.1752,-1.64939 -0.15816,-2.17356 0.0661,-2.03491 0.21797,0.1347 0.30214,-0.48102 0.30214,-2.21015 v -2.39686 h 19.54767 19.54766 l 1.79579,0.67593 c 1.68943,0.6359 1.99293,0.66654 5.12473,0.51724 1.83092,-0.0873 12.0349,-0.21511 22.6755,-0.28406 l 19.34657,-0.12533 0.36489,0.86487 c 0.245,0.5807 0.334,1.60387 0.27087,3.11385 -0.0517,1.23693 -0.0816,11.77396 -0.0664,23.41563 0.0992,75.93584 0.0794,95.74987 -0.0976,97.5928 -0.16462,1.71445 -0.10547,2.40917 0.33793,3.96875 0.51691,1.81817 0.54361,2.82348 0.69758,26.26156 0.0881,13.40409 0.0771,24.58726 -0.0243,24.8515 -0.17503,0.45614 -0.19448,0.45463 -0.38409,-0.0294 -0.12807,-0.32692 -0.20639,0.0352 -0.21831,1.00946 l -0.0186,1.51929 15.94114,0.0703 c 8.76763,0.0387 16.47693,0.0813 17.13178,0.0947 0.65484,0.0135 0.8632,-0.0251 0.46302,-0.0858 z m 2.01838,-235.2235 c 0.0585,-11.75081 0.22775,-23.62729 0.37617,-26.39219 0.17595,-3.27782 0.26848,-47.92985 0.2659,-128.32291 -0.003,-102.40614 -0.0631,-123.11653 -0.35275,-122.2375 -0.29131,0.88389 -0.35215,-7.23326 -0.36914,-49.24538 -0.0182,-45.08616 0.0228,-50.4238 0.39525,-51.46146 0.35402,-0.98627 0.41143,-2.76447 0.38759,-12.00566 -0.029,-11.24909 -0.0158,-11.4357 1.18314,-16.66875 0.23338,-1.01865 0.54893,-3.63802 0.70124,-5.82084 0.3155,-4.52175 0.76204,-30.01528 0.71486,-40.81197 l -0.0315,-7.2099 h 44.86399 c 31.57247,0 45.08466,0.0849 45.60882,0.2866 0.40966,0.15764 2.07595,0.35351 3.70288,0.43528 l 2.95804,0.14868 0.16745,9.02358 c 0.26122,14.07745 0.23334,25.26717 -0.0756,30.32253 -0.15563,2.54661 -0.29115,9.58214 -0.30117,15.63451 -0.0161,9.68977 -0.0725,11.15945 -0.47266,12.30312 -0.42695,1.2203 -0.46294,10.89634 -0.59531,160.04882 -0.112,126.18038 -0.20876,158.90283 -0.47162,159.49483 -0.2581,0.58129 -0.33073,7.1823 -0.33073,30.06405 0,26.84544 -0.0374,29.40566 -0.44341,30.34371 -0.40159,0.92784 -0.43665,2.55328 -0.37148,17.23022 l 0.072,16.20573 H 306.89889 258.05476 Z M 322.6974,336.7336 c 1.42541,-0.52102 3.27088,-1.36314 4.10104,-1.87137 0.83015,-0.50824 1.98665,-1.16444 2.56998,-1.45823 0.58332,-0.29377 1.83348,-1.2174 2.77812,-2.05248 1.46555,-1.29558 1.89219,-1.89153 2.90814,-4.06212 l 1.19063,-2.54376 -0.0109,-3.96875 c -0.0143,-5.21745 -0.74184,-8.56929 -2.72024,-12.53135 l -0.7085,-1.41888 -3.83646,0.16624 c -2.11005,0.0914 -4.17046,0.25601 -4.57872,0.36578 l -0.74226,0.19958 0.65643,0.92077 c 0.36105,0.50644 1.34448,2.11141 2.18544,3.56661 l 1.52897,2.64584 0.10483,3.06718 c 0.12861,3.76248 -0.0702,4.24249 -3.04327,7.34695 l -2.06454,2.1558 -3.04271,-0.005 c -2.06679,-0.003 -3.42458,-0.13782 -4.23333,-0.41926 -1.21047,-0.42119 -3.95917,-1.9636 -4.86296,-2.7288 -1.40568,-1.1901 -2.80996,-4.67249 -2.80996,-6.96826 v -1.31887 l -0.7276,0.46967 c -0.86326,0.55718 -3.35759,2.51404 -4.91149,3.85312 -0.60928,0.52504 -1.36742,1.09035 -1.68476,1.25627 -0.75785,0.39619 -0.57827,1.015 1.24214,4.28017 1.49603,2.6834 2.24515,3.78393 4.42807,6.50536 0.76398,0.95245 1.38906,1.82181 1.38906,1.93193 0,0.11012 0.30228,0.33796 0.67172,0.50628 0.36947,0.16836 1.25347,0.85019 1.96443,1.51525 0.71099,0.66503 1.62909,1.31323 2.04025,1.44041 0.41116,0.12719 2.29537,0.20201 4.18714,0.16624 3.20305,-0.0606 3.61781,-0.13017 6.03126,-1.01235 z M 134.7651,580.35756 v -21.53912 l 0.7276,-1.40232 c 0.92986,-1.7921 1.14207,-4.80419 0.47909,-6.80021 -0.4016,-1.20909 -0.43256,-10.87123 -0.40092,-125.11889 0.0312,-112.53624 -0.004,-123.90009 -0.38574,-124.81385 -0.37823,-0.90522 -0.41957,-5.5644 -0.41541,-46.81202 0.004,-40.41547 0.0535,-46.08702 0.41985,-48.18801 0.3208,-1.83966 0.43205,-4.81836 0.48916,-13.09687 0.0613,-8.88418 0.1528,-11.12261 0.53538,-13.09688 0.45895,-2.36835 0.63999,-6.09497 1.19541,-24.60625 0.12662,-4.2201 0.34572,-10.94713 0.48688,-14.94895 0.14117,-4.00183 0.26828,-9.68706 0.28248,-12.63386 l 0.0258,-5.35781 h 44.05312 c 28.1336,0 44.05313,0.0923 44.05313,0.25538 0,0.14046 0.35404,0.6586 0.78676,1.15144 l 0.78675,0.89607 0.11639,8.83657 c 0.064,4.86012 0.25268,15.14689 0.41928,22.8595 0.35553,16.45961 0.20685,28.46986 -0.38649,31.22083 -0.35343,1.63868 -0.39899,18.05807 -0.39536,142.49895 0.004,125.01306 -0.0405,140.77323 -0.39703,141.78378 -0.32317,0.91596 -0.40362,2.68607 -0.41394,9.1073 -0.009,5.63665 -0.12813,8.74509 -0.40667,10.61622 -0.43809,2.94299 -0.97793,11.19695 -1.01297,15.48786 -0.0208,2.54852 0.0397,2.90835 0.70484,4.19161 l 0.72761,1.40375 v 24.69689 c 0,18.28059 -0.0806,24.89041 -0.31009,25.44173 -0.22358,0.53705 -0.34202,6.09594 -0.42458,19.92712 -0.0762,12.76424 -0.20576,19.2392 -0.38727,19.35239 -0.38212,0.23826 -3.18079,0.004 -5.22806,-0.43802 -4.2734,-0.9222 -5.29489,-0.9616 -21.16667,-0.81632 -20.52633,0.18791 -28.86743,0.45821 -30.42708,0.98608 -1.09228,0.36967 -1.33262,0.36303 -2.90958,-0.0802 -2.27366,-0.63905 -4.65694,-0.62198 -6.41415,0.0459 -1.31562,0.50004 -2.03354,0.52904 -13.09971,0.52917 l -11.70781,1.3e-4 z m 44.8796,-243.17907 c 1.08797,-0.36523 2.24005,-0.8273 2.5602,-1.02687 0.32014,-0.19955 0.92986,-0.44389 1.35494,-0.54298 0.42508,-0.0991 1.06621,-0.41092 1.42474,-0.69294 0.35854,-0.28202 0.81679,-0.51276 1.01836,-0.51276 0.20156,0 1.2273,-0.86321 2.27942,-1.91823 2.01109,-2.01666 3.20552,-4.04892 4.01782,-6.83612 0.23696,-0.81307 0.58668,-1.70604 0.77715,-1.98438 0.19047,-0.27834 0.42354,-0.82418 0.51793,-1.21298 0.16137,-0.66469 0.0616,-0.75761 -1.67078,-1.55612 -1.01331,-0.46707 -2.04373,-1.0717 -2.28981,-1.34361 -0.24608,-0.27191 -0.59119,-0.4944 -0.76691,-0.4944 -0.17571,0 -0.77665,-0.3633 -1.3354,-0.80735 l -1.01592,-0.80735 -0.45137,1.53496 c -1.17265,3.98782 -2.29162,5.53794 -5.3413,7.39925 l -1.53403,0.93629 -3.22847,-0.0976 c -2.93827,-0.0888 -3.33549,-0.16147 -4.41909,-0.8084 -1.49205,-0.89078 -3.57228,-2.9963 -3.99399,-4.04255 -0.44925,-1.11455 -0.79426,-3.31295 -0.94297,-6.00845 l -0.12712,-2.30428 1.40756,-2.87478 1.40756,-2.87477 -2.38125,-0.47017 c -1.30969,-0.2586 -3.34429,-0.61108 -4.52133,-0.7833 l -2.14009,-0.3131 -0.54919,1.46441 c -0.87616,2.33633 -1.3897,4.24805 -1.90274,7.08316 -0.85824,4.74268 -0.6186,7.12393 1.11921,11.12168 0.9797,2.25375 1.3983,2.86007 3.45022,4.99758 2.18165,2.27264 2.56453,2.5471 5.82084,4.17238 1.91707,0.95684 3.78324,1.74127 4.14704,1.74321 0.3638,0.003 0.84005,0.1189 1.05833,0.25998 0.79552,0.51411 4.17179,0.29834 6.25044,-0.39945 z"
       id="path346" /></g></svg>
