<?xml version="1.0" encoding="UTF-8" standalone="no"?>
<!-- Created with Inkscape (http://www.inkscape.org/) -->

<svg
   width="1780"
   height="3164"
   viewBox="0 0 470.95832 837.14166"
   version="1.1"
   id="svg5"
   xml:space="preserve"
   sodipodi:docname="book3-part2.svg"
   inkscape:export-xdpi="96"
   inkscape:export-ydpi="96"
   inkscape:version="1.2 (dc2aeda, 2022-05-15)"
   xmlns:inkscape="http://www.inkscape.org/namespaces/inkscape"
   xmlns:sodipodi="http://sodipodi.sourceforge.net/DTD/sodipodi-0.dtd"
   xmlns="http://www.w3.org/2000/svg"
   xmlns:svg="http://www.w3.org/2000/svg"><sodipodi:namedview
     id="namedview6"
     pagecolor="#ffffff"
     bordercolor="#000000"
     borderopacity="0.25"
     inkscape:showpageshadow="2"
     inkscape:pageopacity="0.0"
     inkscape:pagecheckerboard="0"
     inkscape:deskcolor="#d1d1d1"
     showgrid="false"
     inkscape:zoom="0.20363696"
     inkscape:cx="766.06919"
     inkscape:cy="1532.1384"
     inkscape:window-width="1440"
     inkscape:window-height="900"
     inkscape:window-x="0"
     inkscape:window-y="0"
     inkscape:window-maximized="0"
     inkscape:current-layer="svg5" /><defs
     id="defs2"><inkscape:path-effect
       effect="simplify"
       id="path-effect982"
       is_visible="true"
       lpeversion="1"
       steps="1"
       threshold="0.002"
       smooth_angles="0"
       helper_size="5"
       simplify_individual_paths="false"
       simplify_just_coalesce="false" /></defs><path
     style="fill:#000000;stroke-width:0.263879"
     d="m 104.72355,833.2565 c -3.59656,-0.64403 -4.830581,-0.75686 -8.278391,-0.75686 -2.18699,0 -4.85044,-0.17936 -6.43462,-0.43329 -1.48666,-0.23831 -3.4155,-0.45598 -4.2863,-0.48374 -0.8708,-0.0278 -3.30509,-0.12814 -5.40953,-0.22306 -2.10444,-0.0949 -6.49803,-0.2377 -9.76353,-0.31729 -3.26551,-0.0796 -7.24349,-0.22316 -8.83996,-0.31903 -1.59647,-0.0959 -3.19954,-0.16883 -3.56237,-0.1621 -0.90183,0.0166 -8.9389,0.0259 -11.21487,0.0127 -2.81451,-0.0161 -12.98841,0.58715 -14.09559,0.83594 -0.99118,0.22269 -14.74639,0.12268 -16.30624,-0.11859 -0.46604,-0.0721 -1.19811,-0.48182 -1.62683,-0.91054 -0.64075,-0.64075 -0.92411,-0.75058 -1.59197,-0.617 -1.18224,0.23646 -2.28841,-0.3245 -2.8108,-1.42535 -0.37745,-0.79538 -0.42012,-1.40133 -0.26801,-3.80532 0.0995,-1.57262 0.29251,-3.54055 0.42889,-4.37317 0.13638,-0.83264 0.24865,-2.40521 0.24949,-3.49458 8.4e-4,-1.0894 0.17172,-3.46431 0.37975,-5.27759 0.40626,-3.54134 0.59353,-11.00276 0.81458,-32.45555 0.077,-7.47438 0.19455,-14.89599 0.26119,-16.49246 0.0666,-1.59647 0.17984,-5.69319 0.25155,-9.10383 0.0717,-3.41064 0.2104,-9.94166 0.3082,-14.51337 0.2217,-10.36299 0.22153,-10.5686 -0.0125,-15.6838 -0.1058,-2.31277 -0.23095,-13.65298 -0.27811,-25.20048 -0.0664,-16.24892 -0.17275,-21.74674 -0.47062,-24.31875 -0.22983,-1.98458 -0.40616,-6.28961 -0.43772,-10.68711 -0.0291,-4.04999 -0.16588,-8.55117 -0.30402,-10.00251 -0.13815,-1.45133 -0.26133,-8.75419 -0.27373,-16.22857 -0.0124,-7.47439 -0.0679,-14.06477 -0.12344,-14.64531 -0.0555,-0.58053 0.0204,-2.11882 0.16857,-3.41842 0.14821,-1.29961 0.28546,-6.94003 0.30502,-12.53427 0.0196,-5.59424 0.12534,-12.07129 0.23507,-14.39343 0.10973,-2.32214 0.26194,-6.77511 0.33825,-9.89548 0.0763,-3.12037 0.21649,-7.57334 0.31154,-9.89547 0.40241,-9.83173 -0.0275,-62.73935 -0.53606,-65.96984 -0.46481,-2.95265 -0.82846,-19.98569 -0.76054,-35.62371 0.0239,-5.51508 0.0303,-13.11481 0.0142,-16.88828 -0.0267,-6.24072 -0.0322,-13.89773 -0.015,-20.84647 0.004,-1.45134 0.0548,-6.61677 0.11382,-11.47875 0.23762,-19.5779 -0.34567,-58.36515 -0.98213,-65.31017 -0.0931,-1.01593 -0.19792,-5.23141 -0.2329197,-9.36772 -0.035,-4.1363 -0.18973,-8.88613 -0.34385,-10.55517 -0.15412,-1.66904 -0.23129,-3.80646 -0.1715,-4.74983 0.42374,-6.68538 0.50883,-17.54755 0.2687,-34.30278 -0.15309,-10.68271 -0.12805,-11.83027 0.2778097,-12.73031 0.40542,-0.89906 0.41833,-1.4721 0.14163,-6.28848 -0.1674397,-2.91463 -0.4090497,-5.49819 -0.5369197,-5.74125 -0.12786,-0.24308 -0.31827,-1.57005 -0.42313,-2.94882 -0.10485,-1.37877 -0.36217,-3.45682 -0.57181,-4.61789 -0.20963,-1.16107 -0.4346,-4.24846 -0.49992,-6.86086 -0.0653,-2.61241 -0.23331,-5.81854 -0.37331,-7.12475 -0.14,-1.3062 -0.32503,-5.31872 -0.41119,-8.9167 -0.0861,-3.59798 -0.19935,-7.10098 -0.25155,-7.78444 -0.17122,-2.2419 -0.39962,-7.74397 -0.54935,-13.23436 -0.0809,-2.9671 -0.20646,-5.49072 -0.27896,-5.60803 -0.25823,-0.41783 -0.32027,-13.35707 -0.0871,-18.15591 0.13048,-2.68498 0.24724,-7.37543 0.25944,-10.42324 0.0122,-3.0478 0.14138,-7.2039 0.28705,-9.23578 0.14566,-2.03187 0.30607,-4.28803 0.35646,-5.0137 0.25421,-3.66073 0.70786,-8.75437 0.81125,-9.10883 0.0643,-0.22045 0.17379,-3.01097 0.24331,-6.20117 0.11966,-5.49152 0.28945,-8.54026 0.95496,-17.14716 0.1571,-2.03187 0.33845,-4.58491 0.40299,-5.67341 0.0645,-1.0885 0.23074,-2.69157 0.36934,-3.56237 0.1385897,-0.8708 0.3215297,-3.0676 0.4065197,-4.88177 0.25235,-5.38625 0.58488,-10.49736 0.88415,-13.58978 0.4729,-4.88652 0.80498,-12.483538 0.97466,-22.29781 0.0891,-5.152244 0.21181,-9.450321 0.27273,-9.551281 0.0609,-0.100961 0.16295,-2.891485 0.22674,-6.201165 0.0638,-3.30968 0.24302,-7.620667 0.39829,-9.579971 0.51457,-6.49301 0.79548,-10.908088 0.9318,-14.645303 0.0741,-2.031871 0.24637,-5.11926 0.38276,-6.860863 0.43644,-5.57267 0.54118,-8.25565 0.67579,-17.309744 0.11762,-7.910929 0.18975,-9.06175 0.66988,-10.687113 0.29594,-1.00183 0.62864,-2.238846 0.73932,-2.748925 0.44678,-2.058933 1.62966,-2.8911468 4.12108,-2.8993788 0.58054,-0.0019 1.78781,-0.226197 2.68282,-0.498396 0.89502,-0.2722 1.72624,-0.408051 1.84716,-0.301891 0.12092,0.106159 1.16982,0.108745 2.33088,0.0058 1.16107,-0.103 4.6047,-0.0653 7.65251,0.08378 3.0478,0.149077 10.41004,0.29023 16.36051,0.313674 6.80067,0.02679 11.40712,0.15416 12.40233,0.342923 1.51794,0.287905 8.9437,0.344073 43.276221,0.327338 6.09561,-0.003 13.22035,0.01329 15.83276,0.03614 3.89745,0.03409 17.43277,-0.135981 29.2906,-0.368035 1.30621,-0.02556 3.79987,-0.03051 5.54147,-0.01099 1.7416,0.01952 3.87903,-0.0048 4.74983,-0.05393 0.8708,-0.04918 3.83944,-0.161228 6.59698,-0.248992 2.75754,-0.08776 6.5574,-0.306882 8.44414,-0.486927 1.88674,-0.180046 6.22096,-0.326331 9.6316,-0.325078 3.41064,0.0012 20.03504,0.0267 36.9431,0.05655 16.90807,0.02985 33.17623,0.04568 36.15147,0.03518 12.85562,-0.04536 52.61889,0.337578 52.88253,0.50929 0.15904,0.103585 5.75146,0.205158 12.42761,0.225717 12.89961,0.03972 18.06719,0.184042 21.90199,0.611671 1.3062,0.145659 4.57171,0.317708 7.25668,0.382332 2.68497,0.06462 6.72232,0.2404428 8.9719,0.3907098 2.24957,0.150266 6.88065,0.335275 10.29129,0.411131 15.99861,0.355825 25.35717,0.67413 27.04763,0.919951 1.62616,0.236468 9.21644,0.125727 9.66751,-0.141047 0.25019,-0.147961 8.04291,0.388988 11.9706,0.824822 1.88674,0.209361 5.27099,0.490219 7.52056,0.624129 2.24957,0.13391 4.44637,0.308025 4.88177,0.386924 0.4354,0.0789 4.11652,0.221738 8.18026,0.317422 4.06374,0.09568 7.52887,0.287493 7.70026,0.426244 0.32299,0.261447 5.44658,0.359672 5.84717,0.112097 0.12474,-0.0771 1.72429,-0.155708 3.55456,-0.174689 3.03324,-0.03146 3.427,0.02029 4.44948,0.584758 1.38986,0.767296 2.24762,2.003388 2.48398,3.579617 0.14896,0.993333 0.0631,1.444433 -0.48615,2.553491 -0.5149,1.039734 -0.67656,1.798503 -0.70864,3.326118 -0.21823,10.387059 -0.558,18.393942 -0.90142,21.242288 -0.97292,8.069369 -1.26627,13.547929 -1.37067,25.596296 -0.0578,6.676148 -0.2116,14.810229 -0.34169,18.075735 -0.1301,3.265507 -0.19754,7.48098 -0.14989,9.367717 0.0476,1.886734 0.1491,6.755304 0.22541,10.819044 0.0763,4.06375 0.19846,9.94166 0.2714,13.06203 0.39962,17.10051 0.66846,33.37426 0.79771,48.28992 0.0798,9.21599 0.20696,21.09056 0.28245,26.38794 0.13709,9.62186 0.15342,24.62857 0.0428,39.31802 -0.0917,12.18107 0.28179,44.58289 0.59476,51.58841 0.15561,3.48321 0.33927,9.36112 0.40816,13.06203 0.0689,3.70091 0.19348,9.04446 0.27684,11.87457 0.0834,2.8301 0.15239,5.44251 0.15339,5.80534 0,0.36284 0.11463,3.33148 0.25254,6.59699 0.13787,3.2655 0.29491,7.54035 0.34892,9.49965 0.054,1.95931 0.24768,7.36224 0.43036,12.00651 0.31903,8.11023 0.42659,49.47448 0.29507,113.46812 -0.0629,30.6288 0.10867,65.59534 0.38722,78.89993 0.38904,18.58151 0.30431,25.51531 -0.44329,36.28341 -0.13603,1.9593 -0.2529,5.87791 -0.25968,8.70802 -0.007,2.8301 -0.0585,5.56125 -0.11484,6.06922 -0.1202,1.08294 -0.51657,15.23497 -0.49148,17.54798 0.0222,2.05646 -0.41387,24.04782 -0.58879,29.68642 -0.42385,13.66299 -0.17087,39.55151 0.42935,43.93591 0.50085,3.65856 0.72161,6.14853 1.13474,12.79815 0.42068,6.7708 0.84494,15.94747 0.76863,16.6244 -0.18628,1.65215 -0.63983,15.23584 -0.62556,18.73544 0.01,2.3947 -0.1754,6.5508 -0.41152,9.23577 -0.27134,3.08589 -0.45184,8.2794 -0.49065,14.11755 -0.0338,5.07968 -0.13825,11.90755 -0.23216,15.17306 -0.094,3.26551 -0.23092,8.19345 -0.30444,10.95099 -0.0735,2.75754 -0.25151,6.20117 -0.39553,7.6525 -0.144,1.45134 -0.27034,4.82287 -0.28077,7.49228 -0.0103,2.6694 -0.11423,5.04432 -0.23071,5.27758 -0.87558,1.75327 -0.88207,1.83088 -0.69302,8.26608 0.10352,3.52413 0.23807,8.12933 0.299,10.23377 0.0609,2.10443 0.18099,4.26078 0.26681,4.79186 0.19558,1.21049 -0.39865,2.43711 -1.50723,3.11127 -0.51499,0.31317 -1.58615,0.55391 -2.95582,0.66424 -1.18149,0.0952 -3.42877,0.34388 -4.99394,0.55267 -1.56518,0.20878 -4.17758,0.3823 -5.80535,0.3856 -1.62776,0.003 -4.44388,0.12748 -6.25805,0.27599 -1.81417,0.14852 -8.34519,0.31099 -14.51337,0.36104 -6.16818,0.0501 -12.4617,0.17221 -13.9856,0.27143 -1.52391,0.0992 -5.56126,0.21833 -8.9719,0.26464 -3.41064,0.0463 -6.67615,0.14524 -7.25668,0.21982 -0.96237,0.1236 -6.40712,0.37143 -12.79815,0.58256 -2.33235,0.0771 -5.04039,0.27971 -12.66621,0.94786 -3.00017,0.26285 -4.61266,0.33095 -15.43694,0.65202 -3.04781,0.0904 -6.25394,0.20545 -7.12474,0.25567 -0.8708,0.0502 -4.78941,0.15957 -8.70802,0.24298 -4.98402,0.10611 -7.7884,0.2819 -9.33349,0.5851 -2.09937,0.41197 -2.3346,0.40848 -4.74983,-0.0708 -2.28781,-0.45395 -3.76405,-0.50298 -14.81147,-0.49211 -10.76952,0.0105 -12.43178,0.0663 -13.58979,0.45532 -0.72566,0.24377 -1.91312,0.4962 -2.63879,0.56093 -7.6434,0.68179 -50.12362,0.76997 -57.12988,0.11861 -1.23363,-0.11468 -5.53794,-0.22986 -9.56512,-0.25593 -4.02719,-0.0261 -7.9458,-0.14252 -8.70802,-0.25882 -5.06822,-0.77314 -8.05677,-1.02171 -12.73268,-1.05902 -2.90267,-0.0232 -6.16818,-0.13453 -7.25668,-0.24752 -2.18661,-0.22696 -13.91312,-0.56871 -21.11035,-0.61521 -2.53984,-0.0164 -6.51782,0.12529 -8.83996,0.31489 -2.32213,0.1896 -6.7751,0.31122 -9.89547,0.27032 -9.95836,-0.13062 -12.2205,-0.0944 -14.51337,0.23232 -1.23363,0.17577 -4.67726,0.44693 -7.6525,0.60256 -2.97524,0.15567 -6.53761,0.38403 -7.91638,0.50747 -1.37877,0.12347 -3.87243,0.29974 -5.54146,0.39173 -9.70047,0.53462 -12.81621,0.72992 -15.305,0.95931 -3.20016,0.29496 -4.62309,0.28512 -6.46505,-0.0447 z m 71.13356,-47.62492 c 1.65318,-0.49055 2.44799,-0.99622 4.48531,-2.85356 0.80782,-0.73647 2.44067,-2.15437 3.62855,-3.15091 1.18788,-0.99651 2.6643,-2.27303 3.28094,-2.8367 0.61664,-0.56365 1.25157,-1.02483 1.41096,-1.02483 0.26847,0 2.1187,-1.89959 3.89107,-3.99487 1.84588,-2.1822 4.45323,-4.71315 4.85541,-4.71315 0.11558,0 1.33355,-1.12808 2.70658,-2.50685 1.37304,-1.37877 2.60091,-2.50686 2.7286,-2.50686 0.45142,0 7.0193,-6.53877 7.02916,-6.99802 0.003,-0.14799 1.13386,-1.39247 2.51263,-2.76551 1.37877,-1.37304 2.50686,-2.60592 2.50686,-2.73973 0,-0.13381 0.70515,-1.3428 1.567,-2.68663 1.89316,-2.95192 2.91895,-4.9312 2.91895,-5.63222 0,-0.28654 0.11114,-0.58966 0.24698,-0.6736 0.13584,-0.084 0.56242,-0.83312 0.94795,-1.66482 0.38554,-0.83169 0.86812,-1.82736 1.07242,-2.2126 0.23042,-0.4345 0.37144,-1.50554 0.37144,-2.82113 0,-1.1664 0.11874,-2.19411 0.26388,-2.2838 0.14513,-0.0897 0.26765,-0.60138 0.27227,-1.13706 0.005,-0.5357 0.18274,-1.20447 0.39582,-1.48619 0.21308,-0.28174 0.38743,-0.89814 0.38743,-1.3698 0,-0.47166 0.11874,-0.93096 0.26388,-1.02066 0.14513,-0.0897 0.26387,-1.15038 0.26387,-2.35707 0,-2.10843 0.64311,-5.4831 1.26709,-6.64902 0.33576,-0.62738 2.32052,-2.47266 2.65956,-2.47266 0.12694,0 0.37863,0.17812 0.5593,0.39582 0.18068,0.2177 0.46736,0.39582 0.63707,0.39582 0.35502,0 2.23904,1.95661 2.72802,2.83311 0.18107,0.3246 0.32922,1.17849 0.32922,1.89756 0,0.71907 0.11123,1.37616 0.24717,1.46018 0.33323,0.20593 1.07223,1.71334 1.07223,2.18713 0,0.20929 0.23144,0.70554 0.51432,1.10281 0.28288,0.39727 0.91845,1.60304 1.41238,2.67953 0.98599,2.14885 1.43805,2.65978 2.89028,3.26657 2.62045,1.09489 5.64135,-0.069 6.82273,-2.62874 0.66139,-1.43303 0.61142,-2.86259 -0.166,-4.74983 -0.35872,-0.8708 -0.65276,-1.80282 -0.65343,-2.07116 -8e-4,-0.26832 -0.16797,-0.86204 -0.37178,-1.3194 -0.2038,-0.45733 -0.90464,-2.25646 -1.55742,-3.99806 -1.07778,-2.87552 -1.50249,-4.48218 -2.33679,-8.83996 -0.4711,-2.4607 -1.54627,-7.15659 -2.11462,-9.23578 -0.29755,-1.0885 -0.59568,-2.63219 -0.66252,-3.43043 -0.0668,-0.79823 -0.34017,-1.92632 -0.6074,-2.50685 -0.26722,-0.58054 -0.569,-1.58988 -0.67061,-2.24298 -0.25673,-1.65004 -1.79462,-4.98874 -3.52494,-7.6525 -0.80134,-1.23363 -1.74613,-2.77733 -2.09953,-3.43043 -0.3534,-0.6531 -0.80411,-1.42168 -1.00158,-1.70796 -0.19747,-0.28628 -0.35904,-0.9097 -0.35904,-1.38537 0,-0.47566 -0.11874,-0.86486 -0.26388,-0.86486 -0.14513,0 -0.26388,-0.24251 -0.26388,-0.53889 0,-0.59466 0.009,-0.58146 -1.77692,-2.59257 -0.69173,-0.77892 -1.37643,-1.61758 -1.52157,-1.86367 -0.14513,-0.24609 -0.57541,-0.8556 -0.95617,-1.35449 -1.2091,-1.58423 -1.97071,-3.24485 -2.04978,-4.46943 -0.0422,-0.6531 -0.18466,-1.31842 -0.31663,-1.47847 -0.13198,-0.16007 -0.30915,-1.22878 -0.39373,-2.37491 -0.11527,-1.56217 -0.39189,-2.64547 -1.10486,-4.32688 -0.52309,-1.23364 -1.04759,-2.35579 -1.16554,-2.49366 -0.11795,-0.13788 -0.21445,-0.86236 -0.21445,-1.60996 0,-0.94308 -0.20198,-1.73912 -0.6597,-2.59997 -0.36284,-0.6824 -0.6597,-1.57243 -0.6597,-1.97786 0,-0.76208 -0.63784,-2.27527 -1.07223,-2.54374 -0.13594,-0.084 -0.24717,-1.44775 -0.24717,-3.0305 0,-2.61182 -0.0637,-2.99189 -0.68958,-4.1129 -0.55825,-0.99995 -0.66615,-1.47912 -0.56651,-2.51606 0.0847,-0.88144 0.0117,-1.37334 -0.23399,-1.57726 -0.19639,-0.16298 -0.35707,-0.51929 -0.35707,-0.79177 0,-0.27251 -0.11875,-0.49546 -0.26388,-0.49546 -0.15034,0 -0.26388,-0.78088 -0.26388,-1.81486 0,-1.29127 -0.11419,-1.90962 -0.39582,-2.14333 -0.2177,-0.18068 -0.39582,-0.67021 -0.39582,-1.08782 0,-0.41764 -0.11874,-0.75934 -0.26388,-0.75934 -0.14513,0 -0.26388,-0.64608 -0.26388,-1.43577 0,-0.78966 -0.11874,-1.50915 -0.26388,-1.59884 -0.14513,-0.0897 -0.26388,-0.43026 -0.26388,-0.75678 0,-0.32653 -0.17434,-0.82418 -0.38742,-1.10592 -0.21309,-0.28172 -0.3912,-0.87991 -0.39582,-1.32929 -0.009,-0.83175 -0.63253,-2.34676 -1.08062,-2.62368 -0.15227,-0.0941 -0.24717,-19.84699 -0.24717,-51.44615 0,-33.91095 -0.0894,-51.34865 -0.26388,-51.45647 -0.14513,-0.0897 -0.26388,-0.39358 -0.26388,-0.67527 0,-0.28172 -0.11874,-0.51219 -0.26388,-0.51219 -0.16046,0 -0.26388,-1.17669 -0.26388,-3.00231 0,-2.34679 -0.0864,-3.07401 -0.39582,-3.33079 -0.2177,-0.18068 -0.39582,-0.55146 -0.39582,-0.82394 0,-0.27251 -0.11874,-0.49546 -0.26388,-0.49546 -0.1561,0 -0.26387,-0.9568 -0.26387,-2.34262 0,-1.76039 -0.0984,-2.42423 -0.39582,-2.67109 -0.2177,-0.18068 -0.39582,-0.55145 -0.39582,-0.82394 0,-0.2725 -0.11875,-0.49546 -0.26388,-0.49546 -0.15079,0 -0.26388,-0.79163 -0.26388,-1.84715 0,-1.05552 -0.11309,-1.84716 -0.26388,-1.84716 -0.14513,0 -0.26388,-0.34169 -0.26388,-0.75934 0,-0.41761 -0.17812,-0.90713 -0.39582,-1.08781 -0.27542,-0.22857 -0.39582,-0.83568 -0.39582,-1.99583 0,-0.91703 -0.11874,-1.74073 -0.26388,-1.83042 -0.14513,-0.0897 -0.26388,-0.37904 -0.26388,-0.64297 0,-0.26393 -0.17812,-0.62769 -0.39582,-0.80837 -0.2177,-0.18068 -0.39581,-0.72596 -0.39581,-1.21173 0,-0.4858 -0.2375,-1.30607 -0.52776,-1.82288 -0.29027,-0.51681 -0.52776,-1.21833 -0.52776,-1.559 0,-0.34064 -0.17812,-0.76718 -0.39582,-0.94785 -0.2177,-0.18068 -0.39582,-0.50784 -0.39582,-0.72702 0,-0.2192 -0.21658,-0.59059 -0.4813,-0.82531 -0.26471,-0.23472 -0.68032,-0.83093 -0.92358,-1.32491 -0.3982,-0.80866 -0.44228,-2.40621 -0.44228,-16.03067 0,-9.27971 0.096,-15.13253 0.24831,-15.13253 0.13657,0 0.32169,0.11875 0.41139,0.26388 0.0897,0.14513 0.33797,0.26388 0.55171,0.26388 0.21374,0 2.22352,1.84056 4.46618,4.09013 2.24266,2.24957 4.24303,4.09013 4.44527,4.09013 0.20223,0 0.51552,0.17812 0.6962,0.39582 0.18067,0.2177 0.46518,0.39582 0.63223,0.39582 0.16705,0 1.24812,0.94996 2.40238,2.11103 1.15426,1.16107 2.28855,2.11104 2.52064,2.11104 0.23209,0 0.70086,0.29686 1.04173,0.65969 0.34087,0.36284 0.74486,0.6597 0.89777,0.6597 0.37937,0 4.37982,4.00197 4.37982,4.38148 0,0.16706 0.17812,0.45155 0.39582,0.63223 0.2177,0.18068 0.39582,0.53304 0.39582,0.78306 0,0.25 0.23749,0.66946 0.52775,0.93216 0.29027,0.26269 0.52776,0.74759 0.52776,1.07757 0,0.32996 0.17812,0.77805 0.39582,0.99575 0.2177,0.2177 0.39582,0.56402 0.39582,0.76961 0,0.20556 0.24303,0.5937 0.54008,0.86251 0.29704,0.26884 0.71265,0.88096 0.92357,1.3603 0.21093,0.47936 0.5648,1.28211 0.78639,1.7839 0.22158,0.50182 0.51845,0.9838 0.6597,1.07109 0.14124,0.0873 0.25681,0.3456 0.25681,0.57399 0,0.22839 0.21534,0.60732 0.47854,0.84204 0.50592,0.45121 1.89638,3.0919 1.89638,3.6015 0,0.35835 1.46225,1.70704 1.85077,1.70704 0.14963,0 0.80747,0.49353 1.46187,1.09673 l 1.18983,1.09674 -0.11563,6.88561 c -0.13383,7.9699 -0.48861,13.25229 -0.91898,13.68268 -0.17432,0.17432 -0.30131,1.16877 -0.30131,2.35955 0,1.13205 -0.10729,2.05826 -0.23841,2.05826 -0.25012,0 -0.39202,1.00514 -0.77529,5.49165 -0.12784,1.49648 -0.36767,2.85612 -0.53295,3.02142 -0.21725,0.21725 -0.30051,4.2047 -0.30051,14.39314 v 14.09266 l 0.6597,0.78401 c 0.36284,0.43121 0.6597,0.953 0.6597,1.15957 0,0.20656 0.11875,0.37557 0.26388,0.37557 0.14513,0 0.26388,0.56998 0.26388,1.26663 0,0.69664 0.11801,1.38462 0.26224,1.52886 0.14423,0.14424 0.33172,1.02889 0.41664,1.9659 0.0849,0.93701 0.25167,1.94115 0.37056,2.23142 0.85076,2.07726 1.12258,2.50685 1.58616,2.50685 0.27489,0 0.57319,0.11875 0.66289,0.26388 0.10035,0.16237 2.29651,0.26388 5.70944,0.26388 h 5.54635 l 1.02801,-1.12149 c 0.5654,-0.61682 1.03117,-1.22189 1.03505,-1.34462 0.004,-0.12273 0.27424,-0.59526 0.60079,-1.05006 0.32655,-0.45479 0.71247,-1.02015 0.8576,-1.25635 0.14514,-0.2362 0.65696,-0.95116 1.13738,-1.58877 0.48042,-0.63758 1.04301,-1.39676 1.25021,-1.68703 1.61026,-2.25585 1.984,-2.82734 2.43799,-3.7279 1.09193,-2.166 1.41738,-2.73181 1.65618,-2.8794 0.13594,-0.084 0.24717,-0.38326 0.24717,-0.66495 0,-0.28172 0.11874,-0.51219 0.26388,-0.51219 0.14513,0 0.26388,-0.17786 0.26388,-0.39521 0,-0.21736 0.38592,-0.95952 0.8576,-1.64925 1.07128,-1.56647 1.39253,-2.09159 1.93014,-3.15502 0.23508,-0.46501 0.5946,-0.98422 0.79893,-1.15379 0.20434,-0.16959 0.37152,-0.47192 0.37152,-0.67183 0,-0.19994 0.11874,-0.36352 0.26388,-0.36352 0.14513,0 0.26388,-0.12392 0.26388,-0.27539 0,-0.15146 0.29686,-0.59555 0.65969,-0.98685 0.36284,-0.39131 0.6597,-0.86112 0.6597,-1.04402 0,-0.18289 0.10117,-0.33254 0.22482,-0.33254 0.59251,0 2.84819,-6.04856 3.59191,-9.63159 0.48538,-2.33855 0.71076,-3.29076 1.46767,-6.20117 0.28309,-1.0885 0.51533,-2.21658 0.51609,-2.50685 0.003,-0.59676 0.65405,-4.41441 1.19522,-6.9928 0.19801,-0.94337 0.43669,-2.48707 0.53042,-3.43043 0.0937,-0.94337 0.33864,-2.38547 0.54423,-3.20463 0.20558,-0.81919 0.37378,-2.00744 0.37378,-2.64054 0,-1.60249 0.40046,-2.83303 1.19023,-3.65739 0.53216,-0.55544 0.72092,-1.11138 0.90262,-2.65864 0.1264,-1.076 0.42744,-2.43133 0.66899,-3.01187 0.95366,-2.29195 1.86486,-3.80165 2.37774,-3.93948 1.33779,-0.35948 2.54915,-0.11721 4.52426,0.90487 2.28974,1.1849 2.64616,1.23477 4.44431,0.62207 2.75733,-0.93952 4.45845,-3.90225 3.85531,-6.71454 -0.39213,-1.82845 -2.00406,-5.68972 -2.91273,-6.97729 -0.41271,-0.58478 -0.99454,-1.80699 -1.29296,-2.71603 -0.29842,-0.90904 -1.02329,-2.55454 -1.61082,-3.65666 -0.58753,-1.10211 -1.25335,-2.7298 -1.47957,-3.61707 -0.50686,-1.98788 -1.36663,-3.34602 -2.6013,-4.10907 -0.62671,-0.38735 -0.94134,-0.77972 -0.94134,-1.17395 0,-0.32571 -0.30399,-0.87777 -0.67553,-1.22683 -0.5909,-0.55512 -2.7549,-4.70732 -2.7549,-5.286 0,-0.60627 -1.88418,-2.8509 -4.01893,-4.78775 -1.32254,-1.19997 -3.36549,-3.09565 -4.53986,-4.2126 l -2.13523,-2.03087 -1.71176,-0.0802 -1.71176,-0.0802 -0.0743,-3.10058 c -0.0425,-1.77219 -0.18381,-3.10058 -0.32985,-3.10058 -0.14052,0 -0.2555,-0.23047 -0.2555,-0.51219 0,-0.28169 -0.11875,-0.58557 -0.26388,-0.67527 -0.14513,-0.0897 -0.26388,-0.74131 -0.26388,-1.44806 0,-0.79035 -0.15236,-1.43733 -0.39582,-1.68078 -0.2177,-0.2177 -0.39582,-0.56402 -0.39582,-0.76961 0,-0.20556 -0.24303,-0.5937 -0.54007,-0.86251 -0.29704,-0.26884 -0.71265,-0.88096 -0.92358,-1.3603 -0.21093,-0.47936 -0.5648,-1.28211 -0.78638,-1.7839 -0.22159,-0.50182 -0.51845,-0.9838 -0.6597,-1.07109 -0.14125,-0.0873 -0.25682,-0.43033 -0.25682,-0.76232 0,-0.76565 -0.63113,-2.0409 -1.31744,-2.66199 -0.29134,-0.26367 -0.52972,-0.62085 -0.52972,-0.79375 0,-0.42144 -0.76237,-1.92951 -1.07222,-2.12101 -0.13595,-0.084 -0.24717,-0.38326 -0.24717,-0.66495 0,-0.28171 -0.11875,-0.51219 -0.26388,-0.51219 -0.14514,0 -0.27256,-0.2078 -0.28317,-0.46179 -0.0106,-0.25398 -0.24679,-0.81802 -0.52485,-1.25342 -0.27806,-0.4354 -0.57896,-0.96976 -0.66866,-1.18746 -0.57907,-1.40531 -0.94507,-2.10882 -1.16918,-2.24733 -0.14125,-0.0873 -0.25681,-0.80483 -0.25681,-1.59449 0,-0.78968 -0.11875,-1.43577 -0.26388,-1.43577 -0.14514,0 -0.26388,-0.23047 -0.26388,-0.51219 0,-0.28169 -0.11875,-0.58557 -0.26388,-0.67526 -0.14514,-0.0897 -0.26388,-0.9134 -0.26388,-1.83043 0,-1.16014 -0.1204,-1.76725 -0.39582,-1.99582 -0.2177,-0.18068 -0.39582,-0.5926 -0.39582,-0.91535 0,-0.75076 -0.63672,-2.0292 -1.31744,-2.64526 -0.29134,-0.26367 -0.52972,-0.69846 -0.52972,-0.96624 0,-0.26776 -0.11874,-0.48686 -0.26387,-0.48686 -0.14514,0 -0.26388,-0.22295 -0.26388,-0.49546 0,-0.27248 -0.17812,-0.64326 -0.39582,-0.82394 -0.2177,-0.18068 -0.39582,-0.55145 -0.39582,-0.82393 0,-0.27251 -0.11875,-0.49546 -0.26388,-0.49546 -0.14513,0 -0.26388,-0.22296 -0.26388,-0.49546 0,-0.27249 -0.17812,-0.64326 -0.39582,-0.82394 -0.2177,-0.18068 -0.39582,-0.6702 -0.39582,-1.08782 0,-0.41764 -0.11874,-0.75934 -0.26388,-0.75934 -0.14513,0 -0.27256,-0.2078 -0.28316,-0.46179 -0.0106,-0.25398 -0.24679,-0.81802 -0.52486,-1.25342 -0.27806,-0.4354 -0.57491,-0.96976 -0.65967,-1.18746 -0.0848,-0.2177 -0.26419,-0.60201 -0.39873,-0.85402 -0.13454,-0.25203 -0.24461,-0.86091 -0.24461,-1.35307 0,-0.49216 -0.17812,-1.04266 -0.39582,-1.22334 -0.2177,-0.18068 -0.39582,-0.47366 -0.39582,-0.65112 0,-0.17744 -0.23749,-0.53753 -0.52776,-0.80022 -0.29027,-0.26269 -0.52776,-0.8009 -0.52776,-1.19603 0,-0.39516 -0.17812,-0.86626 -0.39582,-1.04694 -0.2177,-0.18068 -0.39582,-0.66318 -0.39582,-1.07225 0,-0.40907 -0.11874,-0.81715 -0.26388,-0.90685 -0.14513,-0.0897 -0.26387,-0.49778 -0.26387,-0.90684 0,-0.40907 -0.17812,-0.89157 -0.39582,-1.07225 -0.2177,-0.18068 -0.39582,-0.6702 -0.39582,-1.08782 0,-0.41764 -0.11875,-0.75934 -0.26388,-0.75934 -0.14514,0 -0.26388,-0.21527 -0.26388,-0.47838 0,-0.58595 -1.31975,-1.89653 -1.90978,-1.89653 -0.23627,0 -0.51029,-0.26718 -0.60894,-0.59373 -0.25204,-0.83431 -1.44596,-2.04507 -2.0166,-2.04507 -0.26311,0 -0.47839,-0.11874 -0.47839,-0.26387 0,-0.14514 -0.21679,-0.26388 -0.48176,-0.26388 -0.26497,0 -0.76065,-0.29687 -1.10152,-0.6597 -0.34086,-0.36284 -0.83654,-0.6597 -1.10151,-0.6597 -0.26497,0 -0.48176,-0.11875 -0.48176,-0.26388 0,-0.14513 -0.21277,-0.26388 -0.47282,-0.26388 -0.26005,0 -1.00221,-0.54473 -1.64924,-1.21047 -0.64704,-0.66576 -1.73141,-1.4559 -2.40971,-1.75588 -1.45817,-0.64484 -1.7088,-1.26546 -0.90953,-2.25221 0.98672,-1.2182 1.36838,-1.96022 2.13409,-4.14916 0.84579,-2.4179 1.4429,-3.65866 3.14225,-6.52943 0.6653,-1.12394 1.28882,-2.37077 1.3856,-2.77073 0.0968,-0.39999 0.6081,-1.20223 1.13625,-1.78277 0.52815,-0.58053 1.57086,-2.06485 2.31712,-3.29849 0.99329,-1.64199 2.15928,-3.02073 4.3516,-5.14565 7.36316,-7.13677 7.75385,-7.47649 8.82071,-7.67031 2.40933,-0.43767 3.95642,-1.82404 4.56543,-4.09111 0.6378,-2.37422 -0.83762,-5.23177 -3.68391,-7.13485 l -0.63522,-0.42474 1.6408,-1.70872 c 0.90244,-0.93978 1.64081,-1.83251 1.64081,-1.98385 0,-0.1513 0.17811,-0.42294 0.39581,-0.60362 0.21771,-0.18068 0.39582,-0.49248 0.39582,-0.69289 0,-0.20042 1.42495,-1.77889 3.16656,-3.50773 1.7416,-1.7288 3.16655,-3.31308 3.16655,-3.52057 0,-0.20751 0.23749,-0.5922 0.52776,-0.85489 0.29026,-0.26269 0.52776,-0.62278 0.52776,-0.80021 0,-0.17746 0.17811,-0.47045 0.39581,-0.65112 0.2177,-0.18068 0.39582,-0.6416 0.39582,-1.02428 0,-0.55338 1.10703,-1.80179 5.40953,-6.10047 2.97524,-2.97257 5.40953,-5.55716 5.40953,-5.74349 0,-0.18632 0.26717,-0.44427 0.59372,-0.5732 0.32656,-0.1289 1.36215,-1.01657 2.30132,-1.97255 0.93918,-0.95601 1.85376,-1.73817 2.03238,-1.73817 0.17862,0 0.72838,-0.41561 1.22173,-0.92358 0.49332,-0.50797 1.06045,-0.92358 1.26029,-0.92358 0.51272,0 4.46513,-3.98753 4.46513,-4.50484 0,-0.23488 0.23836,-0.64278 0.52971,-0.90645 0.54499,-0.49322 1.30615,-1.83475 1.33203,-2.34771 0.008,-0.15912 0.3674,-0.56811 0.79858,-0.90885 0.77093,-0.60922 0.79594,-0.61149 1.50272,-0.13651 0.39529,0.26568 0.99947,0.63352 1.34261,0.81745 0.83487,0.44751 5.9037,0.45094 6.70236,0.004 0.87869,-0.49113 2.30535,-1.84193 2.30535,-2.18278 0,-0.16392 0.29686,-0.57695 0.6597,-0.9178 0.36283,-0.34085 0.6597,-0.83655 0.6597,-1.10151 0,-0.26496 0.11874,-0.48176 0.26388,-0.48176 0.15376,0 0.26388,-0.87442 0.26388,-2.09547 0,-1.15249 0.11122,-2.16421 0.24717,-2.24823 0.55417,-0.34249 1.07222,-1.89022 1.07222,-3.20344 0,-0.98319 0.19535,-1.76427 0.6597,-2.63755 0.40849,-0.76829 0.6597,-1.672 0.6597,-2.37331 0,-0.62292 0.11875,-1.20597 0.26388,-1.29567 0.14513,-0.0897 0.26388,-0.37903 0.26388,-0.64296 0,-0.26393 0.17812,-0.6277 0.39582,-0.80838 0.2177,-0.18067 0.39582,-0.55306 0.39582,-0.82753 0,-0.27446 0.11874,-0.7349 0.26388,-1.0232 0.14513,-0.2883 0.38262,-0.76006 0.52775,-1.04836 0.14514,-0.2883 0.26388,-1.23125 0.26388,-2.09546 0,-0.86421 0.11123,-1.64003 0.24718,-1.72404 0.32452,-0.20057 1.07222,-1.70815 1.07222,-2.16191 0,-0.1954 0.0959,-0.35527 0.21311,-0.35527 0.30523,0 1.10629,-1.9107 1.10629,-2.6388 0,-0.7281 0.80106,-2.63879 1.10628,-2.63879 0.11722,0 0.21311,-0.1433 0.21311,-0.31843 0,-0.6184 2.68044,-5.7161 3.40336,-6.47258 0.93912,-0.98262 1.61035,-2.33161 1.61035,-3.23633 0,-0.7403 0.64421,-2.25265 1.07222,-2.51718 0.13595,-0.084 0.24718,-0.79184 0.24718,-1.57295 0,-0.7811 0.11874,-1.49357 0.26388,-1.58327 0.14513,-0.0897 0.26388,-0.3468 0.26388,-0.57133 0,-0.22453 0.29686,-0.64175 0.65969,-0.92715 0.36284,-0.28541 0.6597,-0.74079 0.6597,-1.01195 0,-0.27117 0.11875,-0.56643 0.26388,-0.65612 0.14514,-0.0897 0.26388,-0.50531 0.26388,-0.92358 0,-0.41827 0.11123,-0.82924 0.24718,-0.91325 0.41606,-0.25715 1.07222,-1.76809 1.07222,-2.46906 0,-0.76553 0.79111,-2.68692 1.10629,-2.68692 0.11721,0 0.21311,-0.62476 0.21311,-1.38836 v -1.38837 l 4.28803,-4.22213 c 4.17447,-4.11029 5.08876,-4.87571 5.82411,-4.87571 0.44588,0 1.76243,-1.45258 1.76243,-1.9445 0,-0.20118 0.17811,-0.51362 0.39581,-0.69429 0.21771,-0.18068 0.39582,-0.72536 0.39582,-1.21041 0,-0.48504 0.30262,-1.42396 0.6725,-2.08647 0.60418,-1.08218 0.66801,-1.46539 0.62827,-3.77164 -0.0375,-2.17812 0.0405,-2.71792 0.51496,-3.56265 0.55652,-0.99085 0.55919,-1.09452 0.55919,-21.82599 0,-20.52145 -0.008,-20.84473 -0.54183,-21.79508 -0.51525,-0.91737 -0.54079,-1.3628 -0.52118,-9.08645 0.0177,-6.94531 -0.0377,-8.18007 -0.38176,-8.52417 -0.22131,-0.22131 -0.40239,-0.58198 -0.40239,-0.80148 0,-0.2195 -0.11874,-0.47248 -0.26388,-0.56218 -0.16044,-0.0992 -0.26388,-2.06461 -0.26388,-5.01371 0,-2.73048 -0.10803,-4.91739 -0.24717,-5.00338 -0.50908,-0.31463 -1.07222,-1.84457 -1.07222,-2.913 0,-1.06842 -0.56315,-2.59837 -1.07222,-2.913 -0.13595,-0.084 -0.24718,-0.61372 -0.24718,-1.17713 0,-0.5634 -0.11875,-1.09776 -0.26388,-1.18745 -0.14513,-0.0897 -0.26388,-0.37904 -0.26388,-0.64297 0,-0.26393 -0.17812,-0.6277 -0.39582,-0.80837 -0.27612,-0.22916 -0.39582,-0.83741 -0.39582,-2.01141 0,-0.94601 -0.11555,-1.6829 -0.26388,-1.6829 -0.14513,0 -0.27256,-0.20781 -0.28316,-0.46179 -0.0106,-0.25398 -0.24678,-0.81803 -0.52486,-1.25343 -0.27805,-0.4354 -0.57491,-0.96975 -0.65967,-1.18745 -0.0848,-0.21771 -0.26417,-0.60202 -0.39872,-0.85403 -0.13453,-0.25202 -0.24462,-1.5809 -0.24462,-2.95307 0,-1.37218 -0.11123,-2.5636 -0.24718,-2.64762 -0.49269,-0.3045 -1.07222,-1.82958 -1.07222,-2.821606 0,-0.558236 -0.11874,-1.014974 -0.26388,-1.014974 -0.14513,0 -0.26388,-0.341698 -0.26388,-0.759329 0,-0.417629 -0.17811,-0.907151 -0.39581,-1.087827 -0.28499,-0.236526 -0.39582,-0.862226 -0.39582,-2.234744 0,-1.806278 -0.43728,-3.320444 -1.07222,-3.712869 -0.13596,-0.08402 -0.24718,-1.207454 -0.24718,-2.496526 0,-1.289072 -0.11875,-2.417156 -0.26388,-2.506854 -0.14513,-0.0897 -0.26388,-0.505308 -0.26388,-0.923577 0,-0.41827 -0.11874,-0.83388 -0.26388,-0.923578 -0.15194,-0.0939 -0.26388,-1.491773 -0.26388,-3.295217 0,-2.432276 -0.0884,-3.220574 -0.39582,-3.527948 -0.2177,-0.217701 -0.39582,-0.575413 -0.39582,-0.794913 0,-0.219503 -0.11874,-0.472484 -0.26388,-0.562182 -0.15291,-0.09452 -0.26387,-1.536846 -0.26387,-3.430431 0,-1.79704 -0.11123,-3.336087 -0.24718,-3.420104 -0.5689,-0.351598 -1.07222,-1.903232 -1.07222,-3.305381 0,-0.824315 0.0745,-1.573289 0.16564,-1.664385 0.25176,-0.251786 1.15376,1.677499 1.15376,2.467837 0,0.727818 0.64792,2.239699 1.07222,2.501929 0.13595,0.08402 0.24717,0.49498 0.24717,0.91325 0,0.41827 0.11875,0.83388 0.26388,0.923578 0.14514,0.0897 0.26388,0.39357 0.26388,0.675272 0,0.281702 0.11875,0.512185 0.26388,0.512185 0.14513,0 0.26388,0.230482 0.26388,0.512184 0,0.281702 0.11122,0.580928 0.24718,0.664944 0.53206,0.328834 1.07222,1.866963 1.07222,3.053172 0,0.78612 0.14619,1.367879 0.39582,1.575045 0.2177,0.180676 0.39581,0.670198 0.39581,1.087827 0,0.417631 0.11875,0.759329 0.26388,0.759329 0.14514,0 0.26388,0.456738 0.26388,1.014975 0,0.99202 0.57953,2.517108 1.07222,2.821603 0.13595,0.08402 0.24718,0.383243 0.24718,0.664945 0,0.281701 0.11875,0.512184 0.26388,0.512184 0.14513,0 0.26388,0.230483 0.26388,0.512185 0,0.281701 0.11122,0.580927 0.24717,0.664944 0.30798,0.190344 1.07222,1.698488 1.07222,2.115906 0,0.170105 0.29687,0.588169 0.6597,0.929035 0.40181,0.377487 0.6597,0.911233 0.6597,1.365393 0,0.410103 0.11875,0.745641 0.26388,0.745641 0.14513,0 0.26388,0.222952 0.26388,0.49545 0,0.272495 0.17812,0.643272 0.39582,0.823947 0.2177,0.180676 0.39582,0.66319 0.39582,1.072255 0,0.409064 0.11874,0.817142 0.26388,0.90684 0.14513,0.0897 0.26388,0.624054 0.26388,1.187457 0,0.563404 0.11874,1.09776 0.26388,1.187457 0.14513,0.0897 0.26388,0.497777 0.26388,0.90684 0,0.409066 0.17811,0.89158 0.39581,1.072256 0.28587,0.23724 0.39582,0.864999 0.39582,2.25971 0,1.06217 0.11875,2.0046 0.26388,2.0943 0.14514,0.0897 0.26388,0.34268 0.26388,0.56218 0,0.2195 0.18398,0.58307 0.40883,0.80792 0.29871,0.29871 0.39571,0.88 0.36014,2.15816 -0.0379,1.3619 0.0761,1.97026 0.51475,2.7469 0.4349,0.77 0.56344,1.44368 0.56344,2.95307 0,1.07552 0.11122,2.02424 0.24717,2.10825 0.74939,0.46315 1.07222,1.89639 1.07222,4.76016 0,2.86377 0.32283,4.29701 1.07223,4.76016 0.13595,0.084 0.24717,0.6801 0.24717,1.32464 0,0.64453 0.11875,1.17188 0.26388,1.17188 0.14513,0 0.26388,0.3417 0.26388,0.75933 0,0.41763 0.17812,0.90715 0.39582,1.08783 0.26987,0.22397 0.39582,0.82315 0.39582,1.88304 0,0.855 0.11874,1.79043 0.26388,2.07873 0.14513,0.2883 0.38262,0.76006 0.52776,1.04835 0.14513,0.2883 0.26388,1.34247 0.26388,2.34261 0,1.29446 0.11404,1.91308 0.39581,2.14692 0.2177,0.18068 0.39582,0.55146 0.39582,0.82395 0,0.2725 0.11875,0.49545 0.26388,0.49545 0.14833,0 0.26388,0.73689 0.26388,1.68291 0,1.17399 0.1197,1.78224 0.39582,2.0114 0.2177,0.18068 0.39582,0.66319 0.39582,1.07226 0,0.40906 0.11875,0.81714 0.26388,0.90684 0.14513,0.0897 0.26388,1.14717 0.26388,2.34994 0,2.08726 0.4003,3.57822 1.07222,3.99349 0.13595,0.084 0.24718,1.0181 0.24718,2.07574 0,1.82298 0.4349,3.33571 1.07222,3.7296 0.3219,0.19895 0.3219,2.68307 0,2.88202 -0.13593,0.084 -0.43279,0.52488 -0.6597,0.9797 -0.36426,0.73017 -0.41252,3.41409 -0.41252,22.93668 0,14.45519 0.0913,22.16621 0.26387,22.27283 0.14514,0.0897 0.26388,0.37904 0.26388,0.64297 0,0.26393 0.17812,0.6277 0.39582,0.80837 0.33619,0.27901 0.39582,1.55486 0.39582,8.46842 0,7.6508 0.0317,8.19639 0.52776,9.07956 0.41144,0.73254 0.52776,1.42876 0.52776,3.159 0,1.22066 0.11558,2.2908 0.25681,2.3781 0.22411,0.13851 0.59011,0.84202 1.16917,2.24734 0.0897,0.2177 0.39062,0.75205 0.66867,1.18746 0.27807,0.4354 0.51425,1.22992 0.52485,1.76561 0.0106,0.53568 0.13804,1.04736 0.28317,1.13706 0.14514,0.0897 0.26388,0.37903 0.26388,0.64296 0,0.26393 0.17812,0.6277 0.39582,0.80837 0.31283,0.25963 0.39582,1.01333 0.39582,3.59468 0,2.00154 0.10217,3.26619 0.26388,3.26619 0.14513,0 0.26388,0.21419 0.26388,0.47599 0,0.48854 1.25493,1.77359 2.30535,2.36071 0.70686,0.39507 4.97843,0.44911 5.21521,0.066 0.0897,-0.14513 0.35104,-0.26388 0.58075,-0.26388 0.50601,0 1.9261,-1.43354 1.9261,-1.94438 0,-0.20125 0.17812,-0.51374 0.39582,-0.69441 0.33732,-0.27994 0.39582,-1.62455 0.39582,-9.09561 0,-7.42226 0.0633,-8.89395 0.41252,-9.59404 0.22691,-0.45481 0.52378,-0.89567 0.6597,-0.97969 0.13595,-0.084 0.24718,-1.20746 0.24718,-2.49653 0,-1.28907 0.11874,-2.41715 0.26388,-2.50685 0.14513,-0.0897 0.26388,-0.39357 0.26388,-0.67527 0,-0.80589 0.85103,-0.61635 1.84715,0.41139 0.49235,0.50797 1.10938,0.92358 1.37117,0.92358 0.27233,0 0.47599,0.1922 0.47599,0.44922 0,0.6035 1.56668,2.18957 2.16281,2.18957 0.27155,0 0.47598,0.19214 0.47598,0.44735 0,0.58817 1.29538,1.92756 1.8642,1.92756 0.24536,0 0.59392,0.17812 0.77459,0.39582 0.18068,0.2177 0.49209,0.39582 0.692,0.39582 0.19994,0 0.36352,0.14965 0.36352,0.33255 0,0.1829 0.29687,0.6527 0.6597,1.044 0.36283,0.3913 0.6597,0.87254 0.6597,1.06942 0,0.47077 1.29195,1.66866 2.04506,1.89618 0.32655,0.0986 0.59373,0.38664 0.59373,0.63997 0,0.25334 0.3608,0.80628 0.8018,1.22878 0.81507,0.7809 1.57312,2.05172 1.57312,2.63729 0,0.17763 0.17811,0.47079 0.39582,0.65147 0.27612,0.22916 0.39581,0.83741 0.39581,2.0114 0,0.94602 0.11556,1.68291 0.26388,1.68291 0.14514,0 0.26388,0.23048 0.26388,0.51218 0,0.28171 0.11875,0.58558 0.26388,0.67528 0.14514,0.0897 0.26388,1.03213 0.26388,2.09429 0,1.39472 0.10996,2.02248 0.39582,2.25972 0.2177,0.18067 0.39582,0.54444 0.39582,0.80837 0,0.26393 0.11875,0.55326 0.26388,0.64296 0.15455,0.0955 0.26388,1.61923 0.26388,3.67758 0,2.80206 0.0802,3.58107 0.39582,3.84298 0.2177,0.18068 0.39582,0.55146 0.39582,0.82395 0,0.2725 0.11874,0.49545 0.26388,0.49545 0.14513,0 0.26387,0.58016 0.26387,1.28923 0,0.70908 0.15414,1.58635 0.34255,1.94949 0.60259,1.16152 1.62322,2.29788 2.06604,2.30035 0.2362,10e-4 0.57729,0.18052 0.75797,0.39822 0.46793,0.56383 4.54577,0.56383 5.0137,0 0.18068,-0.2177 0.49317,-0.39582 0.6944,-0.39582 0.51085,0 1.9444,-1.42009 1.9444,-1.92612 0,-0.22971 0.11874,-0.49104 0.26388,-0.58074 0.1692,-0.10457 0.26388,-4.17564 0.26388,-11.34681 0,-7.17117 -0.0947,-11.24224 -0.26388,-11.34681 -0.14514,-0.0897 -0.26388,-0.29552 -0.26388,-0.45739 0,-0.16187 0.29686,-0.0154 0.6597,0.32545 0.36283,0.34087 0.65969,0.75245 0.65969,0.91463 0,0.16219 0.53436,0.81931 1.18746,1.46028 0.6531,0.64097 1.18746,1.37817 1.18746,1.63822 0,0.26005 0.11874,0.47282 0.26388,0.47282 0.14513,0 0.26388,0.22295 0.26388,0.49545 0,0.27249 0.17812,0.64327 0.39582,0.82395 0.2177,0.18067 0.39582,0.55145 0.39582,0.82394 0,0.2725 0.11874,0.49545 0.26387,0.49545 0.14514,0 0.26388,0.52735 0.26388,1.17188 0,0.64454 0.10846,1.23891 0.24098,1.32083 0.30412,0.18794 1.60618,2.78223 1.60618,3.2002 0,0.17143 0.17812,0.45952 0.39582,0.6402 0.2177,0.18067 0.39582,0.67019 0.39582,1.08782 0,0.41763 0.11874,0.75933 0.26388,0.75933 0.14513,0 0.26388,0.22295 0.26388,0.49545 0,0.2725 0.17811,0.64327 0.39582,0.82395 0.26986,0.22397 0.39581,0.82315 0.39581,1.88304 0,1.63139 0.23723,2.25865 1.31254,3.47067 0.62336,0.70261 1.92648,1.50715 2.44117,1.50715 0.13321,0 0.42031,0.17812 0.63801,0.39582 0.55927,0.55928 4.3799,0.55928 4.84406,0 0.18068,-0.2177 0.51528,-0.39582 0.74353,-0.39582 0.57083,0 1.89526,-1.31443 1.89526,-1.88095 0,-0.25455 0.11875,-0.5362 0.26388,-0.6259 0.15955,-0.0986 0.26388,-1.97665 0.26388,-4.74983 0,-2.77319 -0.10433,-4.65122 -0.26388,-4.74983 -0.14513,-0.0897 -0.26388,-0.39357 -0.26388,-0.67527 0,-0.2817 -0.11874,-0.51219 -0.26387,-0.51219 -0.14514,0 -0.26388,-0.22295 -0.26388,-0.49545 0,-0.27249 -0.17812,-0.64327 -0.39582,-0.82394 -0.2177,-0.18068 -0.39582,-0.50381 -0.39582,-0.71808 0,-0.48121 -1.50417,-1.92072 -2.00702,-1.92072 -0.20234,0 -0.3679,-0.1866 -0.3679,-0.41466 0,-0.22807 -0.17811,-0.59279 -0.39582,-0.81049 -0.2177,-0.2177 -0.39581,-0.77963 -0.39581,-1.24874 0,-0.8281 -1.20308,-3.63805 -1.6335,-3.81523 -0.1175,-0.0484 -0.21366,-0.22827 -0.21366,-0.39975 0,-0.73956 -1.63539,-3.55601 -2.62085,-4.51358 -0.5904,-0.57371 -1.07346,-1.17642 -1.07346,-1.33937 0,-0.16295 -0.29686,-0.57516 -0.6597,-0.91602 -0.36283,-0.34087 -0.6597,-0.79293 -0.6597,-1.0046 0,-0.21166 -0.21659,-0.57688 -0.48129,-0.81161 -0.82021,-0.72728 -1.36586,-2.1628 -1.36586,-3.59332 0,-1.46123 -0.45665,-2.64965 -1.31745,-3.42866 -0.47516,-0.43003 -0.74746,-1.45311 -0.38674,-1.45311 0.42743,0 5.3985,5.3193 5.3985,5.77668 0,0.29067 0.29686,1.08683 0.6597,1.76922 0.36283,0.6824 0.6597,1.5199 0.6597,1.86112 0,0.34122 0.11874,0.6204 0.26387,0.6204 0.14514,0 0.26388,0.21419 0.26388,0.47599 0,0.2618 0.41561,0.87882 0.92358,1.37116 0.50797,0.49234 0.92358,1.03546 0.92358,1.20691 0,0.17146 0.17812,0.45957 0.39582,0.64025 0.2177,0.18067 0.39582,0.55145 0.39582,0.82395 0,0.27249 0.11874,0.49545 0.26388,0.49545 0.14513,0 0.26388,0.22295 0.26388,0.49544 0,0.2725 0.17811,0.64328 0.39581,0.82395 0.21771,0.18068 0.39582,0.55145 0.39582,0.82395 0,0.2725 0.11875,0.49545 0.26388,0.49545 0.14514,0 0.26388,0.53435 0.26388,1.18746 0,0.6531 0.11875,1.18745 0.26388,1.18745 0.14514,0 0.26388,0.22295 0.26388,0.49545 0,0.2725 0.17812,0.64327 0.39582,0.82395 0.22538,0.18705 0.39582,0.76238 0.39582,1.33613 0,0.5542 0.11875,1.08103 0.26388,1.17072 0.14513,0.0897 0.26388,0.34187 0.26388,0.56037 0,0.42631 1.26337,1.59247 2.31794,2.13959 0.90574,0.4699 4.78735,0.43555 5.76268,-0.051 0.8186,-0.40837 1.86079,-1.46738 2.40858,-2.44746 0.51259,-0.9171 0.44868,-7.66664 -0.0827,-8.73178 -0.22691,-0.45481 -0.52378,-0.89567 -0.6597,-0.97969 -0.13595,-0.084 -0.24718,-0.72124 -0.24718,-1.41604 0,-1.36298 -0.47419,-2.55855 -1.31744,-3.32169 -0.29135,-0.26366 -0.52971,-0.7396 -0.52971,-1.05764 0,-0.63253 -0.67843,-2.14151 -1.07222,-2.38489 -0.13595,-0.084 -0.24718,-0.36484 -0.24718,-0.62405 0,-0.25921 -0.23836,-0.68701 -0.52971,-0.95067 -0.7957,-0.72011 -1.31744,-1.93722 -1.31744,-3.07338 0,-0.55824 -0.11875,-1.01498 -0.26388,-1.01498 -0.14514,0 -0.26388,-0.23048 -0.26388,-0.51218 0,-0.2817 -0.11123,-0.58093 -0.24718,-0.66495 -0.29256,-0.18081 -1.07222,-1.68975 -1.07222,-2.07516 0,-0.14769 -0.19907,-0.48848 -0.44237,-0.75733 -0.33436,-0.36948 -0.36798,-0.56316 -0.13769,-0.79346 0.23029,-0.23029 0.41878,-0.1757 0.77222,0.22366 0.60476,0.68337 2.09333,1.41287 2.88299,1.41287 0.40943,0 0.61916,0.1536 0.61916,0.45349 0,0.58448 2.61568,3.24082 3.1912,3.24082 0.24116,0 0.58631,0.17812 0.76699,0.39582 0.47153,0.56817 5.06994,0.56817 5.54147,0 0.18068,-0.2177 0.49316,-0.39582 0.6944,-0.39582 0.51084,0 1.94439,-1.42008 1.94439,-1.92612 0,-0.22971 0.11875,-0.49104 0.26388,-0.58073 0.43604,-0.26949 0.32096,-4.42241 -0.14864,-5.36374 -0.22691,-0.45482 -0.52378,-0.89568 -0.6597,-0.9797 -0.13595,-0.084 -0.24718,-0.32489 -0.24718,-0.53528 0,-0.57401 -1.33739,-1.96124 -1.89077,-1.96124 -0.29607,0 -0.48414,-0.19066 -0.48414,-0.4908 0,-0.26994 -0.29686,-0.71373 -0.6597,-0.98621 -0.36283,-0.27247 -0.6597,-0.68402 -0.6597,-0.91454 0,-0.23052 -0.29686,-0.69802 -0.6597,-1.03888 -0.36283,-0.34087 -0.65969,-0.7598 -0.65969,-0.93096 0,-0.39994 -5.25674,-5.66603 -5.65597,-5.66603 -0.16563,0 -0.88597,-0.59373 -1.60072,-1.31939 -0.71474,-0.72567 -1.51181,-1.3194 -1.77126,-1.3194 -0.25945,0 -0.47171,-0.11875 -0.47171,-0.26388 0,-0.14513 -0.21187,-0.26388 -0.47081,-0.26388 -0.25892,0 -1.11983,-0.65845 -1.91313,-1.46322 -1.33768,-1.35708 -2.60628,-2.23109 -3.23833,-2.23109 -0.145,0 -0.95862,-0.71247 -1.80804,-1.58328 -0.84946,-0.8708 -1.70123,-1.58327 -1.89284,-1.58327 -0.19163,0 -0.62729,-0.29687 -0.96814,-0.6597 -0.34086,-0.36283 -0.83655,-0.6597 -1.10152,-0.6597 -0.28549,0 -0.48176,-0.19083 -0.48176,-0.46839 0,-0.25762 -0.87447,-1.33703 -1.94326,-2.39869 -1.79042,-1.77846 -2.54419,-2.3701 -3.59821,-2.82423 -1.73872,-0.74914 -2.11103,-0.97173 -2.11103,-1.26211 0,-0.36848 -1.38985,-1.70468 -2.30536,-2.21639 -0.32459,-0.18141 -1.06676,-0.32985 -1.64924,-0.32985 -0.58252,0 -1.05911,-0.11874 -1.05911,-0.26387 0,-0.14514 -0.19474,-0.26388 -0.43279,-0.26388 -0.23802,0 -1.59639,-1.14323 -3.01857,-2.5405 -1.4222,-1.39727 -2.85786,-2.67613 -3.19035,-2.84191 -0.33251,-0.16577 -0.74446,-0.58196 -0.9154,-0.92487 -0.17096,-0.34292 -1.09359,-1.41227 -2.05026,-2.37634 -0.9567,-0.96407 -1.73944,-1.93156 -1.73944,-2.14996 0,-0.21841 -0.41561,-0.78912 -0.92358,-1.26825 -0.50797,-0.47913 -0.92358,-1.02507 -0.92358,-1.21321 0,-0.18814 -0.17811,-0.48989 -0.39581,-0.67057 -0.21771,-0.18067 -0.39582,-0.55145 -0.39582,-0.82395 0,-0.27249 -0.11875,-0.49545 -0.26388,-0.49545 -0.14514,0 -0.26388,-0.22295 -0.26388,-0.49545 0,-0.27249 -0.17812,-0.64327 -0.39582,-0.82394 -0.2177,-0.18068 -0.39582,-0.46879 -0.39582,-0.64025 0,-0.17146 -0.41561,-0.71457 -0.92358,-1.20691 -0.80124,-0.77659 -0.92358,-1.06184 -0.92358,-2.15343 0,-0.85239 -0.21361,-1.64087 -0.66217,-2.44433 l -0.66216,-1.18606 0.008,-26.05061 c 0.005,-17.35109 -0.0823,-26.14041 -0.26143,-26.319529 -0.1479,-0.147909 -0.26892,-0.594406 -0.26892,-0.992215 0,-0.397809 -0.11875,-0.796678 -0.26388,-0.886376 -0.15455,-0.09552 -0.26388,-1.619227 -0.26388,-3.677573 0,-2.802069 -0.0802,-3.581078 -0.39582,-3.842989 -0.2177,-0.180675 -0.39582,-0.551452 -0.39582,-0.823947 0,-0.272498 -0.11874,-0.495449 -0.26388,-0.495449 -0.1612,0 -0.26387,-1.226783 -0.26387,-3.152591 0,-2.855982 -0.0621,-3.269319 -0.6597,-4.393308 -0.62593,-1.177182 -0.6597,-1.460894 -0.6597,-5.539857 0,-2.581447 -0.10542,-4.364295 -0.26388,-4.462221 -0.14513,-0.0897 -0.26388,-0.379031 -0.26388,-0.64296 0,-0.263932 -0.17812,-0.627701 -0.39582,-0.808376 -0.31283,-0.259623 -0.39582,-1.013328 -0.39582,-3.594681 0,-2.001535 -0.10217,-3.266182 -0.26388,-3.266182 -0.14513,0 -0.26388,-0.230483 -0.26388,-0.512185 0,-0.281701 -0.11874,-0.585574 -0.26388,-0.675272 -0.15793,-0.0976 -0.26388,-1.839126 -0.26388,-4.337272 0,-3.388466 -0.0745,-4.23602 -0.39581,-4.502686 -0.21771,-0.180676 -0.39582,-0.551453 -0.39582,-0.823948 0,-0.272497 -0.11875,-0.495449 -0.26388,-0.495449 -0.17311,0 -0.26388,-5.673406 -0.26388,-16.492459 V 18.959616 l -3.62834,-5.81e-4 c -1.99559,-3.16e-4 -5.82514,-0.113064 -8.51011,-0.250539 -2.68497,-0.137476 -6.36609,-0.314295 -8.18026,-0.392931 -1.81417,-0.07864 -5.67341,-0.27868 -8.57608,-0.444542 -2.90267,-0.165861 -6.82128,-0.255957 -8.70802,-0.200213 -4.80089,0.141842 -17.46443,0.0049 -18.73543,-0.202541 -0.58054,-0.09477 -31.63254,-0.220424 -69.00445,-0.279234 -52.98388,-0.08338 -68.8788,-0.03382 -72.171,0.225016 -4.81908,0.378881 -4.56603,0.374619 -11.61069,0.195564 -7.05092,-0.179213 -9.26571,-0.06013 -9.53235,0.512526 -0.11311,0.242913 -0.27077,3.905123 -0.35036,8.138246 -0.13842,7.361938 -0.1685,7.717619 -0.69197,8.18026 -0.88274,0.78004 -1.43196,2.180194 -1.43196,3.650221 0,1.290713 -0.52178,2.836685 -1.07223,3.176881 -0.13595,0.08402 -0.24717,0.383242 -0.24717,0.664944 0,0.281702 -0.11875,0.512185 -0.26388,0.512185 -0.14513,0 -0.26765,0.32655 -0.27227,0.725668 -0.005,0.399117 -0.18274,0.956169 -0.39582,1.237892 -0.21308,0.281723 -0.38743,0.779384 -0.38743,1.105913 0,0.32653 -0.11874,0.667079 -0.26388,0.756777 -0.14513,0.0897 -0.26388,0.393571 -0.26388,0.675273 0,0.281701 -0.11874,0.512184 -0.26387,0.512184 -0.14514,0 -0.26388,0.519816 -0.26388,1.155148 0,0.704874 -0.15429,1.283192 -0.39582,1.483646 -0.2177,0.180675 -0.39582,0.670198 -0.39582,1.087826 0,0.417632 -0.11875,0.759329 -0.26388,0.759329 -0.39247,0 -0.34507,7.001893 0.0517,7.637233 0.39911,0.639076 -0.17111,1.77637 -1.96719,3.923532 -1.70744,2.041181 -2.27573,3.417707 -2.57398,6.234741 -0.20186,1.90665 -0.44107,2.755486 -1.18034,4.188467 -0.50995,0.98846 -0.92718,1.924406 -0.92718,2.079876 0,0.155472 -0.41561,0.674644 -0.92357,1.15372 -0.50797,0.479076 -0.92358,1.036439 -0.92358,1.238586 0,0.202148 -0.29686,0.646431 -0.6597,0.987297 -0.36283,0.340866 -0.6597,0.78977 -0.6597,0.997567 0,0.2078 -0.29686,0.611326 -0.6597,0.896733 -0.36283,0.285407 -0.65969,0.740783 -0.65969,1.011951 0,0.271168 -0.11875,0.566422 -0.26388,0.65612 -0.14514,0.0897 -0.26388,0.505308 -0.26388,0.923578 0,0.41827 -0.11906,0.834072 -0.26458,0.924008 -0.14551,0.08993 -0.49253,0.663925 -0.77116,1.275537 -0.27862,0.611614 -0.75329,1.33529 -1.05482,1.608173 -0.30153,0.27288 -0.54824,0.637617 -0.54824,0.810527 0,0.421436 -0.76237,1.929504 -1.07222,2.121006 -0.13595,0.08402 -0.24717,0.333768 -0.24717,0.555005 0,0.221233 -0.41561,0.805855 -0.92358,1.299159 -0.50797,0.493304 -0.92358,0.999517 -0.92358,1.124918 0,0.353736 -0.79577,1.863764 -1.07222,2.034626 -0.13595,0.08402 -0.24717,0.49498 -0.24717,0.913249 0,0.41827 -0.11875,0.83388 -0.26388,0.923578 -0.14514,0.0897 -0.26388,0.393571 -0.26388,0.675273 0,0.281701 -0.11875,0.512184 -0.26388,0.512184 -0.14514,0 -0.26388,0.219089 -0.26388,0.48686 0,0.267774 -0.23906,0.70321 -0.53125,0.967632 -0.29219,0.26443 -0.79686,1.025 -1.12149,1.69015 -0.32463,0.66515 -0.97513,1.62498 -1.44556,2.13295 -0.47042,0.50796 -0.85635,1.0536 -0.8576,1.21252 -0.001,0.15893 -0.23675,0.50114 -0.52331,0.76048 -0.28657,0.25933 -0.59864,0.71604 -0.69349,1.0149 -0.0949,0.29886 -0.69162,1.04081 -1.32613,1.64876 -0.63452,0.60796 -1.15367,1.27704 -1.15367,1.48685 0,0.20981 -0.29687,0.66036 -0.6597,1.00123 -0.36284,0.34086 -0.6597,0.76848 -0.6597,0.95025 0,0.33528 -1.40526,1.16078 -1.97602,1.16078 -0.41202,0 -1.71829,1.47824 -1.71829,1.9445 0,0.20119 -0.17812,0.51362 -0.39582,0.6943 -0.30234,0.25092 -0.39582,0.93644 -0.39582,2.90267 0,2.04053 -0.0877,2.647 -0.42331,2.92549 -0.23282,0.19322 -0.5294,0.59368 -0.65907,0.88991 -0.12966,0.29624 -0.33633,0.71673 -0.45925,0.93443 -0.68029,1.20482 -0.83328,1.66156 -0.83328,2.4877 0,0.50137 -0.11123,0.98032 -0.24717,1.06434 -0.47388,0.29287 -1.07223,1.81326 -1.07223,2.72448 0,0.70713 -0.21203,1.11781 -0.92358,1.78889 -0.50797,0.47907 -0.92358,1.05013 -0.92358,1.26901 0,0.21888 -0.11122,0.46671 -0.24717,0.55072 -0.32451,0.20057 -1.07222,1.70815 -1.07222,2.16191 0,0.1954 -0.11875,0.35528 -0.26388,0.35528 -0.34766,0 -0.34766,-4.13915 0,-4.35401 0.14513,-0.0897 0.26388,-0.39357 0.26388,-0.67527 0,-0.28171 0.11874,-0.51219 0.26388,-0.51219 0.1582,0 0.26388,-1.04923 0.26388,-2.61994 0,-1.977 0.0971,-2.71709 0.39582,-3.01577 0.2177,-0.2177 0.39581,-0.57541 0.39581,-0.79491 0,-0.2195 0.11875,-0.47248 0.26388,-0.56218 0.15793,-0.0976 0.26388,-1.83913 0.26388,-4.33727 0,-3.38847 0.0745,-4.23602 0.39582,-4.50269 0.2177,-0.18068 0.39582,-0.55145 0.39582,-0.82395 0,-0.2725 0.11875,-0.49545 0.26388,-0.49545 0.16055,0 0.26388,-1.18226 0.26388,-3.01904 0,-1.72805 0.11284,-3.08877 0.26388,-3.18212 0.14513,-0.0897 0.26388,-0.49778 0.26388,-0.90684 0,-0.40907 0.17812,-0.89158 0.39582,-1.07226 0.33642,-0.2792 0.39582,-1.56867 0.39582,-8.592814 0,-5.224898 0.097,-8.324293 0.26388,-8.427401 0.14513,-0.0897 0.26388,-0.497777 0.26388,-0.90684 0,-0.409066 0.17811,-0.89158 0.39581,-1.072255 0.21771,-0.180676 0.39582,-0.670199 0.39582,-1.087827 0,-0.417631 0.11875,-0.759329 0.26388,-0.759329 0.14514,0 0.26388,-0.41561 0.26388,-0.923578 0,-0.507967 0.11875,-0.923577 0.26388,-0.923577 0.14834,0 0.26388,-0.736889 0.26388,-1.682907 0,-1.173994 0.1197,-1.782241 0.39582,-2.011404 0.2177,-0.180676 0.39582,-0.62337 0.39582,-0.983766 0,-0.360396 0.29686,-1.008067 0.6597,-1.439272 0.36283,-0.431202 0.6597,-0.953013 0.6597,-1.159581 0,-0.206564 0.11874,-0.375571 0.26388,-0.375571 0.14513,0 0.26387,-0.456738 0.26387,-1.014975 0,-0.99202 0.57955,-2.517108 1.07223,-2.821604 0.13595,-0.08402 0.24717,-0.613725 0.24717,-1.177129 0,-0.563403 0.11875,-1.097759 0.26388,-1.187457 0.14513,-0.0897 0.26388,-0.379031 0.26388,-0.64296 0,-0.263932 0.18638,-0.634554 0.41416,-0.823602 0.2278,-0.189049 0.35711,-0.561915 0.28737,-0.828589 -0.0697,-0.266677 0.0408,-0.652413 0.24554,-0.857194 0.20478,-0.204781 0.37233,-0.551922 0.37233,-0.771422 0,-0.219503 0.11874,-0.472484 0.26388,-0.562182 0.14513,-0.0897 0.26388,-0.616522 0.26388,-1.170719 0,-0.573755 0.17043,-1.149084 0.39581,-1.336135 0.2177,-0.180675 0.39582,-0.59514 0.39582,-0.921031 0,-0.325893 0.41561,-1.404097 0.92358,-2.396011 0.50797,-0.991915 0.92358,-2.117442 0.92358,-2.50117 0,-0.729769 0.64734,-2.241724 1.07223,-2.504315 0.13594,-0.08402 0.24717,-0.383243 0.24717,-0.664944 0,-0.281702 0.11874,-0.512185 0.26387,-0.512185 0.14514,0 0.26388,-0.230483 0.26388,-0.512185 0,-0.281701 0.11875,-0.585574 0.26388,-0.675272 0.14514,-0.0897 0.26388,-1.032132 0.26388,-2.094297 0,-1.394713 0.10996,-2.022472 0.39582,-2.259712 0.2177,-0.180676 0.39582,-0.473835 0.39582,-0.651468 0,-0.428208 0.75923,-1.936152 1.07223,-2.129594 0.13594,-0.08402 0.24717,-0.383242 0.24717,-0.664944 0,-0.281702 0.11874,-0.512184 0.26388,-0.512184 0.14513,0 0.26388,-0.456739 0.26388,-1.014975 0,-0.99202 0.57954,-2.517109 1.07222,-2.821604 0.13595,-0.08402 0.24717,-0.91059 0.24717,-1.836827 0,-0.926238 0.11875,-1.757458 0.26388,-1.847156 0.14514,-0.0897 0.26388,-0.493911 0.26388,-0.898253 0,-0.40563 0.24209,-0.954251 0.54008,-1.223928 0.4744,-0.429329 0.7966,-0.998134 1.41367,-2.495707 0.0897,-0.217701 0.3906,-0.752056 0.66866,-1.187457 0.27807,-0.435401 0.51425,-0.989548 0.52486,-1.231437 0.0106,-0.24189 0.11544,-0.479381 0.23295,-0.527759 0.35296,-0.145298 1.63349,-2.918742 1.63349,-3.537892 0,-0.316567 0.17812,-0.723402 0.39582,-0.904077 0.57021,-0.473233 0.5824,-5.14177 0.0129,-4.923215 -0.71624,0.274849 -5.0196,0.569577 -6.87372,0.470766 -2.96121,-0.15781 -23.15884,-0.170145 -30.214181,-0.01845 -3.55578,0.07645 -6.94732,0.06719 -7.53678,-0.02058 -1.66516,-0.247944 -1.699,-0.200742 -1.699,2.370121 0,1.740847 -0.0989,2.402683 -0.39581,2.649114 -0.21771,0.180675 -0.39582,0.66319 -0.39582,1.072254 0,0.409065 -0.11875,0.817143 -0.26388,0.906841 -0.15007,0.09275 -0.26388,1.416379 -0.26388,3.069034 0,2.231225 -0.0919,2.997853 -0.39582,3.301768 -0.2177,0.2177 -0.39582,0.855312 -0.39582,1.416913 0,0.561604 -0.11875,1.094485 -0.26388,1.184183 -0.15465,0.09558 -0.26388,1.624805 -0.26388,3.69431 0,2.069506 -0.10923,3.598734 -0.26388,3.694311 -0.14513,0.0897 -0.26388,1.032133 -0.26388,2.094297 0,1.394713 -0.10996,2.022472 -0.39582,2.259712 -0.32864,0.272751 -0.39582,1.260819 -0.39582,5.822084 0,3.377743 -0.10163,5.556394 -0.26388,5.656668 -0.14513,0.0897 -0.26387,0.342679 -0.26387,0.562182 0,0.2195 -0.17812,0.577212 -0.39582,0.794912 -0.32056,0.320553 -0.39582,1.242273 -0.39582,4.847345 0,2.683041 -0.10484,4.516319 -0.26388,4.614614 -0.14514,0.0897 -0.26388,0.505308 -0.26388,0.923578 0,0.41827 -0.11875,0.83388 -0.26388,0.923578 -0.14513,0.0897 -0.26388,1.217782 -0.26388,2.506853 0,1.289072 -0.11123,2.412509 -0.24717,2.496526 -0.73141,0.452036 -1.07223,1.9001 -1.07223,4.555668 0,2.118788 -0.0928,2.841838 -0.40477,3.153815 -0.22263,0.222627 -0.33869,0.612989 -0.25793,0.867474 0.0808,0.254483 -0.0339,0.612749 -0.25492,0.796143 -0.24781,0.205667 -0.40177,0.776101 -0.40177,1.488591 0,0.635331 -0.11875,1.155147 -0.26388,1.155147 -0.14514,0 -0.26388,0.222952 -0.26388,0.49545 0,0.272495 -0.17812,0.643272 -0.39582,0.823947 -0.22538,0.187051 -0.39582,0.762379 -0.39582,1.336135 0,0.554196 -0.11875,1.081021 -0.26388,1.170719 -0.14513,0.0897 -0.26388,0.32848 -0.26388,0.53063 0,0.202147 -0.41561,0.771179 -0.92358,1.264509 -0.50796,0.493333 -0.92357,1.078238 -0.92357,1.299788 0,0.221553 -0.17812,0.550648 -0.39582,0.731323 -0.2177,0.180676 -0.39582,0.670198 -0.39582,1.087827 0,0.417631 -0.11875,0.759329 -0.26388,0.759329 -0.14514,0 -0.26388,0.405714 -0.26388,0.901588 0,0.495872 -0.0891,0.941168 -0.19791,0.989548 -0.52015,0.231177 -1.12149,1.965964 -1.12149,3.235354 0,1.30694 -0.51907,2.85417 -1.07222,3.19604 -0.13595,0.084 -0.24717,1.27545 -0.24717,2.64762 0,1.37217 -0.11875,2.73074 -0.26388,3.01904 -0.14514,0.2883 -0.38263,0.76006 -0.52776,1.04836 -0.14514,0.28829 -0.26388,1.75808 -0.26388,3.26618 0,2.11541 -0.0904,2.81707 -0.39582,3.0705 -0.2177,0.18068 -0.39582,0.55145 -0.39582,0.82395 0,0.2725 -0.11875,0.49545 -0.26388,0.49545 -0.17223,0 -0.26388,4.3694 -0.26388,12.58043 v 12.58044 l -1.10448,2.26278 c -0.60746,1.24452 -1.20119,2.30236 -1.31939,2.35073 -0.11821,0.0484 -0.21492,0.90929 -0.21492,1.91313 0,1.04086 -0.1134,1.82516 -0.26388,1.82516 -0.14513,0 -0.26388,0.22296 -0.26388,0.49545 0,0.2725 -0.17812,0.64328 -0.39582,0.82395 -0.22538,0.18705 -0.39582,0.76238 -0.39582,1.33614 0,0.55419 -0.11874,1.08102 -0.26388,1.17071 -0.14513,0.0897 -0.26388,0.34268 -0.26388,0.56219 0,0.2195 -0.18433,0.58342 -0.40961,0.80871 -0.27591,0.2759 -0.35589,0.65422 -0.24503,1.15898 0.14429,0.65693 -0.0504,0.97828 -1.57849,2.6053 -1.61618,1.72081 -2.76686,3.6656 -2.79046,4.71621 -0.005,0.24195 -0.46146,1.3305 -1.01339,2.419 -6.06733,11.96576 -7.74474,15.36684 -8.13411,16.49246 -0.25102,0.72567 -0.97109,2.22245 -1.60016,3.32617 -1.19898,2.10367 -2.95726,6.92383 -3.4956,9.58288 -0.52695,2.60275 0.0761,5.29338 1.53497,6.84921 1.96319,2.09361 5.16542,2.27489 7.28656,0.41251 1.15439,-1.01357 1.71915,-2.24482 2.0274,-4.41998 0.37273,-2.63021 0.68464,-3.54692 2.48611,-7.30665 0.90402,-1.88673 1.79886,-3.8694 1.98852,-4.40593 0.18966,-0.53652 0.44202,-0.91544 0.56079,-0.84203 0.11877,0.0734 0.21595,1.47379 0.21595,3.11196 0,2.88924 -0.32075,4.32069 -1.07223,4.78512 -0.14846,0.0918 -0.24717,5.58107 -0.24717,13.74583 0,11.73088 0.0542,13.64728 0.39582,13.98888 0.50589,0.50588 0.49942,1.17055 -0.0277,2.8427 -1.24706,3.95613 2.69649,7.55337 6.78321,6.18753 1.05192,-0.35156 2.2397,-1.38117 2.77447,-2.40498 0.47326,-0.90606 0.67465,-0.90814 1.09115,-0.0113 0.46451,1.00021 0.41151,1.76299 -0.19791,2.848 -0.47285,0.84187 -0.52776,1.42876 -0.52776,5.64089 0,3.59532 0.0907,4.88312 0.38567,5.47434 0.40837,0.81861 1.46738,1.8608 2.44746,2.40859 0.78283,0.43754 4.56856,0.42868 5.4193,-0.0127 1.16152,-0.60261 2.29788,-1.62322 2.30035,-2.06604 0.001,-0.23621 0.18052,-0.5773 0.39822,-0.75797 0.30266,-0.25119 0.39582,-0.9383 0.39582,-2.91942 0,-1.44262 0.11695,-2.66318 0.26388,-2.75399 0.14513,-0.0897 0.26387,-0.39357 0.26387,-0.67527 0,-0.2817 0.11875,-0.51219 0.26388,-0.51219 0.16871,0 0.26388,-2.32016 0.26388,-6.43273 0,-5.39607 0.0638,-6.48567 0.39582,-6.76123 0.2177,-0.18068 0.39582,-0.55146 0.39582,-0.82395 0,-0.2725 0.11875,-0.49545 0.26388,-0.49545 0.16993,0 0.26388,2.75996 0.26388,7.75213 0,6.56886 0.0604,7.80227 0.39582,8.08063 0.2177,0.18067 0.39582,0.4559 0.39582,0.6116 0,0.4186 1.36006,1.76331 1.78343,1.76331 0.20092,0 0.54342,0.17812 0.76112,0.39582 0.55928,0.55929 4.37991,0.55929 4.84407,0 0.18068,-0.2177 0.50121,-0.39582 0.71231,-0.39582 0.50633,0 1.92648,-1.43248 1.92648,-1.94322 0,-0.2203 0.11875,-0.47393 0.26388,-0.56363 0.16655,-0.10293 0.26388,-3.12012 0.26388,-8.18026 0,-4.6988 0.10231,-8.0804 0.24717,-8.16993 0.33212,-0.20527 1.07223,-1.7127 1.07223,-2.1839 0,-0.20749 0.14843,-0.32818 0.32985,-0.2682 0.21435,0.0709 0.35746,0.79457 0.4087,2.06675 0.0434,1.07673 0.19181,2.07063 0.32985,2.20867 0.13805,0.13805 0.251,0.87334 0.251,1.63398 0,0.76065 0.11874,1.45638 0.26387,1.54608 0.14514,0.0897 0.26388,0.61652 0.26388,1.17072 0,0.57375 0.17044,1.14908 0.39582,1.33613 0.29054,0.24113 0.39582,0.88139 0.39582,2.40722 0,1.2099 0.11029,2.07873 0.26388,2.07873 0.14513,0 0.26388,0.62935 0.26388,1.39856 0,0.76921 0.12822,1.52679 0.28494,1.6835 0.18621,0.18621 0.27449,2.01946 0.25477,5.29049 -0.0253,4.20302 0.0347,5.05942 0.37475,5.34161 0.22272,0.18484 0.40494,0.55201 0.40494,0.81594 0,0.26393 0.11874,0.55326 0.26388,0.64296 0.14513,0.0897 0.26388,0.73527 0.26388,1.4346 0,0.80832 0.14419,1.39118 0.39581,1.60002 0.21771,0.18067 0.39582,0.55145 0.39582,0.82394 0,0.2725 0.11875,0.49545 0.26388,0.49545 0.14514,0 0.26388,0.23048 0.26388,0.51219 0,0.2817 0.11875,0.58557 0.26388,0.67527 0.14514,0.0897 0.26388,0.43025 0.26388,0.75678 0,0.32653 0.17434,0.82419 0.38743,1.10591 0.21308,0.28172 0.391201,0.83877 0.395821,1.23789 0.005,0.39912 0.12714,0.72567 0.27227,0.72567 0.14513,0 0.26388,0.3417 0.26388,0.75933 0,0.41763 0.17812,0.90715 0.39582,1.08782 0.24153,0.20046 0.39582,0.77878 0.39582,1.48365 0,0.63533 0.11875,1.15515 0.26388,1.15515 0.14513,0 0.26388,0.41561 0.26388,0.92358 0,0.50796 0.11874,0.92357 0.26388,0.92357 0.14513,0 0.26388,0.23049 0.26388,0.51219 0,0.2817 0.11122,0.58093 0.24717,0.66494 0.50028,0.3092 1.07248,1.83706 1.08143,2.88757 0.0138,1.61945 0.66565,4.97146 1.14828,5.90477 0.84439,1.63286 3.15021,2.80786 5.19889,2.64924 1.00523,-0.0778 1.12911,-0.0137 1.57879,0.81544 0.26839,0.49494 0.61144,1.02335 0.76235,1.17427 0.15091,0.15091 0.27438,0.71859 0.27438,1.26155 0,0.54293 0.11875,1.06056 0.26388,1.15025 0.14513,0.0897 0.26388,0.37904 0.26388,0.64297 0,0.26393 0.18272,0.63152 0.40604,0.81686 0.33574,0.27863 0.40015,1.0294 0.37201,4.33589 -0.0307,3.60438 0.0204,4.0958 0.51753,4.98093 0.4929,0.87756 0.55158,1.41289 0.55158,5.03184 0,3.27788 0.0754,4.1124 0.39581,4.37828 0.2177,0.18068 0.39582,0.66318 0.39582,1.07225 0,0.40906 0.11875,0.81715 0.26388,0.90685 0.15177,0.0938 0.26388,1.48453 0.26388,3.27353 0,3.024 0.31009,4.44602 1.07223,4.91704 0.13594,0.084 0.24717,1.3926 0.24717,2.90793 0,1.66085 0.10481,2.75516 0.26388,2.75516 0.14513,0 0.26388,0.22295 0.26388,0.49546 0,0.27248 0.17812,0.64326 0.39582,0.82394 0.50694,0.42073 0.55848,4.17679 0.066,4.80746 -0.18142,0.23232 -0.98295,0.68996 -1.78119,1.01696 -2.06066,0.84418 -3.01279,1.6246 -3.65885,2.99904 -1.00542,2.13893 -0.6745,4.39703 1.00699,6.87142 0.39673,0.58381 1.21164,2.09096 1.81091,3.34921 0.59927,1.25828 1.44925,2.85491 1.88884,3.54807 0.4396,0.69316 0.79927,1.45442 0.79927,1.69168 0,0.23725 0.29868,1.01554 0.66374,1.72952 0.36506,0.71398 0.84461,2.06736 1.06566,3.00748 0.22105,0.94013 0.69421,2.20812 1.05146,2.81773 0.48719,0.8313 0.65035,1.49242 0.6527,2.64468 0.004,1.82008 0.5305,3.95809 1.29414,5.25236 0.49177,0.83349 0.55021,1.35563 0.55302,4.94106 0.003,4.24738 0.3051,6.04886 1.29414,7.72515 0.47324,0.80209 0.54988,1.36444 0.54988,4.03498 0,3.78669 0.35139,5.85962 1.25813,7.422 0.64191,1.10605 0.69928,1.47693 0.83699,5.41061 l 0.14785,4.22318 1.31119,2.63768 c 0.72115,1.45076 1.61174,3.10401 1.97909,3.67394 0.57692,0.89505 0.67033,1.34441 0.68565,3.29849 0.0182,2.32132 0.53673,3.91529 1.54625,4.7531 0.34549,0.28673 0.41511,1.04346 0.41511,4.51229 0,2.29226 0.0891,4.20734 0.19791,4.25574 0.10885,0.0484 0.40571,0.4835 0.6597,0.96693 0.39795,0.75749 0.46178,1.65819 0.46178,6.51545 0,3.47299 0.10129,5.69905 0.26388,5.79954 0.14514,0.0897 0.26388,0.49778 0.26388,0.90684 0,0.40907 0.17812,0.89157 0.39582,1.07225 0.33857,0.28098 0.39582,1.71701 0.39582,9.92778 0,6.22362 0.0928,9.59929 0.26388,9.59929 0.14513,0 0.26388,0.34922 0.26388,0.77607 0,0.42683 0.11875,0.84946 0.26388,0.93915 0.15463,0.0956 0.26388,1.6237 0.26388,3.69104 0,2.78411 0.0834,3.6114 0.39582,3.92375 0.2177,0.2177 0.39582,0.57542 0.39582,0.79494 0,0.21949 0.11874,0.47247 0.26388,0.56217 0.16118,0.0996 0.26388,2.14697 0.26388,5.26085 0,4.20943 0.069,5.15499 0.39581,5.42626 0.21771,0.18068 0.39582,0.55146 0.39582,0.82394 0,0.27251 0.11875,0.49546 0.26388,0.49546 0.16239,0 0.26388,1.31939 0.26388,3.43043 0,2.11103 0.1015,3.43043 0.26388,3.43043 0.14514,0 0.26388,0.22295 0.26388,0.49546 0,0.27248 0.17812,0.64326 0.39582,0.82394 0.34335,0.28496 0.39582,2.31807 0.39582,15.3373 0,9.82995 0.091,15.00882 0.26388,15.00882 0.14513,0 0.26388,0.22295 0.26388,0.49546 0,0.27248 0.17812,0.64326 0.39582,0.82394 0.26204,0.21749 0.39582,0.80808 0.39582,1.74751 0,0.78048 0.11874,1.41904 0.26388,1.41904 0.14513,0 0.26387,0.34922 0.26387,0.77607 0,0.42682 0.11875,0.84945 0.26388,0.93915 0.15091,0.0933 0.26388,1.44888 0.26388,3.16655 0,1.65191 0.11123,3.07221 0.24717,3.15623 0.57104,0.35291 1.07223,1.90339 1.07223,3.31705 0,1.02068 0.12834,1.61694 0.39582,1.83892 0.2177,0.18068 0.39582,0.55145 0.39582,0.82393 0,0.27251 0.11874,0.49546 0.26388,0.49546 0.14513,0 0.26388,0.55383 0.26388,1.23074 0,1.21574 0.69312,3.25521 1.1063,3.25521 0.1172,0 0.21309,0.83122 0.21309,1.84716 0,1.05552 0.11309,1.84715 0.26388,1.84715 0.14514,0 0.26388,0.21419 0.26388,0.47599 0,0.26179 0.41561,0.87882 0.92358,1.37117 l 0.92358,0.89516 v 4.13799 c 0,3.35631 0.0748,4.20007 0.39582,4.46651 0.2177,0.18067 0.39582,0.55145 0.39582,0.82393 0,0.27251 0.11874,0.49546 0.26387,0.49546 0.15503,0 0.26388,0.91646 0.26388,2.2216 0,1.60502 0.12816,2.46553 0.46179,3.10059 0.25399,0.48342 0.55085,0.91856 0.6597,0.96693 0.10885,0.0484 0.19791,1.24728 0.19791,2.66423 0,2.48023 0.35739,3.94109 1.07223,4.38288 0.13594,0.084 0.24717,1.09573 0.24717,2.24822 0,1.22105 0.11011,2.09547 0.26388,2.09547 0.14513,0 0.26388,0.21374 0.26388,0.47498 0,0.26124 0.1392,0.61418 0.30933,0.7843 0.17513,0.17514 0.28487,0.91384 0.25296,1.70263 -0.0368,0.90936 0.082,1.57642 0.34198,1.92046 0.21908,0.28993 0.40211,0.85371 0.40673,1.25282 0.005,0.39912 0.12714,0.72567 0.27227,0.72567 0.15611,0 0.26388,0.9568 0.26388,2.34262 0,1.76039 0.0984,2.42423 0.39582,2.67109 0.2177,0.18068 0.39582,0.54444 0.39582,0.80837 0,0.26393 0.11875,0.55327 0.26388,0.64297 0.14513,0.0897 0.26388,0.85029 0.26388,1.69025 0,1.43015 0.49814,2.97899 1.07222,3.33377 0.13595,0.084 0.24717,0.72124 0.24717,1.41606 0,1.2003 0.53759,2.73946 1.07223,3.06989 0.13595,0.084 0.24717,0.61373 0.24717,1.17714 0,0.56341 0.11875,1.09776 0.26388,1.18746 0.14513,0.0897 0.26388,0.5053 0.26388,0.92357 0,0.41828 0.11875,0.83389 0.26388,0.92358 0.14513,0.0897 0.26388,0.74132 0.26388,1.44807 0,0.79034 0.15236,1.43732 0.39582,1.68078 0.2177,0.2177 0.39582,0.57541 0.39582,0.79493 0,0.2195 0.11874,0.47248 0.26388,0.56217 0.14513,0.0897 0.26388,0.92091 0.26388,1.84716 0,0.92624 0.11556,1.75548 0.25681,1.8428 0.22758,0.14065 0.65034,0.97902 1.33284,2.64314 0.11904,0.29027 0.28732,0.85431 0.37394,1.25343 0.0866,0.39912 0.27398,0.72567 0.41635,0.72567 0.14236,0 0.25885,0.34922 0.25885,0.77607 0,0.42682 0.11874,0.84945 0.26388,0.93915 0.14513,0.0897 0.26388,0.49778 0.26388,0.90684 0,0.40907 0.17812,0.89157 0.39582,1.07225 0.2177,0.18068 0.39582,0.73118 0.39582,1.22335 0,0.49216 0.11874,1.13072 0.26388,1.41903 0.14513,0.28829 0.38262,0.76005 0.52775,1.04834 0.14514,0.28832 0.26388,1.23126 0.26388,2.09547 0,0.8642 0.11123,1.64004 0.24717,1.72405 0.32452,0.20055 1.07223,1.70815 1.07223,2.16189 0,0.1954 0.0959,0.35529 0.2131,0.35529 0.54748,0 1.1063,2.11082 1.1063,4.17879 0,1.26029 0.1095,2.15431 0.26388,2.15431 0.14513,0 0.26388,0.22295 0.26388,0.49546 0,0.27248 0.17811,0.64326 0.39581,0.82394 0.26205,0.21749 0.39582,0.80807 0.39582,1.74751 0,0.78048 0.11875,1.41904 0.26388,1.41904 0.14514,0 0.26388,0.18047 0.26388,0.40107 0,0.22058 0.29687,0.87133 0.6597,1.44608 0.42096,0.66685 0.6597,1.42891 0.6597,2.10579 0,0.58344 0.11874,1.06077 0.26388,1.06077 0.14513,0 0.26388,0.34169 0.26388,0.75934 0,0.41761 0.17812,0.90713 0.39582,1.08781 0.26104,0.21665 0.39582,0.80636 0.39582,1.73195 0,0.7719 0.11874,1.47685 0.26387,1.56654 0.15953,0.0986 0.26388,1.97451 0.26388,4.74342 0,2.51918 0.0891,4.61989 0.19791,4.66829 0.42306,0.18801 1.12149,1.8898 1.12149,2.73255 0,0.48765 0.11875,0.96002 0.26388,1.04971 0.14513,0.0897 0.26388,0.49778 0.26388,0.90685 0,0.40906 0.17812,0.89157 0.39582,1.07225 0.29744,0.24686 0.39582,0.9107 0.39582,2.67109 0,1.38581 0.10777,2.34261 0.26388,2.34261 0.14513,0 0.26388,0.23048 0.26388,0.51219 0,0.28169 0.11874,0.58558 0.26388,0.67527 0.14513,0.0897 0.26388,0.74132 0.26388,1.44807 0,0.79034 0.15235,1.43732 0.39581,1.68077 0.2177,0.21771 0.39582,0.57542 0.39582,0.79494 0,0.2195 0.11875,0.47248 0.26388,0.56217 0.14514,0.0897 0.26388,0.61653 0.26388,1.17073 0,0.57375 0.17044,1.14909 0.39582,1.33612 0.2177,0.18068 0.39582,0.55146 0.39582,0.82394 0,0.27251 0.11875,0.49546 0.26388,0.49546 0.14513,0 0.26388,0.45675 0.26388,1.01499 0,0.992 0.57954,2.51709 1.07222,2.82158 0.13595,0.084 0.24718,0.38326 0.24718,0.66495 0,0.28172 0.11874,0.51219 0.26387,0.51219 0.14514,0 0.26388,0.22295 0.26388,0.49546 0,0.27248 0.17812,0.64326 0.39582,0.82393 0.22538,0.18704 0.39582,0.76238 0.39582,1.33613 0,0.5542 0.11875,1.08104 0.26388,1.17073 0.14513,0.0897 0.26388,0.34679 0.26388,0.57132 0,0.22454 0.29686,0.64176 0.6597,0.92717 0.36283,0.28539 0.6597,0.74076 0.6597,1.01195 0,0.27116 0.11874,0.56642 0.26388,0.65611 0.14513,0.0897 0.26388,0.62405 0.26388,1.18746 0,0.56341 0.11122,1.09312 0.24717,1.17714 0.48855,0.30193 1.07222,1.82591 1.07222,2.7996 0,0.54615 0.13086,1.0366 0.2908,1.08993 0.17962,0.0599 0.38915,1.65708 0.54808,4.17808 0.14152,2.24463 0.34279,5.38736 0.44727,6.98383 0.20223,3.08995 -0.10361,8.27771 -0.51259,8.69482 -0.13519,0.13788 -0.2458,0.89044 -0.2458,1.67234 0,1.14539 -0.18717,1.75635 -0.96316,3.14396 -0.86725,1.55077 -0.98179,1.98865 -1.15014,4.39689 -0.18914,2.70553 -0.73407,4.76851 -1.57776,5.97307 -0.64705,0.92381 -3.1698,6.1254 -3.1698,6.53574 0,0.18606 -0.41286,1.15811 -0.91746,2.16014 -0.50461,1.002 -1.14609,2.64687 -1.42553,3.65523 -0.27943,1.00839 -0.87617,2.62871 -1.32607,3.60074 -0.4499,0.972 -1.10719,2.65272 -1.46065,3.73492 -0.35346,1.0822 -1.07413,2.55541 -1.60149,3.27384 -0.52737,0.71842 -1.35493,2.12006 -1.83904,3.11478 -0.4841,0.99475 -1.28527,2.45165 -1.78037,3.23759 -0.9362,1.48614 -1.73659,3.11679 -2.57948,5.25521 -0.27176,0.68947 -0.73142,1.77303 -1.02148,2.40795 -0.50772,1.11141 -1.30878,3.66484 -2.01785,6.43201 -1.03574,4.04208 -1.16473,9.20422 -0.27571,11.03454 0.69385,1.42848 2.50186,3.13879 3.86625,3.65731 1.50182,0.57072 4.24369,0.59603 6.06385,0.0559 z m 281.349,-91.60249 c -0.0331,-2.43107 -0.17672,-5.19196 -0.31906,-6.13533 -0.14233,-0.94337 -0.33734,-2.96205 -0.43337,-4.48595 -0.096,-1.5239 -0.21371,-3.0676 -0.26155,-3.43043 -0.0736,-0.55832 -0.37474,-8.41926 -0.37653,-9.82951 0,-0.5366 -0.91244,-0.6085 -2.70155,-0.21308 -0.6189,0.13677 -2.25337,0.42234 -3.63214,0.63455 -2.43439,0.37474 -2.88826,0.35233 -15.70082,-0.77496 -13.60398,-1.19693 -15.08875,-1.42154 -20.84647,-3.15368 -3.75569,-1.12982 -4.42676,-1.22313 -15.29099,-2.12634 -5.8848,-0.48923 -8.45205,-0.39035 -9.72313,0.37442 -1.85457,1.1159 -4.67573,1.01367 -27.41614,-0.99334 -15.80938,-1.39529 -21.39476,-1.97796 -22.83575,-2.38223 -1.04916,-0.29433 -2.31707,-0.53514 -2.81757,-0.53514 -0.50053,0 -1.8983,-0.36308 -3.10615,-0.80682 -1.20788,-0.44374 -2.64545,-0.92022 -3.19461,-1.05884 -0.54915,-0.13864 -1.20226,-0.36843 -1.45133,-0.51066 -0.72923,-0.41643 -2.69645,-1.0547 -4.543,-1.474 -1.39846,-0.31755 -2.10507,-0.33471 -3.82625,-0.0929 -1.90695,0.26792 -3.84573,0.13978 -20.05483,-1.32568 -14.35691,-1.29799 -18.47129,-1.58897 -20.58259,-1.45566 -2.07533,0.13104 -5.81593,-0.11927 -17.51781,-1.17231 -8.18347,-0.73644 -15.49446,-1.33895 -16.24666,-1.33895 -1.933,0 -3.85594,0.63764 -4.75597,1.57707 -0.54182,0.56555 -1.01263,0.79784 -1.61701,0.79784 -1.0779,0 -1.68743,-0.23065 -1.68743,-0.63856 0,-0.36268 -1.10671,-1.42669 -2.16772,-2.08412 -0.84753,-0.52514 -2.36897,-0.56942 -4.05652,-0.11808 -0.86903,0.23245 -1.43834,0.60388 -1.98662,1.29612 -1.28455,1.62188 -1.65603,2.77994 -1.63823,5.10701 0.0142,1.85439 0.13266,2.36146 0.97444,4.17072 0.52705,1.13284 0.95827,2.26944 0.95827,2.52583 0,1.29765 0.88369,2.94049 2.25951,4.20064 1.13624,1.04071 1.4348,1.48163 1.4348,2.11895 0,1.48456 0.8184,4.3528 1.52081,5.32997 0.38271,0.53243 1.058,1.1836 1.50064,1.44706 1.02027,0.60724 3.18488,0.91381 4.29253,0.60798 0.62462,-0.17245 1.06072,-0.12738 1.63358,0.16886 0.42982,0.22226 1.65016,0.5866 2.71186,0.80963 1.0617,0.22303 25.97638,2.54256 55.36594,5.15446 155.85619,13.85132 157.29913,13.98094 158.06372,14.19806 0.0726,0.0206 0.10484,-1.95158 0.0717,-4.38264 z M 170.1837,671.93362 c 1.54994,-0.46601 3.0865,-1.8058 3.68146,-3.21004 0.2369,-0.55913 0.59884,-1.84781 0.80431,-2.86375 0.20546,-1.01593 0.50332,-2.32214 0.66189,-2.90267 1.17544,-4.30308 0.63529,-7.23979 -1.94012,-10.54815 -0.75584,-0.97095 -0.98794,-1.48583 -0.89213,-1.9791 0.44058,-2.26849 -1.38189,-4.98835 -3.9483,-5.89245 -1.31722,-0.46403 -1.99284,-0.50193 -7.0932,-0.39775 -1.16107,0.0237 -3.061,-0.11069 -4.22207,-0.29866 -2.99896,-0.48553 -8.26725,-0.51084 -9.08996,-0.0437 -0.46591,0.26457 -2.0002,0.39482 -5.50764,0.4676 -2.674,0.0555 -5.35203,0.20931 -5.95116,0.34185 -2.0466,0.45277 -8.78976,0.30637 -11.2487,-0.24424 -1.23364,-0.27626 -2.8367,-0.63614 -3.56237,-0.79977 -0.72567,-0.16363 -1.91313,-0.40107 -2.63879,-0.52765 -1.26132,-0.22005 -2.42627,-0.52892 -5.47839,-1.45253 -0.76036,-0.2301 -2.51056,-0.54401 -3.88933,-0.69756 -1.50238,-0.1673 -2.84898,-0.47546 -3.36069,-0.76908 -1.55819,-0.89405 -3.78659,-1.19189 -5.94348,-0.79438 -1.050891,0.19369 -2.575261,0.3775 -3.387491,0.40851 -0.81223,0.031 -1.58408,0.12067 -1.71521,0.19926 -0.38441,0.23039 -6.47163,-0.21855 -20.55714,-1.5162 -14.65054,-1.34967 -16.2647,-1.53467 -18.19167,-2.08502 -0.73447,-0.20976 -2.46349,-0.46585 -3.84226,-0.56911 -1.37877,-0.10328 -3.2787,-0.41447 -4.22207,-0.69157 -4.19711,-1.23282 -6.02577,-1.52778 -13.32591,-2.14943 -8.10387,-0.69012 -9.3907,-0.66711 -13.10587,0.23435 -1.78632,0.43342 -2.03804,0.56937 -2.152,1.16218 -0.1972,1.02585 -0.15761,4.7436 0.0519,4.87308 0.10184,0.0629 0.16442,0.56824 0.13908,1.12292 -0.16172,3.53915 -0.12519,8.01478 0.10152,12.43932 0.14367,2.80377 0.21354,5.29743 0.15527,5.54147 -0.0583,0.24403 -0.0153,0.57663 0.0954,0.73904 0.18306,0.26855 8.01283,1.0517 23.55466,2.35602 5.63159,0.47261 53.24784,4.73632 65.969841,5.90713 4.71684,0.43411 11.48535,1.0353 15.04112,1.33602 3.55577,0.30072 13.08237,1.13645 21.17021,1.85716 8.08784,0.7207 15.56882,1.32222 16.6244,1.33668 1.05558,0.0145 2.2161,0.12136 2.57893,0.23757 1.08807,0.34845 3.251,0.28902 4.63596,-0.12738 z"
     id="path935" /></svg>
