<?xml version="1.0" encoding="UTF-8" standalone="no"?>
<!-- Created with Inkscape (http://www.inkscape.org/) -->

<svg
   width="1780"
   height="3164"
   viewBox="0 0 470.95832 837.14166"
   version="1.1"
   id="svg5"
   xml:space="preserve"
   inkscape:version="1.2 (dc2aeda, 2022-05-15)"
   sodipodi:docname="book4-part2.svg"
   inkscape:export-filename="book4-part2.png"
   inkscape:export-xdpi="96"
   inkscape:export-ydpi="96"
   xmlns:inkscape="http://www.inkscape.org/namespaces/inkscape"
   xmlns:sodipodi="http://sodipodi.sourceforge.net/DTD/sodipodi-0.dtd"
   xmlns="http://www.w3.org/2000/svg"
   xmlns:svg="http://www.w3.org/2000/svg"><sodipodi:namedview
     id="namedview7"
     pagecolor="#ffffff"
     bordercolor="#000000"
     borderopacity="0.25"
     inkscape:showpageshadow="2"
     inkscape:pageopacity="0.0"
     inkscape:pagecheckerboard="0"
     inkscape:deskcolor="#d1d1d1"
     inkscape:document-units="mm"
     showgrid="false"
     inkscape:zoom="0.1174099"
     inkscape:cx="1213.6967"
     inkscape:cy="1447.9188"
     inkscape:window-width="1306"
     inkscape:window-height="800"
     inkscape:window-x="28"
     inkscape:window-y="25"
     inkscape:window-maximized="0"
     inkscape:current-layer="layer1" /><defs
     id="defs2" /><g
     inkscape:label="Layer 1"
     inkscape:groupmode="layer"
     id="layer1"><path
       style="fill:#000000;stroke-width:0.263057"
       d="m 255.90616,825.93531 c -3.18653,-0.0922 -5.90683,-0.2379 -6.0451,-0.3237 -0.22941,-0.14237 -41.89578,-0.29157 -61.40286,-0.21987 -4.47588,0.0163 -9.14208,-0.091 -10.36934,-0.23877 -1.93583,-0.23307 -6.47893,-0.48864 -16.27592,-0.91556 -1.37164,-0.0598 -8.5186,-0.17783 -15.88214,-0.26234 -7.36355,-0.0845 -15.0188,-0.28142 -17.01169,-0.4376 -2.19234,-0.17181 -5.66566,-0.21017 -8.79425,-0.0971 -7.51255,0.27148 -13.11649,0.26661 -19.21536,-0.0166 -7.545862,-0.35053 -33.546962,-0.24304 -37.728772,0.156 -3.21666,0.30694 -13.03786,0.3842 -13.48599,0.10607 -0.39552,-0.24543 -6.44126,-0.14239 -8.20036,0.13979 -2.47435,0.39693 -15.45215,0.33272 -16.11675,-0.0797 -0.13134,-0.0815 -1.22487,-0.27235 -2.43006,-0.42411 -3.29175,-0.41446 -3.38134,-0.50276 -4.56302,-4.49744 -0.55692,-1.88268 -0.71166,-3.18801 -0.96869,-8.1716 -0.16824,-3.26206 -0.34575,-8.86338 -0.39447,-12.44736 -0.0487,-3.58399 -0.21513,-7.67638 -0.36978,-9.09421 -0.15466,-1.41783 -0.33342,-4.2034 -0.39725,-6.19015 -0.0638,-1.98675 -0.29467,-6.85018 -0.51297,-10.80761 -0.21831,-3.95743 -0.461,-8.38151 -0.53931,-9.83131 -0.0783,-1.4498 -0.25869,-7.14357 -0.40085,-12.65281 -0.32825,-12.72042 -0.51614,-18.21019 -0.66312,-19.37461 -0.11321,-0.8969 -0.4158,-6.12612 -0.89995,-15.55241 -0.13032,-2.53716 -0.30266,-5.26542 -0.38299,-6.06281 -0.23589,-2.34145 -0.42618,-4.72999 -0.55652,-6.9854 -0.067,-1.15984 -0.23993,-3.53225 -0.38422,-5.27201 -0.29391,-3.54379 -0.47153,-6.25172 -0.63973,-9.75321 -0.0627,-1.30482 -0.23779,-4.27032 -0.38915,-6.59 -0.15135,-2.31968 -0.39632,-6.4464 -0.54437,-9.17049 -0.29419,-5.41301 -0.7476703,-11.98756 -0.9129103,-13.23553 -0.39218,-2.96186 -0.68981,-36.4961 -0.37082,-41.78063 0.11814,-1.95723 0.34444,-6.82065 0.50288,-10.8076 0.15844,-3.98696 0.34129,-8.13866 0.40633,-9.22601 0.065,-1.08735 0.2329903,-5.00182 0.3732103,-8.69881 0.14023,-3.69699 0.37577,-8.0388 0.52343,-9.64848 0.14766,-1.60964 0.19527,-3.29416 0.10581,-3.74333 -0.0895,-0.44915 0.0242,-1.91972 0.25251,-3.26793 0.22835,-1.34821 0.53628,-3.63747 0.6843,-5.08727 0.14801,-1.4498 0.38176,-3.58497 0.51944,-4.74481 0.13768,-1.15984 0.37515,-3.62727 0.52771,-5.48317 0.2518,-3.0633 0.23312,-3.47641 -0.20263,-4.4812 -0.44748,-1.03195 -0.46802,-1.75882 -0.30319,-10.72835 0.18733,-10.194 0.13029,-24.24721 -0.13212,-32.55462 -0.0993,-3.14304 -0.0447,-6.03927 0.14665,-7.77621 0.16767,-1.52229 0.34291,-5.91123 0.38941,-9.7532 0.0465,-3.84198 0.20377,-10.18815 0.34949,-14.10261 0.4493,-12.06897 0.84038,-40.24037 0.81238,-58.51925 -0.0798,-52.09902 -0.05,-69.39325 0.12557,-72.88545 0.11298,-2.24719 0.24074,-4.91614 0.28393,-5.93101 0.0432,-1.01486 0.20883,-3.50588 0.36811,-5.5356 0.16062,-2.04691 0.33299,-12.45701 0.38704,-23.37541 0.0536,-10.82677 0.16982,-19.80259 0.25827,-19.94631 0.32651,-0.53049 0.13009,-18.30339 -0.2641,-23.89633 -0.092,-1.30482 -0.20119,-4.1517 -0.24273,-6.3264 -0.0415,-2.1747 -0.15174,-6.62296 -0.24489,-9.88501 -0.4909,-17.19108 -0.60987,-52.8084 -0.20603,-61.68245 0.18143,-3.98695 0.38583,-9.38416 0.45421,-11.9938 0.16526,-6.30678 0.43076,-12.08169 0.566,-12.31079 0.3071,-0.52026 0.5221,-56.92417 0.25427,-66.706636 -0.0883,-3.224043 -0.22067,-10.827382 -0.29423,-16.896339 -0.0735,-6.068957 -0.18923,-11.12464 -0.25706,-11.234846 -0.0678,-0.110208 -0.18335,-7.243946 -0.25671,-15.852752 -0.0778,-9.136193 -0.25508,-16.585149 -0.42572,-17.892975 -0.16079,-1.232331 -0.33638,-3.426803 -0.39021,-4.876604 -0.0538,-1.449801 -0.23762,-4.178997 -0.40843,-6.064881 -0.34408,-3.798789 -0.22274,-5.025359 0.58302,-5.893824 0.4257,-0.458815 0.79318,-0.571422 1.70941,-0.523799 0.93181,0.04843 1.24542,-0.05156 1.55539,-0.495947 0.21355,-0.306137 0.77183,-0.677319 1.24063,-0.824847 1.28807,-0.405354 15.83756,-0.433694 22.11606,-0.04308 5.20459,0.323802 19.45899,0.414396 23.75759,0.150992 1.08287,-0.06635 6.40259,-0.245433 11.82158,-0.397952 6.67715,-0.18793 10.56918,-0.40935 12.07568,-0.686993 1.22263,-0.225328 4.64467,-0.517065 7.60452,-0.648305 2.95986,-0.131239 6.090352,-0.366877 6.956642,-0.523639 2.68248,-0.485412 4.26411,-0.504816 10.36934,-0.127216 3.24862,0.200923 7.67856,0.435131 9.84431,0.520464 4.4379,0.174858 6.36243,0.318404 9.58179,0.714685 1.22726,0.151066 3.64896,0.316919 5.38155,0.36856 1.7326,0.05164 4.21337,0.1795 5.51282,0.28413 1.29944,0.10463 7.44229,0.202318 13.65077,0.217084 6.20847,0.01477 12.05599,0.118817 12.99448,0.231223 0.93849,0.112406 2.41003,0.298517 3.27009,0.41358 1.8834,0.251973 6.30795,0.153161 10.24943,-0.228897 1.58821,-0.153949 4.919,-0.280008 7.40174,-0.280129 2.48275,-1.21e-4 5.96763,-0.112971 7.74419,-0.250779 1.77656,-0.137808 5.41554,-0.314283 8.08663,-0.392167 2.67109,-0.07788 6.09691,-0.323271 7.61293,-0.545303 3.39308,-0.49694 5.25322,-0.60704 13.257,-0.784671 3.4652,-0.07691 7.38699,-0.247798 8.7151,-0.379762 3.12541,-0.310549 9.05363,-0.408786 24.8868,-0.412402 18.49137,-0.0042 28.74273,0.265899 30.71424,0.809316 1.70517,0.470008 4.55455,0.599509 14.56957,0.66217 6.7779,0.04241 10.26279,-0.139317 13.64563,-0.711568 1.9492,-0.329733 2.48822,-0.327601 4.3315,0.01713 1.49549,0.279685 4.71153,0.430149 11.10343,0.51948 4.94898,0.06916 9.67425,0.193959 10.50059,0.277319 0.82635,0.08336 4.59309,0.19412 8.37055,0.246133 3.77749,0.05201 6.96704,0.152537 7.0879,0.223385 0.12089,0.07085 1.69013,0.21027 3.4872,0.309826 1.79707,0.09955 3.33278,0.219749 3.41269,0.267096 0.2915,0.172726 5.46921,0.429884 11.39761,0.56608 3.3405,0.07674 6.60524,0.183902 7.25496,0.238132 4.48323,0.3742 16.76415,0.667043 32.55184,0.77621 7.00259,0.04842 13.49983,0.161433 14.43832,0.251139 0.93849,0.0897 3.39495,0.221985 5.45879,0.293954 2.06384,0.07197 4.2719,0.247752 4.90682,0.390628 0.63492,0.142876 2.34032,0.337813 3.78974,0.433193 1.83385,0.120675 2.87257,0.318268 3.41529,0.649675 1.04978,0.641043 1.68971,1.929402 1.47739,2.97438 -0.0917,0.451105 -0.22178,4.082244 -0.28914,8.069197 -0.0674,3.986953 -0.183,8.521348 -0.25695,10.076437 -0.11535,2.425715 -0.062,2.987491 0.37592,3.954003 0.41084,0.9069 0.54191,1.974666 0.67217,5.475975 0.089,2.392171 0.2884,6.247324 0.44315,8.567006 0.15473,2.319682 0.31896,6.590005 0.36498,9.489607 0.046,2.899602 0.15446,6.280274 0.24107,7.512605 0.0866,1.232331 0.2188,6.570235 0.2938,11.862009 0.075,5.291774 0.25349,11.104159 0.39658,12.91641 0.53774,6.81023 0.72846,10.81863 0.73995,15.55241 0.007,2.68213 0.0688,5.35109 0.13845,5.93101 0.89584,7.46244 0.53624,21.06869 -1.02414,38.74922 -0.29904,3.38832 -0.48723,13.1121 -0.51782,26.75542 -0.0121,5.32836 0.22603,14.94125 0.55467,22.40602 0.0926,2.10221 0.18891,4.94909 0.21411,6.32641 0.0252,1.37731 0.1253,5.76625 0.22243,9.7532 0.0971,3.98696 0.24212,10.32714 0.32216,14.0893 0.0801,3.76216 0.19604,6.92229 0.25773,7.0225 0.0617,0.10022 0.17329,3.13103 0.24803,6.73512 0.0747,3.6041 0.24999,8.45083 0.38949,10.77051 0.25469,4.23516 0.46938,8.09113 0.68251,12.25741 0.1542,3.01498 0.14328,24.89928 -0.0144,28.86422 -0.0692,1.73976 -0.10517,8.79766 -0.0799,15.68421 0.0483,13.18331 0.0459,19.88434 -0.0144,39.67183 -0.0202,6.66909 0.0362,15.92145 0.12577,20.56082 0.0895,4.63936 0.18699,10.92622 0.21671,13.97081 0.0297,3.04458 0.14391,12.71212 0.25382,21.48341 0.43284,34.54046 0.48135,59.97216 0.13704,71.83105 -0.84866,29.22942 -0.84045,28.87422 -1.16189,50.21584 -0.0884,5.8717 -0.28546,11.47831 -0.43783,12.45912 -0.1816,1.16912 -0.21085,4.34671 -0.0849,9.226 0.10566,4.0935 0.15683,7.85787 0.11372,8.3653 -0.0431,0.50743 -0.0648,9.28532 -0.0483,19.50642 0.0165,10.2211 0.049,30.26789 0.0722,44.54843 0.0423,26.0984 -0.21909,74.26168 -0.42703,78.68466 -0.27152,5.77564 -0.33807,34.22682 -0.0872,37.29942 0.14793,1.81226 0.30859,7.44671 0.357,12.52101 0.0484,5.07431 0.16215,10.47152 0.25275,11.99381 0.0906,1.52229 0.28493,4.78435 0.43186,7.24901 0.14693,2.46466 0.50119,6.2605 0.78726,8.4352 0.34027,2.58695 0.60706,6.8704 0.77163,12.38921 0.28677,9.61627 0.49132,11.72096 1.27543,13.12213 0.58677,1.04852 0.75197,2.56208 0.27966,2.56208 -0.15292,0 -0.2018,0.12382 -0.10866,0.27515 0.0931,0.15133 0.016,0.46054 -0.17116,0.68713 -0.18725,0.22656 -0.46323,0.65728 -0.61326,0.95713 -0.15,0.29984 -0.80434,0.82444 -1.45407,1.16575 -1.11947,0.58806 -1.37376,0.61374 -4.85652,0.48992 -2.02137,-0.0719 -4.35323,-0.2104 -5.18197,-0.30786 -0.86223,-0.1014 -2.15356,-0.0471 -3.01892,0.12695 -0.83167,0.16728 -3.46133,0.34925 -5.84366,0.40434 -6.40258,0.14809 -18.56699,0.89606 -22.26084,1.36877 -2.15629,0.27594 -6.25397,0.45089 -12.33819,0.52678 -5.01034,0.0625 -10.29101,0.21286 -11.73484,0.33411 -1.44383,0.12126 -5.8147,0.24056 -9.71305,0.26513 -8.70596,0.0549 -27.59044,0.51755 -28.48454,0.69788 -0.36004,0.0726 -3.7187,0.19675 -7.46369,0.27589 -3.74501,0.0791 -6.89012,0.19414 -6.98914,0.25558 -0.0991,0.0615 -2.8234,0.17538 -6.05415,0.25311 -5.72424,0.13779 -13.07095,0.21196 -52.60172,0.53121 -10.53997,0.0851 -19.39985,0.18515 -19.68862,0.22227 -0.28876,0.0371 -3.13219,-0.008 -6.31871,-0.10017 z m 11.52068,-8.56313 c 2.91426,-0.0634 13.20542,-0.18418 22.86927,-0.26832 9.66385,-0.0841 17.66014,-0.20853 17.76955,-0.27644 0.10939,-0.0679 3.60231,-0.0955 7.76204,-0.0612 13.07875,0.1076 22.39748,-0.0662 24.35429,-0.45434 0.42774,-0.0848 3.08571,-0.19836 5.90659,-0.2523 5.77997,-0.1105 18.02539,-0.55688 21.79852,-0.79462 1.37164,-0.0864 8.04608,-0.28474 14.83209,-0.44068 6.78601,-0.15598 13.57858,-0.32299 15.0946,-0.37118 9.31503,-0.29605 11.53721,-0.38731 14.96335,-0.61453 2.09355,-0.13887 4.39712,-0.31793 5.11904,-0.39793 0.72191,-0.08 3.13109,-0.27649 5.35373,-0.43666 2.2226,-0.16013 4.28991,-0.33635 4.59401,-0.39157 0.30407,-0.0552 3.9196,-0.22681 8.03452,-0.3813 4.11493,-0.15447 8.23916,-0.38425 9.165,-0.51057 0.92581,-0.12632 3.03748,-0.17105 4.69259,-0.0994 l 3.00926,0.13027 -0.17426,-1.80147 c -0.0958,-0.99082 -0.28325,-2.63181 -0.41648,-3.64667 -0.13323,-1.01486 -0.30678,-2.79417 -0.38569,-3.95401 -0.2466,-3.6246 -0.66566,-7.84787 -0.92851,-9.3578 -0.41081,-2.3598 -1.61239,-17.266 -1.71052,-21.21982 -0.036,-1.4498 -0.13223,-5.48288 -0.2139,-8.9624 -0.0816,-3.47953 -0.23256,-9.52915 -0.33536,-13.44361 -0.21183,-8.06646 -0.21676,-27.01721 -0.009,-33.74083 0.14092,-4.55578 0.27465,-17.13388 0.207,-19.47278 -0.0286,-0.988 -0.11288,-1.22405 -0.36529,-1.02298 -0.18048,0.14377 -0.85974,0.32702 -1.50946,0.40726 -5.52691,0.68241 -7.71736,1.04196 -8.9569,1.47018 -0.7929,0.27394 -1.90759,0.56795 -2.47709,0.65339 -0.5695,0.0854 -2.57118,0.38991 -4.44816,0.67666 -1.87698,0.28672 -4.41681,0.599 -5.64407,0.69393 -1.22726,0.0949 -2.32512,0.23015 -2.43971,0.30045 -0.11459,0.0703 -2.12282,0.17115 -4.46275,0.22411 -2.33993,0.053 -5.3731,0.17274 -6.74038,0.26611 -1.36729,0.0934 -4.43871,0.21001 -6.82539,0.25922 -2.38668,0.0492 -5.55182,0.27549 -7.03364,0.50284 -1.48182,0.22736 -3.43099,0.48231 -4.33149,0.56659 -0.90051,0.0843 -2.05074,0.2384 -2.55609,0.34247 -0.50534,0.10406 -5.17154,0.16975 -10.36933,0.14592 -7.77031,-0.0356 -9.77724,-0.12088 -11.28814,-0.47977 -1.65986,-0.39424 -3.72561,-0.59358 -6.89464,-0.66528 -1.02493,-0.0232 -1.25989,-0.17287 -2.78617,-1.77479 l -1.66684,-1.74944 -0.13727,-2.66587 c -0.12456,-2.41924 -0.97842,-6.77152 -2.20373,-11.23284 -0.9198,-3.34899 -1.38041,-5.23777 -1.66787,-6.8394 -0.45688,-2.54559 -0.70456,-2.94557 -6.4529,-10.42141 -2.27403,-2.95741 -2.55033,-3.73719 -2.8506,-8.04481 -0.096,-1.37731 -0.21056,-2.82342 -0.25456,-3.2136 -0.044,-0.39019 0.15444,-1.33915 0.44098,-2.10881 0.48607,-1.30574 0.52209,-2.09636 0.53797,-11.8116 0.0163,-9.92007 -0.0113,-10.53682 -0.58066,-13.04821 -1.98584,-8.75836 -2.68104,-10.47331 -5.62438,-13.87489 -1.04924,-1.21259 -2.19819,-2.56994 -2.55322,-3.01632 -0.35502,-0.44636 -1.85674,-2.32016 -3.33717,-4.16396 -3.18742,-3.9698 -3.61769,-4.7499 -3.95168,-7.16466 -0.34616,-2.50254 -2.24248,-6.97467 -3.61591,-8.52746 -0.58919,-0.66612 -1.83797,-2.27872 -2.77507,-3.58354 -0.93713,-1.30482 -2.78056,-3.86101 -4.09652,-5.68043 -1.31596,-1.81942 -2.62229,-3.89527 -2.90297,-4.613 -0.82986,-2.12217 -1.57333,-5.57839 -1.89677,-8.81759 -0.16646,-1.66727 -0.38466,-3.74312 -0.48489,-4.613 -0.23264,-2.0191 -0.17085,-11.61834 0.0959,-14.89341 0.11217,-1.37731 0.2256,-4.96106 0.25209,-7.96392 0.0552,-6.26556 -0.1154,-5.79153 2.77292,-7.70221 1.78431,-1.1804 3.9414,-3.36433 4.61517,-4.67263 0.20778,-0.40349 1.12472,-1.89365 2.03761,-3.31153 0.9129,-1.41785 2.1003,-3.37348 2.63867,-4.34579 0.58231,-1.05169 1.31948,-1.97927 1.81967,-2.28969 1.04796,-0.65035 1.68075,-1.50347 3.07368,-4.14382 0.60324,-1.14347 1.24716,-2.25697 1.43092,-2.47444 0.52892,-0.62592 1.05628,-1.78122 2.10568,-4.613 0.53727,-1.4498 1.36865,-3.18833 1.84753,-3.86335 1.55496,-2.19189 3.3954,-5.32359 4.15847,-7.07606 0.41034,-0.94237 1.25165,-2.66236 1.86956,-3.8222 0.61793,-1.15984 1.44944,-3.29501 1.84784,-4.74481 0.63339,-2.30505 0.72362,-3.09933 0.71868,-6.3264 -0.009,-5.91355 -0.6063,-8.15463 -2.83253,-10.62873 -1.23251,-1.36975 -6.42482,-5.00432 -8.25433,-5.77793 -0.49797,-0.21057 -1.53149,-0.78503 -2.29672,-1.27654 -1.8343,-1.17824 -4.64573,-2.59013 -7.12807,-3.57969 -1.1044,-0.44026 -2.53959,-1.01396 -3.18931,-1.27485 -0.64973,-0.26088 -2.4217,-0.66279 -3.93773,-0.89313 -3.40361,-0.51708 -4.26474,-0.75107 -4.4135,-1.19919 -0.0921,-0.27734 0.14987,-0.30697 1.1642,-0.14251 0.70425,0.11419 6.30104,0.23904 12.43732,0.27744 6.13629,0.0384 11.80661,0.17271 12.60071,0.29848 2.12882,0.33712 19.65643,0.21881 20.53174,-0.13858 0.58443,-0.23864 0.93691,-0.18881 1.96886,0.27821 1.20526,0.54546 1.60273,0.56842 9.65747,0.55796 7.03937,-0.009 8.66756,-0.0831 10.04881,-0.45664 0.90657,-0.24514 2.50809,-0.50068 3.55891,-0.56784 1.13071,-0.0723 2.85002,-0.44098 4.21198,-0.90326 2.57007,-0.87233 6.21784,-1.72152 9.69081,-2.25599 1.26999,-0.19544 2.80571,-0.59584 3.41269,-0.88981 0.77098,-0.37336 2.52784,-0.70149 5.82888,-1.08862 2.5989,-0.30477 5.1978,-0.6546 5.77533,-0.77741 0.57753,-0.12278 1.79791,-0.30601 2.71193,-0.40718 2.54797,-0.28197 4.94846,-1.6213 7.75404,-4.32634 1.28866,-1.2425 2.79064,-2.82353 3.33772,-3.51342 0.54705,-0.68989 1.04446,-1.16437 1.10531,-1.0544 0.0609,0.10997 0.0759,1.80131 0.0335,3.75854 -0.0613,2.82654 -0.21301,4.04666 -0.73733,5.93101 -0.36306,1.30482 -0.79823,2.90619 -0.96703,3.5586 -0.16879,0.65241 -0.52891,1.8195 -0.8003,2.59356 -0.27136,0.77404 -0.4934,1.66922 -0.4934,1.98926 0,1.15149 -4.70003,10.6897 -6.83677,13.87447 -0.53693,0.80031 -2.16216,2.78235 -3.61161,4.40454 -1.44944,1.6222 -3.02873,3.44331 -3.50953,4.04695 -1.37579,1.72724 -7.5493,6.02551 -11.11225,7.7368 -2.29696,1.10322 -4.80066,3.58802 -5.77181,5.72819 -0.87229,1.9223 -1.40343,4.74678 -1.26204,6.71108 0.0613,0.85216 0.56729,3.32869 1.12435,5.50339 0.98824,3.85792 1.58283,8.64529 1.99713,16.07961 0.27039,4.85248 1.48704,9.79441 3.22082,13.08274 0.41042,0.77839 1.07545,2.42354 1.47783,3.65587 0.40238,1.23233 1.37597,3.60473 2.16354,5.27201 2.42057,5.12436 3.14672,6.90031 3.75357,9.18051 0.63463,2.38442 1.50789,3.86374 3.90145,6.60911 2.96864,3.405 4.17125,4.97941 6.50475,8.51579 2.08883,3.16557 2.42369,3.83449 2.70521,5.4038 0.66361,3.69921 1.39416,6.05192 3.12293,10.05738 0.97871,2.26757 2.08253,5.13111 2.45297,6.36344 1.26185,4.19789 2.61113,8.56005 4.15828,13.44361 1.47014,4.6405 1.53771,4.97232 1.39527,6.8536 -0.16071,2.12275 0.69797,9.55069 1.90457,16.47502 1.00016,5.73965 1.42743,11.19407 1.53335,19.57379 0.0536,4.24148 0.18043,8.09664 0.28184,8.567 0.32252,1.49617 1.68416,3.89032 2.91598,5.12724 0.65579,0.6585 2.19928,2.56375 3.42997,4.23387 1.2307,1.67011 2.93867,3.76091 3.79549,4.64616 0.85683,0.88527 1.98698,2.1704 2.51146,2.85587 0.5245,0.68547 1.00254,1.19719 1.06232,1.13715 0.0946,-0.095 0.37269,-57.93034 0.30543,-63.52807 -0.0139,-1.15402 -0.10548,-2.2216 -0.20358,-2.3724 -0.22033,-0.33876 -0.39385,-57.82506 -0.18106,-59.97967 0.22375,-2.26559 0.40845,-11.22441 0.52986,-25.70102 0.1509,-17.99164 0.32111,-28.50072 0.51871,-32.02742 0.21269,-3.79564 0.2375,-24.94164 0.0405,-34.53163 -0.10275,-5.00181 -0.24382,-16.09279 -0.3135,-24.64662 -0.0697,-8.55382 -0.24132,-19.82273 -0.38138,-25.04202 -0.53936,-20.09914 -0.59152,-26.28729 -0.90097,-106.88987 -0.0554,-14.42552 -0.15439,-26.64339 -0.21999,-27.15082 -0.0656,-0.50743 -0.19458,-2.04949 -0.28662,-3.42681 -0.0921,-1.37731 -0.22691,-3.33454 -0.29971,-4.3494 -0.0728,-1.01486 -0.2056,-4.51415 -0.29512,-7.7762 -0.0895,-3.26206 -0.1877,-6.4648 -0.21815,-7.11721 -0.12506,-2.67806 -0.43094,-12.92073 -0.69666,-23.32862 -0.15543,-6.08916 -0.32037,-11.48638 -0.36647,-11.99381 -0.0461,-0.50743 -0.15221,-4.16572 -0.23574,-8.12955 -0.0835,-3.96382 -0.2244,-7.32476 -0.31302,-7.46875 -0.39514,-0.64198 -0.0189,-37.71298 0.42365,-41.73474 0.15953,-1.4498 0.3362,-3.05801 0.39264,-3.5738 0.19641,-1.7948 0.7238,-18.58972 0.68243,-21.73182 -0.0228,-1.73976 -0.1516,-4.17147 -0.28595,-5.4038 -0.13436,-1.23233 -0.31269,-5.14679 -0.3963,-8.69881 -0.0836,-3.55201 -0.27262,-7.94012 -0.42002,-9.75136 -0.1474,-1.81123 -0.267,-3.88709 -0.2658,-4.613 0,-0.72592 -0.10771,-2.26881 -0.24201,-3.42865 -0.1343,-1.159841 -0.30845,-6.426734 -0.38703,-11.704205 -0.0785,-5.277471 -0.26537,-10.437445 -0.41516,-11.466608 -0.14979,-1.029164 -0.27066,-5.340493 -0.26861,-9.580731 0.003,-6.635692 0.0645,-7.83812 0.44003,-8.632783 0.38296,-0.810344 0.41574,-1.6326 0.26816,-6.723204 -0.1568,-5.409353 -0.13302,-5.884223 0.35334,-7.051427 0.4746,-1.139032 0.53359,-2.049873 0.65634,-10.136764 0.0742,-4.886905 0.045,-8.94105 -0.0648,-9.009213 -0.43782,-0.271704 -18.24544,-0.099 -27.87543,0.270342 -9.06277,0.34759 -42.36351,0.167741 -47.38393,-0.255908 -0.8663,-0.0731 -3.1108,-0.272166 -4.98778,-0.442362 -3.96119,-0.359185 -9.0959,-0.495331 -25.5952,-0.678658 -6.56943,-0.07299 -12.47601,-0.213219 -13.12574,-0.311613 -0.64972,-0.09839 -1.41758,-0.187596 -1.70634,-0.198228 -0.28877,-0.01063 -1.17476,-0.155721 -1.96887,-0.322422 -4.68625,-0.983748 -6.11108,-1.099978 -15.22586,-1.242049 -5.1256,-0.07989 -9.86835,-0.21121 -10.53944,-0.291819 -0.76261,-0.0916 -1.76773,0.01327 -2.6802,0.279628 -1.7442,0.509152 -2.42506,0.562138 -8.04406,0.626001 l -4.3315,0.04923 -0.72191,1.19416 c -0.39705,0.656788 -0.72192,1.287064 -0.72192,1.400614 0,0.11355 -0.23676,0.421607 -0.52613,0.684571 -0.28937,0.262963 -0.65085,0.963415 -0.80324,1.556555 -0.27286,1.061884 -0.98522,2.687034 -1.62544,3.708258 -3.18231,5.076157 -3.7657,5.988989 -6.65827,10.418392 -1.27816,1.957232 -2.48045,3.855153 -2.67177,4.217603 -0.19132,0.362451 -0.85202,1.311411 -1.46822,2.108802 -0.6162,0.79739 -1.4064,1.927442 -1.75598,2.511224 -0.34958,0.583782 -1.02753,1.592053 -1.50655,2.240602 -0.47902,0.648548 -2.19224,3.017789 -3.80715,5.264981 -1.61492,2.247192 -3.60357,4.975454 -4.41924,6.062805 -0.81566,1.08735 -1.99667,2.713524 -2.62446,3.613718 -0.62779,0.900192 -2.02743,2.840661 -3.1103,4.312149 -1.08287,1.47149 -2.32326,3.18032 -2.7564,3.797406 -0.43315,0.617083 -1.46306,1.938666 -2.28869,2.936854 -0.82563,0.998185 -2.5976,3.268476 -3.93772,5.045089 -4.08233,5.411989 -4.95518,6.519381 -5.21085,6.611021 -0.13506,0.04841 -1.01902,1.234612 -1.96436,2.636002 -0.94533,1.401391 -2.11876,3.081774 -2.60761,3.734184 -0.48885,0.652412 -1.28043,1.816822 -1.75907,2.587582 -0.47864,0.770771 -1.42693,2.163991 -2.1073,3.096051 -0.68037,0.93206 -1.37716,1.96212 -1.54842,2.28902 -0.3412,0.65127 -2.70239,4.02855 -5.70268,8.15671 -1.0589,1.45696 -2.16314,3.07972 -2.45386,3.60613 -0.29072,0.52642 -0.73735,1.19436 -0.9925,1.48432 -0.25515,0.28996 -0.79824,1.1203 -1.20686,1.84521 -0.40862,0.7249 -1.02207,1.69402 -1.36323,2.1536 -0.70279,0.94666 -4.2653,6.66777 -4.2653,6.84962 0,0.12396 -2.41392,3.89197 -3.72933,5.82131 l -0.76179,1.11733 1.49068,0.66197 c 0.81987,0.36409 1.52977,0.66198 1.57754,0.66198 0.0478,0 1.30298,0.5177 2.78937,1.15044 1.86767,0.79505 3.26051,1.20556 4.50884,1.32887 0.99348,0.0981 2.21876,0.35148 2.72283,0.56297 0.50409,0.21149 1.17379,0.38452 1.48824,0.38452 0.31445,0 0.68395,0.098 0.82111,0.21777 0.13717,0.11977 0.78098,0.37284 1.43071,0.56237 2.69758,0.78693 4.48733,1.41893 4.61759,1.63058 0.0763,0.12391 0.42265,0.22528 0.76974,0.22528 0.34709,0 1.23048,0.23724 1.96308,0.5272 0.73261,0.28996 1.71157,0.52748 2.17547,0.52783 0.4639,2.6e-4 1.93807,0.47482 3.27594,1.0544 1.33787,0.57957 2.64649,1.05377 2.90804,1.05377 0.62983,0 3.29706,1.09872 5.44535,2.24313 0.94995,0.50604 2.04918,0.92008 2.44274,0.92008 0.39356,0 1.4042,0.41639 2.24587,0.92531 0.84166,0.50892 1.96762,0.99553 2.50213,1.08136 1.10046,0.17669 2.39385,0.88487 5.60261,3.06763 1.22548,0.83364 2.42798,1.5157 2.67222,1.5157 0.24423,0 0.75762,0.17651 1.14085,0.39224 0.38324,0.21574 1.36719,0.6361 2.18655,0.93414 0.81937,0.29804 1.89602,0.81873 2.39256,1.15709 0.49654,0.33835 1.33301,0.75776 1.85886,0.93202 1.43524,0.47562 3.70631,2.45334 4.17876,3.63897 0.54459,1.36673 4.39707,4.65471 7.40975,6.32403 0.32782,0.18166 0.66584,0.60949 0.75113,0.95075 0.17113,0.68459 3.01157,3.46844 4.0007,3.92099 0.34431,0.15753 0.62602,0.38294 0.62602,0.50093 0,0.11798 0.38393,0.40856 0.85317,0.64573 0.46925,0.23717 1.26664,0.81435 1.77198,1.28263 0.87,0.80618 2.40891,1.7895 4.46275,2.85153 3.39109,1.75352 3.80124,2.1588 5.7974,5.72857 0.60804,1.08735 1.32345,2.22093 1.58977,2.51906 0.26634,0.29813 0.91069,1.54364 1.43186,2.7678 0.52117,1.22416 1.29645,2.67177 1.72286,3.21692 0.4264,0.54514 0.95104,1.37548 1.1659,1.8452 0.21485,0.46972 0.85575,1.62506 1.4242,2.56743 0.56845,0.94237 1.03586,1.94835 1.03867,2.23551 0.003,0.28716 0.22857,1.1175 0.50161,1.8452 0.7184,1.91445 1.07862,3.14016 1.07862,3.67003 0,0.25537 0.37784,1.31453 0.83965,2.35369 0.78986,1.77725 0.84567,2.10841 0.94073,5.57978 0.0632,2.3074 -0.0144,4.13494 -0.20697,4.87661 -0.16943,0.65241 -0.40385,1.7793 -0.52096,2.5042 -0.32305,1.99957 -0.89775,4.03481 -1.66897,5.91055 -0.38282,0.93112 -0.69605,1.90571 -0.69605,2.16576 0,0.26005 -0.20461,0.90363 -0.45465,1.43019 -1.19429,2.51478 -5.73191,2.67079 -7.31065,0.25136 -0.69984,-1.0725 -0.901,-2.73459 -1.13451,-9.37355 -0.16911,-4.80761 -0.3116,-6.38691 -0.63253,-7.01008 -0.22784,-0.44242 -0.49733,-1.43322 -0.59885,-2.20178 -0.15336,-1.16087 -0.36111,-1.56938 -1.22746,-2.41362 -1.18045,-1.15033 -1.24125,-1.16652 -2.30517,-0.61407 -0.61174,0.31765 -0.77584,0.58079 -0.78091,1.2521 -0.004,0.46746 -0.12343,1.35925 -0.26642,1.98174 -0.48762,2.12276 -0.38968,4.05836 0.29036,5.73796 0.34862,0.86099 0.72678,1.63376 0.84037,1.71726 0.40718,0.2993 0.0705,1.95113 -0.46413,2.27714 -0.69196,0.42195 -2.88414,0.42832 -3.21415,0.009 -1.63468,-2.0754 -3.46877,-7.80523 -3.48053,-10.87351 -0.004,-1.01486 -0.1805,-2.34502 -0.39246,-2.95592 -0.21195,-0.6109 -0.32032,-1.28097 -0.2408,-1.48904 0.0795,-0.20807 0.0184,-0.45662 -0.13583,-0.55234 -0.15423,-0.0957 -0.2822,-0.43391 -0.28438,-0.75156 -0.004,-0.56217 -0.49077,-2.15628 -0.82057,-2.68634 -0.0902,-0.14498 -0.24482,-2.16153 -0.34361,-4.48121 -0.0988,-2.31968 -0.23466,-4.41243 -0.30199,-4.65055 -0.0673,-0.23812 -0.45667,-0.57198 -0.86523,-0.74191 -0.40855,-0.16993 -1.69214,-1.29401 -2.85243,-2.49797 -1.17173,-1.21586 -2.79245,-2.57868 -3.64557,-3.06551 -0.8448,-0.48206 -2.10353,-1.27404 -2.7972,-1.75995 -0.69367,-0.4859 -1.55635,-0.99614 -1.91709,-1.13386 -0.36075,-0.13772 -1.09264,-0.59114 -1.62644,-1.0076 -0.53382,-0.41645 -2.32908,-1.32622 -3.98949,-2.02169 -1.66041,-0.69547 -3.49145,-1.46936 -4.06898,-1.71975 -0.57753,-0.2504 -1.50566,-0.52199 -2.0625,-0.60354 l -1.01245,-0.14827 0.1826,1.2401 c 0.10043,0.68205 0.33583,1.41802 0.52312,1.63549 0.18728,0.21747 0.65386,1.02323 1.03684,1.79057 0.38298,0.76735 1.28902,2.13148 2.01343,3.03141 1.91744,2.38203 3.38794,5.1688 3.38794,6.42057 0,0.79022 0.24268,1.35336 1.04567,2.42645 0.57512,0.76858 1.18442,1.89228 1.354,2.49711 0.29861,1.065 1.73071,4.24513 2.3938,5.31573 0.17906,0.28909 1.48686,1.85795 2.90619,3.48634 2.04153,2.34225 2.70682,3.31013 3.18481,4.63342 0.56112,1.55341 1.08111,2.64391 1.72228,3.61202 0.14402,0.21747 0.56128,1.04782 0.92725,1.84521 0.91261,1.98845 1.25459,2.55549 2.03709,3.37771 0.37062,0.38945 0.88956,1.18257 1.15315,1.76249 0.26362,0.57992 0.67666,1.35095 0.91789,1.7134 0.24122,0.36245 1.09216,2.20106 1.89097,4.0858 0.79881,1.88475 1.9875,4.4891 2.64155,5.78747 0.65403,1.29836 1.18917,2.57822 1.18917,2.84414 0,0.2659 0.75972,1.29571 1.68823,2.28844 1.10369,1.17999 1.78363,2.16072 1.96375,2.83237 0.1952,0.7279 0.88803,1.65834 2.37675,3.19187 1.1557,1.19047 2.28651,2.60981 2.51293,3.15411 0.22644,0.54429 0.68729,1.28617 1.02409,1.64862 0.33681,0.36245 0.79668,1.01486 1.02189,1.4498 0.22524,0.43494 1.33145,1.87196 2.45825,3.19338 1.12679,1.32141 2.22591,2.67239 2.44249,3.00217 0.76276,1.16147 1.62512,2.10793 1.92657,2.11448 0.34518,0.008 1.86002,1.61539 4.96071,5.26538 1.17003,1.37731 2.43213,2.66561 2.80469,2.86291 0.91071,0.48226 3.43834,2.15261 4.09006,2.70285 1.56521,1.32151 6.90259,3.86383 9.40312,4.47888 1.15722,0.28467 3.99802,1.67539 4.24634,2.07883 0.0925,0.15031 0.64376,0.53846 1.225,0.86261 0.58123,0.32412 1.72501,0.96591 2.54169,1.42618 0.81671,0.46027 2.01651,1.08835 2.66623,1.39574 0.64973,0.30738 1.90056,1.30079 2.77964,2.20757 1.55976,1.60891 3.74446,2.80885 5.11397,2.80885 0.27307,0 1.23713,0.28416 2.14239,0.63148 4.189,1.60719 4.89488,1.74092 9.18886,1.74092 3.78964,0 4.12059,0.0401 4.94706,0.59937 2.16733,1.46659 2.74557,4.06292 1.37692,6.18243 -0.76649,1.18699 -1.86136,1.78093 -3.76011,2.03979 -0.64972,0.0886 -1.8901,0.39635 -2.7564,0.68391 -0.8663,0.28759 -1.94067,0.63992 -2.38752,0.78297 -1.83619,0.5878 -5.60829,0.85119 -12.31331,0.85976 -8.98993,0.0116 -21.01597,-0.44836 -22.06322,-0.84365 -0.82516,-0.31147 -15.18969,-0.23218 -21.25173,0.11727 -4.63003,0.26692 -6.75349,-0.4512 -9.67341,-3.27143 -1.05796,-1.02185 -1.83241,-2.09779 -2.49051,-3.46002 l -0.95508,-1.977 0.0234,-4.6584 c 0.0213,-4.20015 0.082,-4.80319 0.61843,-6.13033 l 0.59496,-1.47192 -1.92547,-3.49107 c -1.05901,-1.92012 -2.73159,-5.09247 -3.71687,-7.0497 -1.20919,-2.40208 -2.11936,-3.85843 -2.80063,-4.4812 -2.05571,-1.87915 -5.96912,-6.30617 -7.32703,-8.28867 -0.77035,-1.12468 -2.77037,-3.40883 -4.44448,-5.0759 -1.67402,-1.66706 -3.40637,-3.483 -3.84956,-4.03543 -3.04828,-3.79961 -5.87791,-6.68308 -7.85538,-8.00484 -1.17614,-0.78614 -2.9063,-2.04773 -3.84479,-2.80353 -0.93849,-0.75579 -2.33085,-1.65276 -3.09414,-1.99326 -1.75365,-0.7823 -7.51601,-5.70652 -9.02265,-7.71029 -1.17025,-1.55641 -3.08698,-5.79133 -3.101,-6.85153 -0.004,-0.33574 -0.14986,-0.86953 -0.32315,-1.1862 -0.32353,-0.59121 -0.39021,-0.97102 -1.11606,-6.35671 -0.40056,-2.97208 -1.05778,-5.14351 -1.67218,-5.52479 -0.36925,-0.22916 -1.52271,1.35551 -1.70568,2.34332 -0.36506,1.9709 -0.65612,2.99236 -1.20179,4.2176 -0.32283,0.7249 -0.69725,1.82214 -0.83204,2.4383 -0.13479,0.61617 -0.3593,1.65228 -0.49891,2.30248 -0.13961,0.6502 -0.42334,1.45088 -0.63051,1.7793 -0.20718,0.32842 -0.45474,1.0123 -0.55013,1.51973 -0.21486,1.14297 -0.60198,2.2951 -1.06822,3.17924 -0.19579,0.37127 -0.6098,1.49816 -0.92002,2.5042 -0.97543,3.16325 -1.36977,4.18266 -1.86846,4.83021 -0.26628,0.34576 -0.48415,0.91393 -0.48415,1.26261 0,0.67609 -0.87007,2.57894 -1.30169,2.84679 -0.14252,0.0884 -0.37743,0.60063 -0.52202,1.13819 -0.14459,0.53755 -0.67939,1.62578 -1.18845,2.41828 -0.50906,0.7925 -0.92556,1.71405 -0.92556,2.04788 0,0.33384 -0.35439,1.27384 -0.78754,2.0889 -0.43315,0.81506 -0.78755,1.6624 -0.78755,1.88296 0,0.63364 -1.23644,2.62569 -3.15904,5.08958 -0.97414,1.2484 -1.91669,2.55322 -2.09454,2.8996 -0.17786,0.34638 -0.59444,0.92633 -0.92573,1.28878 -0.3313,0.36245 -1.29145,1.90532 -2.13368,3.42859 -1.8903,3.41884 -2.75569,4.70229 -4.35335,6.45635 -0.70339,0.77225 -1.24695,1.62401 -1.24695,1.95398 0,0.79763 -0.36967,1.43145 -1.93971,3.32576 -0.73795,0.89037 -1.54672,1.96462 -1.79728,2.38719 -0.25056,0.42258 -0.98888,1.53938 -1.64072,2.48175 -0.65184,0.94237 -1.56908,2.29643 -2.03833,3.00905 -0.46924,0.71259 -1.51876,2.01741 -2.33225,2.8996 -0.96373,1.04509 -1.54174,1.92541 -1.6589,2.52655 -0.0989,0.50743 -0.77518,2.14405 -1.50283,3.6369 -1.16512,2.39035 -1.53506,2.89369 -3.09985,4.2176 -0.97726,0.82683 -2.4115,1.88666 -3.18719,2.35521 -0.77569,0.46855 -2.02622,1.36068 -2.77895,1.98249 -2.71495,2.24271 -2.0464,2.1587 -17.92624,2.25278 -11.5402,0.0684 -14.46584,0.0127 -16.40718,-0.31166 -1.29945,-0.21718 -3.25238,-0.45009 -4.33985,-0.5176 -3.00091,-0.18631 -5.32179,-1.31716 -7.02776,-3.4243 -0.72334,-0.89342 -2.51182,-2.92923 -3.97441,-4.52401 -1.55132,-1.69152 -3.09467,-3.68534 -3.70436,-4.78553 -1.30188,-2.34929 -2.60866,-5.42468 -2.89489,-6.81288 -0.76212,-3.69626 -1.27083,-5.90101 -1.52053,-6.59001 -0.15763,-0.43494 -0.58936,-2.45148 -0.95939,-4.4812 -1.518,-8.32651 -1.77803,-9.4862 -2.30961,-10.30048 l -0.5474,-0.83853 -0.99805,1.4837 c -5.55106,8.25219 -6.99437,10.31943 -10.9741,15.71812 -1.49625,2.02972 -3.19318,4.34281 -3.77097,5.1402 -0.57779,0.79739 -1.42105,1.86497 -1.87392,2.3724 -0.45287,0.50743 -1.692592,2.16811 -2.754932,3.6904 -1.06235,1.52229 -2.00482,2.82712 -2.09437,2.89961 -0.0896,0.0725 -0.60826,0.7249 -1.15269,1.4498 -1.45074,1.93169 -3.54415,4.31703 -4.85182,5.5284 -2.18949,2.0283 -2.80119,2.69144 -4.49811,4.87642 -0.93849,1.20843 -1.82895,2.3272 -1.97879,2.48615 -0.40612,0.43083 -5.43266,6.88676 -8.09522,10.39726 -1.2814,1.68949 -3.12809,4.08862 -4.10375,5.33145 -0.97565,1.24282 -1.96682,2.63423 -2.20258,3.09203 -0.23576,0.45779 -1.16517,1.82519 -2.06535,3.03865 -0.90018,1.21345 -1.81389,2.47586 -2.03046,2.80536 -0.21658,0.3295 -0.51191,0.73742 -0.65629,0.9065 -0.14438,0.16907 -0.4247,0.59934 -0.62291,0.95621 -0.19822,0.35683 -0.70594,1.12328 -1.12828,1.7032 -2.96504,4.07138 -8.16616,12.25659 -11.3062,17.79301 -0.2878,0.50743 -1.0411,1.78057 -1.67401,2.82922 -0.63291,1.04863 -1.15075,1.98639 -1.15075,2.08392 0,0.0975 -0.27195,0.54436 -0.60434,0.99298 -0.33238,0.44862 -1.64629,2.59499 -2.91979,4.76969 -3.83984,6.55713 -4.17982,7.11372 -4.40104,7.20506 -0.11704,0.0484 -0.21279,0.18874 -0.21279,0.312 0,0.12326 -0.34075,0.79544 -0.75723,1.49374 -0.41647,0.69828 -1.64427,2.75236 -2.72845,4.56461 -1.08417,1.81225 -2.34444,4.00672 -2.8006,4.8766 -1.23241,2.35016 -2.13579,3.8502 -3.18904,5.29533 -0.51898,0.71207 -1.22546,1.82847 -1.56996,2.48088 -0.3445,0.65241 -0.9305,1.60137 -1.30221,2.1088 -0.65465,0.89368 -2.44003,3.9292 -3.10081,5.272 -0.59102,1.20107 -2.06502,3.41442 -2.19017,3.28876 -0.0677,-0.068 -0.11831,14.85173 -0.11243,33.15494 0.01,29.70108 -0.0929,40.23449 -0.49935,51.33517 -0.0663,1.81225 -0.17148,7.38739 -0.23362,12.38921 -0.0693,5.57509 -0.23131,9.60422 -0.41877,10.4122 -0.20979,0.9042 -0.24759,2.60076 -0.1204,5.40381 0.3052,6.72634 0.338,8.97748 0.35529,24.38301 0.009,8.11889 -0.0669,15.94782 -0.16885,17.39762 -0.10198,1.4498 -0.1576,4.29668 -0.1236,6.3264 0.0737,4.39662 -0.3622,15.29833 -0.75197,18.80832 -0.15251,1.37336 -0.43653,2.92262 -0.63116,3.44275 -0.22803,0.60945 -0.40407,2.72676 -0.49504,5.95415 -0.16526,5.86287 -0.60744,18.97223 -0.81754,24.23751 -0.27264,6.83255 -0.0917,35.28592 0.26245,41.26714 0.0816,1.37731 0.20173,3.51247 0.26707,4.7448 0.20744,3.91233 0.8956,13.96699 1.21927,17.81447 l 0.31225,3.71189 0.8063,-0.93122 c 0.44347,-0.51215 1.26854,-1.35216 1.83349,-1.86666 0.56495,-0.51449 1.43848,-1.58787 1.94117,-2.38526 0.50269,-0.79739 1.58332,-2.16153 2.40141,-3.03141 1.5959,-1.69692 2.25854,-2.89282 3.48005,-6.28067 2.47631,-6.86797 3.1392,-8.94543 3.46151,-10.8482 0.50918,-3.00586 1.11994,-5.41116 2.14321,-8.44034 0.48975,-1.44981 1.00106,-3.34773 1.13626,-4.21761 0.32204,-2.072 1.4626,-5.4634 2.39359,-7.1172 1.44289,-2.56312 2.07053,-4.98879 2.88395,-11.14576 0.42814,-3.24059 0.89508,-6.3288 1.03764,-6.86272 0.14257,-0.5339 0.31713,-1.8767 0.38792,-2.98398 0.13015,-2.0361 0.55196,-4.18318 0.99209,-5.05 0.13216,-0.26028 0.39903,-1.32786 0.59303,-2.3724 0.194,-1.04455 1.48609,-6.28811 2.8713,-11.65237 1.38521,-5.36427 2.70151,-10.64286 2.92512,-11.73021 0.49971,-2.42995 2.71886,-7.3013 8.1868,-17.97123 1.88439,-3.67715 1.98248,-3.9883 3.64162,-11.55199 0.23852,-1.08735 0.75926,-2.98527 1.15722,-4.21761 0.39795,-1.23233 1.04813,-3.66404 1.44483,-5.4038 0.3967,-1.73976 1.17782,-5.12043 1.73581,-7.5126 0.55799,-2.39218 1.18878,-5.77285 1.40174,-7.51261 0.38743,-3.16505 1.0968,-5.84494 2.26769,-8.56701 0.60517,-1.40688 0.62371,-1.66044 0.62641,-8.567 l 0.003,-7.11721 -0.69599,-1.18873 c -0.3828,-0.65378 -1.20972,-1.56296 -1.83761,-2.02042 -0.62788,-0.45742 -1.90947,-1.55044 -2.84796,-2.42894 -1.79199,-1.67742 -5.95328,-4.05623 -8.8404,-5.05366 -1.71435,-0.59226 -3.0332,-1.72796 -3.80792,-3.27906 -0.28964,-0.57992 -1.27013,-2.18129 -2.17885,-3.5586 -2.05733,-3.11821 -3.84552,-6.17594 -4.3176,-7.38294 -0.19801,-0.50625 -0.7035,-1.72693 -1.12331,-2.71258 -0.4198,-0.98565 -0.92679,-2.64633 -1.12663,-3.6904 -0.25504,-1.33237 -0.75745,-2.60311 -1.68529,-4.2625 -0.72707,-1.30031 -1.43963,-2.96099 -1.58348,-3.6904 -0.91515,-4.64047 -1.18237,-5.53647 -2.39947,-8.04539 -0.7261,-1.4968 -1.69397,-3.26627 -2.15081,-3.93213 -0.66159,-0.96433 -0.89144,-1.66487 -1.12948,-3.44259 -0.29156,-2.17739 -0.49815,-6.5987 -0.30833,-6.5987 0.0523,0 0.77379,0.82833 1.60325,1.84077 0.82947,1.01244 2.00481,2.17992 2.61188,2.59443 1.36402,0.93138 6.28949,3.22154 8.58543,3.99191 7.25043,2.43282 11.62666,3.41897 17.06347,3.84522 1.28924,0.10106 3.56145,0.56413 5.38155,1.09668 6.76566,1.97969 6.58872,1.94721 11.18885,2.0536 4.48823,0.10383 9.24722,0.7854 11.38743,1.63092 0.78785,0.31124 2.29556,0.43789 6.037842,0.5072 3.16521,0.0586 5.70722,0.24314 6.95665,0.50497 1.08287,0.22694 4.15429,0.69649 6.82538,1.04344 2.67109,0.34698 6.56944,0.9865 8.66299,1.4212 5.78657,1.20146 7.33895,1.34552 14.91672,1.38438 3.8518,0.0198 6.70794,0.0856 6.34699,0.14627 -1.07101,0.18009 -6.34667,1.37143 -7.48168,1.68946 -0.57753,0.16185 -1.69978,0.67189 -2.49389,1.13348 -0.79411,0.46157 -2.15262,1.17287 -3.01892,1.58066 -3.41919,1.60949 -6.17157,4.3348 -7.55154,7.47725 -0.22885,0.52114 -0.32673,3.76023 -0.35235,11.66099 -0.0399,12.30301 -0.0189,12.5306 2.03078,22.01062 0.23872,1.10411 2.71942,6.67588 5.68307,12.76447 0.38274,0.78629 1.29861,2.09111 2.03528,2.8996 0.73666,0.80846 1.9678,2.39104 2.73588,3.51679 1.34276,1.96812 3.20413,3.6936 5.65696,5.24399 0.57753,0.36506 2.04083,1.30566 3.25177,2.09024 1.50969,0.97814 2.91239,1.63366 4.46276,2.08553 l 2.26103,0.659 0.18076,1.4498 c 0.59291,4.75545 0.69444,9.79459 0.24697,12.25741 -0.13171,0.7249 -0.76893,2.47367 -1.41606,3.88618 -0.81275,1.774 -1.47418,3.85262 -2.13893,6.7218 -0.52928,2.28449 -1.26352,5.04328 -1.63164,6.13063 -1.68218,4.96886 -4.06451,15.44165 -5.48144,24.09662 -0.0929,0.56737 -1.08979,2.88046 -2.21534,5.1402 -1.12555,2.25974 -2.36435,4.99826 -2.75289,6.08561 -0.90869,2.54297 -2.28431,5.30376 -3.25833,6.53928 -0.42203,0.53532 -1.12226,1.98159 -1.55608,3.21392 -0.43383,1.23233 -1.51065,3.54268 -2.39295,5.13414 -0.8823,1.59144 -1.60421,3.01488 -1.60426,3.16321 -5e-5,0.1483 -1.09277,2.46413 -2.42827,5.14626 -3.54418,7.11795 -3.8292,7.8191 -4.57191,11.2473 -0.58403,2.6957 -0.68711,3.88586 -0.75967,8.77113 -0.0462,3.10872 -0.15759,5.94685 -0.2476,6.30696 -0.09,0.36013 -0.21226,1.96832 -0.27167,3.57378 -0.0594,1.60548 -0.2379,3.69009 -0.39665,4.63246 -0.37541,2.22847 -3.01938,10.3714 -3.80875,11.73021 -0.97768,1.68295 -2.96664,6.67504 -3.52868,8.85662 -0.44803,1.739 -0.72523,3.95042 -1.20277,9.59539 -0.0613,0.7249 -0.18546,1.73317 -0.27584,2.2406 -0.0904,0.50743 -0.19991,3.0396 -0.24339,5.62702 -0.0435,2.58745 -0.12133,4.74689 -0.17298,4.79876 -0.0517,0.0519 -0.87369,-0.0166 -1.82673,-0.15212 -0.95305,-0.13552 -2.83867,-0.30749 -4.19028,-0.38217 -3.41562,-0.18868 -7.057682,-0.43467 -7.839022,-0.52946 -0.36096,-0.0438 -1.77854,-0.16241 -3.15018,-0.2636 -1.37164,-0.1012 -2.84829,-0.24953 -3.28144,-0.32961 -0.43315,-0.0801 -9.94275,-0.1831 -21.13244,-0.22888 -17.37832,-0.0711 -20.76597,-0.14741 -23.23257,-0.52328 -1.58821,-0.24201 -4.78002,-0.47917 -7.09291,-0.52699 -4.44295,-0.0919 -8.52585,-0.61479 -9.75675,-1.24959 -0.40636,-0.20959 -1.50669,-0.57913 -2.44518,-0.82125 -0.93849,-0.24212 -2.07511,-0.53635 -2.52581,-0.65386 -0.6816,-0.17769 -0.80471,-0.14192 -0.73173,0.21259 0.0483,0.23445 0.21291,2.80661 0.3659,5.71596 0.15298,2.90936 0.32607,5.53954 0.38463,5.84486 0.23797,1.24082 0.65332,7.90601 0.80917,12.98484 0.0912,2.9721 0.27653,6.47139 0.41184,7.77621 0.13531,1.30482 0.35853,5.99031 0.49604,10.41221 0.13751,4.42189 0.30888,9.93772 0.38082,12.25741 0.0719,2.31968 0.18617,4.87001 0.25382,5.6674 0.0677,0.79739 0.19389,3.64427 0.28052,6.3264 0.22432,6.94513 0.87225,19.25863 1.34167,25.49731 0.22065,2.93253 0.4386,7.79595 0.48433,10.80761 0.10687,7.03799 0.62677,15.99687 1.00355,17.29323 l 0.29353,1.00988 4.70602,-0.1657 c 2.58831,-0.0911 5.3128,-0.29479 6.05442,-0.45258 0.79466,-0.16907 5.33718,-0.3145 11.06145,-0.35412 5.34218,-0.0369 10.59904,-0.19327 11.68191,-0.34737 3.34368,-0.47583 35.2163,-0.85528 37.933402,-0.45163 1.18448,0.17598 16.90641,0.17327 20.21364,-0.003 1.58821,-0.0849 4.30524,-0.0163 6.03784,0.1522 3.6946,0.3595 16.28739,0.74509 29.79544,0.91232 5.26998,0.0652 11.76722,0.24444 14.43831,0.39819 11.29307,0.65012 19.63534,0.80617 49.61531,0.92809 17.39817,0.0708 33.58221,0.22841 35.96453,0.35035 2.38233,0.12194 4.60508,0.1778 4.93946,0.12415 0.33438,-0.0537 2.99235,-0.14943 5.90658,-0.21285 z m -74.37463,-64.01665 c -5.93584,-2.08761 -6.39936,-2.23752 -9.97556,-3.22594 -1.94918,-0.53872 -3.89835,-1.16825 -4.3315,-1.39895 -0.66565,-0.35452 -2.31125,-0.43985 -10.63185,-0.55125 -9.54149,-0.12774 -9.87787,-0.14983 -10.93527,-0.71759 -0.60004,-0.32218 -1.36789,-0.93903 -1.70635,-1.37078 l -0.61538,-0.78495 -4.20024,-0.14796 c -2.31013,-0.0814 -10.40215,-0.20315 -17.98226,-0.27063 -13.89338,-0.12369 -16.10545,-0.20893 -17.93418,-0.69124 -0.55108,-0.14533 -3.03184,-0.61029 -5.51281,-1.03321 -6.29972,-1.07391 -9.230262,-2.08408 -16.876872,-5.81758 -2.66171,-1.2996 -2.66024,-1.29744 -1.63767,-2.39589 0.48287,-0.51871 1.40629,-1.56871 2.05204,-2.33333 0.64575,-0.76463 2.06333,-2.04499 3.15018,-2.84528 2.00564,-1.47684 6.128982,-5.1489 9.739252,-8.67329 1.75077,-1.70915 2.29212,-2.06304 4.53949,-2.96758 2.60917,-1.05013 4.37878,-2.17918 5.85619,-3.7363 0.92607,-0.97605 3.2297,-4.86497 3.72433,-6.28731 0.5966,-1.71559 0.87298,-4.59821 0.95983,-10.01111 0.0993,-6.18828 0.28942,-9.00551 0.80943,-11.99381 0.20182,-1.15984 0.36712,-2.77595 0.36732,-3.59137 1.9e-4,-0.81539 0.16847,-1.94228 0.37395,-2.5042 0.76522,-2.09262 2.15163,-5.26149 2.59146,-5.92323 0.73256,-1.10214 3.53722,-9.54338 4.50223,-13.55042 0.76359,-3.17064 0.88792,-4.14229 0.88283,-6.89894 -0.003,-1.7647 0.088,-3.36114 0.20278,-3.54764 0.11479,-0.18652 0.23442,-2.95367 0.26585,-6.14927 0.0579,-5.88645 0.32173,-7.92727 1.30158,-10.0676 0.20915,-0.45687 0.38027,-0.91886 0.38027,-1.02667 0,-0.22923 2.98078,-6.20918 3.67302,-7.36871 0.25967,-0.43494 0.78944,-1.59522 1.17728,-2.5784 0.38784,-0.98318 1.18878,-2.58455 1.77987,-3.5586 1.07581,-1.77279 2.80653,-5.67363 2.81556,-6.34594 0.003,-0.19654 0.30894,-0.72031 0.68067,-1.1639 0.90445,-1.07931 3.36383,-6.03887 3.88864,-7.84179 0.23128,-0.79452 1.48591,-3.57974 2.78805,-6.18939 2.29221,-4.59384 2.38767,-4.85804 3.00016,-8.3034 1.72389,-9.69733 2.69567,-14.05179 4.32382,-19.37462 0.44346,-1.4498 1.40124,-4.98657 2.1284,-7.85953 0.91413,-3.61163 1.63483,-5.84852 2.33553,-7.249 0.55739,-1.114 1.13495,-2.61858 1.28346,-3.34348 0.73874,-3.60589 0.96288,-5.51881 0.95747,-8.17161 -0.008,-3.80833 -0.83256,-12.58545 -1.32948,-14.14755 -0.82831,-2.60387 -3.2175,-4.38001 -7.97623,-5.92953 -4.01175,-1.30629 -8.17194,-4.13396 -9.73691,-6.6181 -0.5728,-0.90924 -1.62868,-2.30429 -2.3464,-3.1001 -0.71772,-0.79581 -1.30495,-1.58242 -1.30495,-1.74804 0,-0.16559 -0.99345,-2.33584 -2.20766,-4.82272 -1.36449,-2.79469 -2.28052,-5.01937 -2.39842,-5.8248 -0.10491,-0.71676 -0.30339,-1.59974 -0.44105,-1.96219 -0.60004,-1.57973 -1.0372,-6.21002 -1.07848,-11.42287 l -0.0435,-5.49188 1.44383,0.17901 c 2.24456,0.27829 5.73469,1.60116 7.61881,2.8878 0.94172,0.64308 2.83183,1.60332 4.20024,2.13392 1.36841,0.53057 3.04715,1.24909 3.73055,1.59673 0.68339,0.34764 1.92377,0.81627 2.7564,1.04138 0.83263,0.22514 2.99052,0.80459 4.79531,1.28766 1.80479,0.4831 3.93116,1.18038 4.72527,1.54952 1.45155,0.67479 10.01797,2.91587 14.1758,3.70857 1.22726,0.23399 3.35363,0.50031 4.72527,0.59183 1.76854,0.11804 2.69017,0.30454 3.16875,0.64129 0.99397,0.69938 2.58278,0.98389 6.5443,1.17186 4.55387,0.21605 5.49024,0.28529 7.01545,0.51884 0.68957,0.1056 1.63336,0.22881 2.09731,0.27383 0.46395,0.0451 1.70433,0.20861 2.75641,0.36351 1.05207,0.15489 2.71728,0.39468 3.70046,0.53289 0.98318,0.13821 7.34385,0.25791 14.13481,0.26603 6.79096,0.008 12.46128,0.0855 12.60071,0.17207 0.13944,0.0865 2.16613,0.201 4.50375,0.25435 2.33763,0.0534 5.49062,0.21821 7.00664,0.36638 5.34687,0.52256 10.1811,0.71752 17.06346,0.68815 7.5525,-0.0322 10.02917,-0.36253 14.30706,-1.90815 1.01069,-0.36516 2.25107,-0.76992 2.75641,-0.89945 4.53647,-1.16277 8.78162,-2.18216 9.97556,-2.39542 3.38852,-0.6052 6.07531,-1.37997 8.58264,-2.47486 1.47181,-0.64274 2.7898,-1.16859 2.92882,-1.16859 0.13903,0 1.06117,-0.36822 2.04922,-0.81824 0.98805,-0.45005 2.68243,-1.03732 3.7653,-1.30509 2.33463,-0.57726 5.77194,-1.82145 7.53266,-2.72652 0.69388,-0.35668 2.73824,-1.26267 4.54303,-2.01333 1.80479,-0.75065 3.81303,-1.70053 4.46275,-2.11085 1.67584,-1.05833 5.14017,-2.73351 6.74889,-3.26348 0.75205,-0.24773 1.7857,-0.7355 2.297,-1.08392 1.05103,-0.71618 0.99241,-0.82085 0.98013,1.74996 -0.008,1.67784 -0.57832,3.83834 -1.33975,5.07544 -0.28414,0.46167 -0.94111,1.83523 -1.45995,3.05241 -0.92342,2.16634 -2.81003,5.42903 -4.35383,7.52942 -0.42625,0.57992 -1.40795,2.59646 -2.18155,4.4812 -1.54606,3.76661 -2.53469,5.38789 -4.50481,7.38751 -0.8355,0.848 -2.10096,2.74515 -3.51654,5.272 -3.729,6.6563 -4.78628,8.10365 -7.13253,9.76394 -2.32848,1.64771 -4.97579,4.44856 -5.78475,6.12026 -0.59221,1.22377 -0.56945,0.87821 -0.92413,14.02773 -0.34311,12.7211 -0.30473,17.11492 0.18457,21.1314 0.2532,2.07836 0.53745,4.60915 0.63166,5.62402 0.22548,2.42862 0.74192,4.64901 1.88799,8.11709 1.01422,3.06912 1.17982,3.33494 7.83575,12.57789 0.8663,1.20302 2.06964,2.81059 2.67411,3.57239 1.41033,1.77746 2.38799,3.72312 2.5969,5.16817 0.70766,4.89524 2.0761,7.20037 9.64555,16.24798 4.3095,5.15103 4.22269,4.9992 5.31299,9.29346 l 0.96629,3.80586 -0.04,8.91625 c -0.0303,6.74653 -0.13289,9.31821 -0.42158,10.56818 -0.68324,2.9583 -0.52783,8.11021 0.41249,13.6746 0.3921,2.32013 0.66516,3.15585 1.48019,4.52984 0.92162,1.55366 3.59197,5.16266 6.28314,8.49167 0.9136,1.13016 1.13787,1.63516 1.28756,2.8996 0.0997,0.8421 0.52768,2.59868 0.95106,3.9035 1.74961,5.39207 2.41249,8.71625 2.71706,13.62549 0.23193,3.73846 1.15446,5.74909 3.89254,8.48374 1.03481,1.03349 2.354,2.54569 2.93153,3.36045 0.57753,0.81476 1.38474,1.94149 1.79379,2.50386 0.40905,0.56236 1.47224,2.23282 2.36263,3.71212 1.88268,3.12788 5.44246,8.53461 6.99361,10.62217 0.59252,0.79739 2.11716,2.87411 3.38812,4.6149 2.55419,3.49845 3.60921,4.54911 5.56965,5.54662 1.19531,0.60823 1.31097,0.74607 1.23723,1.47434 -0.0758,0.74834 -0.2428,0.86667 -2.43672,1.7263 -1.73758,0.68082 -2.87367,0.95006 -4.33149,1.02653 -1.79697,0.0942 -4.13146,0.44747 -10.11407,1.53026 -3.21258,0.58147 -3.72057,0.6431 -6.82538,0.82807 -1.58822,0.0946 -4.00992,0.34579 -5.38156,0.55817 -1.37164,0.21236 -3.92323,0.49009 -5.67019,0.61717 -1.74696,0.12708 -3.87333,0.41235 -4.72527,0.63396 -1.00808,0.2622 -3.24478,0.44237 -6.40549,0.51594 -4.51431,0.10507 -5.04152,0.17042 -7.48167,0.92735 -1.44383,0.44788 -3.49733,0.9963 -4.5633,1.2187 -1.06599,0.22243 -2.9561,0.88644 -4.20023,1.47561 -4.3729,2.07074 -7.53085,3.06725 -13.75174,4.33946 l -3.15212,0.64464 -35.07527,-0.005 c -28.92524,-0.004 -35.5038,-0.0702 -37.51931,-0.37832 -2.10929,-0.32243 -2.68458,-0.3224 -4.20024,1.4e-4 -0.9659,0.20558 -3.18845,0.37581 -4.93899,0.37832 -2.3417,0.003 -3.48636,0.12167 -4.33149,0.44761 -0.9366,0.36124 -2.33622,0.45893 -7.58031,0.5291 l -6.43161,0.0861 -3.28144,-1.15409 z m 58.93458,-259.07415 c -0.6829,-0.18597 -7.80269,-0.34226 -20.36237,-0.44696 l -19.31231,-0.16101 -1.55762,-0.81548 c -0.85669,-0.44851 -1.88031,-0.89505 -2.27472,-0.99229 -1.97952,-0.48816 -3.54729,-3.08652 -3.27177,-5.4225 0.30036,-2.54648 2.63037,-6.18013 4.95172,-7.72216 1.82311,-1.21109 6.35188,-3.14056 9.73827,-4.14902 1.47793,-0.4401 3.65867,-1.09201 4.84609,-1.44866 1.18742,-0.35666 3.51617,-0.91406 5.175,-1.23869 2.83333,-0.55445 3.20349,-0.56988 6.11026,-0.25445 5.21878,0.56629 7.80123,1.19187 12.15099,2.94346 2.23794,0.9012 4.55046,1.97052 5.13894,2.37631 1.53829,1.06075 3.95421,3.76843 4.72478,5.29533 2.39168,4.73927 2.80247,7.97322 1.25787,9.90264 -1.15332,1.44068 -2.62573,2.17955 -4.60298,2.3099 -0.91415,0.0603 -2.13461,-0.0192 -2.71215,-0.17642 z m 32.64995,-6.65649 c -1.24548,-0.32831 -3.13559,-0.95795 -4.20024,-1.39916 -2.31942,-0.96127 -4.77412,-1.48821 -10.19379,-2.18825 -4.47021,-0.57739 -5.19953,-0.83253 -9.28902,-3.24927 -4.92274,-2.90917 -13.19605,-10.18699 -15.39937,-13.54644 -2.75681,-4.20334 -3.62032,-6.92262 -2.89707,-9.12315 0.95583,-2.90817 4.22878,-4.36058 6.96691,-3.09164 1.37192,0.63581 2.05779,1.41446 2.86969,3.25792 1.13863,2.58528 2.42567,4.23463 5.36893,6.88028 4.22842,3.8009 7.09766,5.97194 9.53287,7.21318 1.89384,0.96531 2.52385,1.14584 4.80479,1.37692 3.58763,0.36345 8.54575,1.39971 10.76311,2.24951 2.94255,1.12773 4.08675,1.45858 5.98413,1.73038 2.8351,0.4061 4.2325,1.3006 5.03149,3.22072 1.21888,2.92925 -0.39711,6.17957 -3.50308,7.0459 -1.44772,0.40378 -3.34152,0.28155 -5.83935,-0.3769 z m -87.37202,0.0895 c -0.35421,-0.14202 -1.80053,-0.36888 -3.21406,-0.50411 -1.41352,-0.13525 -3.62887,-0.38224 -4.92299,-0.54889 l -2.35294,-0.30301 0.55072,-1.08727 c 0.76128,-1.503 4.06712,-4.85296 6.97524,-7.06839 1.83083,-1.39473 2.79341,-2.36913 3.90484,-3.95276 0.81128,-1.15597 2.11621,-2.83373 2.89985,-3.72836 1.98609,-2.26739 4.11215,-6.75713 4.79992,-10.1363 0.78874,-3.87524 1.26335,-5.24309 2.1849,-6.29701 0.98895,-1.13101 2.57681,-1.92033 3.86308,-1.92033 1.82782,0 4.07139,1.5413 4.70857,3.23469 0.61664,1.63883 0.11479,5.51995 -1.33561,10.32915 -0.89887,2.98042 -3.72055,8.48832 -5.33417,10.41221 -0.7904,0.94237 -2.25849,2.85001 -3.26245,4.23921 -1.96118,2.71374 -3.7125,4.45935 -6.42116,6.40019 -1.79085,1.28321 -2.00321,1.34816 -3.04374,0.93098 z m -26.52627,-6.46026 c -3.53555,-0.80891 -6.23612,-2.15569 -8.18218,-4.08045 -1.27442,-1.26046 -1.57487,-1.75228 -2.06966,-3.388 -0.46851,-1.54886 -0.54454,-2.24743 -0.39896,-3.6657 0.0989,-0.9637 0.26641,-2.70114 0.3722,-3.86098 0.12917,-1.41617 0.51835,-2.98662 1.1849,-4.78131 0.83527,-2.24901 1.29124,-3.03191 2.87738,-4.9404 3.12002,-3.75409 10.15751,-9.43188 12.15764,-9.80864 0.50453,-0.0951 1.4119,-0.0829 2.01638,0.027 0.60448,0.10987 1.57159,0.15898 2.14912,0.10913 0.57753,-0.0499 4.12148,-0.0955 7.87545,-0.10143 l 6.82538,-0.0108 2.32434,0.84676 c 3.32496,1.2113 4.87513,2.16493 5.94488,3.65711 l 0.9188,1.28165 -0.0308,3.03826 c -0.0282,2.78133 -0.12399,3.33913 -1.13298,6.59683 -2.4514,7.91473 -6.80801,12.76155 -13.99694,15.57187 -0.75775,0.29623 -2.76099,1.13155 -4.45164,1.85632 -2.25002,0.96454 -3.85925,1.45497 -6.00396,1.82978 -3.66216,0.64 -4.92508,0.6133 -8.37937,-0.17703 z m 111.83132,-5.88595 c -4.55035,-0.97561 -8.77999,-2.39362 -13.91328,-4.66454 -3.33383,-1.47484 -4.18053,-1.98625 -6.81903,-4.11867 -4.78752,-3.86929 -7.3181,-7.57819 -7.41655,-10.86998 -0.11342,-3.79249 0.26252,-5.60693 1.81025,-8.7369 1.71408,-3.46639 2.68426,-4.73117 4.13754,-5.39397 1.77744,-0.81062 4.09555,-0.49825 5.45239,0.73474 0.38556,0.35037 1.1065,0.41654 4.20985,0.38627 2.98925,-0.0292 4.01335,0.0583 5.0769,0.43365 2.68849,0.94881 5.38219,2.75621 8.43424,5.65913 1.63998,1.55988 3.79273,3.39849 4.78391,4.0858 2.48985,1.72658 5.93136,4.2994 8.95622,6.69547 2.16236,1.71291 2.67308,2.26881 3.36872,3.66663 0.67196,1.35032 0.81991,1.96445 0.81991,3.40374 0,3.74976 -1.62074,6.01825 -5.70891,7.99054 l -2.29779,1.10852 -4.3315,0.049 c -3.33622,0.0377 -4.84421,-0.0609 -6.56287,-0.42943 z m -60.00321,-6.04952 c -1.37486,-0.62703 -2.64953,-2.18448 -3.1406,-3.83734 -0.21323,-0.71767 -0.46378,-2.9863 -0.55677,-5.04138 -0.15984,-3.53224 -0.13649,-3.80414 0.42703,-4.97305 0.80071,-1.66087 2.19842,-2.57598 4.15788,-2.72225 0.83459,-0.0623 2.06662,-0.39116 2.79215,-0.74528 1.21226,-0.59168 1.58864,-0.63377 5.66777,-0.63377 4.34795,0 4.37713,0.004 5.97578,0.80609 1.77745,0.89189 2.74687,1.8898 3.57017,3.67511 0.46186,1.00152 0.54735,1.70014 0.54914,4.48742 0.002,3.02503 -0.054,3.41078 -0.66854,4.61066 -0.47348,0.92442 -1.04048,1.53901 -1.92849,2.0903 -1.18776,0.73737 -1.46475,0.79075 -4.9734,0.95855 -3.53737,0.16918 -4.33022,0.32468 -7.12828,1.39796 -1.42826,0.54784 -3.45074,0.5167 -4.74384,-0.073 z m 0.41234,-18.92041 c -4.04564,-0.64571 -7.67443,-1.62401 -11.08288,-2.98785 -4.12514,-1.65064 -5.37533,-2.53755 -6.12857,-4.34777 -0.82944,-1.99335 -0.1205,-4.80098 1.50591,-5.96388 0.68963,-0.49309 0.76714,-0.67402 0.62186,-1.45164 -0.11192,-0.59901 -0.0656,-0.88833 0.14231,-0.88833 0.49129,0 3.67209,1.20001 7.27934,2.74629 3.8625,1.65567 7.54251,2.48472 11.99353,2.70195 3.46102,0.16889 5.68074,-0.23563 8.76539,-1.59749 1.15807,-0.51128 2.7901,-1.12732 3.62673,-1.36896 0.83664,-0.24167 2.28902,-0.89479 3.22751,-1.45141 0.93849,-0.55659 2.11981,-1.1547 2.62515,-1.3291 0.50534,-0.17439 1.3455,-0.75492 1.86702,-1.29003 1.83859,-1.88648 4.3264,-2.13511 6.56728,-0.65631 1.80513,1.19126 2.59164,4.16267 1.68106,6.351 -0.36495,0.87707 -0.35633,0.93652 0.16377,1.12971 0.51303,0.19058 0.48236,0.2564 -0.46794,1.00471 -1.66465,1.31078 -3.2148,2.20581 -4.9683,2.86855 -0.90943,0.34371 -2.24468,0.99019 -2.96721,1.43662 -0.72253,0.44641 -2.47379,1.21541 -3.89169,1.7089 -1.4179,0.49346 -3.68902,1.32801 -5.04693,1.8545 -3.56708,1.38309 -5.66291,1.71306 -10.61428,1.67117 -2.33352,-0.0198 -4.5381,-0.083 -4.89906,-0.14063 z m 121.54438,-1.5492 c -3.62796,-0.66361 -7.69237,-0.90845 -15.09634,-0.90937 -4.09153,0 -7.75631,-0.11727 -8.26347,-0.26334 -0.70107,-0.20189 -1.1689,-0.16366 -2.028,0.16581 -0.72696,0.27876 -1.57423,0.38409 -2.42758,0.30174 -4.78384,-0.46156 -6.1445,-6.74666 -2.07085,-9.56555 1.76239,-1.21957 6.56909,-2.92657 11.64146,-4.13428 4.22462,-1.00584 4.60984,-1.0535 7.21915,-0.8931 3.00982,0.18502 6.5885,0.73919 8.4959,1.3156 0.66871,0.20208 2.48605,1.12755 4.03853,2.05661 1.55249,0.92906 3.39624,1.9043 4.09723,2.16719 2.63124,0.98679 4.03367,3.08844 3.78625,5.67399 -0.16622,1.73702 -1.15567,3.21545 -2.63245,3.93331 -1.3593,0.66074 -3.68998,0.71294 -6.75983,0.15139 z m -199.11751,-0.65112 c -0.72192,-0.10868 -4.62027,-0.22042 -8.66299,-0.24831 -7.60388,-0.0524 -10.76311,-0.3638 -10.76311,-1.06078 0,-0.20026 0.73202,-0.98845 1.62671,-1.75149 2.42086,-2.0647 3.11522,-2.20697 10.77113,-2.20697 6.11398,0 6.48512,0.0291 8.41845,0.66077 1.11238,0.3634 2.61316,1.00263 3.33507,1.42046 1.44012,0.83353 3.80647,2.83107 3.80647,3.21318 0,0.28358 -6.6079,0.26278 -8.53173,-0.0269 z m 242.61693,-1.21617 c -0.0911,-0.0914 -3.56611,-0.24257 -7.72232,-0.33583 l -7.55676,-0.16957 -2.36263,-1.00429 c -1.29945,-0.55238 -3.52274,-1.40449 -4.94063,-1.8936 -3.73302,-1.28774 -5.1055,-2.20006 -10.28523,-6.83697 -1.29945,-1.16327 -2.92003,-2.57095 -3.60128,-3.1282 -1.08695,-0.8891 -2.61888,-2.83056 -2.89877,-3.67369 -0.0529,-0.15924 -0.67929,0.31334 -1.39204,1.05018 -1.07366,1.10994 -1.54359,1.39363 -2.73976,1.65402 -1.27598,0.27775 -1.90161,0.23233 -5.38156,-0.39082 -2.16574,-0.38783 -5.3553,-0.76742 -7.0879,-0.84352 -2.70928,-0.11901 -3.40736,-0.0605 -4.98778,0.41783 -2.28288,0.69098 -5.71424,1.34977 -7.0307,1.34982 -3.62115,1.9e-4 -6.14875,-3.74191 -4.76855,-7.05971 0.87842,-2.11155 2.16041,-2.89064 6.15518,-3.74059 1.37164,-0.29186 3.32081,-0.76189 4.3315,-1.04455 2.34504,-0.65583 7.22349,-0.71156 10.97186,-0.12534 2.84991,0.4457 7.55074,1.32143 8.5017,1.58382 l 0.57249,0.15797 -0.40162,-1.54169 c -0.61043,-2.34314 -0.0306,-4.90776 1.40406,-6.21053 1.34174,-1.21836 3.7736,-1.59356 5.53599,-0.85417 1.81445,0.76128 2.30916,1.50738 3.44866,5.20126 0.3032,0.98288 0.92122,2.67203 1.3734,3.75366 0.77116,1.84476 1.01924,2.14328 4.00261,4.81674 4.8654,4.35993 5.72417,4.97224 7.98662,5.69466 1.11063,0.35465 2.90528,1.03268 3.98816,1.50677 1.71459,0.75065 2.32491,0.87597 4.72566,0.97039 4.36003,0.17145 4.44983,0.0978 1.57469,-1.29117 -5.03411,-2.43194 -15.80497,-8.97969 -17.68132,-10.74871 -1.03415,-0.97498 -3.26597,-3.85874 -4.42419,-5.71652 -1.31415,-2.10793 -1.64245,-5.68119 -0.77814,-8.46968 0.33077,-1.06708 0.4438,-2.05421 0.36329,-3.17201 -0.15097,-2.09586 0.58257,-3.74352 2.12222,-4.76687 1.002,-0.66596 1.26456,-0.71101 4.47226,-0.76739 2.90882,-0.0511 3.57955,0.0163 4.58115,0.4613 0.92654,0.41153 1.76005,0.5219 3.96205,0.52459 2.04169,0.003 3.23442,0.14372 4.45278,0.5272 0.91526,0.28809 2.17465,0.5238 2.79865,0.5238 1.55175,0 4.01519,0.8096 5.40759,1.77717 1.60549,1.11566 3.96377,3.4641 6.28038,6.2542 1.07954,1.30021 3.18882,3.67261 4.68731,5.27201 3.12954,3.34036 4.24478,4.94769 5.00482,7.21313 0.64985,1.93704 0.68235,3.4205 0.11684,5.33437 -1.16906,3.95645 -3.75231,7.04487 -6.6122,7.90526 -1.26122,0.37943 -1.31685,0.50248 -0.54062,1.19593 0.77757,0.69464 1.5265,2.42828 1.5265,3.53356 0,2.15166 -1.85766,4.42469 -4.07413,4.98513 -1.254,0.31706 -2.82347,0.37853 -3.08029,0.12065 z M 89.647708,444.4761 c -0.74674,-0.37853 -1.39625,-0.98558 -1.8376,-1.71754 -0.37545,-0.62265 -0.81148,-1.08693 -0.96896,-1.03173 -0.15748,0.0552 -0.43888,0.006 -0.62534,-0.11003 -0.24885,-0.15442 -0.19014,-0.25785 0.22069,-0.38879 0.4648,-0.14811 0.55971,-0.38475 0.55971,-1.39539 0,-2.70303 1.90072,-4.79494 4.53484,-4.99098 0.75446,-0.0562 2.47856,-0.35552 3.83133,-0.66525 3.87266,-0.88675 5.122472,-2.01166 11.117362,-10.00655 1.05129,-1.40201 2.2204,-3.07405 2.59802,-3.7156 0.89729,-1.52448 2.43908,-2.30229 4.56371,-2.30229 3.10264,0 5.11725,1.78128 5.32831,4.71122 0.14272,1.98125 -0.2143,2.76037 -2.73312,5.96459 -1.13968,1.4498 -2.63188,3.34772 -3.31599,4.2176 -0.68412,0.86988 -1.83577,2.36964 -2.55924,3.33281 -1.28551,1.71142 -4.90175,4.8233 -7.35022,6.32506 -1.86051,1.14112 -4.150602,1.61123 -10.895962,2.23662 -1.00675,0.0933 -1.58167,-0.0148 -2.46754,-0.46375 z m 200.156402,-1.66039 c -1.53309,-0.5707 -2.30932,-1.23141 -2.96847,-2.52672 -0.94634,-1.8597 -0.65747,-4.40824 0.66629,-5.87812 0.72942,-0.80994 2.38626,-1.53207 3.86726,-1.68557 1.32982,-0.13781 1.50959,-0.25962 4.76344,-3.22739 2.08345,-1.90029 4.33588,-4.29041 5.86789,-6.22655 1.36754,-1.72832 3.37586,-4.16098 4.46294,-5.40591 2.6279,-3.0095 3.63055,-4.92772 3.91716,-7.49421 0.27409,-2.45412 1.05431,-3.77346 2.70643,-4.57657 2.73461,-1.32926 5.97675,-0.13302 7.1262,2.62933 0.62064,1.49158 0.78276,3.46871 0.41233,5.02846 -0.88019,3.70604 -2.90055,7.41168 -5.94567,10.9053 -1.13197,1.29865 -3.43472,4.08119 -5.11726,6.1834 -1.68253,2.10221 -3.60564,4.27697 -4.27358,4.8328 -0.66792,0.5558 -2.59766,2.26548 -4.28831,3.79929 -1.69062,1.53381 -3.60546,3.02898 -4.25518,3.32263 -1.54561,0.69854 -5.44183,0.87805 -6.94147,0.31983 z m -136.28152,-1.62249 c -3.7375,-1.97592 -6.49985,-3.27747 -7.74195,-3.64786 -1.1053,-0.3296 -2.76702,-0.41419 -8.13652,-0.41419 h -6.74755 l -0.41035,0.62887 c -0.69301,1.06204 -2.60989,1.82466 -4.24427,1.68857 -2.73128,-0.22744 -4.59639,-2.30015 -4.59152,-5.10256 0.003,-1.63132 1.65201,-5.22651 2.86928,-6.25503 1.44934,-1.22458 2.07579,-1.28249 12.87935,-1.19113 l 10.10682,0.0855 2.23138,0.82567 c 3.66909,1.3577 9.09724,4.22739 9.83605,5.20002 1.49171,1.96382 1.83878,4.17189 0.95837,6.0971 -0.57354,1.25416 -1.15897,1.81618 -2.46075,2.36236 -1.45309,0.60963 -3.05544,0.51196 -4.54834,-0.27731 z m 27.97897,-0.50345 c -0.50534,-0.19541 -1.33227,-0.36572 -1.83761,-0.37848 -1.87601,-0.0473 -6.45912,-1.63648 -10.63185,-3.6865 -1.15506,-0.56745 -2.63171,-1.17086 -3.28143,-1.34088 -0.86828,-0.2272 -1.52914,-0.67542 -2.4939,-1.69144 -0.72191,-0.76028 -1.84416,-1.74838 -2.49389,-2.19579 -0.64972,-0.44741 -2.19349,-1.69514 -3.43059,-2.77273 -1.2371,-1.0776 -2.90418,-2.37995 -3.70463,-2.8941 -1.41619,-0.90968 -2.57783,-2.56736 -2.57783,-3.67862 0,-0.22849 -0.53334,-1.01112 -1.18522,-1.73915 -1.6164,-1.80527 -1.96609,-2.76567 -1.95919,-5.38077 0.009,-3.22873 0.92481,-4.90423 3.20519,-5.86099 2.45085,-1.02825 5.25204,0.0458 6.49825,2.49163 0.25855,0.50743 0.58382,1.33777 0.72283,1.8452 0.6983,2.54901 5.84209,7.93906 9.85682,10.3287 0.89712,0.53397 2.63526,1.62304 3.86251,2.42014 1.22726,0.7971 2.52671,1.57069 2.88767,1.71909 3.3208,1.36529 5.02964,1.89716 6.81923,2.12249 4.55228,0.57317 7.31672,3.11591 7.03932,6.47483 -0.29093,3.52268 -3.81862,5.56192 -7.29568,4.21737 z M 59.694668,437.36556 c -4.6372,-1.28115 -7.63333,-2.33173 -10.1597,-3.56248 -2.33345,-1.13675 -2.59967,-1.36405 -4.35684,-3.72011 -0.1671,-0.22403 -0.0901,-0.37937 0.24554,-0.49541 0.26893,-0.0929 1.32725,-0.56452 2.35181,-1.04791 1.02457,-0.48339 2.38308,-0.95484 3.01892,-1.04768 2.26,-0.32995 4.09464,-0.90494 6.22892,-1.95223 1.18965,-0.58377 2.20375,-1.06138 2.25356,-1.06138 0.0498,0 0.14966,1.39378 0.22189,3.0973 0.16992,4.00754 1.25346,7.18318 3.25013,9.52548 0.88393,1.03695 0.89765,1.08314 0.31329,1.05519 -0.33611,-0.0161 -1.8515,-0.37194 -3.36752,-0.79077 z M 217.39939,435.8094 c -0.54202,-0.13863 -1.57175,-0.55035 -2.28827,-0.91493 -0.84208,-0.42849 -1.74682,-0.66496 -2.55846,-0.6687 -4.17399,-0.0192 -6.26042,-3.90814 -4.31365,-8.04021 0.72133,-1.53104 2.16522,-3.2888 2.70155,-3.2888 0.14271,0 0.93101,-0.66399 1.75178,-1.47551 3.89724,-3.85333 14.82449,-7.22891 23.37279,-7.22016 3.42342,0.003 4.01788,0.13583 9.34617,2.08073 4.00404,1.46153 5.18798,2.23235 6.10585,3.97522 1.60749,3.05238 -0.15847,6.69547 -4.24785,8.7631 -0.87057,0.44016 -2.09415,1.15248 -2.71906,1.58289 -1.39847,0.96325 -6.01384,3.151 -8.24012,3.90595 -1.22528,0.41551 -2.76291,0.62228 -5.9808,0.80429 -2.38232,0.13476 -4.68589,0.29716 -5.11904,0.3609 -1.89283,0.27857 -6.9107,0.36543 -7.81089,0.13523 z m 55.43599,-1.54826 c -3.31719,-0.72746 -5.8697,-2.52231 -6.97434,-4.90425 -0.54919,-1.18425 -0.61238,-1.70057 -0.61468,-5.02267 -0.002,-2.70607 0.13609,-4.34068 0.51257,-6.07269 0.83519,-3.84263 1.6116,-5.24467 3.41629,-6.16917 0.63743,-0.32652 1.05625,-0.75769 1.16722,-1.20162 0.0952,-0.38079 0.67818,-1.24553 1.29559,-1.92167 0.66303,-0.72609 1.26127,-1.7149 1.46142,-2.41553 0.59236,-2.07358 2.05572,-3.67029 5.89033,-6.42699 2.29228,-1.64795 3.61299,-2.11832 8.69903,-3.09825 5.05567,-0.97408 12.13575,-0.70318 14.14063,0.54101 1.31814,0.81801 3.01553,2.81059 3.75086,4.40313 0.86021,1.86299 1.1102,6.78683 0.52703,10.38031 -0.35852,2.20915 -0.64435,2.97009 -2.4258,6.4582 -2.48349,4.86269 -3.65885,6.5564 -6.3123,9.09606 -1.91966,1.83737 -2.3568,2.10751 -6.11402,3.77818 -5.52856,2.45833 -7.08643,2.84039 -12.09813,2.96711 -3.28472,0.083 -4.50318,0.008 -6.3217,-0.39116 z M 77.318648,432.78972 c -0.48582,-0.22184 -1.34698,-0.40336 -1.91369,-0.40336 -1.39425,0 -2.92502,-0.83469 -4.5819,-2.49843 -1.90529,-1.91315 -2.30055,-3.32112 -2.15604,-7.67999 0.10491,-3.16399 0.13311,-3.29416 1.14604,-5.28919 1.13858,-2.2425 2.87424,-3.90186 5.6325,-5.38488 0.79411,-0.42695 1.94081,-1.1775 2.54823,-1.66785 0.67022,-0.54104 1.6308,-1.00489 2.44336,-1.17987 0.74022,-0.1594 2.00717,-0.74304 2.83332,-1.30516 2.00666,-1.36543 3.16346,-1.93378 5.92529,-2.91126 3.67005,-1.29891 5.78579,-1.70586 8.95733,-1.72289 6.483932,-0.0348 10.369342,2.25855 10.369342,6.12048 0,0.63122 0.12029,1.37339 0.26732,1.64924 0.2129,0.39946 -7.9e-4,1.03442 -1.05006,3.11932 -0.72456,1.43978 -1.31738,2.72528 -1.31738,2.85671 0,0.42925 -1.18907,1.87248 -4.72571,5.73583 -2.496392,2.727 -3.772482,3.91903 -4.514502,4.21716 -0.56892,0.22857 -2.17797,1.16722 -3.57566,2.08589 -1.39768,0.91868 -3.49747,2.09188 -4.66619,2.60717 -3.54724,1.56394 -9.85122,2.45957 -11.6216,1.65108 z m 114.420992,-2.67986 c -1.20063,-0.2292 -2.47223,-0.68591 -4.72527,-1.69716 -1.22726,-0.55082 -3.53083,-1.37768 -5.11904,-1.83746 -3.50267,-1.01399 -3.71817,-1.12243 -6.95646,-3.50018 -1.41698,-1.04043 -3.29171,-2.29464 -4.16604,-2.78713 -2.17645,-1.22592 -7.34043,-5.49846 -8.70124,-7.19918 -2.24864,-2.8103 -2.89907,-5.35957 -1.87969,-7.36729 0.76097,-1.49877 2.41978,-3.38054 3.44132,-3.90384 1.19135,-0.61028 2.64505,-0.98902 4.48008,-1.16722 0.79411,-0.0771 2.21169,-0.21789 3.15018,-0.31286 1.98759,-0.20113 5.14947,0.2303 6.67956,0.91139 0.58554,0.26065 2.08371,1.29391 3.32924,2.29615 1.24555,1.00226 3.19148,2.53398 4.32429,3.40386 1.13282,0.86989 2.78014,2.29333 3.66071,3.16321 0.88057,0.86988 2.20064,1.99147 2.9335,2.49242 0.79495,0.54338 1.78908,1.58695 2.46436,2.58686 0.62254,0.92181 1.8274,2.46917 2.67747,3.43859 2.17049,2.47518 2.8952,4.11195 2.76058,6.23483 -0.14043,2.21445 -0.99717,3.53401 -2.89299,4.45579 -1.38563,0.67374 -4.04903,1.05867 -5.46056,0.78922 z m -51.71543,-11.04748 c -0.21657,-0.0456 -1.69322,-0.27362 -3.28143,-0.50678 -1.58822,-0.23315 -3.25425,-0.48078 -3.70229,-0.55026 l -0.81463,-0.12634 -0.16244,-2.11532 c -0.0933,-1.2148 -0.38798,-2.62725 -0.69222,-3.31788 l -0.52977,-1.20257 4.13199,0.14437 c 6.09362,0.21294 5.4147,-0.20924 5.6129,3.49039 0.0926,1.72819 0.25402,3.40906 0.35876,3.73526 0.19187,0.59761 0.0693,0.6574 -0.92087,0.44913 z m 190.45452,-2.19698 c -1.24899,-0.57591 -1.8087,-1.16377 -2.35263,-2.47094 -0.53716,-1.29093 -0.50148,-2.98901 0.0899,-4.28231 0.57354,-1.25416 1.15898,-1.81618 2.46076,-2.36236 1.75578,-0.73663 4.17107,-0.36308 5.53909,0.8567 0.78786,0.70249 1.47048,2.44157 1.47048,3.74626 0,1.30469 -0.68262,3.04376 -1.47048,3.74626 -1.4233,1.26908 -3.92281,1.60298 -5.73716,0.76639 z m 2.10012,-11.20699 c -1.44383,-0.32692 -3.51113,-0.85957 -4.59401,-1.1837 -4.00561,-1.19893 -12.03166,-3.78888 -14.83209,-4.78618 -1.58821,-0.56561 -3.73133,-1.2162 -4.76249,-1.44572 -1.03116,-0.22954 -2.40217,-0.75318 -3.04672,-1.16361 -3.24594,-2.06705 -2.97944,-7.04276 0.46699,-8.71805 1.05696,-0.51378 1.49846,-0.57491 3.2331,-0.44762 1.10496,0.0811 3.01312,0.44074 4.24038,0.79926 2.17457,0.63528 2.2114,0.63747 1.44625,0.0862 -0.43181,-0.3111 -1.64413,-1.38783 -2.69403,-2.39267 -2.5035,-2.3961 -3.47806,-4.27913 -3.47602,-6.71619 0.003,-2.22618 0.3283,-3.37203 1.40971,-4.94828 1.21864,-1.77632 2.88223,-2.8942 5.1885,-3.48648 1.06379,-0.2732 2.66397,-0.93325 3.55595,-1.46678 2.13185,-1.27522 4.82896,-2.17093 7.68759,-2.5531 l 2.31848,-0.30996 5.34191,1.25637 c 9.51236,2.23725 11.31449,2.76403 15.47982,4.52488 4.4822,1.89481 5.36748,2.54168 7.0602,5.15884 1.97585,3.05489 2.05381,5.51631 0.29373,9.27111 -0.59042,1.25956 -1.55905,2.95008 -2.15249,3.75675 -0.59347,0.80664 -1.02908,1.51675 -0.96808,1.57804 0.061,0.0613 0.80986,-0.3813 1.66409,-0.98352 3.00907,-2.12132 4.94273,-2.5517 7.06592,-1.57272 1.249,0.57592 1.80871,1.16377 2.35264,2.47094 0.79752,1.91666 0.34591,4.2669 -1.1196,5.82659 -1.21676,1.29497 -4.31619,3.24062 -7.35627,4.61796 -5.73194,2.59689 -8.58597,3.16144 -16.84681,3.33236 -3.75457,0.0777 -4.68114,0.0105 -6.95665,-0.50472 z m 11.28814,-10.14146 3.67521,-0.46391 -6.82539,-0.17999 c -3.75396,-0.099 -7.41604,-0.25543 -8.13796,-0.34761 -2.14351,-0.27377 -1.19935,0.1337 1.8658,0.80525 3.46798,0.75977 4.68778,0.78389 9.42234,0.18626 z m -220.90624,8.13317 c -2.3053,-0.22677 -7.44136,-1.34317 -7.57136,-1.64576 -0.0493,-0.1148 -0.51752,-0.38823 -1.04045,-0.60763 -1.28604,-0.53956 -1.87329,-1.10535 -2.44513,-2.35579 -1.01724,-2.22442 -0.27463,-5.17637 1.6064,-6.38561 0.50534,-0.32486 1.07166,-0.72089 1.25848,-0.88006 0.39729,-0.33843 1.43115,-0.20824 5.30439,0.66802 4.71766,1.06729 9.391,1.43211 11.81317,0.92218 0.64972,-0.13678 2.36686,-0.36203 3.81586,-0.50053 4.78184,-0.45713 10.26239,-1.79493 17.4529,-4.26022 4.05262,-1.38949 6.43866,-0.81811 7.82178,1.87304 0.51714,1.00618 0.58233,1.41803 0.43755,2.76397 -0.25194,2.34196 -0.26093,3.63645 -0.0287,4.13347 0.16628,0.35586 0.009,0.49823 -0.79853,0.72342 -0.55305,0.15421 -1.50233,0.28105 -2.10951,0.28184 -1.16197,0.003 -4.14461,0.77053 -8.74034,2.25342 -3.18813,1.02867 -10.19795,2.48859 -12.01411,2.50211 -0.68359,0.005 -2.01075,0.17886 -2.94924,0.38615 -1.8337,0.40502 -8.28638,0.47493 -11.81316,0.12798 z m 1.25449,-14.25252 c -1.11482,-0.11846 -3.30026,-0.50935 -4.85653,-0.86864 -1.55627,-0.35929 -3.34248,-0.72422 -3.96936,-0.81091 -1.29533,-0.1792 -2.84649,-0.90444 -3.50984,-1.64102 -0.71356,-0.79233 -1.25745,-2.34356 -1.2512,-3.56854 0.009,-1.6997 0.771,-3.05539 2.78394,-4.95097 1.66886,-1.57153 2.07968,-1.80832 4.96208,-2.85995 4.836,-1.76441 6.72423,-2.29035 11.4118,-3.17857 6.47304,-1.22656 9.86729,-1.05351 14.04455,0.71604 1.64421,0.69651 3.85422,1.24417 6.56287,1.62633 5.42534,0.76545 7.1271,1.4947 8.11004,3.47536 1.43533,2.89225 0.48939,6.60166 -2.04796,8.03082 -0.58293,0.32834 -2.35641,0.80925 -4.19248,1.13688 -2.97079,0.5301 -6.91037,1.4866 -10.92636,2.65279 -1.48101,0.43009 -2.59038,0.49291 -8.40048,0.47564 -3.68177,-0.0108 -7.60625,-0.11677 -8.72107,-0.23526 z M 25.308938,370.83572 c 0.29274,-0.57992 0.74932,-1.41026 1.01462,-1.8452 0.45498,-0.74591 0.95141,-1.60673 2.10022,-3.6419 0.27137,-0.48073 1.14149,-1.93383 1.9336,-3.22911 0.7921,-1.29525 1.48559,-2.47778 1.54108,-2.62785 0.0966,-0.2611 1.67212,-2.84243 5.81059,-9.51979 1.04678,-1.68897 2.09441,-3.40764 2.32807,-3.81928 0.23366,-0.41164 0.54593,-0.89803 0.69394,-1.08086 0.23672,-0.29242 0.76458,-1.18834 1.74895,-2.96843 0.16035,-0.28996 0.51677,-0.86408 0.79206,-1.27583 0.27529,-0.41174 0.68671,-1.07522 0.91426,-1.47442 0.34332,-0.6023 2.22042,-3.69596 4.86218,-8.01347 0.2809,-0.45909 1.22595,-1.78365 2.10012,-2.94349 0.87417,-1.15984 2.77071,-3.85012 4.21454,-5.9784 4.45419,-6.5657 8.50013,-12.02526 9.11198,-12.29561 0.10653,-0.0471 0.80711,-0.93673 1.55682,-1.977 0.74972,-1.04027 2.20318,-2.89968 3.22991,-4.13201 1.02674,-1.23233 2.44841,-3.01163 3.15929,-3.954 0.71087,-0.94237 1.43163,-1.80023 1.60167,-1.90636 0.17005,-0.10613 1.21141,-1.35164 2.31412,-2.7678 1.10271,-1.41617 3.00881,-3.76105 4.23577,-5.21085 1.22696,-1.4498 2.3045,-2.81393 2.39453,-3.0314 0.09,-0.21747 0.94838,-1.16643 1.90744,-2.1088 0.95906,-0.94237 2.23637,-2.26364 2.83847,-2.93614 0.6021,-0.6725 1.36636,-1.44498 1.69835,-1.71662 0.76693,-0.6275 3.60831,-3.85853 4.21181,-4.78938 0.25191,-0.38857 0.45864,-0.99538 0.4594,-1.34847 7.9e-4,-0.35312 0.22341,-0.88691 0.49479,-1.1862 0.93768,-1.03421 8.694612,-11.53879 8.694612,-11.77442 0,-0.13001 0.1151,-0.23639 0.25578,-0.23639 0.14067,0 0.45112,-0.38552 0.6899,-0.8567 0.23877,-0.47119 1.12985,-1.80566 1.98018,-2.9655 1.82713,-2.49218 3.00006,-4.18414 4.35274,-6.27885 0.54484,-0.84372 1.28595,-1.98977 1.64691,-2.54677 0.36095,-0.557 1.27732,-1.68015 2.03636,-2.49589 l 1.38008,-1.48316 -0.7835,-1.84881 c -0.4604,-1.0864 -0.85284,-2.57692 -0.95164,-3.61447 -0.0925,-0.97112 -0.39047,-2.28488 -0.6622,-2.91948 -0.30676,-0.71638 -0.49407,-1.77233 -0.49407,-2.78529 0,-2.83037 -0.46851,-4.48973 -2.27824,-8.06911 -1.63414,-3.23208 -1.73698,-3.54664 -2.08315,-6.37167 -0.20029,-1.63445 -0.49434,-3.56484 -0.65346,-4.28974 -0.40563,-1.84793 -0.69557,-7.8323 -1.05691,-21.81433 -0.23749,-9.18939 -0.23885,-12.29615 -0.006,-13.04821 0.16828,-0.54289 0.41725,-2.11397 0.55325,-3.49128 0.32061,-3.24679 1.31,-8.20486 2.07777,-10.41221 1.04374,-3.00078 1.4121,-4.35902 2.00171,-7.38081 0.2263,-1.15984 0.58489,-2.61293 0.79686,-3.2291 1.8601,-5.40716 2.19046,-6.31155 3.45409,-9.45596 1.19306,-2.96876 1.58616,-3.60415 5.00997,-8.09775 2.36241,-3.10056 6.22268,-6.6924 8.34165,-7.7616 0.97678,-0.49286 1.70546,-1.05974 1.89273,-1.47246 0.28917,-0.63727 2.01802,-1.74132 2.74331,-1.75188 0.18623,-0.003 1.14627,-0.41589 2.13342,-0.91817 1.47307,-0.74953 2.19654,-1.37478 4.03572,-3.48777 4.19401,-4.81844 5.21166,-5.73982 8.95897,-8.11153 0.91507,-0.57915 2.09639,-1.41701 2.62515,-1.8619 0.52876,-0.44489 1.43391,-1.08752 2.01144,-1.42807 2.94924,-1.73907 4.31361,-2.75497 5.00889,-3.7296 0.42154,-0.5909 1.23896,-1.5804 1.81649,-2.19889 1.01008,-1.08171 1.72128,-2.62138 2.86425,-6.200761 0.25462,-0.79739 0.74738,-1.891163 1.09501,-2.430603 0.34763,-0.539442 0.78985,-1.440701 0.98271,-2.0028 0.19286,-0.562098 0.73691,-1.504619 1.20899,-2.09449 1.05249,-1.315094 1.59247,-3.810549 1.59292,-7.36146 1.7e-4,-1.33251 0.10033,-2.484814 0.22257,-2.560673 0.12223,-0.07586 0.30281,-1.850028 0.40128,-3.942597 0.33628,-7.146423 1.21341,-9.716493 4.2838,-12.551848 0.98274,-0.907507 2.25932,-1.862867 2.83685,-2.123028 4.18721,-1.886193 4.97019,-2.132219 7.48349,-2.351432 1.40796,-0.122803 2.80985,-0.357579 3.11529,-0.521725 0.30545,-0.16415 2.06216,-0.369478 3.9038,-0.456287 2.72445,-0.128426 3.53226,-0.08006 4.3349,0.259543 0.54256,0.229562 2.43267,0.613928 4.20024,0.854147 1.9681,0.267472 3.72252,0.669331 4.52634,1.036773 0.72192,0.330007 1.82049,0.812208 2.44128,1.071562 0.62079,0.259353 1.80211,0.997226 2.62515,1.639717 0.82304,0.642491 2.02803,1.442386 2.67776,1.77754 1.44009,0.742862 3.33572,2.700257 4.33383,4.47504 0.40767,0.724901 1.02685,1.698139 1.37595,2.162753 0.34911,0.464611 0.97877,1.769432 1.39925,2.899602 l 0.76451,2.054851 -0.006,6.590004 c -0.007,8.045758 -0.54322,11.106879 -2.29715,13.115351 -0.22215,0.2544 -0.49433,0.96612 -0.60483,1.5816 -0.1105,0.615481 -0.33871,1.593541 -0.50713,2.173461 -0.56987,1.96223 -0.86592,5.14415 -0.54453,5.85244 0.29137,0.64213 0.31171,0.62799 1.46545,-1.01903 0.64349,-0.91862 1.69809,-2.5237 2.34357,-3.56686 0.64548,-1.04316 1.3868,-2.12182 1.64738,-2.39702 0.26059,-0.2752 0.67714,-0.845151 0.92567,-1.266551 0.24854,-0.4214 0.60293,-1.00133 0.78755,-1.28873 0.62043,-0.965874 7.03119,-9.480361 8.15196,-10.827078 0.61006,-0.733051 2.05426,-2.56148 3.20932,-4.063179 1.15507,-1.501696 2.30685,-2.948123 2.55952,-3.214282 0.25267,-0.26616 0.45941,-0.541881 0.45941,-0.612713 0,-0.159449 0.57215,-0.873339 2.10011,-2.620346 1.28695,-1.471443 1.93227,-2.291058 3.85425,-4.895272 1.46565,-1.985893 1.49256,-2.020991 3.08042,-4.016178 0.66181,-0.831588 1.20329,-1.580879 1.20329,-1.665089 0,-0.162536 1.32722,-2.003767 1.60511,-2.226739 0.0903,-0.07249 0.83085,-1.117235 1.64558,-2.321656 0.81473,-1.204421 1.77513,-2.508029 2.13424,-2.896908 0.3591,-0.388879 0.65292,-0.78211 0.65292,-0.873848 0,-0.09174 0.56112,-0.873874 1.24694,-1.738082 0.68582,-0.864205 1.48321,-1.900742 1.77198,-2.30341 0.28876,-0.402667 0.67269,-0.888435 0.85317,-1.079485 0.18048,-0.191049 0.32814,-0.421459 0.32814,-0.512022 0,-0.09056 0.6217,-1.01834 1.38156,-2.06173 1.4926,-2.049566 3.31533,-4.675358 3.73748,-5.384161 0.14439,-0.242422 0.64645,-1.008879 1.11569,-1.703237 0.46925,-0.694359 0.85317,-1.332688 0.85317,-1.418511 0,-0.08582 0.39797,-0.650484 0.88437,-1.254803 1.01785,-1.264609 5.94103,-8.505466 5.94103,-8.737877 0,-0.298193 2.77021,-4.242189 4.52573,-6.443386 0.974,-1.22127 1.72957,-2.262023 1.67901,-2.312785 -0.0992,-0.09964 -18.23195,-0.363996 -28.91228,-0.421517 -3.60958,-0.01944 -9.16177,0.04936 -12.3382,0.152886 -3.17643,0.103527 -8.13796,0.253859 -11.02562,0.33407 -4.85401,0.13483 -8.88104,0.537762 -11.92417,1.193095 -0.78552,0.169161 -4.70215,0.203331 -10.79886,0.09421 -12.08034,-0.216213 -16.44079,-0.186008 -18.75432,0.129912 -1.89852,0.25925 -33.54362,0.138737 -35.96453,-0.136963 -0.72192,-0.08221 -1.72604,-0.2536 -2.23138,-0.380859 -0.86729,-0.21841 -2.24954,-0.370671 -5.90658,-0.650638 -7.77777,-0.595432 -11.13397,-0.624685 -18.90107,-0.164746 -3.03205,0.179547 -7.58012,0.321337 -10.10682,0.315089 -2.52671,-0.0062 -5.06654,0.113801 -5.64407,0.266777 -0.57753,0.152976 -3.64896,0.379686 -6.825392,0.5038 -3.17643,0.124115 -6.41822,0.354782 -7.20397,0.512593 -0.78576,0.157811 -4.44784,0.346995 -8.13796,0.42041 -3.69012,0.07342 -7.65437,0.174082 -8.80943,0.223706 -1.15507,0.04962 -4.28556,0.172363 -6.95665,0.272755 -2.67108,0.100393 -5.62438,0.286272 -6.56287,0.413065 -0.93849,0.126793 -4.30524,0.173801 -7.48167,0.104461 -5.873,-0.128212 -9.48658,-0.47641 -18.37557,-1.770682 -1.44383,-0.210228 -3.86553,-0.457987 -5.38155,-0.550577 -2.70668,-0.165308 -7.00965,-0.558243 -9.0318,-0.824758 l -1.02509,-0.135105 0.16544,2.843346 c 0.091,1.56384 0.45124,4.326096 0.80055,6.138348 0.3493,1.812251 0.71559,4.896373 0.81398,6.853605 0.0984,1.957231 0.29316,4.744803 0.43285,6.194604 0.13969,1.449801 0.30848,4.70039 0.37508,7.223529 0.0666,2.523138 0.2232,4.71761 0.34797,4.876603 0.25099,0.319808 0.8526,3.838475 0.97335,5.692881 0.22094,3.392983 0.65319,14.9953 1.0901,29.259622 0.34451,11.247396 0.11083,70.625896 -0.30446,77.366656 -0.0715,1.15984 -0.19292,5.66741 -0.26993,10.01681 -0.077,4.3494 -0.20813,9.0349 -0.29139,10.41221 -0.18265,3.02129 -0.16686,16.77032 0.0338,29.39142 0.0807,5.0743 0.19115,13.9115 0.24553,19.63821 0.10124,10.66096 0.31646,17.57957 1.05778,34.00443 0.33917,7.51463 0.36787,10.52603 0.14571,15.28881 -0.15216,3.26205 -0.27146,13.582 -0.2651,22.93321 0.0107,15.7067 -0.0596,19.83932 -0.40361,23.72402 -0.65742,7.42443 -0.8437,15.16848 -0.73168,30.41701 l 0.0656,8.93362 0.91704,-1.15741 c 0.50437,-0.63657 1.15656,-1.63187 1.4493,-2.21179 z M 170.35286,222.79831 c 0.0962,-0.30421 0.75363,-1.19488 1.46106,-1.97927 0.70742,-0.7844 2.14072,-2.5817 3.1851,-3.994 1.04438,-1.41231 2.16348,-2.9237 2.48689,-3.35864 0.32341,-0.43494 0.91624,-1.2631 1.3174,-1.84036 0.40116,-0.57725 1.29051,-1.79939 1.97633,-2.71586 0.68582,-0.91646 1.24695,-1.93091 1.24695,-2.25433 0,-0.53862 0.86824,-2.10263 2.41408,-4.34864 0.85726,-1.24553 5.26487,-6.39217 6.04883,-7.06303 0.36058,-0.30855 0.93023,-1.05168 1.26589,-1.65139 0.33567,-0.59972 1.00104,-1.32187 1.4786,-1.6048 0.47755,-0.28293 0.86828,-0.66542 0.86828,-0.84997 0,-0.18455 0.29447,-0.63337 0.65437,-0.99739 0.9644,-0.97541 3.02084,-3.50162 3.02084,-3.71091 0,-0.0995 1.38804,-1.31615 3.08455,-2.70359 4.45747,-3.64542 5.5733,-4.67218 6.26189,-5.76202 0.33731,-0.53387 1.47733,-1.95731 2.53338,-3.1632 1.05605,-1.2059 2.26121,-2.66702 2.67814,-3.24694 0.41692,-0.57992 1.86001,-2.1714 3.20686,-3.53663 1.34685,-1.36523 2.44882,-2.5795 2.44882,-2.69837 0,-0.39848 -1.946,-1.04576 -4.65945,-1.54983 -1.47982,-0.2749 -2.8974,-0.60651 -3.15017,-0.7369 -0.25278,-0.13039 -1.10932,-0.30786 -1.90343,-0.39437 -1.2614,-0.13741 -4.65469,-0.7447 -11.81317,-2.11417 -1.08287,-0.20716 -2.91391,-0.5145 -4.06898,-0.68296 -1.15506,-0.16847 -2.44199,-0.4406 -2.85984,-0.60475 -0.71326,-0.28018 -0.80958,-0.23538 -1.57509,0.73269 -0.44845,0.56711 -1.34696,1.64228 -1.99668,2.38924 -1.56371,1.79775 -3.05058,3.57451 -4.60737,5.50565 -0.70126,0.86988 -1.55383,1.87815 -1.8946,2.2406 -1.23991,1.31877 -2.63441,4.04381 -2.82608,5.5225 -0.10242,0.79018 -0.4048,1.94874 -0.67196,2.57457 -0.26716,0.62584 -0.59281,2.1738 -0.72366,3.43992 -0.19293,1.8668 -0.44249,2.723 -1.31999,4.52868 -0.59515,1.22466 -1.08208,2.41729 -1.08208,2.65029 0,0.233 -0.3303,0.951 -0.734,1.59555 -2.12672,3.39553 -2.69534,4.71981 -3.1919,7.43369 -0.27394,1.49718 -0.60982,3.01385 -0.74641,3.37038 -0.68976,1.80056 -0.82466,2.55239 -0.59945,3.34092 0.12961,0.45379 0.17373,3.41425 0.0981,6.5788 l -0.1376,5.75374 1.08056,3.16285 c 0.59431,1.73957 1.08056,3.19267 1.08056,3.22911 0,0.0364 0.11017,0.0662 0.24482,0.0662 0.13466,0 0.3235,-0.2489 0.41965,-0.5531 z m 10.87427,-66.42302 c 0.0195,-0.25156 -1.92914,-0.77247 -2.11338,-0.56493 -0.0934,0.10516 -0.24462,0.95585 -0.33615,1.89043 l -0.16643,1.69923 1.30202,-1.43563 c 0.71611,-0.7896 1.30738,-1.50469 1.31394,-1.5891 z m 17.86292,-23.90297 c 0.50534,-0.67895 1.21413,-1.73615 1.57509,-2.34932 0.36096,-0.61318 1.47148,-2.33648 2.46781,-3.82956 0.99634,-1.49309 2.10396,-3.24849 2.46136,-3.9009 0.3574,-0.65241 0.85521,-1.42344 1.10623,-1.7134 0.25102,-0.28996 1.07854,-1.47617 1.83892,-2.63601 0.76038,-1.15984 1.60683,-2.435 1.881,-2.8337 0.30816,-0.44813 0.38051,-0.7249 0.18951,-0.7249 -0.54515,0 -2.60777,1.87359 -3.94836,3.5865 -0.71568,0.91445 -1.78854,1.93468 -2.38414,2.26717 -0.95186,0.53138 -1.11975,0.76991 -1.38735,1.97116 -0.42859,1.92389 -0.96022,2.60276 -2.74787,3.50889 -2.48742,1.26084 -3.83379,1.10755 -6.61707,-0.7534 -1.17399,-0.78495 -1.81228,-0.99492 -4.01692,-1.32138 -0.72192,-0.1069 -1.69064,-0.39528 -2.15271,-0.64085 -1.42422,-0.75689 -2.24349,-0.58912 -3.42885,0.70215 -1.16821,1.2726 -1.44301,2.1536 -1.16284,3.72797 0.20141,1.13178 0.23241,1.14908 3.59422,2.00685 0.57753,0.14736 1.75885,0.60872 2.62515,1.02524 0.8663,0.41653 1.92948,0.82932 2.36263,0.91732 0.43315,0.088 1.20101,0.26205 1.70635,0.3868 1.02962,0.25416 4.48605,1.53032 4.68448,1.72958 0.25239,0.25343 0.44711,0.0914 1.35336,-1.12621 z"
       id="path354" /></g></svg>
