<?xml version="1.0" encoding="UTF-8" standalone="no"?>
<!-- Created with Inkscape (http://www.inkscape.org/) -->

<svg
   width="1780"
   height="3164"
   viewBox="0 0 470.95832 837.14166"
   version="1.1"
   id="svg5"
   xml:space="preserve"
   sodipodi:docname="book2-part2.svg"
   inkscape:export-filename="../../- table sources/book 2/2-him-her/book2-part2.png"
   inkscape:export-xdpi="96"
   inkscape:export-ydpi="96"
   inkscape:version="1.2 (dc2aeda, 2022-05-15)"
   xmlns:inkscape="http://www.inkscape.org/namespaces/inkscape"
   xmlns:sodipodi="http://sodipodi.sourceforge.net/DTD/sodipodi-0.dtd"
   xmlns="http://www.w3.org/2000/svg"
   xmlns:svg="http://www.w3.org/2000/svg"><sodipodi:namedview
     id="namedview6"
     pagecolor="#ffffff"
     bordercolor="#000000"
     borderopacity="0.25"
     inkscape:showpageshadow="2"
     inkscape:pageopacity="0.0"
     inkscape:pagecheckerboard="0"
     inkscape:deskcolor="#d1d1d1"
     showgrid="false"
     inkscape:zoom="0.14917826"
     inkscape:cx="248.02542"
     inkscape:cy="1638.9788"
     inkscape:window-width="1416"
     inkscape:window-height="797"
     inkscape:window-x="0"
     inkscape:window-y="25"
     inkscape:window-maximized="0"
     inkscape:current-layer="svg5" /><defs
     id="defs2"><inkscape:path-effect
       effect="simplify"
       id="path-effect982"
       is_visible="true"
       lpeversion="1"
       steps="1"
       threshold="0.002"
       smooth_angles="0"
       helper_size="5"
       simplify_individual_paths="false"
       simplify_just_coalesce="false" /></defs><path
     style="fill:#000000;stroke-width:0.263772"
     d="m 261.35673,825.26318 c -0.51737,-0.45086 -65.62947,-0.97698 -69.07967,-0.55819 -1.28247,0.15568 -12.23668,-0.2351 -17.80459,-0.63516 -3.72974,-0.26797 -11.45415,-0.52694 -20.57419,-0.68977 -3.19163,-0.057 -10.49151,-0.24639 -16.22195,-0.42092 -11.69563,-0.35623 -11.84222,-0.35731 -24.79454,-0.17934 -5.15014,0.0708 -11.2037,0.0275 -13.452354,-0.0961 -8.00608,-0.44023 -32.83913,-0.32903 -36.66426,0.1642 -1.93837,0.24992 -8.72919,0.27902 -14.37556,0.0616 -3.60306,-0.13875 -5.73533,-0.1101 -6.72618,0.0904 -2.0804,0.4209 -8.60785,0.5918 -12.00161,0.31421 -1.59582,-0.13052 -3.02018,-0.15154 -3.16526,-0.0467 -0.14507,0.10483 -0.9166,-0.025 -1.71451,-0.28848 -0.79791,-0.26348 -1.92554,-0.48758 -2.50583,-0.49798 -1.84428,-0.0331 -2.9533,-0.48357 -3.54422,-1.43972 -0.29933,-0.48431 -0.54424,-1.07803 -0.54424,-1.31938 0,-0.24133 -0.25555,-1.1769 -0.56788,-2.07902 -0.61395,-1.77334 -0.71126,-3.37691 -1.26806,-20.8956 -0.14293,-4.49731 -0.37968,-9.54194 -0.52611,-11.21029 -0.14643,-1.66836 -0.33027,-5.11058 -0.40855,-7.64938 -0.0783,-2.53881 -0.25683,-5.74363 -0.39679,-7.12184 -0.13996,-1.37821 -0.31826,-5.05782 -0.39622,-8.17692 -0.078,-3.1191 -0.26503,-7.33285 -0.41572,-9.36389 -0.15069,-2.03105 -0.24274,-5.11717 -0.20456,-6.85807 0.0382,-1.74089 -0.009,-4.58962 -0.105,-6.33052 -0.0959,-1.74089 -0.24389,-5.06441 -0.32879,-7.3856 -0.0849,-2.32119 -0.26903,-6.2382 -0.40919,-8.70447 -0.14017,-2.46626 -0.36509,-6.73936 -0.49984,-9.49578 -0.13475,-2.75641 -0.42332,-6.91082 -0.64126,-9.23201 -0.21794,-2.32119 -0.57933,-6.95038 -0.80309,-10.28709 -0.22375,-3.33671 -0.52406,-7.78786 -0.66734,-9.89144 -0.14328,-2.10358 -0.32897,-5.24906 -0.41264,-6.98995 -0.1796304,-3.73754 -0.3227204,-6.0395 -0.6312204,-10.15521 -0.12506,-1.66835 -0.22311,-3.33012 -0.2179,-3.6928 0.0155,-1.07706 -0.35566,-6.41941 -0.45741,-6.58406 -0.26506,-0.42886 -0.46139,-10.30711 -0.49562,-24.93666 -0.0343,-14.64639 0.0788,-21.2545 0.48505,-28.35545 0.0706,-1.23313 0.19483,-3.78512 0.27616,-5.67109 0.0813,-1.88597 0.25748,-5.38754 0.39143,-7.78126 0.13396,-2.39373 0.31119,-6.54814 0.39384,-9.23201 0.0827,-2.68388 0.2217404,-5.53261 0.3090704,-6.33052 0.0873,-0.79791 0.13447,-1.99185 0.10475,-2.65318 -0.0297,-0.66132 0.12197,-2.26374 0.33705,-3.56091 0.21509,-1.29718 0.47122,-3.48612 0.56919,-4.86432 0.15841,-2.22871 0.39902,-4.05396 0.74758,-5.67109 0.0625,-0.29015 0.1996,-2.25839 0.30457,-4.37389 0.16764,-3.37828 0.13508,-3.95423 -0.26755,-4.73283 -0.40759,-0.7882 -0.43813,-1.4145 -0.27549,-5.64944 0.22741,-5.9213 0.21456,-26.87558 -0.021,-34.30537 -0.21904,-6.90768 -0.19449,-8.59487 0.17076,-11.73784 0.16017,-1.37821 0.33794,-5.82936 0.39505,-9.89144 0.0571,-4.06208 0.2316,-11.65871 0.38776,-16.88139 0.55351,-18.51099 0.68091,-34.81155 0.6164,-78.86772 -0.037,-25.26772 0.0402,-46.1199 0.17818,-48.13833 0.13389,-1.95851 0.3087,-5.44298 0.38846,-7.74326 0.0798,-2.3003 0.20943,-4.28655 0.28815,-4.41393 0.15296,-0.24749 0.29314,-7.89682 0.57719,-31.49702 0.21787,-18.10086 0.16058,-28.90067 -0.191,-36.00484 -0.3072,-6.2075 -0.50558,-15.09842 -0.65623,-29.41054 -0.058,-5.51282 -0.17832,-12.04117 -0.26731,-14.50744 -0.1766,-4.89364 -0.18796,-26.68266 -0.0146,-27.9598 0.14524,-1.06994 0.36813,-6.29431 0.53454,-12.52915 0.32047,-12.00766 0.42346,-14.86213 0.54321,-15.05589 0.37041,-0.59934 0.77091,-51.78408 0.51684,-66.0539 -0.0413,-2.32119 -0.14518,-9.739765 -0.2308,-16.485725 -0.0856,-6.746101 -0.23938,-13.215101 -0.34171,-14.375696 -0.10232,-1.160596 -0.21505,-6.976761 -0.2505,-12.924812 -0.0786,-13.182163 -0.24542,-20.824836 -0.46231,-21.175761 -0.0894,-0.144734 -0.29363,-2.383185 -0.45374,-4.974338 -0.66666,-10.789252 -0.66923,-11.015871 -0.13446,-11.832033 0.56359,-0.860146 1.54082,-1.250409 2.35548,-0.940675 0.50428,0.191727 0.74509,0.09753 1.32714,-0.519151 0.89542,-0.948705 1.29336,-0.998546 9.19589,-1.15177 3.44263,-0.06675 6.36344,-0.185713 6.4907,-0.264364 0.12726,-0.07865 0.93083,-0.02588 1.78572,0.117269 2.89807,0.485272 13.69245,1.000511 16.7212,0.798139 0.79791,-0.05331 3.4686,-0.07665 5.93487,-0.05187 2.46626,0.02478 5.13695,-0.0072 5.93486,-0.07113 0.79791,-0.0639 4.53687,-0.187986 8.30881,-0.275735 8.07356,-0.18782 14.52032,-0.57431 18.23409,-1.093153 1.46936,-0.205281 4.37745,-0.374993 6.46241,-0.377138 2.29741,-0.0024 4.414324,-0.148906 5.373464,-0.371979 2.74105,-0.6375 5.35653,-0.733788 11.63116,-0.428199 3.35057,0.163181 6.37735,0.341297 6.72618,0.395815 0.34882,0.05452 2.41468,0.176835 4.5908,0.271818 2.17611,0.09498 5.0842,0.284689 6.4624,0.421569 1.37821,0.13688 5.47327,0.448544 9.10013,0.692585 6.36165,0.42806 9.03271,0.477683 20.70607,0.384682 2.97403,-0.0237 6.71299,0.07726 8.30881,0.224344 5.21441,0.480602 11.21713,0.604261 14.11178,0.290711 1.52328,-0.165003 5.18896,-0.303747 8.14596,-0.308321 2.95699,-0.0046 6.28052,-0.124707 7.38561,-0.266965 1.10508,-0.142257 4.44254,-0.312918 7.41657,-0.379245 5.02995,-0.112178 6.87113,-0.260987 11.78498,-0.952493 1.04145,-0.146559 4.89911,-0.325126 8.57258,-0.396816 3.67347,-0.07169 7.03512,-0.176858 7.47035,-0.233708 3.03025,-0.395823 22.95855,-0.68212 37.1918,-0.534311 19.78156,0.205426 20.89309,0.246214 22.63269,0.830523 1.21865,0.40933 2.67127,0.462306 13.10837,0.478059 10.58745,0.01598 11.98787,-0.03222 14.28912,-0.491804 2.45481,-0.490258 2.64924,-0.492554 5.14354,-0.06072 1.94772,0.33721 4.72376,0.477852 11.16485,0.565645 4.71492,0.06427 10.70913,0.181858 13.32047,0.261316 2.61134,0.07946 6.40965,0.193616 8.44069,0.253683 2.03105,0.06007 4.99848,0.229094 6.5943,0.375616 6.35262,0.583271 10.32436,0.809401 17.01327,0.968646 3.84447,0.09153 7.40539,0.229439 7.91315,0.306471 0.50776,0.07703 3.64332,0.173104 6.96792,0.213494 3.32458,0.04039 7.41963,0.160976 9.10012,0.26797 1.68047,0.106994 8.51548,0.231021 15.1889,0.275615 10.95968,0.07324 22.89762,0.436616 24.26699,0.738661 0.71443,0.157581 2.78683,0.391258 4.96178,0.559473 3.61125,0.279299 4.10635,1.022672 3.95547,5.93886 -0.0557,1.81343 -0.15956,6.790016 -0.23088,11.059078 -0.10722,6.418968 -0.0637,7.902188 0.25161,8.572579 0.26631,0.566221 0.43842,2.361538 0.57086,5.954195 0.10427,2.828951 0.3353,6.74596 0.5134,8.704465 0.1781,1.958504 0.34161,5.934862 0.36337,8.83635 0.0216,2.901489 0.15431,6.759149 0.29456,8.57258 0.14022,1.81343 0.31077,7.985687 0.37901,13.716126 0.0763,6.408581 0.28058,12.043445 0.53074,14.639325 0.22367,2.32119 0.4128,6.65364 0.42029,9.62767 0.007,2.97402 0.12102,6.47559 0.25232,7.78126 0.19591,1.94774 0.61211,8.76933 0.59547,9.75956 -0.003,0.14507 -0.0743,1.74748 -0.15969,3.56091 -0.0854,1.81343 -0.22386,5.1963 -0.30769,7.5175 -0.2289,6.3382 -0.40916,8.88544 -1.19182,16.84071 -0.14054,1.42838 -0.31748,7.00715 -0.39321,12.39727 -0.0757,5.39012 -0.17947,11.64003 -0.23056,13.88868 -0.0511,2.24866 0.009,6.04697 0.13304,8.4407 0.12427,2.39372 0.28538,6.78552 0.35807,9.75955 0.0727,2.97402 0.20279,6.95038 0.28907,8.83635 0.0863,1.88597 0.20337,6.04037 0.26016,9.23201 0.35831,20.13919 0.45585,23.50469 0.8021,27.67543 0.0713,0.85912 0.13017,3.58916 0.13081,6.06675 0,2.47759 0.16892,6.87865 0.37403,9.78014 0.6489,9.17968 0.71914,12.28522 0.64732,28.61923 -0.19261,43.80047 0,97.03036 0.40354,111.31164 0.13131,4.65072 0.45364,44.9766 0.49022,61.32691 0.0121,5.41428 -0.3213,26.3649 -0.48275,30.33374 -0.0435,1.0702 -0.32146,9.82181 -0.5487,17.27705 -0.0685,2.24865 -0.18388,8.42091 -0.25633,13.71612 -0.15584,11.38695 -0.30289,17.7128 -0.55807,24.00323 -0.19532,4.81483 -0.20017,5.28685 -0.15591,15.16687 0.29358,65.54462 0.1738,118.86324 -0.33747,150.21796 -0.30582,18.75483 -0.32135,23.20898 -0.0994,28.48734 0.13117,3.1191 0.2941,8.57917 0.36205,12.1335 0.25594,13.38564 0.43762,19.21452 0.69063,22.15682 0.14347,1.66835 0.32041,3.86425 0.39321,4.87977 0.11323,1.57968 0.53421,5.28731 1.04823,9.23201 0.0756,0.5803 0.18516,4.02252 0.24343,7.64938 0.14568,9.06422 0.30083,10.78296 1.11789,12.38466 1.22142,2.39439 0.348,4.99694 -2.09535,6.24345 -1.03232,0.52664 -1.40371,0.54999 -7.30436,0.45915 -3.41922,-0.0526 -7.64112,-0.003 -9.38202,0.11001 -1.74089,0.11314 -4.64897,0.25349 -6.4624,0.31189 -6.58496,0.21204 -16.14175,0.80281 -17.80459,1.10059 -0.43522,0.0779 -2.21568,0.1921 -3.95657,0.25366 -1.7409,0.0616 -4.27295,0.23919 -5.62678,0.39474 -1.47235,0.16918 -3.92785,0.20885 -6.11035,0.0987 -2.035,-0.10266 -5.84613,-0.0552 -8.61689,0.10733 -2.73244,0.16027 -9.18182,0.35701 -14.33196,0.43717 -17.79725,0.27699 -23.08519,0.40938 -24.39888,0.61074 -0.72537,0.11121 -3.5741,0.2304 -6.33052,0.26491 -2.75641,0.0345 -6.61407,0.19147 -8.57257,0.34883 -1.95851,0.15737 -9.61448,0.31508 -17.01328,0.35042 -26.31494,0.12582 -58.84977,0.40764 -60.69599,0.52578 -1.0312,0.066 -1.92143,0.0794 -1.97828,0.0299 z m 26.80133,-8.99767 c 7.97909,-0.0677 16.2879,-0.19493 18.46401,-0.28274 2.17612,-0.0878 10.36623,-0.19949 18.20025,-0.24818 7.83402,-0.0487 14.59976,-0.15172 15.03498,-0.22893 0.43523,-0.0772 2.7795,-0.22347 5.20949,-0.32494 l 4.41818,-0.18453 v -0.84233 c 0,-1.05847 -0.46456,-2.42554 -1.13527,-3.34083 -0.50597,-0.69042 -0.50684,-0.74212 -0.0421,-2.45898 0.42502,-1.57005 0.43847,-1.96584 0.12854,-3.77885 -0.19042,-1.11383 -0.42441,-2.99441 -0.52,-4.17912 -0.14392,-1.78389 -0.34692,-2.48634 -1.18157,-4.08846 -0.55426,-1.06395 -1.39313,-2.46861 -1.86415,-3.12145 -0.47099,-0.65283 -1.06775,-1.60162 -1.32611,-2.1084 -0.82764,-1.62344 -1.75256,-2.58903 -6.08329,-6.35073 -2.57241,-2.23443 -4.8979,-4.51709 -5.90698,-5.7982 -0.91537,-1.1621 -1.79724,-2.19825 -1.95975,-2.30254 -0.16248,-0.1043 -1.1809,-1.19855 -2.26313,-2.43169 -1.08223,-1.23313 -2.83367,-3.15075 -3.89208,-4.26139 -2.80094,-2.93915 -3.31456,-4.16975 -4.93702,-11.82868 -0.93335,-4.40593 -1.2828,-5.77449 -2.35223,-9.21254 -0.60396,-1.9416 -0.69138,-2.67879 -0.69138,-5.83062 0,-4.16941 0.39767,-9.81988 0.8255,-11.72966 0.16251,-0.72537 0.56215,-1.91235 0.88812,-2.63772 0.56091,-1.2483 1.05905,-3.47144 1.71397,-7.64938 0.15918,-1.01552 0.32676,-2.08379 0.37239,-2.37394 0.0457,-0.29015 0.68079,-2.48605 1.41144,-4.87978 1.71394,-5.61512 2.03603,-6.80354 2.54545,-9.39214 0.24053,-1.22219 0.91618,-3.19997 1.57691,-4.61601 0.63584,-1.36267 1.48033,-3.42716 1.87663,-4.58775 0.39631,-1.1606 0.88178,-2.47782 1.07887,-2.92718 0.19707,-0.44934 0.77053,-1.8972 1.27436,-3.21746 1.20433,-3.1559 1.47781,-3.65923 3.52663,-6.49074 2.07137,-2.86268 3.52832,-5.71147 4.15063,-8.11593 0.25051,-0.96786 1.0898,-2.92636 1.86508,-4.35224 3.32052,-6.10689 9.57475,-19.20081 10.62448,-22.24346 0.93138,-2.69965 0.95481,-2.86385 0.92772,-6.50221 -0.0536,-7.1929 -0.90669,-17.39522 -1.67298,-20.00685 -0.12769,-0.43522 -0.66048,-2.15633 -1.18399,-3.82469 -0.52351,-1.66835 -1.09159,-3.50816 -1.26241,-4.08846 -0.17082,-0.58029 -0.6292,-1.7774 -1.01861,-2.66021 -0.3894,-0.88282 -0.79529,-2.12914 -0.90194,-2.76961 -0.3433,-2.06148 -1.14635,-3.77963 -3.32004,-7.10329 -2.45476,-3.75342 -3.78457,-6.10412 -4.33387,-7.66106 -0.44084,-1.24943 -1.51083,-3.07748 -4.23665,-7.23808 -1.04551,-1.59582 -2.67921,-4.44455 -3.63045,-6.33052 l -1.72952,-3.42903 0.41045,-1.58263 c 0.26016,-1.00307 0.48637,-3.61109 0.61776,-7.12184 0.114,-3.04656 0.40309,-7.9725 0.64241,-10.94652 0.36596,-4.54774 0.38664,-6.07822 0.13017,-9.62767 -0.31402,-4.34558 -0.23945,-7.8284 0.25133,-11.73784 0.39713,-3.16367 0.41892,-9.28349 0.0544,-15.29875 -0.1714,-2.82895 -0.53129,-8.78555 -0.79975,-13.23691 -0.26844,-4.45136 -0.56205,-8.21303 -0.65244,-8.35932 -0.0904,-0.14626 -0.39885,-3.44805 -0.68544,-7.33728 -0.28659,-3.88924 -0.68939,-8.0209 -0.89511,-9.1815 -0.20571,-1.16059 -0.45406,-3.11889 -0.55184,-4.35178 -0.58918,-7.4281 -2.43901,-12.80543 -6.55554,-19.05627 -0.81825,-1.24252 -1.48772,-2.37397 -1.48772,-2.51432 0,-0.3496 -2.496,-4.14744 -3.66398,-5.575 -2.30623,-2.81879 -6.25199,-5.69095 -9.07496,-6.60579 -0.55059,-0.17842 -1.44082,-0.8059 -1.97828,-1.39443 -2.05159,-2.24641 -4.19281,-3.24434 -11.52806,-5.37263 -6.58775,-1.91142 -18.47921,-2.55809 -25.84963,-1.40572 -4.44678,0.69528 -7.9585,1.45262 -10.39767,2.24238 -1.23997,0.40148 -2.06467,0.54426 -2.25091,0.38969 -0.18006,-0.14943 -0.44377,-0.14916 -0.68073,0 -0.21275,0.13455 -0.72446,0.24647 -1.13714,0.24869 -0.52312,0.003 -1.84105,0.78279 -4.35223,2.5757 -2.84477,2.03109 -4.8376,3.791 -9.48043,8.37235 -4.89509,4.83027 -6.14397,6.22029 -7.46524,8.30891 -1.589,2.51185 -1.66972,2.81067 -1.17629,4.35464 0.12416,0.38848 -0.12026,0.84042 -0.92721,1.71451 -1.53467,1.66234 -2.07356,3.08547 -3.42227,9.03766 -0.28807,1.27133 -0.82017,3.19451 -1.18245,4.27371 -0.80454,2.39671 -1.07703,5.31297 -0.6786,7.26282 0.52494,2.56903 1.05086,9.53701 0.77465,10.26351 -0.4746,1.24828 -2.08366,2.90194 -3.62095,3.72132 -2.00818,1.07036 -3.45032,2.60034 -4.59489,4.87484 -1.14419,2.27374 -1.40439,3.73422 -0.95605,5.3661 0.42635,1.55177 1.21879,2.59728 2.73025,3.60214 0.65464,0.43522 1.25089,0.94272 1.32501,1.12776 0.0741,0.18503 -0.15928,1.55005 -0.51864,3.03337 -0.35937,1.48332 -0.65182,3.05303 -0.6499,3.48825 0.005,1.22353 0.73392,3.04717 1.72957,4.32957 0.49718,0.64039 0.90397,1.36908 0.90397,1.61932 0,0.25027 -0.46227,1.24606 -1.02726,2.21292 -1.23987,2.12175 -1.50465,3.59689 -1.05324,5.86797 0.29072,1.46258 0.27554,1.98696 -0.11159,3.85486 -0.83661,4.03674 -0.40722,6.41108 1.55389,8.59231 1.59985,1.77943 2.87581,2.34169 6.05477,2.66813 1.44565,0.14845 3.57804,0.50175 4.73864,0.78509 1.16059,0.28337 3.47519,0.62867 5.14355,0.76734 4.98981,0.41478 10.11517,1.09969 10.72658,1.43341 3.3464,1.82665 4.03905,2.42037 6.67343,5.72031 2.1851,2.73716 3.66726,5.31379 4.60385,8.00344 0.47931,1.37647 1.21756,3.07653 1.64056,3.77795 1.05827,1.7548 2.51372,4.7845 3.6284,7.55297 0.51401,1.27658 1.34679,2.99769 1.85064,3.82469 1.2929,2.12207 2.40959,5.04099 2.10977,5.5147 -0.13203,0.20862 -0.90992,0.60528 -1.72864,0.88145 -1.50514,0.5077 -3.55383,1.65904 -8.75606,4.92082 -1.57247,0.98592 -3.58917,2.18439 -4.48156,2.66325 -3.15404,1.69249 -7.9794,5.22829 -10.68486,7.8294 -5.657,5.43876 -8.24021,9.98478 -11.69354,20.57859 -0.56749,1.7409 -1.84488,4.94572 -2.83866,7.12184 -0.99377,2.17611 -2.04943,4.78745 -2.34592,5.80297 -0.51886,1.77719 -1.15315,6.48792 -1.24307,9.23201 -0.0238,0.72537 -0.24541,2.62371 -0.49254,4.21856 -0.34303,2.21373 -0.58634,3.04558 -1.02852,3.51641 -0.31855,0.33922 -1.06542,1.12428 -1.6597,1.74459 -0.59428,0.62034 -1.82978,2.11218 -2.74557,3.31519 -0.91578,1.20303 -2.39202,2.97075 -3.28054,3.9283 -2.8038,3.02161 -5.04025,5.65233 -5.96483,7.0164 -0.95223,1.40488 -2.59836,5.58706 -3.47184,8.82063 -0.79955,2.95986 -0.47879,3.96093 2.60166,8.11929 l 2.44739,3.30382 -0.4237,0.82466 c -0.23303,0.45355 -0.87273,1.48798 -1.42155,2.29874 -1.5025,2.21956 -5.30973,8.61737 -6.10779,10.26375 -0.38678,0.79791 -1.72361,3.63979 -2.97075,6.3153 -1.24713,2.67549 -2.71516,5.52422 -3.26228,6.33052 -0.54713,0.80627 -1.39873,2.20505 -1.89246,3.10839 -0.94925,1.73675 -1.48701,2.18833 -1.7597,1.4777 -0.20295,-0.52886 0.36729,-2.77704 2.29675,-9.05499 0.42358,-1.37821 0.94584,-3.09932 1.16059,-3.82469 0.21474,-0.72537 0.8633,-2.44648 1.44123,-3.82469 1.63754,-3.90503 2.48204,-8.76465 2.47524,-14.24367 -0.005,-4.34967 -0.11916,-5.12387 -1.3422,-9.13457 -0.55282,-1.81282 -2.38386,-5.30901 -3.38412,-6.46164 -1.05433,-1.2149 -1.06009,-1.2335 -1.22523,-3.95657 -0.0913,-1.50477 -0.3427,-3.86355 -0.55875,-5.24175 -0.73618,-4.69604 -1.06768,-18.17693 -0.56432,-22.94814 0.17466,-1.65548 0.0963,-2.52991 -0.47993,-5.35881 -0.82876,-4.06833 -0.90909,-8.08086 -0.24586,-12.28005 0.51512,-3.26135 0.54138,-6.69946 0.10303,-13.48619 -0.51254,-7.93526 -0.78619,-20.19568 -0.50632,-22.68437 0.13868,-1.23313 0.29364,-4.08186 0.34437,-6.33052 0.0989,-4.38293 0.15024,-4.64641 1.18652,-6.08587 0.37311,-0.51826 1.13467,-2.00197 1.69236,-3.29715 1.0042,-2.33211 3.27624,-7.05491 4.49555,-9.34477 0.34763,-0.65283 1.42614,-3.3226 2.39669,-5.93277 1.56759,-4.21587 1.77944,-5.01114 1.89715,-7.12184 0.16332,-2.92868 -0.16022,-6.08648 -1.20287,-11.73992 -0.49465,-2.68211 -0.90732,-6.08558 -1.07539,-8.86925 -0.32379,-5.36292 -1.00593,-9.07923 -2.29374,-12.49626 -0.51942,-1.3782 -1.21823,-3.45541 -1.55292,-4.616 -0.33469,-1.1606 -1.1584,-3.70504 -1.83047,-5.65434 -0.67206,-1.9493 -1.34437,-4.1452 -1.49403,-4.87978 -0.79157,-3.88538 -3.59981,-9.96044 -6.65296,-14.3923 -1.93179,-2.80413 -6.14105,-11.90579 -7.85057,-16.97524 -0.28647,-0.84953 -0.70501,-1.82564 -0.93009,-2.16915 -0.22507,-0.34351 -0.55844,-1.13216 -0.74081,-1.75256 -0.31807,-1.08199 -0.37826,-1.13139 -1.47622,-1.2116 -0.80445,-0.0588 -1.40066,-0.30841 -2.0061,-0.83998 -0.47381,-0.41603 -1.43,-1.07667 -2.12487,-1.46811 -0.69487,-0.39143 -1.73819,-1.03474 -2.31849,-1.42958 -0.58029,-0.39482 -2.20665,-1.3358 -3.61413,-2.09105 -1.60615,-0.86188 -2.62356,-1.57646 -2.7323,-1.9191 -0.43768,-1.37897 -0.30626,-2.20347 0.55953,-3.51075 1.23545,-1.86542 1.54488,-3.23751 1.13907,-5.05088 -0.27434,-1.22588 -0.26633,-1.4919 0.051,-1.69273 0.80289,-0.50811 3.83632,-0.25591 6.607,0.5493 4.68699,1.36215 8.7967,1.922 12.76105,1.73842 2.07575,-0.0961 3.84542,-0.0502 4.48411,0.11642 3.22693,0.84175 4.57041,1.04697 5.80298,0.88644 3.58909,-0.46751 8.26666,-3.56372 9.78083,-6.47417 0.25393,-0.48809 0.89795,-2.03495 1.43117,-3.43745 1.15873,-3.04778 2.75828,-5.79905 3.68103,-6.3315 0.56862,-0.3281 0.75575,-0.78627 1.24191,-3.04049 0.40207,-1.86437 0.99076,-3.50737 1.97828,-5.5213 l 1.40588,-2.8664 1.31886,0.0734 c 2.12324,0.11822 3.76552,-0.40368 5.07847,-1.61391 1.80877,-1.66728 2.00631,-2.22676 2.06376,-5.84513 0.038,-2.39608 0.18538,-3.58189 0.6063,-4.87978 0.30582,-0.94298 0.66082,-2.66409 0.78887,-3.82469 0.2062,-1.86879 0.17473,-2.20674 -0.27514,-2.95445 -0.58597,-0.97392 -0.57705,-0.99977 1.57562,-4.56304 2.13587,-3.53546 2.48258,-4.51097 4.12726,-11.61249 0.92605,-3.99857 0.87027,-3.87542 4.3901,-9.69103 0.46229,-0.7638 1.32872,-1.94294 1.9254,-2.6203 l 1.08487,-1.23158 0.13188,-6.08413 c 0.19365,-8.93321 0.0816,-9.85427 -1.70161,-13.99195 -1.5764,-3.65778 -3.01854,-6.26342 -4.42053,-7.98704 -2.71975,-3.34362 -3.52441,-4.46866 -4.16515,-5.82352 -0.83117,-1.75749 -1.80073,-2.80118 -4.4505,-4.7907 -4.65318,-3.49376 -8.4878,-6.83171 -12.42829,-10.81862 -5.08836,-5.1483 -9.40173,-7.814 -17.01567,-10.51587 -4.61059,-1.63607 -5.67018,-1.93524 -10.41898,-2.94163 -5.41033,-1.14659 -7.0545,-1.38633 -8.4257,-1.22854 -0.66108,0.0761 -3.04177,-0.0381 -5.29043,-0.25373 -2.24865,-0.2156 -4.56325,-0.32064 -5.14354,-0.23338 -1.76364,0.26517 -9.67494,2.91594 -15.16687,5.0818 -1.81343,0.71516 -3.77194,1.43581 -4.35224,1.60146 -1.68718,0.48157 -5.67642,2.8959 -7.25372,4.39001 -0.87029,0.82439 -1.97842,1.56804 -2.7696,1.85864 -4.49635,1.65147 -5.96074,2.67282 -7.0602,4.92416 -5.00457,10.24772 -6.84529,14.34475 -7.44749,16.57639 -1.13339,4.20017 -1.49422,5.36335 -2.00476,6.46241 -1.48864,3.20469 -1.56595,3.75131 -1.50876,10.66742 0.0984,11.90054 0.0773,12.79021 -0.39051,16.50106 -0.30804,2.44321 -0.45524,5.29944 -0.435,8.44069 0.0343,5.31993 -0.37166,12.71037 -0.94898,17.27705 -0.21092,1.66835 -0.38334,3.5419 -0.38316,4.16342 2.7e-4,1.09233 -0.11964,1.25519 -3.59479,4.87978 -1.97732,2.06235 -4.08147,4.40256 -4.67589,5.20047 -1.76803,2.37328 -4.215404,5.37469 -4.783174,5.86596 -0.29153,0.25227 -1.0642,0.77433 -1.71703,1.16015 -1.92197,1.13585 -4.43229,3.39859 -6.50153,5.86029 -1.36406,1.62281 -2.48517,2.64566 -3.81068,3.4768 -5.54973,3.47992 -5.97257,3.81578 -10.26198,8.15123 -3.06979,3.10272 -5.40151,5.17607 -7.91315,7.03627 -4.2764,3.16721 -5.47148,4.47006 -6.97797,7.60707 -1.6322,3.39883 -3.85474,6.27787 -8.45992,10.95884 -3.93921,4.00406 -5.77731,6.39918 -6.92974,9.02978 -0.57819,1.31983 -1.31464,2.39354 -3.1322,4.5666 -1.28197,1.5327 -4.53431,8.02325 -5.47905,10.93426 -0.88353,2.72241 -1.36104,3.8058 -1.85986,4.21979 -0.98972,0.82138 -1.0535,1.34402 -1.2554,10.28778 -0.10972,4.85999 -0.1991,9.66723 -0.19862,10.68275 5.2e-4,1.01552 -0.23322,2.85533 -0.51931,4.08846 -0.90489,3.90039 -1.56261,7.20535 -1.73226,8.70447 -0.0903,0.79791 -0.32175,2.10358 -0.51435,2.90149 -0.88996,3.68705 -1.42259,8.71496 -1.55081,14.63932 -0.0897,4.14518 -0.26582,6.68572 -0.55602,8.02093 -0.62949,2.89632 -0.66434,13.72905 -0.0554,17.23236 0.24557,1.41292 0.44825,3.31208 0.4504,4.22035 0.005,1.97829 0.57653,4.55623 1.34474,6.06203 0.51376,1.00705 0.54509,1.35726 0.38277,4.27798 -0.2275,4.09368 -0.58293,7.03777 -1.57819,13.07257 -0.32932,1.99686 -0.41416,4.80964 -0.41767,13.84801 -0.006,14.91236 -0.39262,18.27827 -2.87204,24.99031 -0.30772,0.83305 -0.8534,3.20699 -1.21262,5.27544 -0.58394,3.36245 -0.66246,4.65485 -0.74125,12.20149 -0.0757,7.25375 -0.15276,8.60761 -0.54779,9.62767 -0.55743,1.4394 -1.86821,6.39546 -2.26727,8.57258 -1.02468,5.59016 -1.14333,8.41534 -0.65362,15.56253 0.73883,10.78298 1.22251,17.26169 1.42771,19.12344 0.19579,1.77645 0.51752,8.71523 0.59928,12.92481 0.007,0.36269 0.11451,1.76487 0.23882,3.11599 0.43346,4.71141 0.50988,6.28956 0.60913,12.57843 0.055,3.48178 0.1731,7.75488 0.26257,9.49578 0.30603,5.9552 0.7345,16.08791 0.80866,19.12344 0.0408,1.66836 0.20811,5.22928 0.37189,7.91315 0.16378,2.68388 0.3593,6.0074 0.43451,7.38561 0.0752,1.37821 0.26221,4.0489 0.41557,5.93486 0.15336,1.88597 0.32692,6.21842 0.38567,9.62767 0.1307,7.5838 0.70861,16.75098 1.11939,17.75634 l 0.3036,0.74305 3.23101,-0.14914 c 1.77705,-0.082 3.82449,-0.21358 4.54986,-0.29234 5.51317,-0.59863 8.30106,-0.76035 10.81464,-0.62735 3.46998,0.18361 9.57205,0.0615 14.11178,-0.2824 5.65093,-0.42807 14.16358,-0.59575 27.16848,-0.53519 6.89104,0.0321 16.386824,0.075 21.101744,0.0954 4.71492,0.0203 10.0563,-0.0113 11.86973,-0.0703 1.95013,-0.0636 5.02131,0.0666 7.51749,0.31839 4.39581,0.44354 17.91355,0.82062 30.59751,0.85352 6.62995,0.0171 12.61856,0.22536 15.56253,0.54091 0.5803,0.0622 3.31521,0.18913 6.07758,0.28205 l 5.02249,0.16892 1.08122,-1.6856 c 1.51503,-2.36192 1.68701,-3.09315 1.61094,-6.84918 -0.0365,-1.8024 -0.0381,-6.94917 -0.004,-11.43722 l 0.0628,-8.16011 1.17859,-1.09756 c 2.09727,-1.95307 4.06155,-2.7868 10.55578,-4.48037 3.24129,-0.84526 4.3733,-1.48752 6.31121,-3.5807 1.15243,-1.24477 1.97804,-2.57679 3.48164,-5.61723 2.008,-4.06042 4.05347,-7.03345 7.14626,-10.38688 1.07248,-1.16286 1.62753,-1.58569 1.8708,-1.42516 0.25028,0.16515 0.41474,1.64288 0.59498,5.3462 0.13699,2.8149 0.29372,5.23949 0.34827,5.38796 0.0546,0.14848 0.0155,3.29396 -0.0869,6.98995 -0.31719,11.45297 0.65545,23.41752 2.12724,26.16758 0.29209,0.54577 0.84147,2.77424 1.19578,4.85049 0.0847,0.49642 -0.0281,1.14812 -0.28453,1.64404 -0.50578,0.97806 -0.80839,2.92014 -0.59036,3.78884 0.10149,0.40439 0.36662,0.63777 0.75866,0.6679 0.33146,0.0253 6.24077,0.0591 13.1318,0.0748 6.89104,0.0156 13.59743,0.12943 14.9031,0.2528 1.30567,0.12336 6.76574,0.17237 12.1335,0.10888 5.36775,-0.0635 16.2879,-0.17082 24.26699,-0.2385 z M 54.686756,745.37756 c 0.0977,-1.77716 0.36785,-3.81129 0.60033,-4.52028 0.32245,-0.98342 0.37397,-1.7027 0.21728,-3.03338 -0.43477,-3.69219 -0.327,-4.29301 1.78091,-9.92902 2.43581,-6.51271 3.13658,-9.21824 3.23888,-12.50465 0.0471,-1.51202 0.34249,-3.63203 0.73745,-5.29213 1.34389,-5.64867 2.08967,-8.65023 2.88366,-11.60595 1.16588,-4.34018 1.21624,-4.66312 1.50732,-9.66573 0.29085,-4.99882 0.42407,-5.77665 1.71028,-9.98526 1.1973,-3.91767 1.21575,-4.03882 1.48635,-9.75956 0.13038,-2.75641 0.41497,-6.13928 0.63242,-7.51749 0.21745,-1.3782 0.52271,-4.81051 0.67835,-7.62732 0.24791,-4.48689 0.54814,-6.41068 0.9394,-6.01943 0.25264,0.25264 0.88213,3.1288 1.17161,5.35309 0.29055,2.23256 0.77532,4.76809 1.71176,8.95309 0.64703,2.8916 0.89452,4.51527 1.18609,7.78127 0.31387,3.51581 0.95121,7.90157 1.34159,9.232 0.32173,1.09648 0.68824,6.2252 0.91421,12.79293 0.14792,4.29943 0.11377,4.89737 -0.36159,6.33052 -1.65272,4.98275 -2.2806,6.4355 -3.51511,8.13295 -0.72097,0.99131 -2.03623,3.18721 -2.92278,4.87978 -0.88656,1.69254 -2.18525,3.93014 -2.88597,4.97246 -0.70073,1.04232 -2.15617,3.55878 -3.23432,5.59217 -1.07814,2.03336 -2.30544,4.20734 -2.72733,4.83106 -0.79853,1.18051 -2.22245,4.58583 -2.68007,6.40944 -0.14562,0.5803 -0.38058,2.18271 -0.52212,3.56092 -0.41364,4.02755 -2.92801,11.86972 -3.80571,11.86972 -0.16704,0 -0.19679,-1.15967 -0.0829,-3.2312 z M 371.77378,414.01899 c 2.66955,-0.56547 18.98684,-0.5689 21.93567,-0.005 2.83201,0.54191 14.50692,0.54194 16.97054,5e-5 1.32403,-0.29123 4.0575,-0.37712 12.00161,-0.37712 7.94412,0 10.67759,0.0859 12.00161,0.37712 1.25134,0.27524 3.69347,0.37962 9.0398,0.3864 l 7.32526,0.009 -0.17024,-5.20949 c -0.0936,-2.86522 -0.19796,-5.56558 -0.2318,-6.00081 -0.0339,-0.43522 -0.0785,-1.5754 -0.0992,-2.53373 l -0.0376,-1.7424 -6.79212,-0.0313 c -3.76328,-0.0174 -7.20302,-0.15191 -7.71358,-0.30181 -1.31007,-0.38466 -24.29023,-0.35084 -25.85136,0.038 -1.53278,0.38181 -13.55,0.36305 -14.94143,-0.0232 -1.38743,-0.38527 -23.62935,-0.38878 -24.88983,-0.004 -1.25548,0.38331 -26.06916,0.39291 -27.69428,0.0108 -0.65284,-0.15354 -1.95851,-0.2841 -2.90149,-0.29017 -0.94299,-0.006 -2.54535,-0.18701 -3.56081,-0.40212 -2.63522,-0.55817 -23.0235,-0.55772 -26.1135,0 -3.05867,0.55263 -19.81076,0.55221 -22.42049,0 -1.3254,-0.28073 -3.55804,-0.39107 -7.91326,-0.39107 -4.35521,0 -6.58785,0.11034 -7.91325,0.39107 -2.45025,0.51902 -15.35989,0.57581 -16.03218,0.0705 -0.40398,-0.30363 -0.45087,-3.16874 -0.59257,-36.20266 -0.1635,-38.12065 -0.24087,-141.05037 -0.1145,-152.32814 0.0911,-8.13323 -0.35022,-22.54313 -0.84023,-27.43225 -0.65853,-6.57063 -0.258,-93.712306 0.44898,-97.681719 0.21026,-1.180518 0.53393,-1.371259 1.58853,-0.936128 1.26099,0.520287 10.03357,0.831888 22.46608,0.797999 16.26284,-0.04433 28.81265,-0.03844 49.72096,0.02334 17.60246,0.05202 21.60524,-0.07988 25.48997,-0.839902 0.78145,-0.152885 4.40171,-0.278525 8.04503,-0.279195 6.25345,-0.0011 6.86785,-0.04624 10.97647,-0.805411 l 4.35223,-0.804187 11.73784,0.09681 c 11.13324,0.09183 11.82095,0.125584 13.35167,0.655399 3.99387,1.382367 4.79001,1.45875 17.77338,1.705215 16.93427,0.321469 21.12964,0.336267 23.83905,0.08409 l 2.34163,-0.217946 -0.15942,-4.115126 c -0.0877,-2.263316 -0.27527,-5.658187 -0.41689,-7.544154 -0.14162,-1.885968 -0.26309,-3.518055 -0.26989,-3.626861 -0.0198,-0.315972 -2.1058,-0.211998 -3.96897,0.197829 -0.94299,0.207419 -2.84214,0.377125 -4.22035,0.377125 -1.37821,0 -3.27736,-0.169706 -4.22035,-0.377125 -1.33054,-0.292671 -4.1832,-0.379201 -12.73811,-0.386391 -11.7236,-0.0099 -12.78594,-0.09803 -16.9362,-1.405763 -1.80206,-0.567819 -2.1663,-0.581791 -15.16687,-0.581791 -11.95946,0 -13.6304,0.05224 -16.35384,0.511221 -2.22075,0.374268 -4.97663,0.555524 -10.2871,0.676588 -3.98954,0.09095 -8.23297,0.306014 -9.42983,0.47792 -1.19687,0.171907 -3.15537,0.458421 -4.35223,0.636697 -1.48596,0.221339 -7.27849,0.348727 -18.26448,0.401671 -13.59861,0.06554 -16.3889,0.01538 -18.03061,-0.324135 -2.73816,-0.566263 -19.71994,-0.566833 -22.06439,-7.92e-4 -2.26243,0.546285 -19.80005,0.542133 -22.28871,-0.0053 -1.03578,-0.227833 -3.23575,-0.380794 -5.55727,-0.386391 -4.30283,-0.01037 -6.07716,0.3487 -7.09929,1.436711 -0.81654,0.869162 -1.21129,0.837829 -2.05342,-0.162984 -1.22336,-1.453878 -3.14585,-1.918172 -4.90282,-1.184061 -1.17161,0.489529 -2.69769,2.639542 -3.22439,4.542657 -0.9545,3.448904 -1.47157,28.40272 -1.52437,73.56671 -0.0294,25.10131 0.0388,32.67673 0.31917,35.47729 0.45278,4.52276 0.90549,18.54319 0.86449,26.77282 -0.28754,57.70992 -0.29938,114.22896 -0.0247,117.77405 0.22139,2.85707 0.32828,14.61493 0.35488,39.0382 0.0352,32.29618 0.0726,35.0599 0.49322,36.40049 0.25034,0.79791 0.46173,2.28163 0.46977,3.29715 0.0217,2.7379 0.34237,3.95903 1.46947,5.59555 0.75724,1.09948 1.35161,1.6305 2.34037,2.09094 1.32155,0.61538 1.35641,0.61717 12.13999,0.61828 7.87448,0 11.10149,-0.088 11.86973,-0.32647 0.69902,-0.21703 2.92449,-0.32758 6.59429,-0.32758 3.6698,0 5.89527,0.11055 6.59429,0.32758 1.41012,0.43778 22.44794,0.4578 24.00322,0.0229 0.65932,-0.1844 4.94327,-0.33847 11.42065,-0.41072 8.73478,-0.0974 10.68935,-0.05 12.4236,0.30139 1.13189,0.22935 2.99576,0.42216 4.14187,0.42849 1.14611,0.006 2.79603,0.17222 3.66648,0.36865 2.41981,0.54603 27.24431,0.56276 29.8063,0.0201 z m 15.56242,-20.16476 c 0.5803,-0.18786 1.94532,-0.37912 3.03338,-0.42504 2.88268,-0.12163 4.28824,-0.37414 4.84094,-0.86968 0.40342,-0.36166 1.23762,-0.45353 4.7787,-0.5262 2.8676,-0.0589 4.62959,0.0185 5.31426,0.23291 1.98855,0.62313 5.09966,0.82199 16.45492,1.05189 10.2848,0.20825 14.40555,0.40239 19.70976,0.92861 1.40297,0.13917 1.75374,0.0829 2.41467,-0.38777 0.67251,-0.47888 1.15514,-0.55062 3.70399,-0.55062 h 2.93071 l -0.15802,-2.96743 c -0.15856,-2.9774 -0.33513,-35.06707 -0.47856,-86.97871 -0.0481,-17.41911 -0.19137,-29.55448 -0.38292,-32.44391 -0.16831,-2.53881 -0.41937,-6.33712 -0.55796,-8.4407 -0.13856,-2.10358 -0.2279,-4.71492 -0.19851,-5.80297 0.0294,-1.08806 -0.0959,-5.42051 -0.27831,-9.62767 -0.18245,-4.20716 -0.36941,-9.57724 -0.41547,-11.93351 -0.0461,-2.35627 -0.15174,-4.35214 -0.23488,-4.43526 -0.0831,-0.0831 -0.3562,0.47972 -0.60681,1.25075 -0.25064,0.77104 -0.99244,2.35147 -1.64844,3.51207 -1.48538,2.62795 -2.38795,4.46336 -4.66029,9.47687 -0.52132,1.15019 -1.22546,2.45586 -1.56475,2.90148 -0.33931,0.44563 -0.70474,1.08799 -0.81207,1.42747 -0.10733,0.33949 -1.15208,2.47604 -2.32167,4.74789 -1.16959,2.27186 -2.46698,4.84283 -2.88308,5.71328 -0.41609,0.87045 -0.87176,1.76068 -1.01256,1.97829 -0.1408,0.21761 -0.52939,0.92979 -0.86351,1.58263 -0.33412,0.65283 -1.03575,1.9585 -1.55921,2.90149 -0.52345,0.94298 -1.14537,2.29623 -1.38206,3.00723 -0.23665,0.711 -0.6469,1.60123 -0.91164,1.97829 -0.26475,0.37706 -0.64279,1.16036 -0.84006,1.74065 -0.1973,0.5803 -0.70615,1.70792 -1.13077,2.50583 -0.42462,0.79791 -1.23221,2.40033 -1.79465,3.56092 -0.56244,1.1606 -1.16043,2.34757 -1.32888,2.63772 -0.16847,0.29015 -0.58808,1.12103 -0.93251,1.8464 -1.02462,2.15789 -3.81253,7.86195 -4.18991,8.57258 -0.19258,0.36268 -0.51973,1.01552 -0.72698,1.45074 -0.20727,0.43523 -0.82223,1.56285 -1.3666,2.50583 -0.54437,0.94299 -1.81699,3.37628 -2.82803,5.40732 -1.01103,2.03104 -2.04644,3.98955 -2.3009,4.35224 -0.25446,0.36268 -1.13348,2.20249 -1.95339,4.08846 -0.81991,1.88596 -2.30674,5.09079 -3.30406,7.12183 -0.99729,2.03104 -2.13879,4.46434 -2.53664,5.40732 -0.91747,2.17464 -2.28534,4.99296 -3.32853,6.85806 -0.4463,0.79791 -1.02831,2.07813 -1.29338,2.84491 -0.26504,0.76681 -0.97988,2.30988 -1.58848,3.42903 -1.95959,3.60347 -3.55551,6.75311 -4.02342,7.94038 -0.2509,0.63671 -0.83254,1.70462 -1.29251,2.37315 -0.45996,0.66853 -1.62829,2.93699 -2.59627,5.04102 -0.96799,2.104 -2.24779,4.70247 -2.84399,5.77436 -0.5962,1.07189 -1.08402,1.99828 -1.08402,2.05871 0,0.0604 -0.45232,0.7858 -1.00516,1.61204 -0.55284,0.82621 -1.32935,2.06602 -1.72562,2.75512 -0.39626,0.6891 -0.81698,1.25292 -0.93494,1.25292 -0.11793,0 -0.69881,0.6825 -1.29082,1.51668 -0.59201,0.83418 -1.73416,2.1992 -2.53811,3.03338 -1.15081,1.19406 -1.63254,1.51668 -2.26464,1.51668 -0.59491,0 -0.87876,-0.16652 -1.09579,-0.64281 -0.25773,-0.56568 -0.1797,-0.77504 0.65017,-1.74456 1.2726,-1.48675 2.22183,-3.60934 5.20493,-11.63879 0.4137,-1.11351 1.09961,-2.71593 1.52428,-3.56092 0.42465,-0.84499 1.08817,-2.42659 1.47449,-3.51465 0.38632,-1.08806 0.88777,-2.37732 1.11438,-2.86503 0.22661,-0.48772 0.70195,-1.71655 1.0563,-2.73078 0.35435,-1.01423 1.23448,-3.02021 1.95587,-4.45771 0.72139,-1.43753 1.65603,-3.47285 2.07704,-4.52295 0.79023,-1.97117 1.83522,-4.03513 2.63215,-5.19891 0.25119,-0.3668 0.67375,-1.26041 0.93903,-1.98578 0.51427,-1.40614 1.1459,-2.80659 3.62852,-8.04504 0.85942,-1.81343 1.90061,-4.18737 2.31373,-5.27543 1.23893,-3.26294 1.97694,-4.91499 2.67145,-5.98002 0.36218,-0.55548 0.99041,-1.84081 1.39598,-2.85633 0.40561,-1.01552 1.19951,-2.85723 1.76422,-4.09268 0.5647,-1.23546 1.02673,-2.36939 1.02673,-2.51981 0,-0.15046 0.33852,-0.74202 0.75225,-1.31464 0.41375,-0.5726 0.87997,-1.3972 1.03601,-1.83242 0.78805,-2.1977 2.68831,-6.53365 3.36396,-7.67581 0.42053,-0.71084 1.21857,-2.41372 1.77347,-3.78418 0.55492,-1.37045 1.10578,-2.61677 1.22414,-2.7696 0.11838,-0.15283 0.55046,-1.16808 0.96018,-2.25614 0.40972,-1.08806 1.20478,-2.86852 1.76677,-3.95658 1.02124,-1.97715 2.49794,-5.41075 3.28979,-7.64938 0.2309,-0.65283 0.64856,-1.51481 0.9281,-1.91551 0.27955,-0.40069 1.56607,-3.11046 2.85894,-6.02173 1.29288,-2.91127 2.57252,-5.61021 2.84365,-5.99765 0.27113,-0.38744 0.92346,-1.65401 1.44966,-2.81461 0.5262,-1.16059 1.42745,-3.0004 2.00274,-4.08846 0.57531,-1.08806 1.53283,-2.98721 2.12779,-4.22034 0.59497,-1.23314 1.95471,-4.02252 3.02164,-6.19864 1.06693,-2.17611 2.48866,-5.20289 3.15943,-6.72618 0.67077,-1.52328 1.68067,-3.71918 2.24422,-4.87977 0.56355,-1.1606 1.57366,-3.3565 2.2447,-4.87978 0.67101,-1.52328 1.46317,-3.24439 1.76033,-3.82469 0.29717,-0.58029 1.18982,-2.33312 1.9837,-3.89516 l 1.44335,-2.84007 -0.008,-5.54742 c -0.004,-3.05107 -0.0961,-5.68997 -0.20376,-5.8642 -0.37738,-0.61062 -0.0996,-35.01432 0.32626,-40.41046 0.21756,-2.75641 0.44493,-5.1897 0.50528,-5.40732 0.0603,-0.21761 0.18569,-3.48178 0.27849,-7.25372 0.0928,-3.77193 0.249,-8.13286 0.34709,-9.69094 0.11163,-1.77306 0.0177,-5.22688 -0.25082,-9.23201 -0.23605,-3.51952 -0.44835,-8.50574 -0.47183,-11.08049 -0.0235,-2.57474 -0.0914,-4.82999 -0.15101,-5.01166 -0.19437,-0.59239 -0.79862,-10.29599 -0.87912,-14.11761 l -0.0515,-2.445132 -12.06756,0.137997 c -36.99183,0.423016 -40.54737,0.432027 -41.95198,0.106306 -0.76839,-0.178183 -1.45792,-0.422386 -1.53225,-0.542666 -0.0743,-0.120282 -2.76918,-0.222903 -5.98851,-0.228044 -4.57715,-0.0073 -5.99714,-0.09154 -6.51279,-0.386309 -0.90046,-0.514758 -4.1927,-0.50799 -5.49049,0.01129 -0.85385,0.341645 -2.28318,0.39455 -8.90764,0.329715 l -7.89065,-0.07723 -1.4762,-0.725372 -1.4762,-0.725372 h -5.96095 -5.96098 l -0.34741,0.725372 -0.34744,0.725372 -5.08093,0.07166 c -3.73991,0.05275 -5.23584,-0.01688 -5.66776,-0.263771 -0.78997,-0.451541 -6.98457,-0.694543 -23.79875,-0.933586 -12.2212,-0.173746 -13.82744,-0.24521 -14.73748,-0.655681 -0.91098,-0.410896 -2.04554,-0.460682 -10.49803,-0.460682 -7.56062,0 -9.62067,0.07394 -10.18894,0.365722 -0.39566,0.203164 -2.27569,0.482944 -4.22969,0.629451 -3.47983,0.260912 -3.5271,0.273093 -4.42104,1.139539 -1.40199,1.358861 -1.95297,2.742779 -1.95297,4.905351 0,1.02401 0.17804,2.36648 0.39565,2.98326 0.34248,0.97067 0.39844,5.22092 0.4163,31.61982 0.0124,18.27231 0.13203,32.19024 0.2985,34.71875 0.31524,4.78839 0.31504,7.44281 -0.002,29.67431 -0.23216,16.26637 -0.31546,17.51421 -1.34381,20.12977 -0.20037,0.50929 -0.29208,5.08026 -0.29208,14.55151 0,13.22289 -0.0224,13.86121 -0.52754,15.03968 -0.46376,1.0819 -0.52697,1.81014 -0.52276,6.02268 l 0.005,4.79196 0.84807,1.45075 c 0.84652,1.44809 0.84837,1.4594 1.01476,6.19863 0.20171,5.74487 0.68003,11.5925 1.03347,12.63445 0.34227,1.00903 0.33912,14.6192 -0.004,15.61571 -0.5271,1.53254 -0.86964,17.97857 -0.82902,39.80293 0.0833,44.77331 0.0833,50.81941 -5.2e-4,52.95216 -0.0973,2.48011 0.32708,3.59568 1.96717,5.17072 0.87723,0.84243 0.98791,0.87627 2.33111,0.71255 3.20927,-0.3912 13.6336,-0.71094 22.84161,-0.70063 10.43172,0.0116 11.52297,0.0119 30.33374,0.006 14.66491,-0.004 27.76083,0.51448 28.72033,1.13838 0.16441,0.10691 0.75789,0.26718 1.31886,0.35615 0.56096,0.089 1.21983,0.26857 1.46419,0.39911 0.24433,0.13054 1.35795,0.23734 2.47468,0.23734 2.50372,0 3.29968,-0.43293 4.59854,-2.50121 1.0581,-1.68492 1.36798,-1.81428 4.02447,-1.68012 1.41097,0.0712 2.12002,0.24298 2.70287,0.6547 0.97176,0.68639 2.02867,0.8814 6.004,1.10782 3.03886,0.17306 3.11717,0.19329 3.74928,0.96807 0.35506,0.43522 0.64985,0.86905 0.65505,0.96408 0.0187,0.34188 2.36001,1.54175 3.00834,1.54175 0.36456,0 0.73953,0.12413 0.83331,0.27588 0.24338,0.39376 8.40619,0.1782 9.75208,-0.25752 z m -99.42308,-33.93185 c -0.61195,-0.61195 -0.51404,-1.05591 0.47558,-2.15652 0.96224,-1.07017 2.07678,-3.30189 3.16091,-6.3292 0.37624,-1.05066 0.91536,-2.36366 1.19805,-2.91776 0.28268,-0.55411 0.83695,-2.0091 1.23171,-3.23329 0.39473,-1.22416 1.04134,-2.81927 1.43692,-3.54464 0.39555,-0.72537 1.44919,-3.27737 2.34139,-5.67109 0.89224,-2.39373 2.21271,-5.50576 2.93444,-6.91565 0.7217,-1.40988 1.59466,-3.30904 1.93988,-4.22034 0.34522,-0.91131 1.10201,-2.54717 1.68178,-3.63523 0.57975,-1.08805 1.24192,-2.33438 1.47148,-2.7696 0.22956,-0.43522 1.14648,-2.45308 2.03756,-4.48412 0.8911,-2.03104 2.14277,-4.74657 2.78149,-6.03451 0.63873,-1.28797 1.16131,-2.54023 1.16131,-2.78279 0,-0.24259 0.10066,-0.55385 0.22365,-0.69167 0.12303,-0.13782 0.74212,-1.55625 1.37581,-3.15207 0.63368,-1.59582 1.48261,-3.37 1.88652,-3.94259 0.40389,-0.57262 0.73437,-1.20713 0.73437,-1.41005 0,-0.20292 0.1739,-0.68398 0.38648,-1.06906 0.21257,-0.38508 0.98764,-2.06515 1.7224,-3.73351 0.73473,-1.66835 1.51748,-3.33011 1.73941,-3.6928 0.41732,-0.68198 0.97287,-1.8928 2.11793,-4.616 0.36601,-0.87045 1.35887,-3.007 2.20637,-4.74789 1.70774,-3.50801 3.62066,-7.86412 4.51744,-10.2871 0.32214,-0.87045 1.08489,-2.53221 1.69497,-3.6928 0.61007,-1.1606 1.68391,-3.53454 2.38631,-5.27544 0.7024,-1.74089 1.60801,-3.69296 2.01245,-4.33793 0.40444,-0.64497 0.73534,-1.26779 0.73534,-1.38404 0,-0.11626 0.40885,-1.07227 0.90856,-2.12448 1.16785,-2.45906 2.52029,-5.63154 2.52111,-5.91388 0,-0.12076 0.47513,-0.91809 1.05508,-1.77185 0.57996,-0.85376 1.05446,-1.69438 1.05446,-1.86805 0,-0.17367 0.53413,-1.34525 1.18697,-2.60351 0.65283,-1.25827 1.18697,-2.45165 1.18697,-2.65196 0,-0.20031 0.4645,-1.06024 1.03224,-1.91095 0.56772,-0.8507 1.46797,-2.55567 2.00055,-3.7888 0.53259,-1.23313 1.89607,-4.14121 3.03,-6.46241 1.13393,-2.32119 2.29592,-4.75448 2.58225,-5.40731 0.28629,-0.65284 1.37831,-3.02678 2.42667,-5.27544 1.04839,-2.24865 2.16127,-4.66264 2.4731,-5.36443 0.55257,-1.24354 1.80103,-3.7823 4.36647,-8.87924 0.6937,-1.3782 1.33408,-2.80257 1.4231,-3.16526 0.089,-0.36268 0.68359,-1.43728 1.32126,-2.38798 0.6377,-0.95071 1.66224,-2.67182 2.2768,-3.82469 1.53597,-2.88143 2.88735,-4.27175 3.80852,-3.91827 0.6713,0.25761 1.02264,1.84519 0.86048,3.88837 -0.49682,6.2599 -1.20056,11.2793 -1.91074,13.62818 -0.83869,2.77388 -2.12405,6.24443 -2.75467,7.43786 -0.28348,0.53651 -0.51544,1.18058 -0.51544,1.43128 0,0.25071 -0.90442,2.30439 -2.00983,4.56375 -1.10539,2.25936 -2.22452,4.70141 -2.48692,5.42678 -0.2624,0.72538 -0.96208,2.20909 -1.5548,3.29715 -0.59275,1.08806 -1.68055,3.22461 -2.41734,4.74789 -1.82293,3.76883 -6.32572,12.64882 -9.83066,19.38722 -3.81274,7.33012 -6.10423,12.01477 -6.62872,13.55164 -0.21666,0.63492 -0.82365,1.94059 -1.34882,2.90148 -0.5252,0.96092 -1.82923,3.52758 -2.89787,5.7037 -1.06862,2.17611 -2.12263,4.28299 -2.34219,4.68194 -0.86989,1.5806 -1.23516,2.31281 -2.92768,5.86892 -0.96667,2.03104 -1.96502,3.98955 -2.21853,4.35224 -0.44003,0.62951 -2.81975,5.17498 -3.72878,7.12231 -0.23692,0.50749 -1.19782,2.40842 -2.13537,4.22425 -0.93752,1.81585 -1.85795,3.77436 -2.04536,4.35223 -0.38593,1.18982 -1.69363,3.88554 -2.36506,4.8754 -0.24602,0.36268 -0.71719,1.31226 -1.04704,2.11017 -0.32985,0.79791 -0.81381,1.92553 -1.0755,2.50583 -0.26169,0.5803 -0.85491,2.00466 -1.31825,3.16526 -0.46335,1.16059 -1.05483,2.34757 -1.3144,2.63772 -0.64854,0.72492 -1.19481,1.85331 -2.27327,4.69569 -0.50628,1.33436 -1.49772,3.37572 -2.2032,4.53631 -0.70549,1.1606 -1.77595,3.17845 -2.3788,4.48412 -1.27444,2.76021 -1.33516,2.87559 -2.94116,5.5907 -0.66974,1.13229 -1.30469,2.35542 -1.41102,2.71811 -0.28548,0.9739 -4.83747,9.76193 -5.53343,10.68275 -0.32892,0.43523 -0.84307,1.27238 -1.1425,1.86036 -0.29943,0.58797 -0.89397,1.41885 -1.32118,1.8464 -0.4272,0.42755 -1.15529,1.3115 -1.618,1.96433 -0.46268,0.65284 -1.50326,1.86949 -2.31238,2.70366 -1.54233,1.5901 -2.32958,1.87022 -3.09763,1.1022 z m 68.74644,-71.12039 c -0.51444,-0.51443 -0.36868,-1.09151 0.52145,-2.06456 0.90255,-0.98664 2.3563,-3.94255 3.49463,-7.10548 0.38975,-1.08302 0.8049,-2.09195 0.92251,-2.24206 0.11762,-0.15014 0.486,-1.10386 0.81862,-2.11938 0.33259,-1.01552 0.95633,-2.61794 1.38604,-3.56092 1.16682,-2.56043 2.70817,-6.3393 4.03304,-9.88769 0.64925,-1.73883 1.45673,-3.57901 1.79441,-4.08928 0.33769,-0.51027 1.04786,-2.01224 1.57815,-3.33771 0.53031,-1.32547 1.51695,-3.40231 2.19255,-4.61519 0.67557,-1.21288 1.61265,-3.09547 2.08237,-4.18352 1.78708,-4.13954 3.28515,-7.45518 4.02566,-8.91 0.42245,-0.82994 1.13284,-2.45856 1.57867,-3.61916 1.42954,-3.72149 2.44065,-6.0437 2.81115,-6.45621 0.19849,-0.22102 0.79764,-1.41078 1.33146,-2.64391 0.5338,-1.23313 1.29916,-2.95424 1.70078,-3.82469 0.40164,-0.87045 0.82173,-1.87937 0.93354,-2.24206 0.11181,-0.36269 0.52453,-1.13422 0.91716,-1.71452 0.3926,-0.58029 1.27729,-2.47945 1.96594,-4.22034 0.68868,-1.74089 1.82282,-4.29289 2.52034,-5.67109 1.34616,-2.65978 3.14996,-6.64418 3.70188,-8.17692 0.66969,-1.85991 1.70934,-4.11742 2.41673,-5.24774 0.39903,-0.6376 0.92306,-1.76522 1.16455,-2.50583 0.24148,-0.74061 0.52625,-1.46525 0.63284,-1.61033 0.10659,-0.14507 0.43425,-0.9166 0.72817,-1.71451 0.29389,-0.79791 0.99302,-2.34098 1.55359,-3.42904 0.56056,-1.08805 1.39258,-2.80916 1.84893,-3.82468 0.45632,-1.01553 1.19736,-2.66094 1.64673,-3.65648 0.44938,-0.99554 0.81705,-1.92373 0.81705,-2.06265 0,-0.13891 0.36411,-0.7818 0.80915,-1.42863 0.44504,-0.64683 1.10552,-1.85519 1.46773,-2.68524 0.36224,-0.83005 1.00703,-2.18683 1.43291,-3.01507 0.42589,-0.82823 0.77433,-1.6679 0.77433,-1.86591 0,-0.19802 0.40919,-0.93558 0.90933,-1.63903 0.50014,-0.70345 1.46997,-2.59383 2.15517,-4.20084 0.6852,-1.60701 1.4005,-3.10577 1.58954,-3.33059 0.18905,-0.22481 0.51486,-0.89376 0.724,-1.48655 0.20915,-0.59279 0.66972,-1.53647 1.02349,-2.09708 0.3538,-0.5606 0.73605,-1.31194 0.84948,-1.66964 0.11344,-0.35771 0.60556,-1.44604 1.09362,-2.41852 0.48806,-0.97248 0.88738,-1.85133 0.88738,-1.95301 0,-0.10167 0.52245,-1.26858 1.16102,-2.59314 1.57949,-3.27626 3.15399,-6.69986 3.59439,-7.81561 0.20041,-0.50776 0.88704,-1.93212 1.52581,-3.16526 2.48937,-4.8057 3.7421,-7.35564 3.7421,-7.61711 0,-0.28604 0.86747,-1.81032 2.42016,-4.25261 0.50729,-0.79791 1.19296,-2 1.52373,-2.67131 0.87105,-1.76777 2.48713,-3.45587 3.20651,-3.34945 0.83342,0.12329 1.35392,1.77669 1.18959,3.7787 -0.54696,6.66367 -1.00663,9.88626 -1.88125,13.18858 -0.80432,3.03691 -2.29906,7.30011 -2.85931,8.15515 -0.23879,0.36446 -0.43417,0.83009 -0.43417,1.03476 0,0.5062 -1.07276,2.94142 -2.67303,6.06785 -0.73102,1.42819 -1.54275,3.20865 -1.80383,3.95658 -0.26111,0.74792 -1.02692,2.36878 -1.7018,3.60191 -1.08941,1.99049 -1.99114,3.80162 -4.296,8.62843 -0.36102,0.75609 -0.92122,1.66042 -1.24484,2.00962 -0.73571,0.79383 -1.73246,2.68159 -1.73401,3.28403 0,0.43912 -1.71449,3.93627 -5.86409,11.96925 -1.09848,2.12653 -2.29118,4.38177 -2.65038,5.01167 -0.35923,0.62989 -0.86665,1.73874 -1.1276,2.46412 -0.26095,0.72537 -0.68098,1.62037 -0.93338,1.98888 -0.2524,0.36852 -0.69958,1.38442 -0.99371,2.25756 -0.29413,0.87314 -0.9352,2.29274 -1.42458,3.15466 -0.48937,0.86192 -1.02361,1.80453 -1.18718,2.09468 -0.70351,1.24789 -3.17359,6.38733 -3.3595,6.98995 -0.11187,0.36268 -0.52148,1.13421 -0.91028,1.71451 -0.38877,0.5803 -0.974,1.70792 -1.30052,2.50583 -0.59272,1.44854 -1.45244,3.18062 -2.81479,5.67109 -2.50657,4.58214 -3.75632,6.984 -4.00477,7.69671 -0.15615,0.44793 -0.8303,1.7478 -1.49809,2.88862 -0.66781,1.14081 -1.75147,3.38021 -2.40813,4.97645 -0.65666,1.59623 -1.57345,3.61442 -2.03732,4.48487 -1.65068,3.0975 -4.14878,8.49183 -4.14878,8.95877 0,0.37979 -1.54744,3.51751 -1.81686,3.68402 -0.31911,0.19721 -1.02417,1.69674 -2.29431,4.87949 -0.48806,1.22294 -1.47443,3.18145 -2.19195,4.35223 -1.13598,1.85358 -3.19266,5.95203 -3.19266,6.36218 0,0.0785 -0.69805,1.30497 -1.55119,2.72543 -0.85317,1.42047 -1.64095,2.86549 -1.75065,3.21113 -0.23207,0.73113 -2.97252,6.36566 -4.03397,8.29399 -0.67095,1.21897 -2.25118,3.75996 -3.39535,5.45968 -0.72787,1.08133 -3.30186,4.14554 -4.66445,5.55278 -1.25176,1.2928 -2.32576,1.62629 -3.01565,0.93639 z m -80.56906,-11.5734 c -0.68432,-0.39996 -0.56062,-1.42983 0.28952,-2.4105 0.95169,-1.09779 1.93331,-3.05783 3.20812,-6.40565 2.6225,-6.88702 3.35758,-8.7537 3.68732,-9.36389 0.52079,-0.96368 2.25833,-5.25174 3.4293,-8.4631 0.55993,-1.5356 1.60782,-3.90955 2.3286,-5.27543 0.72081,-1.36589 1.45807,-2.95822 1.63834,-3.53851 0.18028,-0.5803 1.08315,-2.43462 2.00638,-4.12072 0.92325,-1.6861 1.67861,-3.18601 1.67861,-3.33315 0,-0.26023 1.31008,-3.15219 3.49403,-7.713 0.59048,-1.23314 1.60109,-3.54773 2.24578,-5.14355 0.64471,-1.59582 1.45646,-3.60568 1.80393,-4.46635 0.34747,-0.86068 0.85372,-1.81025 1.12506,-2.11018 0.27132,-0.29992 0.99619,-1.79163 1.61081,-3.31491 0.61461,-1.52328 1.3294,-3.18504 1.58843,-3.6928 1.61325,-3.16237 3.51061,-7.25084 4.10078,-8.83635 0.37798,-1.01552 1.26484,-2.97403 1.97077,-4.35224 1.46586,-2.86174 3.55229,-7.46354 3.82698,-8.44069 0.31062,-1.105 1.74809,-4.3102 2.25731,-5.03321 0.26377,-0.37454 0.72919,-1.32412 1.0343,-2.11017 1.03282,-2.66109 2.45576,-5.90507 3.40616,-7.76535 1.0611,-2.07695 2.0886,-4.31523 3.72211,-8.10834 0.60986,-1.41612 1.22788,-2.64833 1.37335,-2.73824 0.14547,-0.0899 0.67299,-1.06782 1.17228,-2.17312 0.49927,-1.10531 1.1976,-2.57128 1.55185,-3.25771 0.35427,-0.68644 0.6441,-1.41449 0.6441,-1.61791 0,-0.20341 0.50982,-1.1255 1.13293,-2.04908 0.62313,-0.92359 1.47177,-2.51013 1.88589,-3.52565 0.41415,-1.01552 1.08196,-2.49923 1.48406,-3.29714 0.40212,-0.79791 0.97318,-1.98488 1.26903,-2.63772 0.29587,-0.65283 0.7733,-1.60241 1.06099,-2.11017 0.28767,-0.50776 1.01505,-2.05083 1.61637,-3.42903 0.60132,-1.37821 1.55314,-3.45541 2.11516,-4.61601 1.2066,-2.49165 3.1517,-6.73628 3.1517,-6.87768 0,-0.12687 2.38368,-4.93172 4.30855,-8.68485 0.81843,-1.59581 1.49817,-3.07953 1.51054,-3.29714 0.0222,-0.38907 0.1924,-0.68699 1.62518,-2.84265 0.39497,-0.59422 1.25808,-2.0672 1.91807,-3.27328 1.22213,-2.23339 2.69596,-3.9074 3.44016,-3.9074 0.74378,0 1.22654,1.72841 1.09697,3.92747 -0.4851,8.23352 -0.93364,10.85812 -2.84491,16.64672 -1.15748,3.50556 -3.4927,9.13641 -4.66912,11.25845 -0.57766,1.04201 -1.3813,2.76081 -1.78587,3.81956 -0.40457,1.05875 -1.31036,2.99559 -2.01284,4.30408 -1.22738,2.28621 -2.11381,4.08344 -4.55927,9.24402 -0.62052,1.30945 -1.32078,2.54063 -1.55612,2.73596 -0.23536,0.19532 -0.42791,0.51332 -0.42791,0.70666 0,0.421 -8.68962,17.52622 -9.24098,18.19059 -0.14922,0.17978 -0.5449,1.02243 -0.87931,1.87255 -1.02871,2.61504 -2.03075,4.73616 -5.11253,10.82206 -1.63209,3.22305 -2.96743,6.0216 -2.96743,6.21899 0,0.19738 -0.33444,0.82738 -0.7432,1.39998 -0.40874,0.57261 -1.07849,1.81264 -1.48831,2.75563 -1.01723,2.34067 -3.00932,6.31828 -3.56677,7.12183 -0.25161,0.36269 -1.13836,2.02445 -1.97056,3.69281 -1.90828,3.82572 -1.71958,3.46012 -3.18602,6.1723 -0.68441,1.26577 -1.73751,3.51062 -2.34026,4.98855 -0.60277,1.47794 -1.64538,3.69608 -2.31692,4.92922 -0.67156,1.23313 -1.65925,3.31033 -2.19487,4.616 -1.86861,4.55491 -2.56628,6.07041 -3.03582,6.59429 -0.54617,0.60938 -1.76569,3.21088 -2.63901,5.62962 -0.33225,0.92017 -1.19128,2.63979 -1.90895,3.82138 -1.55933,2.56735 -2.38159,4.16163 -3.03978,5.89387 -0.26881,0.70743 -0.99745,2.05212 -1.61921,2.98819 -0.62177,0.93608 -1.34255,2.23872 -1.60176,2.89475 -1.19,3.01174 -4.73821,9.87214 -5.92613,11.45807 -0.33499,0.44722 -0.86493,1.32252 -1.17769,1.9451 -0.31272,0.62258 -0.83075,1.38939 -1.15115,1.70402 -0.3204,0.3146 -1.03359,1.17025 -1.58484,1.9014 -1.18816,1.57587 -3.57852,4.09896 -3.88333,4.09896 -0.11812,0 -0.37284,0.0562 -0.56605,0.12479 -0.19322,0.0686 -0.55902,0.003 -0.8129,-0.145 z"
     id="path1164" /></svg>
