<?xml version="1.0" encoding="UTF-8" standalone="no"?>
<!-- Created with Inkscape (http://www.inkscape.org/) -->

<svg
   width="1780"
   height="3164"
   viewBox="0 0 470.95832 837.14166"
   version="1.1"
   id="svg5"
   xml:space="preserve"
   xmlns="http://www.w3.org/2000/svg"
   xmlns:svg="http://www.w3.org/2000/svg"><defs
     id="defs2" /><path
     style="fill:#000000;stroke-width:0.26405416;stroke-dasharray:none"
     d="m 257.39879,828.6065 c -26.8531,-1.20832 -53.78385,0.21904 -80.6302,-1.00131 -18.47518,-1.01166 -37.00585,-1.05336 -55.49556,-1.4532 -21.05167,0.47037 -42.138065,-1.11008 -63.173591,0.44576 -10.706246,-0.82524 -21.416721,0.88208 -32.095084,-0.14299 -11.297283,-0.25209 -7.023231,-15.09905 -8.380471,-22.5503 -0.868388,-22.87072 -2.420912,-45.72526 -2.813908,-68.62162 -1.532304,-29.04257 -4.309721,-58.01877 -5.2460101,-87.0886 -0.773345,-25.24341 0.9135161,-50.4719 2.2070991,-75.65754 1.189211,-8.40126 2.24204,-16.82895 1.103079,-25.21875 0.611643,-19.01744 -0.551369,-38.04142 0.518688,-57.0384 1.824655,-47.67467 0.672768,-95.38801 1.242246,-143.07706 1.517408,-24.69476 1.181176,-49.45928 1.286723,-74.19106 -1.477129,-38.08016 -1.73928,-76.24052 0.267725,-114.29856 0.644993,-40.89928 -0.221404,-81.798015 -1.09832,-122.681227 -0.919073,-7.767852 -4.009457,-20.071233 7.446688,-19.084383 18.297136,-0.184982 36.591254,1.150054 54.883561,-0.06521 14.137298,-0.07892 28.143245,-3.271625 42.279475,-1.723491 15.10981,0.894575 30.17652,2.279869 45.34036,1.921067 9.00935,0.456643 17.97927,0.8834 26.98932,0.06674 14.67023,0.05304 29.19966,-2.053018 43.86201,-2.179209 19.41362,-0.90086 38.92016,-0.967916 58.32258,0.06814 10.55137,1.479175 21.39721,0.815723 31.93919,-0.076 16.55266,1.489702 33.26901,0.544168 49.81526,2.383093 20.57308,0.944516 41.16188,1.182565 61.75368,1.496877 6.55786,1.395711 21.75712,-2.541217 18.97287,8.660381 -0.59795,8.678566 -0.17853,17.249154 0.78203,25.830541 1.31086,20.45271 1.03734,40.961689 2.38689,61.403837 0.79976,15.61639 0.911,31.28337 -0.83503,46.85256 -1.45879,29.07242 0.56089,58.15176 1.04857,87.22193 0.61785,18.83177 1.97952,37.62772 1.36782,56.48418 -0.4504,43.22086 0.0414,86.44952 0.61315,129.66975 0.63962,32.2842 -0.2345,64.55774 -1.0659,96.82824 -0.19624,14.81466 -0.95544,29.59388 -0.58744,44.41084 0.0554,53.64311 0.20905,107.29037 -0.58768,160.92689 0.28759,20.70113 0.16417,41.4714 2.6335,62.05839 -0.97153,7.604 2.09063,15.78405 0.89505,22.71998 -7.62276,4.03641 -17.76105,0.47268 -26.40422,2.31789 -20.65277,1.60341 -41.35445,2.22168 -62.0694,2.43083 -24.76358,0.87272 -49.51597,1.81559 -74.30184,1.70656 -14.39029,0.0266 -28.78548,0.47506 -43.17291,0.24443 z m 11.35479,-8.55724 c 23.3226,-0.39161 46.64583,-0.44034 69.96252,-0.80731 26.89925,-1.57452 53.88675,-1.36821 80.78034,-3.01987 12.14349,-0.9098 24.33546,-2.03485 36.51159,-1.80678 -2.21658,-20.00837 -4.22164,-40.05912 -4.14687,-60.22175 -0.56062,-35.43217 0.72239,-70.86399 0.50345,-106.30007 0.44444,-36.6068 -1.11281,-73.19418 0.10445,-109.81131 0.27052,-32.38752 1.41305,-64.76718 0.49075,-97.15581 -0.35144,-33.77761 -1.34243,-67.54397 -1.20559,-101.32828 -0.27645,-27.20754 0.37053,-54.44076 -1.26111,-81.60917 -0.75813,-32.93017 -2.95899,-65.86709 -1.46459,-98.80435 1.54979,-14.16859 1.10331,-28.40699 0.3938,-42.60382 -1.09965,-17.478844 -1.73818,-34.993878 -1.94663,-52.508058 0.72019,-8.90908 1.0764,-17.7816 1.63105,-26.738678 0.0368,-3.515198 0.0715,-7.030419 0.10741,-10.545627 -29.5586,-0.04012 -59.17264,1.585114 -88.67552,-0.791261 -13.78461,-0.605391 -27.74415,0.620539 -41.33756,-2.136684 -8.80241,0.213492 -17.6926,-1.176994 -26.37683,0.353648 -25.41424,0.07266 -50.94644,-1.666666 -76.27794,0.77966 -11.93233,1.37158 -24.03953,-0.486658 -36.01039,0.790757 -15.85717,0.42244 -31.66643,-0.529725 -47.45387,-1.761212 -17.07308,-0.131835 -34.064651,1.47709 -51.097952,2.284867 -15.929778,0.19577 -31.986387,2.441304 -47.765635,-0.89605 -4.171818,0.814996 -13.511872,-3.428978 -14.913602,0.06188 1.471716,10.797493 2.335794,21.668893 2.858434,32.555114 2.20235,11.717279 1.312965,23.81217 2.115526,35.684337 0.49794,36.039312 -0.13852,72.081352 -1.034311,108.105192 0.113261,27.69728 0.628291,55.39182 1.78045,83.06287 -0.83035,21.35016 0.24707,42.7375 -1.485864,64.04669 -0.412498,52.19882 1.140776,104.46128 -1.225115,156.62 0.58709,23.00389 0.665931,46.06604 -0.635386,69.04324 -2.098853,12.29216 -1.338493,24.95039 -2.019091,37.40191 -0.73659,26.31273 1.079751,52.57117 3.018207,78.79357 2.297565,27.73537 3.113854,55.5392 4.300724,83.33739 1.16256,14.61561 1.1341,29.30527 2.41625,43.89993 2.834399,2.83876 9.966763,-0.23888 14.227791,0.28926 21.818199,-0.31685 43.636003,-1.76664 65.460664,-0.7758 18.72321,-0.45727 37.4099,1.08921 56.14164,1.05858 33.35282,1.68142 66.7774,0.95762 100.14674,1.56071 0,0 1.57403,-0.0566 1.57403,-0.0566 0,0 1.80851,-0.0512 1.80851,-0.0512 0,0 -4.7e-4,1.7e-4 -4.7e-4,1.7e-4 z m 140.8063,-38.14513 c -5.9789,-6.58739 -3.48806,-17.56482 -6.05713,-25.89415 -3.08594,-14.88055 -4.91376,-29.99766 -7.78326,-44.92291 -2.56357,-8.08982 -6.42664,-15.87237 -11.4187,-22.76008 -3.66451,-7.89673 -11.18252,-13.09558 -16.90496,-19.45278 -7.5136,-6.46833 -15.69989,-12.08656 -23.23782,-18.49878 -7.60757,-4.85064 -15.74501,-8.61211 -23.86169,-12.45988 -7.13948,-7.38972 -13.26018,6.28075 -22.05067,4.84244 -9.11111,-1.23293 -12.66384,7.47445 -16.87511,13.6484 -4.65106,7.32657 -13.28333,10.17255 -21.04136,13.49497 -11.12585,3.33344 -22.76031,5.15421 -34.34676,5.83733 -15.20588,0.0678 -30.49675,-0.38016 -45.57973,-2.3197 -11.19995,-4.09861 -23.90565,-3.97141 -33.85481,-11.23031 -7.47559,-3.39059 -17.24178,-5.27699 -21.05834,-13.45364 -7.36979,-5.59767 -12.26853,-12.98705 -14.14432,-22.19646 -3.67575,-6.91663 -7.00576,-14.02653 -8.30853,-21.82904 -2.66752,-9.15524 -6.28402,-17.94897 -7.161192,-27.54188 -1.498753,-11.68514 -3.827119,-23.26751 -5.415743,-34.91817 -0.451474,-9.05869 -2.462236,-17.94334 -2.775762,-27.03462 -2.344158,-4.43675 1.154667,-10.71469 -3.153398,-13.95392 -6.125102,-7.71915 -11.694913,-15.94985 -18.003432,-23.46879 -5.295352,-7.6538 -11.929466,-15.57782 -14.473643,-24.73778 -4.058777,-10.66217 -3.953039,-22.1475 -5.8283,-33.22883 -2.184952,-9.4369 -2.210715,-19.43826 -0.903537,-28.98966 2.959002,-9.05758 6.340024,-17.95234 8.458343,-27.2412 4.92459,-9.84836 8.553458,-20.32795 14.636778,-29.58785 3.211663,-8.46426 9.161408,-15.22993 14.951761,-21.97894 3.615923,-7.29314 1.535399,-16.24273 3.572199,-24.13624 1.022729,-8.45784 3.362296,-16.83224 6.445312,-24.7278 7.683224,-10.82918 17.053814,-21.28733 29.497944,-26.62811 4.46589,-3.78529 13.50633,0.24598 15.23054,-5.80033 4.49011,-7.06275 10.21215,-13.71909 16.96634,-18.71146 8.26452,-4.49293 16.5089,-9.61723 25.75319,-11.73738 6.20261,-2.05433 14.14212,-2.74338 19.67606,-4.33111 -2.12737,-8.44444 -4.21036,-16.94413 -7.11677,-25.17746 -2.25213,-7.10782 -5.38744,-15.09574 -11.94663,-19.16443 -10.51103,-3.4079 -15.26044,-14.59817 -19.52083,-23.87642 -4.35324,-8.91198 -5.34247,-18.89028 -7.31967,-28.501984 -1.1147,-15.150317 -1.0468,-31.061767 5.71473,-45.016116 6.85064,-5.728722 17.34133,-3.944402 24.37205,0.753844 7.31017,3.274451 14.9744,5.874097 21.09477,11.231287 7.34567,4.787688 13.81688,10.911338 20.02299,17.069967 6.26532,7.54735 12.21972,15.555542 14.62378,25.261882 2.91021,8.01236 3.85907,16.88149 2.92214,25.35441 -1.2655,10.91975 -6.27041,21.31556 -5.58142,32.42055 2.09163,8.26987 3.35725,16.78041 5.6604,24.98837 6.78229,2.45056 14.0659,2.38816 21.0005,4.26163 11.60974,2.012 22.14029,7.49569 33.01964,11.70304 8.22463,4.08996 14.21466,11.01662 19.68565,18.1926 6.68112,8.66778 11.42133,18.59883 17.21087,27.8121 2.7842,8.28835 6.91474,16.06405 10.67486,24.01759 4.97478,9.95108 8.46604,20.51793 13.01516,30.63671 2.41138,8.59696 4.39796,17.24546 6.41099,25.96131 3.96083,14.89228 8.35828,29.85272 8.66154,45.38557 1.44528,12.55598 4.23143,24.95344 3.98109,37.67148 0.61632,9.32816 -0.0202,18.5378 -0.89115,27.79082 -2.50028,9.96181 -0.59027,20.59809 -4.33864,30.27658 -0.85038,11.08548 -0.0856,22.4814 -3.95084,33.11701 -1.96805,10.18864 -5.89309,19.84266 -8.00229,30.00584 -4.31079,11.95351 -4.32514,25.32641 -11.18747,36.33402 -1.83582,7.99034 -6.62199,14.82358 -9.32457,22.51475 -4.73814,4.58704 -5.68618,10.34399 1.90388,12.26921 6.29797,5.7518 12.74172,11.18382 20.23559,15.34169 6.74514,5.91793 14.22892,11.26855 20.12065,17.92086 4.87018,6.45326 11.69241,11.50791 14.5223,19.37901 4.28591,7.6418 10.63176,13.98669 12.08651,22.96344 5.0229,15.12131 5.06911,31.24977 7.59464,46.85796 0.52438,15.65897 0.50804,31.36157 0.0814,47.02072 -0.0485,2.95899 -4.01949,4.44532 -6.38614,3.17082 z M 238.15256,662.97315 c 8.63236,-0.15728 18.65218,-1.1691 25.44837,-6.86141 3.39365,-2.46102 13.28768,-10.64967 3.61283,-8.30812 -9.95315,0.38322 -20.01355,0.70744 -29.69845,-1.89243 -8.50741,-0.0509 -16.44925,-3.8001 -24.82449,-4.96744 -7.72309,-3.46932 -16.13207,-4.56869 -23.74129,-8.30274 -13.6421,-7.59542 -25.99523,-18.51588 -32.94569,-32.75377 -2.85822,-8.4208 -6.15736,-16.58668 -10.17133,-24.50218 -2.80196,-5.95067 -3.43252,-12.86912 -5.97887,-18.76588 -6.02735,-3.85332 -9.86756,-10.13803 -15.91944,-13.93601 -4.39832,-3.02541 -8.17499,-6.79754 -11.93493,-10.56253 -0.17208,12.82547 1.06513,25.65792 4.24778,38.08519 2.09768,8.23982 4.50701,16.34895 8.06144,24.10647 3.80835,7.91216 6.19432,16.86133 11.39235,23.92773 2.77757,8.32228 9.2183,14.69696 14.07351,21.89057 5.76724,7.14635 15.10205,9.37107 22.56042,14.14949 6.5551,1.68369 12.87683,5.38878 19.41699,6.3476 6.95598,-0.12677 13.92419,-0.0605 20.68443,1.66695 8.39989,1.78945 17.18197,0.39307 25.71637,0.67851 z m 35.1329,-30.46941 c 9.86354,0.12404 19.26337,-2.92933 28.39689,-6.23884 9.51415,-0.39398 13.85561,-11.12395 18.22656,-18.24836 5.74909,-7.21791 7.48393,-16.46312 11.33943,-24.56743 4.61108,-6.48191 6.77006,-13.76432 8.97598,-21.34059 3.23356,-8.22151 6.84119,-16.26612 9.04908,-24.83683 3.05959,-9.82382 4.19392,-20.09847 6.75521,-30.05841 2.13426,-10.37281 3.85514,-20.82233 5.05086,-31.35612 3.52209,-21.0253 3.51676,-42.6466 0.2069,-63.70581 0.84998,-9.68841 -3.66731,-18.67304 -3.96086,-28.20131 0.52293,-10.8066 -3.18704,-21.10433 -4.33964,-31.7452 -3.03457,-11.76921 -5.08522,-23.7703 -7.68509,-35.61623 -4.03209,-7.62393 -5.56311,-16.18536 -8.69779,-24.10663 -4.22591,-8.0217 -4.27101,-17.51918 -9.09738,-25.35042 -3.57386,-12.26596 -10.26418,-23.33321 -18.14142,-33.27039 -5.76694,-8.83572 -15.17597,-14.71511 -24.95588,-18.42672 -10.40401,-4.72333 -21.80767,-7.18515 -33.13989,-8.55102 -11.8218,-1.31369 -23.65864,-1.72512 -35.53635,-1.11753 -5.67304,0.45488 -11.80736,-1.03368 -16.81285,2.44631 -8.18782,3.61578 -16.7965,4.64184 -23.22002,11.47042 -8.49011,4.82467 -15.2923,12.55287 -19.89305,21.12074 -7.07173,6.0747 -5.50925,16.10116 -10.46974,23.42679 -2.12935,8.4886 -4.76418,17.03926 -5.99806,25.74495 -1.71562,9.18275 -3.34826,18.3691 -2.7359,27.76918 0.18041,19.58017 1.08395,39.15054 1.63758,58.72537 1.54013,10.30377 1.05848,20.79653 2.64987,31.08411 0.53936,12.82155 3.63833,25.36186 3.77708,38.2082 2.66117,15.92109 4.61934,31.97158 6.86087,47.95465 1.79007,11.1364 3.23457,22.3387 4.84072,33.46771 2.83794,10.92723 4.27332,22.31668 9.21985,32.5512 2.29658,7.78557 4.95335,15.62228 8.87873,22.76353 6.55766,10.38515 11.77151,21.89121 20.65065,30.56628 7.79413,3.84339 14.16524,10.63528 23.09754,12.19633 8.47157,2.80433 17.53782,2.61787 25.93391,5.31716 8.16445,0.95441 16.30014,2.45216 24.52336,2.14741 1.53806,-0.0646 3.07556,-0.14191 4.61285,-0.2225 z m -39.62357,-69.945 c -7.03677,-0.82369 -14.33969,-0.0528 -21.2984,-0.83087 -3.65161,-2.38108 -8.36617,-0.71794 -12.51277,-1.21575 -5.96899,0.43802 -20.617,1.31905 -15.20449,-8.52613 7.97623,-2.71607 16.25374,-6.465 25.16657,-7.16303 9.33414,-1.98705 18.83198,-2.97802 28.12036,-5.30616 9.80828,-1.84506 19.77041,-1.67534 29.7174,-1.91393 8.9923,-1.24441 17.89768,-3.2498 27.04161,-3.2409 9.64528,-1.96071 19.47118,-2.64874 29.28095,-2.89289 12.68972,-2.42501 9.8691,14.06047 -0.69251,14.36315 -9.9487,5.45326 -21.63145,6.65336 -32.5196,9.1378 -9.03254,1.91237 -18.39251,1.36118 -27.33661,3.85463 -8.50778,0.81675 -16.88119,2.6119 -25.28043,4.0299 -1.49624,0.001 -3.01162,0.0296 -4.48208,-0.29582 z m -34.47251,-86.68025 c -5.96052,-2.59008 -22.54205,-0.98873 -16.73983,-11.35826 7.24914,-5.63751 16.70828,-6.75154 24.89369,-10.66991 8.57107,-2.74486 17.12762,-5.18175 25.75819,-7.75547 11.72343,-2.20261 23.56149,-3.51056 35.4309,-4.55495 10.56144,-1.37133 21.37232,-0.50784 32.0199,-0.49311 7.08571,2.43205 17.99224,0.57772 21.83187,8.09199 0.98033,9.41655 -7.67913,13.44257 -15.55827,14.96788 -8.28734,1.59345 -15.77195,5.28867 -23.98189,7.09866 -10.50271,2.10981 -21.504,-0.32277 -31.7477,3.49171 -6.05432,1.69356 -12.5119,0.26794 -18.72322,0.77963 -11.01761,0.78339 -22.12971,1.21177 -33.18364,0.40183 z m -1.8491,-88.79377 c -8.63708,-0.76839 -17.00001,-3.64562 -25.52588,-4.48851 -7.83373,-6.77345 3.96549,-11.70689 9.61587,-13.34704 9.90663,-3.32593 19.58971,-7.40313 29.33807,-10.62993 12.04811,-4.08665 24.61433,-6.29439 37.12348,-8.28138 9.66096,-0.2361 19.25356,-1.10212 28.93432,-1.08914 11.81138,-1.01499 23.94531,-1.10429 35.57346,1.36483 9.98128,1.50415 7.26648,10.55546 0.68989,14.39935 -7.16211,4.84324 -14.78771,9.0662 -23.37393,10.57758 -14.2486,2.96174 -28.19765,7.24604 -42.42845,10.20796 -16.55617,1.51237 -33.31413,2.2973 -49.94683,1.28628 z m 4.35859,-85.32761 c -10.29893,-0.55744 -20.68518,-0.44983 -30.90717,-2.00442 -10.33746,1.61729 -9.72234,-13.24466 0.44758,-10.38389 7.57843,-4.5969 17.14921,-5.08895 25.83684,-6.21667 8.46702,-0.75407 16.55542,-3.90814 25.04045,-4.79456 8.61179,-3.38296 18.14805,-2.58678 27.19349,-3.82316 12.93847,-0.50167 25.85939,0.11587 38.7591,0.68967 6.43507,-1.01716 23.4739,-0.41892 14.94308,9.22159 -9.16662,2.95863 -17.76107,7.9566 -27.18467,10.45469 -7.58426,2.15767 -15.4546,3.88356 -23.3496,4.22386 -12.04688,3.45888 -24.81447,1.47845 -37.1354,3.01746 -4.54366,0.005 -9.12494,0.16295 -13.6437,-0.38457 z m 121.25632,325.60542 c -1.82212,-0.62129 0.68833,1.25673 0,0 z M 125.19704,437.83147 c -0.65731,-18.33781 -0.71962,-36.7173 -1.14913,-55.06337 1.19456,-11.16104 0.90313,-22.37237 -0.41317,-33.51483 -3.98557,2.85668 -8.36887,12.14083 -9.62265,18.37187 -3.4601,10.51822 -3.68713,21.67202 -3.93985,32.62489 0.98319,7.47295 3.88238,14.47615 5.54817,21.89467 2.31677,8.17332 4.89414,16.53025 9.73702,23.57698 -0.006,-2.62691 0.29924,-5.28732 -0.16039,-7.89021 z M 111.30882,282.35718 c 4.67863,-7.3846 17.40286,-8.38908 18.01259,-18.03693 -0.24661,-4.81318 3.66517,-20.14734 -3.67137,-10.73459 -6.58351,4.91249 -10.4404,12.56852 -15.9045,18.53056 -2.51407,4.33553 -6.24511,13.84736 -4.73525,16.28693 2.15294,-1.95801 4.26405,-3.9648 6.29853,-6.04597 z M 186.11219,119.9695 c 9.47983,-4.16457 3.75391,-18.65899 -5.96731,-12.9797 -6.18593,3.66686 -2.311,17.46748 5.96731,12.9797 z m 29.67408,-14.74892 c 5.62518,-4.09083 -2.35592,-14.418858 -7.46968,-10.87148 -10.28557,4.222358 0.68861,16.58444 7.46968,10.87148 z"
     id="path424" /></svg>
