<?xml version="1.0" encoding="UTF-8" standalone="no"?>
<!-- Created with Inkscape (http://www.inkscape.org/) -->

<svg
   width="1780"
   height="3164"
   viewBox="0 0 470.95832 837.14166"
   version="1.1"
   id="svg5"
   xml:space="preserve"
   xmlns="http://www.w3.org/2000/svg"
   xmlns:svg="http://www.w3.org/2000/svg"><defs
     id="defs2" /><g
     id="layer1"><path
       style="fill:#000000;stroke-width:0.262397"
       d="m 101.69904,829.54778 c -0.064,-0.064 -0.82172,-0.18875 -1.68372,-0.27722 -0.86198,-0.0885 -1.98053,-0.2715 -2.48563,-0.40688 -0.505125,-0.13525 -2.689575,-0.249 -4.85435,-0.25237 -2.20045,-0.002 -5.150775,-0.18825 -6.6911,-0.41878 -1.51535,-0.227 -3.581725,-0.44495 -4.59195,-0.4846 -1.010225,-0.0398 -3.01755,-0.14425 -4.46075,-0.23225 -1.443175,-0.088 -5.93015,-0.2365 -9.971075,-0.3296 -4.0409,-0.0933 -7.9375,-0.21325 -8.659075,-0.2669 -0.7216,-0.0537 -3.319322,-0.078 -5.772722,-0.0542 -2.453425,0.025 -5.169225,-0.003 -6.035125,-0.0583 -3.121425,-0.20125 -14.291525,0.30395 -16.705725,0.7557 -0.673375,0.126 -4.629,0.17425 -8.7903,0.1075 -7.928875,-0.1275 -8.943975,-0.27437 -9.53545,-1.37957 -0.196,-0.36633 -0.482025,-0.43255 -1.414175,-0.32748 -0.9984498,0.1125 -1.2651498,0.035 -1.8336498,-0.5336 -0.975025,-0.975 -1.075425,-1.77085 -0.7186,-5.696 0.177,-1.9483 0.428975,-5.31352 0.559725,-7.4783 0.13075,-2.16477 0.359575,-4.78725 0.508525,-5.8277 0.149,-1.04047 0.332025,-6.82632 0.406825,-12.85745 0.07475,-6.03112 0.199,-12.7959 0.275975,-15.03282 0.3068,-8.9144 0.363075,-10.90725 0.511275,-18.10538 0.08475,-4.11307 0.20325,-9.30852 0.2632498,-11.54545 0.265375,-9.87385 0.474525,-21.93302 0.436875,-25.1901 -0.0225,-1.94827 -0.09175,-13.93325 -0.15375,-26.63325 -0.062,-12.7 -0.219,-24.15362 -0.3486248,-25.45247 -0.12975,-1.29888 -0.26315,-6.08105 -0.2965,-10.62708 -0.03325,-4.54602 -0.17475,-9.38725 -0.3143,-10.75827 -0.327125,-3.215 -0.293,-31.52858 0.041,-34.11155 0.14,-1.0824 0.271225,-6.57305 0.2916,-12.20145 0.02,-5.62843 0.126,-12.00465 0.23475,-14.16943 0.1087498,-2.16477 0.2684998,-6.82887 0.3548748,-10.36467 0.08625,-3.5358 0.211,-7.37335 0.2768,-8.5279 0.616,-10.7983 0.702675,-13.88285 0.519775,-18.49895 -0.1115,-2.8142 -0.2405,-14.44495 -0.286825,-25.84608 -0.04625,-11.40115 -0.1455,-21.08357 -0.22025,-21.51652 -0.207,-1.19648 -0.6707998,-14.00338 -0.7269498,-20.07335 -0.02725,-2.95853 0.0295,-13.8808 0.12625,-24.2717 0.09675,-10.3909 0.1519998,-20.36855 0.1224998,-22.17253 -0.0295,-1.80397 -0.0255,-4.51977 0.01,-6.03512 0.2035,-8.93305 0.05325,-63.1983 -0.1929998,-69.66633 -0.15925,-4.18522 -0.32495,-10.9157 -0.368075,-14.9566 -0.043,-4.04092 -0.212,-8.76765 -0.375575,-10.50387 -0.1635,-1.73623 -0.24225,-3.92068 -0.175,-4.85435 0.313975,-4.36188 0.43925,-11.72993 0.477625,-28.09373 0.03425,-14.6179 0.105,-17.81352 0.402375,-18.17177 0.2856748,-0.34418 0.3248748,-1.13108 0.1882498,-3.77945 -0.2732248,-5.299 -0.4631248,-7.5132 -0.6806998,-7.9367 -0.11125,-0.2165 -0.286075,-1.51535 -0.388625,-2.88638 -0.1025,-1.37102 -0.337925,-3.4374 -0.523075,-4.59195 -0.18525,-1.15452 -0.35215,-4.28362 -0.371125,-6.9535 -0.02,-2.6699 -0.14525,-5.79897 -0.28065,-6.95352 -0.13525,-1.15453 -0.3213,-4.93305 -0.413125,-8.39668 -0.09175,-3.46365 -0.20375,-6.82887 -0.2485,-7.47832 -0.09625,-1.39253 -0.327825,-7.12175 -0.562025,-13.90703 -0.2445,-7.08575 -0.25955,-19.29145 -0.031,-25.32127 0.10925,-2.88635 0.20775,-6.96008 0.2185,-9.05268 0.0175,-3.301 0.258375,-8.24085 0.6218,-12.72625 0.52375,-6.46387 0.704225,-8.44065 0.795225,-8.70995 0.05825,-0.17225 0.177,-2.47482 0.263725,-5.11672 0.08675,-2.64193 0.32135,-6.69275 0.521175,-9.00183 0.19975,-2.3091 0.434725,-5.43817 0.521975,-6.95352 0.08725,-1.51535 0.20475,-3.1094 0.2609,-3.54235 0.05625,-0.43295 0.1765,-2.02703 0.2670998,-3.54235 0.09075,-1.51535 0.27165,-3.34558 0.402225,-4.06715 0.1305,-0.7216 0.3093,-2.78798 0.3972,-4.59195 0.287075,-5.8928 0.596025,-10.57665 0.8827,-13.38223 0.352675,-3.45172 0.82515,-12.00994 0.94885,-17.18699 0.05175,-2.164755 0.2245,-6.76983 0.383875,-10.233455 0.1595,-3.46365 0.3379,-8.42295 0.396675,-11.020675 0.05875,-2.597725 0.23475,-6.3172 0.3912,-8.2655 0.571075,-7.114875 0.805275,-10.74345 1.05155,-16.292675 0.13825,-3.1161 0.3088,-5.8319 0.3789,-6.035125 0.14,-0.406 0.671725,-13.400525 0.8203,-20.04925 0.074,-3.3115 0.2105,-4.58635 0.64605,-6.035125 0.303725,-1.010225 0.6423,-2.251775 0.75235,-2.759 0.436125,-2.009825 1.62545,-2.874225 3.966725,-2.883075 0.505125,-0.0019 1.682825,-0.236 2.617125,-0.52 0.9343,-0.284075 1.7894,-0.425825 1.90025,-0.314975 0.11075,0.11075 1.2947,0.1 2.630825,-0.025 1.3361,-0.124 4.731825,-0.143 7.546025,-0.0425 5.7266,0.2045 9.64245,0.2365 17.711775,0.14475 3.030675,-0.0345 13.126397,-0.0025 22.434922,0.06875 11.095975,0.086 17.466775,0.03775 18.49895,-0.14075 0.92275,-0.1595 7.81935,-0.304175 16.6622,-0.34965 8.2983,-0.04275 19.5748,-0.2135 25.05888,-0.379875 5.4841,-0.16625 12.45072,-0.356425 15.4814,-0.422625 9.35027,-0.20425 19.35062,-0.7099 23.22212,-1.1742 3.74058,-0.4486 14.12738,-0.7408 18.5342,-0.5214 2.2897,0.114 4.2294,0.16825 4.31045,0.12025 0.23825,-0.1405 15.11948,-0.371025 33.3644,-0.516725 9.33943,-0.0745 17.9001,-0.252675 19.02378,-0.395775 2.8239,-0.359625 85.07365,-0.60205 89.63335,-0.264175 1.90372,0.141 5.68542,0.274225 8.40382,0.29595 2.71838,0.0225 5.78843,0.1315 6.82233,0.244 1.03387,0.1125 9.4368,0.2881 18.67317,0.3903 9.23635,0.10225 18.15128,0.2729 19.81095,0.37935 1.65965,0.1065 5.08393,0.13025 7.6095,0.05275 2.52558,-0.0775 5.00523,-0.1375 5.51033,-0.1335 5.48637,0.044 8.67232,0.187 10.75827,0.483075 1.37103,0.1945 4.51673,0.4316 6.99048,0.526725 2.47375,0.09525 4.83532,0.21775 5.24795,0.27215 0.4126,0.0545 3.98832,0.173 7.94602,0.2633 3.95768,0.09025 7.99795,0.24975 8.9784,0.354575 0.9804,0.10475 2.58353,0.10325 3.56245,-0.0025 0.97893,-0.10675 3.14933,-0.21325 4.82318,-0.237 2.62205,-0.037 3.19197,0.03275 4.11752,0.504975 2.31283,1.179925 3.34003,3.981225 2.18045,5.946525 -0.73845,1.2516 -0.7434,1.305625 -0.93337,10.218975 -0.18175,8.527775 -0.24675,9.7029 -0.78238,14.169425 -0.9846,8.2088 -1.19697,12.51035 -1.34082,27.15805 -0.0545,5.55625 -0.20125,12.7 -0.32598,15.875 -0.12475,3.175 -0.18925,7.30775 -0.1435,9.1839 0.0457,1.876125 0.13075,6.008875 0.189,9.183875 0.18775,10.2567 0.43593,21.94797 0.54598,25.71487 0.13925,4.77148 0.36732,20.4649 0.53927,37.12913 0.0753,7.28807 0.19775,18.1513 0.2723,24.1405 0.138,11.08182 0.15575,26.5649 0.046,40.2779 -0.0962,12.05935 0.28363,43.99512 0.60568,50.90495 0.1615,3.46365 0.3368,9.01332 0.38967,12.33265 0.053,3.31932 0.17175,8.63285 0.26443,11.80785 0.0925,3.175 0.19525,6.83545 0.228,8.1343 0.128,5.0645 0.46017,14.77907 0.56087,16.3998 0.7103,11.43312 0.86918,39.5287 0.69363,122.67045 -0.066,31.2831 0.109,65.51007 0.40172,78.5878 0.28483,12.72217 0.27995,24.80502 -0.0125,28.33885 -0.247,2.99617 -0.3792,5.91817 -0.55175,12.20145 -0.0713,2.59772 -0.2145,7.08472 -0.3182,9.97107 -0.214,5.95483 -0.25317,7.75508 -0.33787,15.4814 -0.0822,7.49403 -0.5036,26.92323 -0.71995,33.1932 -0.3802,11.01813 -0.069,39.6566 0.46672,42.95628 0.4274,2.63215 0.73508,6.04282 1.1314,12.54062 0.4143,6.7931 0.83428,15.94323 0.77075,16.79338 -0.23,3.0777 -0.64482,15.38655 -0.63275,18.7744 0.007,2.38845 -0.16925,6.46215 -0.39502,9.0527 -0.2683,3.07867 -0.4395,8.63262 -0.49425,16.0348 -0.046,6.22857 -0.15125,11.4339 -0.23375,11.5674 -0.0825,0.1335 -0.1735,3.42095 -0.202,7.30547 -0.0475,6.4252 -0.1585,9.12553 -0.61008,14.84128 -0.0838,1.06157 -0.158,3.9198 -0.1645,6.3516 -0.007,2.43177 -0.10975,4.61622 -0.2295,4.85432 -0.8775,1.74585 -0.88427,1.82563 -0.69797,8.2452 0.33042,11.38503 0.41635,13.68248 0.5618,15.01623 0.11225,1.0303 0.0305,1.49232 -0.38175,2.15205 -0.7464,1.19457 -1.7903,1.63477 -4.27738,1.80362 -1.19605,0.0813 -3.37057,0.3166 -4.83227,0.52315 -1.4617,0.2065 -4.05943,0.37818 -5.77273,0.38148 -1.7133,0.003 -4.59107,0.12675 -6.39505,0.27467 -1.80397,0.14775 -8.2983,0.31058 -14.4318,0.36168 -6.13352,0.0513 -12.3917,0.17425 -13.90702,0.27372 -1.51535,0.0995 -5.58905,0.21575 -9.0527,0.25855 -3.46363,0.0427 -6.76983,0.1395 -7.3471,0.215 -0.95323,0.1245 -6.79188,0.39265 -12.85745,0.59043 -2.21953,0.0725 -5.35503,0.30752 -12.46385,0.93477 -3.3445,0.2951 -5.86863,0.40383 -14.9566,0.6441 -3.39148,0.0897 -6.8748,0.2045 -7.7407,0.25508 -0.8659,0.0507 -4.70348,0.15625 -8.5279,0.23475 -4.86128,0.0997 -7.6838,0.27667 -9.38068,0.58792 -2.33207,0.4278 -2.52737,0.42535 -4.98555,-0.062 -2.31417,-0.4589 -3.71045,-0.50567 -14.6286,-0.48992 -10.55272,0.015 -12.2352,0.0725 -13.38222,0.45617 -1.40515,0.46993 -2.28383,0.56293 -8.3967,0.88845 -4.66985,0.24875 -44.93308,0.2495 -48.1498,0 -3.81645,-0.29487 -8.81483,-0.4817 -15.0878,-0.56395 -3.94153,-0.0517 -6.99093,-0.22925 -8.7903,-0.51157 -1.51535,-0.23775 -4.34923,-0.48933 -6.29753,-0.5588 -1.9483,-0.0695 -5.1364,-0.19125 -7.0847,-0.27065 -1.9483,-0.0793 -5.5497,-0.19225 -8.0031,-0.25053 -2.45342,-0.0585 -6.23192,-0.194 -8.3967,-0.3011 -6.10145,-0.30212 -12.44247,-0.2523 -17.18697,0.135 -4.80303,0.3921 -9.12313,0.43553 -16.01538,0.161 -3.5931,-0.143 -5.23145,-0.092 -7.4783,0.23275 -1.58247,0.22875 -5.2978,0.54185 -8.25632,0.69555 -2.95853,0.15375 -6.44185,0.38398 -7.74073,0.51175 -1.29885,0.12775 -4.19177,0.31538 -6.4287,0.41688 -2.23695,0.1015 -4.127,0.21875 -4.20012,0.2602 -0.0732,0.0415 -1.90335,0.155 -4.06715,0.25202 -2.1638,0.097 -4.93785,0.28398 -6.16455,0.4154 -2.37425,0.2544 -5.08423,0.31953 -5.27693,0.12675 z m 149.11733,-10.18262 c -1.13493,-1.85913 -1.65913,-9.51693 -0.96545,-14.10383 0.22925,-1.51532 0.5257,-3.1692 0.65895,-3.67522 0.13325,-0.50605 0.37422,-2.63148 0.53552,-4.72315 0.36655,-4.7531 0.37158,-4.7777 1.17283,-5.72993 l 0.66182,-0.78652 -0.0175,-8.87678 c -0.02,-9.5283 -0.13525,-11.00232 -1.14732,-14.6495 -0.36045,-1.29887 -0.6615,-2.77215 -0.66898,-3.27397 -0.008,-0.50183 -0.187,-1.80068 -0.39902,-2.88638 -0.212,-1.08565 -0.57183,-3.50897 -0.79963,-5.3851 -0.22775,-1.87615 -0.52875,-4.11965 -0.6688,-4.98555 -0.14,-0.8659 -0.31125,-2.10572 -0.38045,-2.75517 -0.0692,-0.64943 -0.29902,-2.06635 -0.51072,-3.14875 -0.21175,-1.08238 -0.45785,-2.49933 -0.54698,-3.14875 -0.0893,-0.64945 -0.32952,-1.8255 -0.5342,-2.6135 -0.20475,-0.788 -0.3735,-1.9688 -0.37517,-2.62398 -0.002,-0.65517 -0.29458,-2.78532 -0.65093,-4.7336 -0.58065,-3.17482 -0.83215,-5.15715 -1.315,-10.36467 -0.46337,-4.99743 -0.46342,-5.30735 -0.001,-6.5173 0.50955,-1.33428 0.46428,-1.9613 -0.36315,-5.02815 -0.3115,-1.15455 -0.79887,-3.27998 -1.08307,-4.72315 -0.2842,-1.44318 -0.6962,-3.39148 -0.91555,-4.32955 -0.5609,-2.39875 -0.88363,-4.06833 -1.15793,-5.9904 -0.25112,-1.75958 -0.54512,-2.442 -0.54512,-1.26528 0,0.38703 -0.17225,1.38085 -0.38265,2.2085 -0.2105,0.82765 -0.62955,2.56753 -0.93133,3.8664 -0.30177,1.29885 -0.65495,2.59773 -0.78482,2.88635 -0.35263,0.78365 -0.9999,3.5559 -1.20315,5.15315 -0.0985,0.77373 -0.26528,1.52485 -0.3707,1.66918 -0.1055,0.14425 -0.272,0.7879 -0.37018,1.43017 -0.0983,0.64225 -0.28285,1.29345 -0.41037,1.44708 -0.1275,0.15375 -0.48863,2.2259 -0.80253,4.60497 -0.31387,2.3791 -0.6632,4.50275 -0.77625,4.71923 -0.113,0.2165 -0.28675,1.27917 -0.38597,2.36157 -0.0992,1.08238 -0.34085,2.44028 -0.53693,3.01755 -0.196,0.57728 -0.427,1.84793 -0.51317,2.8237 -0.0863,0.97575 -0.27075,2.07418 -0.4102,2.44093 -0.1395,0.36677 -0.37253,1.6348 -0.51798,2.81785 -0.3271,2.66075 -0.85922,5.37167 -1.42655,7.26772 -0.82927,2.77145 -1.40042,5.1276 -1.5902,6.55993 -0.10525,0.79375 -0.2807,1.56125 -0.39005,1.70557 -0.10925,0.14425 -0.27715,0.73473 -0.3729,1.312 -0.23425,1.4129 -1.4477,6.4894 -2.1323,8.92148 -0.203,0.7216 -0.4418,1.72525 -0.5304,2.23037 -0.0885,0.5051 -0.25857,1.27263 -0.37775,1.70558 -0.62005,2.25267 -1.14397,4.04532 -1.45705,4.98555 -0.19225,0.57725 -0.47002,1.75805 -0.61732,2.62395 -0.14725,0.86592 -0.4558,2.3419 -0.68558,3.27997 -0.22975,0.93805 -0.58705,2.76665 -0.79392,4.0635 -0.207,1.29685 -0.43668,2.51578 -0.5107,2.70865 -0.074,0.193 0.0575,0.93783 0.29215,1.6554 0.47465,1.45113 0.3569,3.25933 -0.2758,4.23508 -0.20975,0.32362 -0.4509,1.41495 -0.53568,2.42517 -0.0848,1.01023 -0.26395,3.0766 -0.39817,4.59195 -0.29673,3.35018 -0.6151,11.5787 -0.65485,16.92458 -0.035,4.7107 -0.29715,5.77507 -1.81138,7.35537 l -1.12347,1.17253 h 17.16342 17.1634 l -0.5206,-0.8528 z m -233.973677,0.0512 c 1.15455,-0.14775 3.9294,-0.3768 6.166325,-0.5088 4.35385,-0.25695 7.9907,-0.66908 8.459125,-0.95858 0.1585,-0.098 1.3604,-0.27315 2.67115,-0.38945 1.31075,-0.11625 2.67835,-0.28297 3.03915,-0.37035 4.12505,-0.99917 11.83035,-0.99352 35.554747,0.026 2.020475,0.0868 5.439125,0.14875 7.59705,0.1375 2.732675,-0.015 4.52455,0.11075 5.903925,0.41153 1.29785,0.28302 3.563125,0.45895 6.572375,0.5105 2.525575,0.0433 6.24505,0.2465 8.2655,0.4517 2.02045,0.20525 4.4689,0.31592 5.44098,0.246 1.59075,-0.1145 15.89527,0.57015 17.5311,0.8389 0.3676,0.0605 0.8368,0.005 1.0427,-0.1215 0.30817,-0.1905 0.26325,-0.34965 -0.254,-0.90023 -1.0501,-1.1178 -1.75735,-6.19652 -1.0476,-7.52275 0.18225,-0.34067 0.23075,-1.28377 0.13075,-2.55137 -0.0872,-1.106 -0.22375,-3.1917 -0.30358,-4.63488 -0.0798,-1.44317 -0.26327,-3.09627 -0.4079,-3.67355 -1.3242,-5.28515 -1.4017,-6.34197 -1.549,-21.12292 -0.16175,-16.22018 -0.13475,-17.8151 0.3606,-21.38535 0.28365,-2.04443 0.4795,-5.7255 0.55845,-10.49585 0.067,-4.04093 0.1755,-7.70135 0.241,-8.1343 0.0658,-0.43298 0.24725,-1.5547 0.4035,-2.49278 0.15625,-0.93807 0.28488,-2.31377 0.28598,-3.05707 0.002,-1.373 0.83447,-6.70773 1.33922,-8.5822 0.4991,-1.85355 1.31785,-10.55715 1.39815,-14.8628 0.0595,-3.1907 0.43035,-9.089 0.9816,-15.6126 0.45905,-5.43225 0.4099,-9.8431 -0.132,-11.8457 -0.24,-0.88678 -0.43627,-2.2665 -0.43627,-3.06608 0,-0.79955 -0.16775,-2.2585 -0.37305,-3.24205 -0.20525,-0.9836 -0.45305,-3.14625 -0.5508,-4.8059 -0.0978,-1.65967 -0.40628,-4.7297 -0.6856,-6.82232 -0.2793,-2.0926 -0.62333,-5.04458 -0.76445,-6.55993 -0.14125,-1.51532 -0.38103,-3.2865 -0.53313,-3.93595 -0.152,-0.64942 -0.38055,-3.36522 -0.50772,-6.03512 -0.12725,-2.66988 -0.37135,-7.15685 -0.54263,-9.97108 -0.35955,-5.90712 -0.3404,-19.52252 0.0335,-23.7469 0.1405,-1.5875 0.37203,-4.42137 0.51458,-6.2975 0.37072,-4.87955 0.49555,-6.12695 0.9553,-9.54812 0.22525,-1.6758 0.4365,-3.40118 0.46955,-3.83413 0.1635,-2.14177 1.00867,-8.08387 1.3809,-9.70867 0.2315,-1.01023 0.5089,-2.95853 0.6166,-4.32955 0.10775,-1.37103 0.32482,-3.20123 0.48247,-4.06715 0.15775,-0.8659 0.3588,-5.94328 0.44705,-11.28305 0.0882,-5.33978 0.19725,-11.5389 0.24225,-13.77583 0.119,-5.90272 0.59955,-15.44677 0.79375,-15.76095 0.20375,-0.32985 0.85458,-3.86985 1.2027,-6.54277 0.141,-1.08238 0.35625,-2.3222 0.47843,-2.75515 0.80032,-2.83653 2.31457,-7.54915 3.2882,-10.23348 0.62812,-1.73182 1.22552,-3.44395 1.32752,-3.80475 0.102,-0.3608 0.27105,-0.77407 0.37565,-0.9184 0.1045,-0.14425 0.45635,-1.44317 0.7817,-2.88635 0.32535,-1.4432 0.93408,-4.04092 1.35275,-5.77272 0.92648,-3.83235 1.29935,-6.9338 1.43533,-11.93905 0.0568,-2.09263 0.2425,-5.16268 0.41285,-6.82233 0.30297,-2.95407 0.3524,-4.3153 0.2335,-6.42872 -0.0325,-0.57728 0.0263,-2.24588 0.1305,-3.70803 0.16075,-2.25437 0.11625,-2.8499 -0.29155,-3.91787 -0.38185,-0.99985 -0.48278,-2.0202 -0.4898,-4.95105 -0.01,-4.03988 0.0965,-6.17965 0.32605,-6.56475 0.0817,-0.137 0.173,-0.49125 0.203,-0.7872 0.0747,-0.73653 0.64575,-5.3411 0.78252,-6.31078 0.061,-0.43295 0.168,-1.65962 0.2375,-2.72592 0.0695,-1.0663 0.24325,-2.83748 0.3861,-3.93595 0.58468,-4.4983 1.10905,-14.50693 0.77745,-14.83853 -0.0642,-0.0642 -1.11747,0.15675 -2.34055,0.4908 -1.22307,0.3342 -2.81417,0.72985 -3.53575,0.8793 -0.7216,0.1495 -2.847,0.76438 -4.72315,1.36658 -1.87612,0.60217 -3.58827,1.10132 -3.80475,1.10917 -0.2165,0.007 -0.51547,0.1095 -0.66445,0.22575 -0.26655,0.208 -5.4571,1.37743 -8.2329,1.8549 -0.78047,0.13425 -1.54352,0.321 -1.69562,0.415 -0.15225,0.094 -0.75338,0.20825 -1.33613,0.25355 -0.58275,0.0455 -1.768,0.1445 -2.63392,0.22025 -0.8659,0.0757 -2.59895,0.1825 -3.85123,0.23725 -1.25227,0.0547 -2.54182,0.18375 -2.86565,0.28658 -0.32385,0.10275 -1.07042,0.22025 -1.6591,0.26105 -2.20987,0.15325 -4.50145,0.38927 -5.076125,0.52297 -0.327075,0.076 -1.2916,-0.0422 -2.143375,-0.26297 -1.216,-0.3151 -1.708325,-0.33678 -2.2917,-0.10075 -0.40865,0.16525 -1.979325,0.62327 -3.4904,1.01775 -2.59265,0.67692 -3.080425,0.71787 -8.6591,0.72705 -5.901925,0.01 -7.9916,-0.19325 -11.667,-1.13295 -2.55345,-0.65285 -5.4893,-1.965 -7.8893,-3.52598 -1.186675,-0.7718 -1.832825,-1.02052 -2.62395,-1.01 -1.310975,0.0175 -3.16115,-0.7892 -4.215497,-1.838 -1.0171,-1.01175 -5.017475,-6.9761 -6.1902,-9.22927 -1.088425,-2.09118 -2.32055,-4.87923 -2.32055,-5.25085 0,-0.15125 -0.470925,-0.87065 -1.046475,-1.5988 -0.73265,-0.92688 -1.273775,-2.0511 -1.804475,-3.7489 -0.4169,-1.33373 -0.883025,-2.65328 -1.035825,-2.93233 -0.859475,-1.56957 -1.1529,-2.5347 -1.2862,-4.23055 -0.16125,-2.05212 0.332025,-11.216 0.717775,-13.33257 0.546725,-2.99995 0.5623,-3.5368 0.1155,-3.9835 -0.655075,-0.6551 -0.369075,-2.17965 1.295625,-6.90598 0.381225,-1.08237 0.86785,-2.28137 1.081375,-2.66445 0.2135,-0.38307 0.38825,-0.8809 0.38825,-1.1063 0,-0.2255 0.1935,-0.8566 0.42995,-1.4027 0.2365,-0.54607 0.51625,-1.22902 0.6217,-1.51767 0.1055,-0.28863 0.433025,-1.11518 0.72795,-1.83678 0.294925,-0.72157 0.917275,-2.2566 1.383025,-3.41115 0.866,-2.14682 0.9613,-2.36947 2.33835,-5.46305 0.4381,-0.9842 0.79655,-1.90325 0.79655,-2.04227 0,-0.139 0.2931,-0.83123 0.651325,-1.53818 0.35825,-0.70695 1.0004,-2.32662 1.427025,-3.59925 0.426625,-1.27262 1.15015,-3.31752 1.60785,-4.54422 0.457675,-1.2267 1.043625,-2.8798 1.302072,-3.67355 0.5199,-1.5967 0.783825,-2.25225 1.870475,-4.64608 0.4066,-0.8957 0.932375,-2.48975 1.1684,-3.54237 0.252025,-1.124 1.14185,-3.37575 2.1561,-5.4562 0.949825,-1.94828 1.69875,-3.68995 1.664275,-3.87035 -0.0345,-0.1805 0.0605,-0.32798 0.21125,-0.32798 0.15075,0 0.2739,-0.28075 0.2739,-0.62387 0,-0.34313 0.17725,-0.77085 0.3936,-0.95053 0.2165,-0.17975 0.3936,-0.49852 0.3936,-0.70862 0,-0.53655 1.826975,-4.2769 2.089025,-4.2769 0.1185,0 0.283375,-0.26983 0.36615,-0.59963 0.08275,-0.3298 1.069725,-2.17067 2.193225,-4.09087 1.1235,-1.9202 2.35415,-4.04143 2.734775,-4.7139 0.380625,-0.67248 0.89705,-1.5769 1.147625,-2.00985 0.736725,-1.27295 4.8509,-9.54688 4.857275,-9.76835 0.0025,-0.1115 0.23675,-0.49793 0.51895,-0.85873 0.282225,-0.3608 0.51575,-0.87395 0.51895,-1.1403 0.0025,-0.26635 0.1685,-0.7977 0.367475,-1.18077 0.199,-0.38308 0.48765,-0.99168 0.641675,-1.35248 0.154,-0.3608 0.506725,-1.18735 0.7838,-1.83677 0.277075,-0.64945 0.7143,-1.74553 0.971625,-2.43575 0.257325,-0.69023 0.568425,-1.3171 0.69135,-1.39308 0.123,-0.076 0.2235,-0.30927 0.2235,-0.5185 0,-0.20925 0.659625,-1.52295 1.46585,-2.91942 0.8062,-1.39645 2.0002,-3.66843 2.653325,-5.04885 1.032625,-2.1825 2.889725,-5.54805 4.325925,-7.83968 0.243,-0.3879 0.6876,-1.1889 0.9878,-1.78 0.746325,-1.46952 4.474275,-5.86125 5.658475,-6.66597 0.530925,-0.3608 1.219625,-0.94413 1.530475,-1.29633 1.72268,-1.95185 2.56755,-2.95612 3.9267,-4.6676 0.8285,-1.04322 1.76895,-2.03485 2.08995,-2.2036 0.32098,-0.16875 2.2367,-1.93205 4.25715,-3.91842 4.85623,-4.77433 5.62343,-5.45398 8.34425,-7.39213 1.27,-0.90467 3.33638,-2.39287 4.59193,-3.3071 1.9942,-1.45207 8.39477,-5.43175 9.49875,-5.90602 0.2165,-0.093 0.57072,-0.2839 0.7872,-0.4242 0.5822,-0.3774 2.81587,-1.32263 3.12545,-1.32263 0.14725,0 0.65565,-0.1685 1.12957,-0.3742 1.44623,-0.62807 7.58695,-2.47055 9.2584,-2.7779 0.8659,-0.15925 2.519,-0.52842 3.67355,-0.82042 4.6936,-1.18705 5.32673,-1.3336 7.2159,-1.6703 1.0824,-0.193 2.61743,-0.54635 3.41118,-0.7854 0.79375,-0.239 1.97452,-0.54283 2.62395,-0.67503 0.64945,-0.13225 1.41695,-0.3517 1.70557,-0.48772 1.21455,-0.57233 6.79948,-1.99605 8.9215,-2.27428 0.7216,-0.0945 1.43005,-0.25892 1.57438,-0.36512 0.14425,-0.10625 0.5792,-0.2687 0.96637,-0.36108 0.3872,-0.0922 2.539,-1.0533 4.78183,-2.13535 2.24282,-1.08207 4.14727,-1.9674 4.23215,-1.9674 0.0847,0 1.06212,-0.42622 2.17167,-0.94715 1.10958,-0.52095 2.3126,-1.06322 2.6734,-1.20507 0.68835,-0.27063 1.45438,-0.651 3.41115,-1.69383 0.64943,-0.3461 1.99118,-1.35765 2.98168,-2.24787 0.99047,-0.89023 2.64357,-2.28878 3.67355,-3.10788 2.27282,-1.80752 2.85832,-2.4361 4.6272,-4.96762 1.73357,-2.48103 2.85785,-3.67355 3.46327,-3.67355 0.26033,0 0.4733,-0.10425 0.4733,-0.23175 0,-0.1275 0.219,-0.28908 0.4868,-0.35908 0.58038,-0.15175 0.73478,-1.10987 0.9911,-6.1504 0.14725,-2.89585 0.0805,-4.0747 -0.40885,-7.21592 -0.32167,-2.06503 -0.86287,-4.46305 -1.20265,-5.32895 -0.33977,-0.86593 -0.69562,-1.98768 -0.7908,-2.49278 -0.0953,-0.50512 -0.33937,-1.42435 -0.5427,-2.04275 -0.20325,-0.6184 -0.36967,-1.64602 -0.36967,-2.28362 0,-0.6376 -0.10825,-1.4305 -0.24075,-1.762 -0.1325,-0.33153 -0.50503,-1.78353 -0.82798,-3.22673 -0.32292,-1.44317 -0.87275,-3.50955 -1.22177,-4.59192 -0.37933,-1.1763 -0.72408,-3.09263 -0.857,-4.76363 -0.21375,-2.68767 -0.8854,-5.85422 -1.3522,-6.37512 -0.12275,-0.137 -0.22325,-0.43 -0.22325,-0.65093 0,-0.37362 -0.65158,-2.18677 -1.48238,-4.12497 -0.195,-0.45478 -0.3544,-0.99203 -0.3544,-1.19393 0,-0.202 -0.10025,-0.47922 -0.223,-0.61632 -0.1225,-0.137 -0.4891,-1.13488 -0.81442,-2.21725 -0.32533,-1.0824 -0.86758,-2.85358 -1.20503,-3.93595 -0.33745,-1.0824 -0.79497,-2.96323 -1.01677,-4.17965 -0.45758,-2.5098 -0.64393,-2.81915 -1.44123,-2.39245 -0.30712,0.1645 -0.66165,0.235 -0.78787,0.157 -0.12625,-0.078 -0.29718,0.0345 -0.37993,0.25025 -0.0828,0.21575 -0.38335,0.3921 -0.668,0.3921 -0.28465,0 -0.5974,0.12925 -0.695,0.2871 -0.0975,0.158 -0.4681,0.2315 -0.82335,0.1635 -0.389,-0.0743 -0.6986,0.015 -0.77835,0.22175 -0.0727,0.18975 -0.50632,0.42502 -0.9633,0.52267 -0.45697,0.0977 -0.94895,0.26393 -1.09327,0.36953 -0.14425,0.1055 -1.08895,0.45955 -2.09918,0.7866 -1.01022,0.32705 -2.0418,0.69932 -2.2924,0.8273 -0.2506,0.128 -0.5818,0.23275 -0.736,0.23275 -0.2682,0 -2.3125,0.83445 -3.13792,1.28085 -0.2165,0.117 -1.22015,0.3572 -2.23038,0.53357 -1.01022,0.1765 -2.22937,0.44155 -2.7092,0.58923 -0.47985,0.14775 -0.9376,0.20325 -1.01725,0.12375 -0.0797,-0.0798 -0.46912,0.0225 -0.86547,0.22775 -0.39638,0.205 -0.79485,0.29847 -0.88553,0.20775 -0.0907,-0.0907 -0.43035,-0.0362 -0.75485,0.12075 -0.3245,0.15725 -1.1804,0.36747 -1.902,0.46742 -1.81277,0.25113 -2.3377,0.33745 -4.59192,0.75505 -1.9735,0.3656 -4.30235,0.65288 -6.62035,0.81663 -0.68268,0.0482 -1.34035,0.149 -1.4615,0.22375 -0.12125,0.075 -1.5109,0.27117 -3.08833,0.4362 -1.57742,0.165 -3.2223,0.35317 -3.65525,0.41812 -1.0404,0.156 -4.642,0.57008 -7.7407,0.88988 -1.37102,0.1415 -6.1532,0.38542 -10.62707,0.5421 -9.36065,0.3278 -10.20065,0.3649 -14.35065,0.63412 -3.5972,0.23325 -4.71783,-0.067 -6.28,-1.68365 -1.29618,-1.3413 -1.55188,-1.89535 -1.67873,-3.63737 -0.128,-1.7585 0.24775,-3.2119 1.02423,-3.96003 1.3246,-1.27642 1.79417,-1.64492 2.38002,-1.86765 0.7529,-0.28625 1.34828,-2.12567 1.56128,-4.82357 0.0995,-1.25938 0.34082,-2.1401 0.80245,-2.92783 0.36312,-0.61962 1.02825,-2.2297 1.47805,-3.5779 0.4498,-1.34822 0.90662,-2.5694 1.01515,-2.7137 0.1085,-0.14425 0.49767,-1.20702 0.86477,-2.36157 0.3671,-1.15455 1.02673,-2.8667 1.4658,-3.80475 0.4391,-0.93808 1.10338,-2.44745 1.4762,-3.35415 1.08745,-2.64478 2.24975,-5.10765 2.74785,-5.82263 0.2541,-0.36472 0.96838,-1.60774 1.58733,-2.76227 0.61895,-1.15455 1.64017,-2.82882 2.26942,-3.72057 0.62923,-0.89178 1.14408,-1.70718 1.14408,-1.81203 0,-0.10475 0.29505,-0.57742 0.65565,-1.05022 0.36062,-0.4728 0.77362,-1.13338 0.91777,-1.467955 0.14425,-0.334575 0.37888,-0.78545 0.5216,-1.001925 0.14275,-0.2165 1.1056,-1.869575 2.1397,-3.67355 1.03408,-1.803975 2.589,-4.4017 3.4554,-5.772725 2.2249,-3.520825 3.23563,-5.180375 5.4335,-8.9215 4.72688,-8.04585 13.3379,-18.966675 18.0002,-22.8285 0.60983,-0.505125 2.17293,-1.829025 3.47355,-2.942 2.4932,-2.1335 5.69305,-4.4371 7.61848,-5.484625 0.63292,-0.344325 1.3434,-0.74415 1.57885,-0.88845 0.2355,-0.14425 1.72495,-1.0069 3.30997,-1.916825 1.58505,-0.909925 3.059,-1.7697 3.27548,-1.910625 0.2165,-0.141 1.39727,-0.7347 2.62397,-1.3195 5.4186,-2.583175 6.85353,-3.322925 9.44628,-4.869875 1.51535,-0.904125 3.52267,-1.932325 4.46075,-2.28485 0.93807,-0.35255 3.12252,-1.18825 4.85435,-1.857125 1.7318,-0.66885 3.73915,-1.3965 4.46072,-1.616975 0.7216,-0.2205 2.19758,-0.6976 3.27998,-1.060275 2.83517,-0.949925 5.16905,-1.65235 6.8223,-2.0533 0.79375,-0.1925 2.2107,-0.5388 3.14877,-0.76955 0.93805,-0.23075 3.06348,-0.6478 4.72313,-0.9268 1.65967,-0.279 3.667,-0.6374 4.46075,-0.796475 4.6151,-0.924925 6.21675,-1.1419 11.28305,-1.528525 5.43315,-0.4146 16.47595,0.02775 21.77892,0.872225 1.37103,0.21825 3.2233,0.5082 4.11615,0.644125 0.89285,0.136 2.25075,0.417125 3.01755,0.624925 0.76683,0.20775 2.33883,0.57705 3.49338,0.820525 1.15455,0.2435 2.33532,0.538675 2.62397,0.656 1.67763,0.68195 7.70495,1.940825 10.10228,2.109975 1.51532,0.107 3.46362,0.369025 4.32955,0.582425 1.7633,0.4346 6.364,1.909375 7.68397,2.46315 0.47395,0.19875 1.03118,0.361525 1.2383,0.361525 0.50773,0 3.7483,1.075625 6.16553,2.046525 2.55265,1.025275 14.75962,7.20835 17.3654,8.79595 1.10837,0.675275 2.13747,1.22775 2.28685,1.22775 0.1495,0 0.6595,0.330975 1.13355,0.735475 0.94022,0.8023 2.66707,1.94395 5.71627,3.7791 2.83968,1.709075 3.97693,2.5119 4.3864,3.0965 0.1985,0.2834 0.91638,0.83465 1.5952,1.224975 1.92413,1.1063 5.87363,4.18885 6.74463,5.2641 0.9707,1.1983 4.91335,5.054825 5.16772,5.054825 0.2395,0 3.509,4.4236 4.6489,6.2898 0.48228,0.789525 1.32288,1.9703 1.86803,2.623975 2.78405,3.33815 8.55282,12.656275 12.02595,19.425075 0.55537,1.082375 1.49745,2.9126 2.09352,4.06715 0.59605,1.154525 1.0855,2.243525 1.08763,2.419975 0.002,0.1765 0.29287,0.94398 0.64605,1.70558 2.1614,4.66105 4.55427,11.72394 5.40305,15.94777 0.1305,0.64945 0.41537,1.7712 0.63302,2.49277 0.21775,0.7216 0.64475,2.19758 0.94908,3.27995 0.30437,1.0824 0.70905,2.4403 0.89935,3.01758 1.2303,3.73225 1.6449,5.5748 2.00752,8.92147 0.34178,3.1543 0.19875,5.44208 -0.3764,6.01713 -0.247,0.247 -0.44907,0.58955 -0.44907,0.76122 0,0.17175 -0.36795,0.60603 -0.81765,0.96525 -0.4497,0.3592 -1.01058,0.84275 -1.2464,1.07453 -0.23575,0.23175 -0.99048,0.6319 -1.677,0.88915 -1.34778,0.50502 -0.28263,0.53465 -14.62673,-0.40675 -2.09262,-0.13725 -8.11462,-0.2969 -13.38222,-0.35455 -11.1494,-0.122 -15.7157,-0.29888 -22.04133,-0.8534 -2.52557,-0.2215 -5.24137,-0.4404 -6.03512,-0.48665 -2.55885,-0.149 -7.3031,-0.6781 -14.16943,-1.57998 -0.3608,-0.0475 -1.1299,-0.15625 -1.70912,-0.242 -0.86965,-0.12875 -1.25993,-0.025 -2.23998,0.5968 -1.21557,0.77088 -2.29775,1.13478 -3.3194,1.11618 -0.77617,-0.015 -0.8545,0.18275 -0.60822,1.5294 0.205,1.1207 -0.23625,3.18142 -0.81725,3.81807 -0.3139,0.34393 -0.287,2.17575 0.0348,2.3747 0.14425,0.0892 0.2624,0.3814 0.2624,0.64938 0,0.713 -1.83425,7.08847 -2.30445,8.0097 -0.44818,0.8781 -3.6969,9.22075 -4.6992,12.06737 -0.35513,1.00865 -0.74058,1.95328 -0.8565,2.09918 -0.51838,0.65237 -1.32643,4.00192 -1.99468,8.26837 -0.39205,2.50295 -0.41305,3.42093 -0.2941,12.85745 0.0618,4.90498 -0.1315,9.63018 -0.45085,11.02065 -0.5321,2.31693 -0.53365,2.3067 0.40433,2.71043 0.4842,0.2085 1.50162,0.91655 2.26092,1.57367 0.75933,0.6571 1.70395,1.41893 2.09918,1.69295 0.96587,0.6696 4.11347,2.2606 5.57295,2.81693 0.64945,0.2475 1.80225,0.73615 2.56182,1.08577 0.75958,0.34963 2.47173,0.99803 3.80475,1.4409 1.33305,0.44285 4.10868,1.6253 6.1681,2.62765 2.0594,1.00235 4.23818,1.9967 4.84175,2.20965 0.60355,0.213 1.85963,0.8268 2.79128,1.3641 0.9316,0.5373 2.4723,1.39203 3.42372,1.89935 2.78428,1.4847 5.85685,3.1873 6.8466,3.7939 0.50513,0.30958 1.6859,0.95358 2.62398,1.4311 0.93805,0.47755 1.8827,1.01613 2.09917,1.19683 0.2165,0.18075 1.22013,0.59687 2.23038,0.92475 1.01022,0.3279 2.42715,0.88222 3.14875,1.23182 0.7216,0.3496 1.84332,0.81565 2.49277,1.03565 0.64943,0.22 2.30253,0.87238 3.67355,1.44975 1.37103,0.57738 2.96508,1.23763 3.54235,1.46723 1.199,0.47685 4.4212,2.38677 6.16633,3.65502 0.64942,0.47198 1.9483,1.26023 2.88637,1.75168 0.93805,0.49145 2.6502,1.57247 3.80475,2.40227 1.15453,0.8298 2.51245,1.77445 3.01755,2.0992 0.50513,0.32475 1.33168,0.97158 1.83678,1.4374 0.50512,0.4658 2.1519,1.6696 3.65947,2.6751 4.1024,2.73608 6.07998,4.58868 10.2773,9.62783 1.32928,1.59587 4.61633,6.92437 5.67033,9.19192 3.5887,7.7208 4.8113,11.23968 5.98942,17.23873 0.36493,1.8582 0.82623,3.9099 1.02515,4.55935 0.199,0.64942 0.48685,1.94827 0.63988,2.88635 0.81952,5.023 1.10442,6.90987 1.36697,9.0527 0.15925,1.29885 0.44948,3.4833 0.64518,4.85432 0.19575,1.37103 0.5327,5.14953 0.74897,8.3967 0.21625,3.24715 0.5139,6.73048 0.66145,7.7407 0.1475,1.01023 0.27063,2.4477 0.2735,3.19435 0.002,0.74668 0.1265,1.92745 0.27468,2.62395 0.14825,0.69653 0.44672,3.2147 0.66337,5.59595 0.4223,4.64083 0.88435,8.05535 1.54455,11.41425 0.227,1.15455 0.54763,2.98478 0.71268,4.06715 0.29792,1.95403 0.72095,3.69025 1.75812,7.21593 0.29718,1.01022 0.67818,3.01755 0.8467,4.46075 0.1685,1.44317 0.60023,3.62762 0.95938,4.85432 1.8173,6.20718 2.74862,11.07043 2.63812,13.77583 -0.0422,1.03675 0.209,3.42995 0.97848,9.31507 0.217,1.65968 0.44852,4.5526 0.5145,6.42873 0.066,1.87615 0.1755,4.0606 0.24325,4.85435 0.0677,0.79375 0.19525,2.86012 0.28332,4.59192 0.0883,1.73183 0.27468,3.68013 0.41458,4.32955 0.13975,0.64945 0.36697,4.1918 0.50462,7.8719 0.13775,3.68013 0.3138,8.34423 0.39145,10.36468 0.38825,10.10225 2.46903,22.98905 4.61105,28.55717 0.2869,0.74583 0.5843,1.76933 0.6609,2.27445 0.0765,0.5051 0.30515,1.44973 0.5079,2.09918 2.09855,6.7218 4.6243,20.84737 5.51285,30.8316 0.164,1.84155 0.79003,5.11177 1.68303,8.7903 0.2628,1.08237 0.678,3.0897 0.92275,4.46072 0.24475,1.37103 0.5593,3.0256 0.69902,3.67685 0.13975,0.6512 0.30445,1.59583 0.36603,2.09918 0.0615,0.5033 0.1725,1.32837 0.24675,1.8335 0.0743,0.5051 0.19975,1.98107 0.27922,3.27995 0.0795,1.29885 0.202,3.011 0.27213,3.80475 0.117,1.32062 0.2045,35.25637 0.1205,46.7066 -0.02,2.6699 -0.007,6.03512 0.025,7.47832 0.033,1.44318 0.0505,5.1036 0.039,8.1343 -0.0225,5.77413 0.028,7.06153 0.30895,7.94673 0.0937,0.29535 0.0455,0.61415 -0.107,0.7084 -0.1525,0.0942 -0.22925,0.25182 -0.17075,0.35007 0.0585,0.0983 0.007,0.76908 -0.115,1.49065 -0.24775,1.46688 -0.42115,3.73953 -0.6406,8.3967 -0.13825,2.9324 -0.38768,4.12463 -1.31773,6.29753 -0.8011,1.8716 -2.2222,6.4242 -2.45722,7.8719 -0.1405,0.8659 -0.33043,4.29017 -0.42195,7.6095 -0.1125,4.07755 -0.34843,7.2267 -0.7276,9.70867 -0.70133,4.59048 -0.72425,5.86253 -0.112,6.2052 0.2514,0.14075 0.384,0.37403 0.29467,0.5186 -0.0892,0.1445 0.0385,0.48483 0.28408,0.75618 0.36232,0.40037 0.4652,1.16627 0.54567,4.06312 0.0735,2.6474 0.02,3.52148 -0.203,3.38298 -0.211,-0.13025 -0.23975,-0.0353 -0.095,0.3155 0.11375,0.27622 0.20725,0.6203 0.20725,0.76462 0,0.85628 -0.37667,3.93833 -0.50825,4.15123 -0.0863,0.13975 -0.14725,0.59117 -0.13575,1.00332 0.0125,0.41215 -0.089,0.74938 -0.2235,0.74938 -0.13475,0 -0.24475,0.3762 -0.24475,0.83602 0,1.214 -0.78477,4.20703 -1.23882,4.72473 -0.21425,0.24425 -0.33423,0.59845 -0.26673,0.78717 0.0675,0.18875 -0.002,0.57935 -0.157,0.868 -0.15375,0.28863 -0.31842,0.76095 -0.36572,1.04958 -0.0473,0.28862 -0.20075,0.56415 -0.34083,0.61225 -0.14025,0.048 -0.25482,0.23475 -0.25482,0.41475 0,0.5144 -1.09103,2.53875 -2.20085,4.08355 -1.33253,1.85477 -1.65115,2.7067 -1.71395,4.5827 -0.0288,0.8574 -0.1235,1.67432 -0.21075,1.81537 -0.0872,0.141 -0.2495,1.15165 -0.3605,2.2458 -0.31225,3.07495 -1.00248,6.79375 -1.58508,8.54 -0.76365,2.28905 -1.59312,3.57808 -2.89012,4.49143 -2.124,1.49575 -3.70163,1.84732 -5.81145,1.2952 -1.71173,-0.44795 -3.07038,-0.51793 -3.07038,-0.15825 0,0.33747 -2.2712,1.966 -3.84272,2.75535 -2.1356,1.07265 -8.3225,2.52972 -10.19548,2.40115 -4.47142,-0.30695 -7.3925,-1.63328 -10.6893,-4.85365 -1.64587,-1.60775 -2.62787,-2.3751 -3.04177,-2.37695 -0.87855,-0.005 -3.84365,-1.23995 -5.24785,-2.18765 -1.7983,-1.21363 -3.09915,-2.67485 -3.97988,-4.47043 -0.66827,-1.36245 -0.81515,-2.034 -0.95475,-4.3653 -0.16025,-2.67407 0.178,-6.73022 0.67818,-8.1343 0.25905,-0.72722 0.72142,-2.41615 1.58045,-5.77272 0.31392,-1.22673 0.6804,-2.43585 0.81435,-2.68693 0.134,-0.25112 0.36482,-1.3116 0.51302,-2.35662 0.14825,-1.045 0.45495,-2.55173 0.6816,-3.3482 0.22675,-0.79648 0.58525,-2.62893 0.7969,-4.0721 0.21175,-1.44318 0.71915,-3.62793 1.12785,-4.85498 0.40868,-1.22705 0.93985,-3.23437 1.18035,-4.46075 0.57545,-2.93402 1.0583,-4.46575 2.1092,-6.69047 0.4772,-1.01023 1.1871,-2.54525 1.5776,-3.41115 1.86725,-4.14073 2.31155,-5.03065 3.44785,-6.90645 0.67138,-1.10828 1.65928,-2.66448 2.19533,-3.45823 0.53607,-0.79375 1.36482,-2.11432 1.84167,-2.93457 0.48668,-0.8371 2.14243,-2.75205 3.7741,-4.36488 2.31855,-2.29175 3.11955,-3.28505 3.95665,-4.90637 l 1.0496,-2.0329 -0.002,-3.18138 c -0.002,-1.74977 -0.14175,-3.65292 -0.31172,-4.22927 -0.17,-0.5764 -0.56683,-2.22873 -0.8817,-3.6719 -0.31485,-1.4432 -0.66843,-2.86013 -0.78565,-3.14878 -0.18725,-0.46082 -0.54253,-1.73095 -1.61498,-5.77272 -0.15325,-0.57728 -0.48185,-1.69903 -0.73037,-2.49278 -0.90963,-2.90517 -1.29748,-4.3554 -1.47363,-5.51032 -0.099,-0.64943 -0.6942,-2.28013 -1.32252,-3.62373 -0.62835,-1.34362 -1.14243,-2.55552 -1.14243,-2.69312 0,-0.1375 -0.114,-0.45523 -0.2532,-0.70583 -0.37877,-0.68162 -1.2324,-2.7269 -1.44955,-3.4732 -0.105,-0.36077 -0.81082,-1.8958 -1.56855,-3.41115 -2.08305,-4.1658 -5.29455,-13.80387 -6.45477,-19.3714 -0.13,-0.62417 -0.65943,-2.39535 -1.17635,-3.93595 -0.51693,-1.54062 -1.1555,-3.6867 -1.41903,-4.7691 -0.26355,-1.08237 -0.67127,-2.49932 -0.9061,-3.14875 -0.44785,-1.23865 -1.0189,-3.77547 -1.59482,-7.08472 -0.45495,-2.61403 -1.82595,-8.91998 -2.3675,-10.88945 -0.238,-0.86593 -0.59313,-2.3419 -0.78888,-3.27995 -0.19575,-0.93808 -0.4735,-2.1779 -0.61717,-2.75518 -0.3049,-1.22487 -1.35425,-6.72397 -1.50215,-7.8719 -0.0557,-0.43295 -0.28495,-1.67277 -0.5093,-2.75517 -0.98065,-4.73108 -1.22028,-6.06895 -1.57445,-8.79028 -0.2065,-1.5875 -0.56083,-3.89005 -0.78708,-5.11675 -0.22625,-1.2267 -0.57222,-3.29307 -0.7688,-4.59192 -0.1965,-1.29888 -0.55495,-3.07005 -0.79647,-3.93595 -0.42423,-1.52105 -0.60573,-2.31045 -1.5679,-6.82018 -0.246,-1.15332 -0.5013,-2.18417 -0.56715,-2.2907 -0.0658,-0.1065 -0.30123,-1.52447 -0.52303,-3.15092 -0.22175,-1.62648 -0.57037,-4.138 -0.77455,-5.58118 -0.67747,-4.78905 -0.89282,-6.80637 -0.89632,-8.3967 -0.002,-0.86592 -0.11175,-1.98765 -0.244,-2.49277 -0.13225,-0.50513 -0.30085,-3.51613 -0.37468,-6.69113 -0.0737,-3.175 -0.25495,-6.30407 -0.40245,-6.9535 -0.1475,-0.64942 -0.38302,-1.71215 -0.52332,-2.36157 -0.14025,-0.64943 -0.56895,-2.2435 -0.95263,-3.54235 -0.3836,-1.29888 -0.85547,-3.011 -1.04857,-3.80475 -0.193,-0.79375 -0.66295,-2.5059 -1.04413,-3.80475 -0.7434,-2.533 -1.09015,-3.7892 -1.9556,-7.08473 -0.75717,-2.88335 -0.8051,-3.01755 -1.0774,-3.01755 -0.13175,0 -0.31727,0.3247 -0.4121,0.72158 -0.0947,0.39687 -0.25877,0.83967 -0.36437,0.984 -0.1055,0.14425 -0.27715,0.73382 -0.38125,1.30997 -0.104,0.57618 -0.26375,1.16658 -0.35483,1.312 -0.091,0.1455 -0.18475,0.38248 -0.20825,0.52678 -0.0962,0.59237 -0.68505,2.60432 -0.95037,3.24697 -0.1565,0.37895 -0.30108,0.80705 -0.32145,0.95138 -0.2295,1.62547 -0.50903,2.78795 -0.69858,2.90507 -0.12775,0.079 -0.23225,0.52025 -0.23225,0.98078 -2e-5,0.46052 -0.29347,1.78192 -0.65205,2.93647 -0.69015,2.2219 -0.85952,4.81993 -0.39405,6.04425 0.14625,0.38463 0.3234,2.66533 0.3937,5.06823 0.0702,2.40292 0.23475,5.3726 0.36518,6.5993 0.1305,1.2267 0.25547,4.00155 0.27767,6.16632 0.0225,2.16478 0.14525,4.64443 0.27338,5.51033 0.35372,2.38987 1.58932,7.6551 1.92322,8.19532 0.0987,0.15975 0.53038,2.07468 0.9591,4.2552 0.42875,2.18048 0.89993,4.1895 1.04708,4.46445 0.14725,0.27495 0.26755,0.81868 0.26755,1.2083 0,0.71765 0.177,1.4983 1.03742,4.57405 0.77833,2.7824 1.06958,4.22945 1.32273,6.57255 0.13175,1.21975 0.3614,2.6241 0.5102,3.12078 0.54515,1.81935 1.07095,5.48767 1.31857,9.19922 0.31743,4.7573 0.69425,8.37123 1.1902,11.41425 0.21175,1.29888 0.5052,4.18823 0.65223,6.42078 0.147,2.23257 0.4366,5.59782 0.6435,7.4783 0.207,1.88052 0.45817,4.54085 0.55832,5.91187 0.208,2.84585 0.2045,2.81623 0.76328,6.69113 0.69967,4.8524 0.93235,9.26327 1.06577,20.20455 0.13125,10.7565 0.23275,15.5417 0.49533,23.3533 0.0825,2.4534 0.22525,7.7079 0.31742,11.67665 0.092,3.96875 0.221,8.45572 0.28633,9.97107 0.13675,3.17138 0.17375,13.9296 0.0543,15.875 -0.0908,1.48108 0.20975,4.77455 0.56442,6.18533 0.12975,0.51555 0.34918,3.2904 0.48793,6.16632 0.13875,2.87593 0.39822,5.6422 0.57677,6.14733 0.2205,0.6241 0.32973,2.8943 0.34063,7.0847 0.015,6.12925 -0.2872,16.95735 -0.4838,17.28037 -0.0565,0.093 -0.176,1.46788 -0.26548,3.05538 -0.17025,3.02165 -0.36595,5.7477 -0.55567,7.7407 -0.46135,4.8465 -0.64368,9.50227 -0.76568,19.54855 -0.205,16.88792 -0.41712,30.05412 -0.57062,35.42355 -0.0743,2.59775 -0.1795,6.3172 -0.234,8.2655 -0.1355,4.84852 -0.60988,11.71575 -0.89723,12.98865 -0.30655,1.3579 -0.54165,4.21127 -0.66415,8.06025 -0.0537,1.69107 -0.1615,3.17755 -0.23925,3.30325 -0.0778,0.12575 -0.158,1.716 -0.1785,3.53395 -0.042,3.71232 -0.1965,5.0983 -1.03062,9.24305 -0.50983,2.53312 -0.59498,3.9461 -0.6958,11.54545 -0.126,9.50795 -0.27933,10.68162 -1.90623,14.59777 -0.44172,1.06325 -1.03497,2.8188 -1.3183,3.90118 -0.28337,1.0824 -0.6197,2.32222 -0.74745,2.75517 -0.12775,0.43295 -0.25567,1.49568 -0.28427,2.36158 -0.0285,0.8659 -0.1865,2.12547 -0.3507,2.799 -0.26285,1.07787 -0.2305,1.38865 0.27017,2.59335 0.31285,0.75282 0.56883,1.77405 0.56883,2.26937 v 0.90065 l 1.24637,-0.1425 c 0.68553,-0.0783 4.37548,-0.20825 8.1999,-0.28865 3.82443,-0.0805 7.19545,-0.1975 7.49118,-0.26017 0.29567,-0.0628 1.88975,-0.18475 3.54235,-0.27155 1.65257,-0.0867 4.24452,-0.25003 5.75987,-0.36303 1.51533,-0.113 6.4156,-0.23025 10.88945,-0.26062 4.47388,-0.0303 8.66565,-0.15675 9.3151,-0.28103 0.64943,-0.12425 4.01465,-0.24175 7.4783,-0.26137 3.46363,-0.02 7.7735,-0.0868 9.57748,-0.1495 1.80397,-0.0627 4.22457,0.005 5.37912,0.14825 2.5376,0.31695 24.01678,0.6546 34.17635,0.53727 l 1.37678,-0.015 -0.15525,-9.11827 c -0.15425,-9.06918 -0.15875,-9.1259 -0.82213,-10.52953 l -0.66695,-1.4112 0.29518,-4.8863 c 0.30642,-5.07237 0.24125,-6.41862 -0.37808,-7.80845 -0.442,-0.99192 -0.67062,-11.76662 -0.34165,-16.10162 0.115,-1.51533 0.27928,-7.65543 0.3651,-13.64463 0.0858,-5.9892 0.26848,-11.831 0.4059,-12.98175 0.1375,-1.15075 0.25383,-3.15807 0.2587,-4.46075 0.005,-1.30265 0.1225,-3.60827 0.26125,-5.1236 0.13875,-1.51535 0.25655,-4.7625 0.26158,-7.21592 0.005,-2.4534 0.13575,-5.81865 0.2908,-7.4783 0.33347,-3.57233 0.32682,-18.2767 -0.01,-20.10888 -0.12875,-0.70205 -0.25008,-3.15525 -0.2697,-5.4515 -0.02,-2.2963 -0.13875,-4.65785 -0.26483,-5.24795 -0.126,-0.5901 -0.31417,-2.43077 -0.41802,-4.09045 -0.104,-1.65965 -0.23175,-3.31275 -0.28433,-3.67355 -0.099,-0.67955 -0.4858,-24.75445 -0.48705,-30.3068 0,-1.73182 0.099,-7.51767 0.22125,-12.85745 0.3211,-14.0534 0.33195,-14.41415 0.52993,-17.58057 0.0993,-1.5875 0.2275,-7.37335 0.28475,-12.85745 0.092,-8.7978 0.21375,-13.4938 0.79177,-30.5692 0.0758,-2.23693 0.2533,-6.01545 0.3946,-8.3967 0.3647,-6.14523 0.41445,-15.0236 0.20275,-36.21075 -0.1015,-10.17443 -0.10025,-23.87153 0.002,-30.438 0.10325,-6.5665 0.10875,-12.52945 0.0125,-13.25105 -0.32267,-2.40628 -0.1795,-48.76428 0.17575,-56.94008 0.081,-1.86532 0.15225,-17.8986 0.0898,-20.20455 -0.008,-0.28862 0.084,-9.67587 0.20425,-20.86052 0.24125,-22.45905 0.208,-28.6191 -0.22625,-41.98348 -0.16175,-4.97897 -0.3256,-11.11907 -0.36407,-13.64462 -0.0385,-2.52558 -0.1325,-7.30775 -0.209,-10.62708 -0.0765,-3.31932 -0.201,-11.05345 -0.2769,-17.18697 -0.0757,-6.13353 -0.25248,-12.6869 -0.3927,-14.56303 -0.28048,-3.75277 -0.4093,-12.81367 -0.35438,-24.9277 0.02,-4.32952 -0.0125,-10.05635 -0.0708,-12.72622 -0.18475,-8.4208 -0.10675,-24.1822 0.13125,-26.46583 0.12575,-1.20675 0.13175,-3.85025 0.0125,-5.87442 -0.11825,-2.0242 -0.22725,-8.71195 -0.242,-14.86168 -0.035,-14.60772 -0.2035,-33.83562 -0.39595,-45.16172 -0.0845,-4.97898 -0.21575,-13.36255 -0.29145,-18.63015 -0.0758,-5.26763 -0.18,-11.28963 -0.2315,-13.38223 -0.23325,-9.46532 -0.44565,-23.21839 -0.44352,-28.732445 0.002,-9.47805 0.2596,-27.521375 0.4355,-30.700425 0.0878,-1.5875 0.209,-4.657525 0.26955,-6.8223 0.0605,-2.164775 0.29035,-5.631175 0.51095,-7.703125 0.2205,-2.07195 0.4039,-4.5516 0.40735,-5.51035 0.002,-0.958725 0.12425,-2.21545 0.26875,-2.792725 0.42417,-1.696125 1.03152,-7.431875 1.03435,-9.768575 0.002,-1.1875 0.24575,-3.65435 0.54272,-5.481925 0.3002,-1.847025 0.44013,-3.422775 0.31505,-3.54785 -0.12375,-0.12375 -1.51805,-0.1365 -3.09842,-0.0285 -1.5804,0.10825 -3.66813,0.118 -4.6394,0.0225 -0.97125,-0.096 -5.104,-0.241 -9.18388,-0.32215 -4.07987,-0.08125 -7.71315,-0.198 -8.07395,-0.2596 -0.3608,-0.06175 -2.54525,-0.248 -4.85435,-0.414425 -2.30907,-0.16625 -5.27642,-0.41315 -6.5941,-0.54855 -1.31767,-0.13525 -5.68657,-0.31585 -9.70867,-0.401 -4.0221,-0.08525 -8.31658,-0.18775 -9.5433,-0.228 -1.2267,-0.04025 -8.19333,-0.20225 -15.4814,-0.360425 -12.6387,-0.2741 -28.49643,-0.66545 -39.19663,-0.9673 -2.72462,-0.07675 -5.04662,-0.197 -5.15997,-0.26715 -0.1135,-0.07 -3.55195,-0.11275 -7.6412,-0.095 -4.08928,0.0175 -20.0104,-0.0025 -35.3803,-0.04575 -39.59608,-0.11075 -42.92845,-0.094 -45.13223,0.2255 -1.17935,0.171 -6.80495,0.29145 -14.03822,0.30035 -6.63863,0.0075 -15.1403,0.0675 -18.89258,0.132 -3.75225,0.0645 -11.54545,0.186 -17.31817,0.269875 -13.57798,0.1975 -18.89548,0.351625 -23.0909,0.669075 -8.6659,0.6557 -12.2296,0.805 -21.7213,0.91 -5.59673,0.062 -10.2756,0.17425 -10.39748,0.2495 -0.122,0.07525 -2.74555,0.1455 -5.83035,0.156 -4.96047,0.0175 -6.89695,0.1245 -12.16865,0.67675 -0.7216,0.0755 -7.09782,0.1815 -14.16942,0.2355 -7.07158,0.054 -13.329755,0.1695 -13.90703,0.25695 -2.872325,0.435025 -31.6215,0.2425 -40.0155,-0.267775 -1.515322,-0.09225 -4.880572,-0.14375 -7.478297,-0.1145 -7.6972,0.08625 -8.54095,0.0685 -11.201775,-0.239 -1.398475,-0.1615 -4.54275,-0.364925 -6.987275,-0.452 l -4.4446,-0.15825 -0.4079,1.1417 c -0.410175,1.1481 -0.557375,3.9935 -0.853175,16.491925 -0.0665,2.8142 -0.23575,6.061375 -0.3757,7.2159 -0.14,1.15455 -0.31665,3.516125 -0.3925,5.24795 -0.07575,1.731825 -0.1925,3.9753 -0.259575,4.985525 -0.067,1.010225 -0.1885,3.017575 -0.26995,4.46075 -0.0815,1.443175 -0.202,3.03725 -0.267625,3.54235 -0.196,1.506675 -0.675375,10.607625 -0.7742,14.694225 -0.0505,2.0926 -0.2315,6.107275 -0.402125,8.921475 -0.1705,2.814225 -0.35325,7.950625 -0.405925,11.414275 -0.05275,3.46363 -0.21825,7.30945 -0.367775,8.54625 -0.1495,1.2368 -0.333625,3.31622 -0.408975,4.62095 -0.07525,1.30472 -0.19,2.89052 -0.254675,3.524 -0.236,2.31045 -0.3926,4.91095 -0.531,8.82332 -0.07775,2.19893 -0.19325,4.14723 -0.256375,4.32955 -0.11125,0.32078 -0.607325,6.04158 -0.802475,9.25303 -0.05275,0.8659 -0.15775,2.16477 -0.23325,2.88635 -0.07575,0.7216 -0.205,2.55182 -0.2874,4.06715 -0.08225,1.51535 -0.254175,3.58172 -0.3819,4.59195 -0.12775,1.01022 -0.302925,3.48987 -0.38935,5.51032 -0.18125,4.23778 -0.6516,10.92025 -0.783825,11.1361 -0.0495,0.0808 -0.163,1.0916 -0.252225,2.24615 -0.08925,1.15453 -0.27605,3.57515 -0.415275,5.37913 -0.21075,2.72977 -0.69765,11.02117 -0.92475,15.7438 -0.417175,8.67597 -0.59915,35.24397 -0.29835,43.55785 0.081,2.23692 0.17075,6.53907 0.19925,9.5603 0.02875,3.02122 0.15125,5.91415 0.2724,6.4287 0.121,0.51457 0.227,2.64717 0.23525,4.7391 0.01,2.61962 0.135,4.15692 0.40055,4.9389 0.212,0.62445 0.4488,2.16002 0.526175,3.4124 0.07725,1.25235 0.214,2.8674 0.303775,3.589 0.437,3.51557 0.665125,48.4388 0.28845,56.80887 -0.420825,9.3515 -0.42545,10.19075 -0.0725,13.13993 0.18925,1.5827 0.308225,5.27785 0.282125,8.7702 -0.025,3.31932 0.09375,10.58115 0.263575,16.1374 0.316975,10.37265 0.293825,45.65325 -0.042,64.0248 -0.099,5.41192 -0.22,17.98727 -0.269075,27.94525 -0.049,9.95795 -0.136,21.58867 -0.19325,25.84607 -0.06375,4.7468 0.0395,10.32865 0.267325,14.4318 0.4962,8.93998 0.800225,25.24648 0.633575,33.98038 -0.15025,7.8774 -0.12625,11.97955 0.125,21.25412 0.10525,3.88895 0.049,8.50543 -0.147,12.07025 -0.17475,3.175 -0.35995,7.13065 -0.41155,8.7903 -0.163,5.2425 -0.644675,15.41993 -0.77235,16.32108 -0.11425,0.80557 -0.496425,23.66527 -0.5542,33.1407 -0.015,2.3091 -0.1195,8.3311 -0.23425,13.38222 -0.11475,5.05115 -0.20975,9.42005 -0.21125,9.70868 -0.0014,0.28865 0.12175,2.88662 0.2735,5.77332 0.15175,2.88668 0.291525,8.4954 0.31035,12.46383 0.02,3.96845 0.0985,7.68765 0.17675,8.26492 0.382325,2.81553 0.12975,80.2434 -0.26385,80.90445 -0.05775,0.0968 -0.1835,2.95098 -0.279725,6.34245 -0.21025,7.41615 -0.585825,15.87975 -0.922375,20.78683 -0.22775,3.3207 -0.415025,4.47825 -1.075725,6.6489 -0.13425,0.44137 -0.307125,2.74392 -0.383975,5.11675 -0.07675,2.37285 -0.24875,5.67217 -0.38205,7.33182 -0.13325,1.65965 -0.320325,4.23393 -0.4156,5.72063 -0.167,2.6074 -0.840775,7.31475 -1.39695,9.76077 -0.14775,0.64945 -0.350325,2.44555 -0.450325,3.99135 l -0.18175,2.81058 0.8916,-0.125 c 0.4906,-0.0688 1.836475,-0.24575 2.991,-0.39368 z M 245.25904,382.42521 c 2.05918,-0.17875 5.50365,-0.7409 8.003,-1.30625 2.34815,-0.53113 3.39435,-0.52458 4.23558,0.0265 0.65145,0.42682 0.69157,0.42005 1.16572,-0.19675 0.27008,-0.35138 0.49368,-0.7324 0.49688,-0.84678 0.002,-0.11425 0.70805,-1.64935 1.5663,-3.41115 0.85827,-1.76177 1.87367,-3.97077 2.25652,-4.90882 0.3828,-0.93808 0.83695,-1.8827 1.0092,-2.09918 0.17225,-0.2165 0.46663,-0.74785 0.65413,-1.1808 0.1875,-0.43295 0.52287,-1.14142 0.74522,-1.57437 2.02675,-3.9465 3.74388,-7.87608 3.74718,-8.57525 0,-0.1905 0.15525,-0.64143 0.34277,-1.00223 0.18775,-0.3608 0.61835,-1.65965 0.95708,-2.88637 0.33872,-1.2267 0.77485,-2.73633 0.96917,-3.3547 0.19425,-0.61843 0.3533,-1.3328 0.3533,-1.5875 0,-0.25475 0.10575,-0.57533 0.23475,-0.71245 0.59003,-0.62653 0.8865,-3.19003 0.9393,-8.12118 0.0603,-5.6335 0.28723,-7.04917 1.35628,-8.46227 0.35482,-0.46905 0.5097,-0.8528 0.34417,-0.8528 -0.81875,0 -3.22752,-0.90218 -4.57467,-1.71338 -0.85105,-0.5125 -1.8711,-0.9134 -2.33318,-0.917 -0.45152,-0.002 -1.33792,-0.1255 -1.96972,-0.27125 -0.89095,-0.2055 -1.46948,-0.1715 -2.5778,0.1505 -1.30438,0.3792 -1.55413,0.37905 -2.8631,-0.002 -1.67395,-0.48547 -3.51263,-2.15602 -3.51263,-3.19032 0,-1.07655 0.6972,-2.36985 1.5487,-2.87288 0.44745,-0.2643 0.87973,-0.68907 0.9606,-0.94392 0.081,-0.25483 0.66428,-0.83478 1.29645,-1.28875 0.63218,-0.454 1.21245,-0.98973 1.2895,-1.19053 0.0962,-0.25097 0.5333,-0.35112 1.39868,-0.32052 0.69222,0.025 1.49207,-0.0853 1.77747,-0.244 0.28538,-0.15875 1.2864,-0.61248 2.22445,-1.00845 2.79643,-1.18045 4.4734,-2.45645 6.3309,-4.8172 2.01088,-2.55568 2.26705,-3.2552 2.45003,-6.6911 0.0922,-1.73183 0.2165,-4.0346 0.27635,-5.11728 l 0.10875,-1.9685 -1.14438,-0.47332 c -0.62942,-0.26033 -1.3494,-0.69985 -1.59995,-0.97673 -0.44697,-0.49387 -0.46852,-0.49405 -1.1426,-0.007 -0.37787,0.27248 -0.92317,0.71543 -1.21182,0.98438 -0.28863,0.26892 -0.8984,0.7523 -1.35505,1.0741 -0.45668,0.3218 -1.43038,1.34867 -2.1638,2.28195 -1.46785,1.8678 -2.7632,2.9377 -6.23853,5.1527 -3.92115,2.4992 -7.2505,4.05332 -10.05357,4.69295 -0.79375,0.18125 -2.19163,0.61297 -3.10643,0.9597 -2.44955,0.92837 -3.58112,1.00545 -5.40182,0.36785 l -1.55475,-0.54445 -2.1188,2.03525 c -2.34778,2.2552 -4.6599,4.25312 -6.2932,5.43805 -0.59045,0.42835 -1.13258,0.84377 -1.20475,0.92315 -0.0722,0.0795 -1.25348,0.9883 -2.62518,2.01977 -1.37167,1.0315 -3.02477,2.4341 -3.67355,3.1169 -0.64877,0.68283 -1.8101,1.88143 -2.58075,2.6636 l -1.4012,1.4221 1.08015,1.09098 c 0.5941,0.60002 1.26843,1.51762 1.4985,2.0391 0.24525,0.55602 0.78343,1.1448 1.30105,1.42357 0.87095,0.46903 3.13975,2.75323 4.71878,4.75073 1.16145,1.4693 3.69022,5.43995 4.4724,7.0225 0.36697,0.7425 0.83395,1.66342 1.0377,2.0465 0.20375,0.38307 0.37045,0.90255 0.37045,1.15445 0,0.55452 1.45377,4.66067 2.03882,5.75857 1.7433,3.27158 2.18655,4.2578 2.89663,6.4449 0.75592,2.32828 1.0696,3.85995 1.23265,6.01893 0.25245,3.34255 0.41542,6.7349 0.50425,10.49587 0.0563,2.38125 0.113,4.35538 0.126,4.3869 0.0125,0.0315 0.1715,0.01 0.35187,-0.0493 0.18025,-0.0585 1.0955,-0.173 2.03358,-0.2545 z m 9.61103,-166.91218 c 0.55882,-0.223 1.25217,-0.5117 1.54082,-0.64167 0.28863,-0.13 1.11518,-0.48305 1.83678,-0.78463 0.7216,-0.30157 1.52125,-0.6649 1.777,-0.80737 0.25577,-0.1425 1.14135,-0.51198 1.96797,-0.82113 0.82663,-0.30912 2.04738,-0.89687 2.71278,-1.3061 0.66537,-0.40925 1.29617,-0.74407 1.4018,-0.74407 0.58737,0 5.37422,-4.60653 5.92547,-5.7023 0.201,-0.39953 0.57773,-1.04175 0.83713,-1.42713 0.25942,-0.3854 0.84182,-1.44812 1.29422,-2.36157 0.91228,-1.84198 2.47203,-3.52523 3.50733,-3.78508 0.47497,-0.11925 0.7206,-0.39527 0.82757,-0.93017 0.0838,-0.41835 0.48713,-1.04253 0.89653,-1.38703 l 0.74442,-0.62637 -0.005,-4.68203 c -0.005,-6.2382 1.1244,-13.47195 2.65775,-17.01465 0.52583,-1.21492 1.10335,-2.69962 1.4799,-3.80475 0.22125,-0.64942 0.79098,-2.00732 1.26595,-3.01757 0.47498,-1.01023 1.25913,-2.71575 1.74258,-3.79008 0.7848,-1.74407 1.5358,-3.25262 4.21182,-8.4607 0.72518,-1.41125 0.75173,-1.57472 0.4878,-3.00232 -0.1535,-0.8304 -0.39307,-1.58025 -0.53235,-1.66633 -0.13925,-0.086 -0.56467,-0.74237 -0.94527,-1.45842 -1.88628,-3.54855 -3.7092,-6.273 -4.9656,-7.42128 -1.1144,-1.01852 -1.92415,-1.4524 -4.3586,-2.3354 -2.88313,-1.04577 -4.3265,-1.52515 -5.37863,-1.78637 -3.40827,-0.84615 -5.30297,-1.22723 -7.05755,-1.4194 -3.15485,-0.3456 -6.64457,-1.02813 -7.48887,-1.46473 -0.8549,-0.4421 -5.2374,-0.54702 -5.99148,-0.1435 -0.25145,0.1345 -1.26532,0.31488 -2.25302,0.40065 -0.9877,0.0857 -3.33008,0.32628 -5.20528,0.5344 -1.8752,0.208 -3.50265,0.32078 -3.61657,0.25038 -0.114,-0.0705 -0.77568,5.2e-4 -1.47058,0.15775 -0.6949,0.15725 -2.95082,0.34887 -5.01317,0.42587 l -3.7497,0.14 -2.67903,1.22155 c -2.6141,1.192 -6.7461,3.6269 -6.7461,3.9754 0,0.096 -0.2872,0.30533 -0.6382,0.46525 -0.35102,0.16 -0.9119,0.52325 -1.2464,0.80738 -3.59882,3.0569 -7.31225,5.75367 -9.1446,6.641 -1.30925,0.63402 -1.76147,0.98072 -1.65207,1.26657 0.5531,1.44513 1.15505,3.64395 1.61627,5.90393 0.29453,1.44317 0.78013,3.45052 1.07913,4.46075 0.29897,1.01022 0.65452,2.36812 0.79007,3.01755 0.1355,0.64942 0.49715,1.88925 0.8035,2.75517 0.30635,0.8659 0.85695,2.75515 1.22355,4.19835 0.3666,1.44318 0.7636,2.86013 0.88223,3.14875 0.19725,0.47993 0.3628,1.3046 1.06535,5.3059 0.13225,0.75345 0.58522,2.40655 1.00652,3.67355 1.51538,4.5572 2.10703,8.56083 2.2285,15.0797 0.0755,4.05485 0.1485,4.72078 0.57713,5.2666 0.26985,0.34365 0.72302,1.05718 1.00707,1.58563 0.8436,1.56947 3.55145,4.20695 5.51868,5.37525 1.01025,0.59995 2.3989,1.5567 3.08595,2.12612 0.68702,0.56943 2.22205,1.51638 3.41115,2.10435 1.88482,0.93195 2.63297,1.1351 5.83555,1.5846 2.02045,0.28358 4.95387,0.567 6.51872,0.6298 1.5723,0.063 2.97513,0.24425 3.13565,0.40468 0.41615,0.41617 2.051,0.35815 3.23663,-0.115 z"
       id="path372" /></g></svg>
