<?xml version="1.0" encoding="UTF-8" standalone="no"?>
<!-- Created with Inkscape (http://www.inkscape.org/) -->

<svg
   width="1780"
   height="3164"
   viewBox="0 0 470.95832 837.14166"
   version="1.1"
   id="svg5"
   xml:space="preserve"
   xmlns="http://www.w3.org/2000/svg"
   xmlns:svg="http://www.w3.org/2000/svg"><defs
     id="defs2" /><g
     id="layer1"><path
       style="fill:#000000;stroke-width:0.262397"
       d="m 252.84483,832.90259 c -0.0795,-0.0795 -1.90335,-0.19725 -4.05282,-0.2612 -6.21413,-0.18525 -11.76583,-0.4408 -11.94478,-0.5498 -0.0905,-0.0553 -3.5149,-0.1675 -7.6095,-0.24975 -5.22422,-0.10475 -8.61872,-0.3067 -11.38072,-0.67693 -2.43065,-0.3258 -6.69623,-0.61472 -11.15343,-0.75547 -3.96962,-0.12525 -7.5166,-0.34165 -7.88215,-0.48065 -0.36557,-0.139 -3.25777,-0.26055 -6.42715,-0.27018 -3.16935,-0.01 -6.83545,-0.139 -8.14685,-0.28765 -3.26447,-0.36987 -7.77247,-0.37575 -11.53027,-0.015 -5.67483,0.54475 -10.6417,0.66213 -17.83278,0.4214 -5.11117,-0.171 -7.67637,-0.15275 -9.20007,0.0655 -1.16203,0.1665 -3.28745,0.30888 -4.72315,0.31623 -2.4368,0.0125 -3.70255,0.0993 -10.87583,0.74465 -1.51535,0.13625 -4.64442,0.3319 -6.95352,0.43452 -2.3091,0.10275 -4.49355,0.22375 -4.85433,0.269 -0.3608,0.0453 -3.3718,0.21725 -6.69112,0.38233 -5.96468,0.2964 -9.63535,0.191 -11.2432,-0.32278 -0.454881,-0.14525 -3.424781,-0.36582 -6.599781,-0.48995 -3.175,-0.124 -6.24505,-0.35052 -6.82232,-0.50315 -1.51748,-0.40122 -8.4211,-0.7923 -14.01428,-0.79387 -2.6567,0 -4.95922,-0.103 -5.11672,-0.2275 -0.2155,-0.17 -7.91815,-0.57475 -11.7006,-0.61475 -0.2165,-0.002 -2.40093,-0.005 -4.85435,-0.002 -2.4534,0 -5.28728,-0.005 -6.29753,-0.0125 -2.7732,-0.02 -12.67705,0.55372 -14.1694,0.82007 -0.7216,0.12875 -2.0795,0.15175 -3.017575,0.051 -0.938075,-0.10075 -4.126175,-0.207 -7.0847,-0.23625 -6.365275,-0.0625 -6.82125,-0.126 -7.7314,-1.07595 -0.599525,-0.62577 -0.853425,-0.7115 -1.796925,-0.6067 -0.928225,0.103 -1.1962248,0.0175 -1.7268248,-0.55032 -0.810675,-0.8678 -0.955225,-2.368 -0.572125,-5.9374 0.16275,-1.51535 0.4063,-4.64443 0.54145,-6.95353 0.13525,-2.30907 0.3247,-4.67065 0.421225,-5.24792 0.2099998,-1.2556 0.2972748,-5.05688 0.4791748,-20.86055 0.0755,-6.56648 0.260675,-13.59215 0.41135,-15.6126 0.15075,-2.02045 0.277925,-7.03878 0.2828,-11.15185 0.005,-4.11308 0.138,-10.3122 0.2961,-13.77583 0.371725,-8.14965 0.341175,-67.5592 -0.03825,-74.17 -0.15175,-2.64627 -0.34135,-8.29472 -0.421125,-12.55212 -0.07975,-4.25738 -0.24275,-9.33475 -0.362325,-11.28305 -0.1195,-1.9483 -0.2529,-6.9076 -0.296425,-11.02065 -0.10875,-10.26923 -0.10825,-10.33505 0.1165,-17.58058 0.10975,-3.5358 0.238,-8.96742 0.28515,-12.07025 0.3473,-22.8413 0.439975,-26.26572 1.1182,-41.3275 0.1775,-3.94387 0.2315,-15.35037 0.157,-33.19317 -0.0175,-4.25738 -0.032,-9.33475 -0.03175,-11.28305 0.0019,-10.53765 -0.13575,-18.63143 -0.37015,-21.77893 -0.297625,-3.99522 -0.30415,-4.13525 -0.628225,-13.51342 -0.12975,-3.75228 -0.2245,-7.826 -0.2105,-9.0527 0.157,-13.8652 0.3669,-41.06175 0.331225,-42.90185 -0.02525,-1.29888 -0.03,-3.8966 -0.01,-5.77273 0.218,-21.33932 -0.0525,-73.65997 -0.394675,-76.35745 -0.0915,-0.7216 -0.18675,-4.91337 -0.2115,-9.31507 -0.02525,-4.5003 -0.1925,-9.28158 -0.3819748,-10.92413 -0.26835,-2.3262 -0.2769,-4.81077 -0.042,-12.20145 0.1622498,-5.10422 0.2497498,-15.94675 0.1942498,-24.09445 -0.095,-13.96497 -0.073,-14.8673 0.380375,-15.7438 0.425075,-0.82147 0.454,-1.23537 0.2485,-3.55375 -0.128,-1.44317 -0.304525,-3.66122 -0.3923,-4.929 -0.08775,-1.26777 -0.259975,-2.5691 -0.3826998,-2.89185 -0.12275,-0.32275 -0.3027,-1.8832 -0.399975,-3.46767 -0.09725,-1.5845 -0.357675,-3.81203 -0.578675,-4.9501 -0.221,-1.13808 -0.345875,-2.49598 -0.2775,-3.01758 0.0685,-0.52165 -0.03525,-4.13652 -0.23025,-8.03312 -0.628525,-12.55503 -0.93485,-20.06858 -1.06975,-26.23968 -0.0725,-3.31932 -0.232,-6.9207 -0.354125,-8.0031 -0.2205,-1.95342 -0.11225,-30.46025 0.12925,-33.98037 0.06925,-1.01023 0.19175,-3.0766 0.2721,-4.59193 0.0805,-1.51535 0.203,-3.16845 0.272275,-3.67357 0.06925,-0.5051 0.1825,-2.37865 0.251375,-4.16343 0.069,-1.7848 0.24325,-4.5006 0.387575,-6.03512 0.14425,-1.53455 0.38045,-4.85645 0.52485,-7.38203 0.1445,-2.52555 0.378075,-5.83175 0.519225,-7.3471 0.14125,-1.51535 0.32055,-4.34922 0.398675,-6.29752 0.078,-1.9483 0.19675,-4.01468 0.2635998,-4.59195 0.06675,-0.57725 0.36235,-3.6473 0.656675,-6.8223 0.54225,-5.84998 0.654725,-7.52075 0.918425,-13.64463 0.08075,-1.87615 0.209,-3.58412 0.28495,-3.79552 0.076,-0.2115 0.24925,-2.51393 0.3852,-5.11673 0.136,-2.60282 0.305275,-5.55892 0.3763,-6.56915 0.17025,-2.4229 0.60555,-14.20662 0.8044,-21.77895 0.08725,-3.3193 0.331975,-8.69187 0.544,-11.93902 0.212,-3.24718 0.496225,-8.50168 0.6315,-11.67668 0.13525,-3.175 0.3662,-7.18965 0.51315,-8.92147 0.531675,-6.26533 0.815875,-11.83078 0.6596,-12.91665 -0.15125,-1.05055 0.13175,-7.182626 0.65085,-14.110226 0.14075,-1.87965 0.4505,-3.7833 0.768275,-4.723125 0.29275,-0.865925 0.592625,-1.878775 0.66635,-2.250825 0.23425,-1.1824 1.257425,-2.02055 2.67325,-2.19005 0.70305,-0.08425 1.86865,-0.276475 2.590225,-0.4273 2.989825,-0.625 14.0223,-0.831775 19.154975,-0.35905 1.443175,0.133 3.568605,0.158 4.723125,0.05575 3.18743,-0.282225 12.04868,-0.31135 14.56303,-0.04775 3.47922,0.3646 30.85357,0.2513 36.21075,-0.14975 2.625521,-0.19675 9.760801,-0.365575 16.662171,-0.394525 6.63865,-0.02775 16.73435,-0.188 22.43493,-0.355675 5.70057,-0.16775 13.49375,-0.36305 17.31817,-0.434 3.82445,-0.071 8.31143,-0.2439998 9.97108,-0.3847498 1.65967,-0.14075 4.67067,-0.320425 6.69112,-0.3995 2.02045,-0.079 4.67723,-0.2533 5.90393,-0.38715 2.46372,-0.268825 12.2359,-0.440925 18.76137,-0.3304 2.30908,0.039 6.50088,0.0125 9.31508,-0.06075 2.8142,-0.0725 11.55202,-0.1995 19.41735,-0.282125 17.2996,-0.18175 22.82392,-0.324925 25.58367,-0.6635 1.2704,-0.15575 13.18403,-0.24375 30.17563,-0.223 15.44205,0.02 34.98405,0.03075 43.42665,0.026 8.44262,-0.005 16.47195,0.0865 17.84297,0.20275 3.12758,0.265175 14.59573,0.50475 31.8812,0.66605 7.36023,0.06875 14.74015,0.1975 16.3998,0.286175 1.65965,0.08875 7.91783,0.19725 13.90703,0.241 8.05542,0.059 11.53822,0.182 13.38222,0.47275 1.37103,0.21625 4.51675,0.4709 6.9905,0.565875 2.47373,0.095 4.8353,0.217 5.24793,0.2714248 0.41262,0.05425 3.96032,0.16975 7.88382,0.256625 3.92345,0.08675 7.98628,0.249 9.02845,0.360375 1.0422,0.11125 2.48663,0.109 3.20988,-0.005 0.72325,-0.11425 2.86047,-0.22875 4.74935,-0.254425 3.03765,-0.04125 3.56042,0.0175 4.52545,0.51005 1.23762,0.631375 1.93037,1.516775 2.43587,3.1132 0.32835,1.03705 0.3056,1.18975 -0.38902,2.6095 l -0.73778,1.507975 -0.184,10.152325 c -0.10125,5.583801 -0.2522,10.262651 -0.33555,10.397501 -0.0833,0.13475 -0.2165,1.1815 -0.29615,2.32597 -0.0795,1.14445 -0.205,2.73028 -0.27855,3.52403 -0.0738,0.79375 -0.233,2.50587 -0.35412,3.80475 -0.12125,1.29885 -0.228,2.7158 -0.23725,3.14875 -0.5601,25.86625 -0.5365,46.4904 0.0705,61.66322 0.0635,1.5875 0.1795,5.30698 0.25805,8.2655 0.21175,7.98555 0.3829,13.58158 0.5458,17.84298 0.08,2.09262 0.19375,8.29175 0.2526,13.77582 0.059,5.4841 0.171,12.62785 0.249,15.875 0.078,3.24718 0.197,8.91493 0.26425,12.59505 0.0673,3.6801 0.197,10.5877 0.2883,15.3502 0.0912,4.7625 0.22275,17.51498 0.29222,28.33885 0.0695,10.82385 0.1575,21.92325 0.1955,24.66528 0.27628,19.91537 0.43045,26.90295 0.65433,29.65085 0.141,1.7318 0.32195,5.27415 0.4019,7.8719 0.08,2.59772 0.219,6.90757 0.3089,9.57747 0.09,2.66988 0.19175,6.1532 0.226,7.7407 0.133,6.13958 1.07247,28.20458 1.30167,30.5692 0.7106,7.33088 1.17075,47.54993 1.22938,107.45145 0.0175,16.74093 0.13075,33.0948 0.25405,36.34195 0.1235,3.24715 0.27652,13.04768 0.34037,21.77893 0.064,8.73125 0.18525,17.76425 0.27003,20.07335 0.3779,10.30785 0.69765,21.9548 0.6555,23.8781 -0.0252,1.15455 -0.0225,5.11017 0.008,8.7903 0.0295,3.6801 -0.0125,7.8719 -0.0937,9.31507 -0.3845,6.83555 -0.51015,10.06058 -0.5573,14.30063 -0.028,2.52555 -0.13275,8.78372 -0.2325,13.90702 -0.0997,5.12328 -0.23175,14.98285 -0.29333,21.91013 -0.0615,6.92727 -0.179,15.96027 -0.26117,20.07332 -0.229,11.46723 -0.246,19.04835 -0.0553,24.6653 0.0955,2.8142 0.2395,8.00965 0.31957,11.54545 0.0802,3.5358 0.2671,7.25528 0.41533,8.2655 0.3483,2.37378 0.6002,5.34655 1.38967,16.3998 0.76735,10.7435 0.957,16.54463 0.65198,19.94215 -0.123,1.37103 -0.2728,6.68455 -0.3327,11.80785 -0.06,5.1233 -0.2455,11.4405 -0.41253,14.03823 -0.33517,5.21327 -0.37267,7.16785 -0.2896,15.0878 0.031,2.95852 -0.015,8.39015 -0.10225,12.07025 -0.3256,13.7346 -0.4352,17.7597 -0.5323,19.54855 -0.0548,1.01022 -0.15075,4.32495 -0.213,7.36607 -0.093,4.53565 -0.19525,5.70155 -0.56825,6.4877 -0.42222,0.88975 -0.4328,1.53643 -0.14775,9.0337 0.16875,4.44143 0.34143,9.78748 0.38358,11.8801 0.11075,5.49013 -0.1605,5.84178 -4.72563,6.12833 -1.455,0.0912 -3.27737,0.28587 -4.0497,0.43235 -0.77232,0.1465 -3.0652,0.32225 -5.09525,0.39062 -2.03005,0.0683 -4.69467,0.2005 -5.92137,0.29335 -1.2267,0.093 -8.07525,0.2055 -15.219,0.25008 -16.177,0.10075 -29.26618,0.40215 -33.71798,0.7761 -0.7216,0.0605 -4.26395,0.1695 -7.8719,0.242 -6.46532,0.13 -10.72187,0.3317 -11.33267,0.5373 -0.17175,0.0577 -1.76568,0.179 -3.54238,0.26957 -1.77667,0.0905 -3.40745,0.226 -3.62392,0.30105 -0.2165,0.0752 -3.34555,0.17925 -6.95353,0.23125 -3.60795,0.052 -7.68165,0.16875 -9.05267,0.25903 -1.37103,0.0905 -6.48495,0.2115 -11.36428,0.26925 -6.22272,0.0735 -9.55235,0.2215 -11.15185,0.4953 -1.7063,0.29212 -2.67672,0.3265 -3.85475,0.1365 -4.4429,-0.71618 -10.00337,-0.92498 -21.25412,-0.79815 -4.72848,0.0532 -6.51018,0.1985 -9.83988,0.8013 -0.79375,0.14375 -3.68667,0.3317 -6.42872,0.4177 -7.05708,0.2215 -37.25965,0.41925 -37.43368,0.24525 z m 64.06695,-9.85545 c 6.73445,-0.0175 7.54128,-0.097 13.38223,-1.30585 1.92747,-0.39895 4.5463,-0.50683 16.0062,-0.65928 20.10657,-0.26752 22.69117,-0.31827 24.1405,-0.47397 7.06402,-0.75895 14.3089,-0.98178 33.58677,-1.03303 11.40648,-0.0303 22.0209,0.0607 24.17355,0.20725 2.1108,0.14375 4.25095,0.19375 4.75593,0.11125 0.50492,-0.0827 1.7889,-0.052 2.85327,0.0678 1.56175,0.176 13.8827,0.3159 20.39538,0.23175 l 1.40437,-0.0175 -0.1795,-6.7567 c -0.33757,-12.70272 -0.2991,-12.15085 -0.94662,-13.57902 -0.55063,-1.21443 -0.58685,-1.59493 -0.4872,-5.11675 0.2015,-7.1228 0.15775,-8.17973 -0.38628,-9.31508 -0.46495,-0.97047 -0.50155,-1.69237 -0.48527,-9.57747 0.0355,-17.22163 0.3812,-33.66405 0.84127,-40.0155 0.14625,-2.02045 0.33493,-7.09783 0.41905,-11.28305 0.0842,-4.18525 0.237,-9.26263 0.3394,-11.28308 0.22675,-4.46597 0.194,-7.0488 -0.17825,-14.03822 -0.1575,-2.95853 -0.35545,-6.8551 -0.43985,-8.65908 -0.0842,-1.80397 -0.25862,-4.10652 -0.3872,-5.11675 -0.1285,-1.01022 -0.31155,-3.0059 -0.40665,-4.43487 -0.095,-1.42895 -0.22175,-2.90493 -0.2814,-3.27995 -0.0598,-0.37503 -0.16725,-3.4567 -0.239,-6.84818 -0.0718,-3.3915 -0.24075,-10.29907 -0.37542,-15.35022 -0.13475,-5.05113 -0.18575,-11.42738 -0.1135,-14.16943 0.13075,-4.96787 0.16575,-7.05782 0.4695,-28.20762 0.088,-6.13353 0.22575,-14.8123 0.30565,-19.28618 0.08,-4.47385 0.1945,-11.08625 0.25435,-14.6942 0.06,-3.60795 0.1695,-7.38647 0.24375,-8.3967 0.5742,-7.82355 0.67347,-19.32297 0.30807,-35.68595 -0.12575,-5.6284 -0.26332,-20.2111 -0.3058,-32.406 -0.0425,-12.19487 -0.151,-23.70752 -0.241,-25.58367 -0.13625,-2.83863 -0.179,-40.35555 -0.071,-62.31923 0.015,-3.24715 -0.015,-8.97395 -0.0688,-12.72622 -0.0537,-3.75228 -0.0743,-15.2809 -0.0457,-25.6192 0.049,-17.71865 -0.12375,-27.71348 -0.7385,-42.73515 -0.14475,-3.5358 -0.32832,-9.2626 -0.40805,-12.72623 -0.0797,-3.46365 -0.19475,-8.0687 -0.25582,-10.23347 -0.061,-2.16478 -0.238,-8.71813 -0.39328,-14.56303 -0.15525,-5.84487 -0.40502,-11.92592 -0.5549,-13.51342 -0.14975,-1.5875 -0.3225,-11.48835 -0.38367,-22.00193 -0.0613,-10.51355 -0.1705,-19.21132 -0.24275,-19.32835 -0.12375,-0.20025 -0.18175,-16.29035 -0.0855,-23.7441 0.025,-1.87615 -0.037,-7.78007 -0.13625,-13.11985 -0.31303,-16.8658 -0.61723,-34.95412 -0.82738,-49.19937 -0.0735,-4.97898 -0.20025,-9.75438 -0.28167,-10.61198 -0.0815,-0.8576 -0.1925,-4.69515 -0.24675,-8.5279 -0.0945,-6.67257 -0.38,-17.2893 -0.55435,-20.61322 -0.42013,-8.00998 -0.57535,-42.76058 -0.248,-55.4969 0.21975,-8.543 0.66635,-15.5788 1.33282,-20.99173 0.59668,-4.84625 0.6525,-5.47057 0.79768,-8.9215 0.0758,-1.803971 0.24775,-3.988421 0.38192,-4.854321 0.13425,-0.865925 0.31575,-2.4779 0.40353,-3.582225 l 0.1595,-2.007825 -4.02053,0.01 c -6.1372,0.015 -19.51532,-0.500875 -24.91142,-0.959625 -9.91203,-0.84265 -11.2211,-0.9327 -15.45105,-1.06275 -2.38125,-0.07325 -8.40328,-0.19325 -13.38225,-0.266975 -24.83248,-0.367125 -37.87568,-0.6268 -41.19628,-0.820225 -1.51535,-0.08825 -5.23482,-0.20375 -8.2655,-0.2565 -3.03067,-0.05275 -6.76527,-0.19525 -8.29905,-0.31655 -1.5338,-0.12125 -7.31962,-0.172 -12.85745,-0.1125 -5.5378,0.0595 -10.30485,0.09875 -10.5935,0.0875 -0.98725,-0.03875 -46.95727,-0.31805 -53.39772,-0.32435 -3.5358,-0.0025 -8.08183,0.11575 -10.10228,0.2647 -2.02045,0.149 -11.34865,0.3407 -20.72932,0.4259 -43.69963,0.39685 -47.72345,0.466025 -53.79133,0.924975 -8.51407,0.64395 -12.17737,0.8016 -21.25415,0.9146 -5.33977,0.0665 -10.33405,0.224 -11.0984,0.35005 -0.76437,0.126 -3.8344,0.25425 -6.82232,0.2849 -2.98793,0.0305 -7.61703,0.254 -10.28693,0.4964 -3.13392,0.28455 -5.87727,0.38465 -7.7407,0.282425 -3.30185,-0.18125 -18.1667,-0.0335 -19.548551,0.194 -1.6923,0.278725 -35.31762,0.12425 -38.25232,-0.17575 -1.54703,-0.15825 -5.52855,-0.268425 -8.84788,-0.245 -3.31932,0.0225 -6.920725,0.0475 -8.0031,0.05375 -1.0824,0.005 -3.14875,-0.1215 -4.59195,-0.28345 -1.443175,-0.162 -4.60185,-0.363175 -7.019275,-0.446875 l -4.395325,-0.15225 -0.29795,0.738225 c -0.36615,0.907175 -1.350425,14.738276 -1.1595,16.293076 0.12175,0.99192 -0.20175,8.42765 -0.49685,11.41642 -0.24975,2.53035 -1.2025,18.77465 -1.2344,21.04733 -0.005,0.43295 -0.11275,1.8499 -0.23675,3.14875 -0.12425,1.29887 -0.3032,5.2545 -0.397825,8.7903 -0.0945,3.5358 -0.2225,6.66487 -0.28395,6.9535 -0.0615,0.28865 -0.17075,3.831 -0.243,7.8719 -0.072,4.04092 -0.24675,8.0556 -0.388125,8.9215 -0.30235,1.85152 -0.698025,8.1739 -1.02165,16.32417 -0.12725,3.20558 -0.295575,5.9321 -0.37395,6.05895 -0.17175,0.27778 -1.17245,12.75655 -1.319375,16.45158 -0.0575,1.4432 -0.290625,4.86747 -0.518325,7.60952 -0.40935,4.93003 -0.6126,7.76785 -1.343675,18.76135 -0.20625,3.10285 -0.49265,6.99943 -0.63625,8.6591 -0.1435,1.65965 -0.32875,4.02453 -0.411475,5.25525 l -0.1505,2.23773 2.17375,0.46675 c 1.19555,0.25672 4.122025,0.92352 6.503275,1.48177 2.38125,0.55828 5.746475,1.32268 7.4783,1.69865 6.065475,1.31688 6.854075,1.4955 11.020675,2.49643 2.30908,0.55467 5.26105,1.20125 6.5599,1.4368 2.83268,0.51372 6.05105,1.22257 12.59505,2.77407 0.57728,0.137 2.99788,0.66805 5.37913,1.18038 2.38125,0.51235 5.27417,1.16045 6.42872,1.4402 1.15455,0.27977 4.51978,0.93015 7.4783,1.44527 5.11348,0.89035 7.2277,1.34868 11.41428,2.47443 8.697521,2.33875 16.044951,4.42385 19.014451,5.39605 1.9534,0.63955 4.61435,1.35232 5.91322,1.58395 1.29888,0.2315 3.8281,0.83755 5.62053,1.3465 2.37442,0.6742 3.53195,0.8817 4.26467,0.76452 1.2758,-0.204 2.6414,0.34633 3.27983,1.32178 0.45812,0.69997 0.47632,1.98407 0.40647,28.68875 -0.071,27.09057 -0.30935,39.40025 -0.88472,45.66775 -0.16675,1.8151 -0.3148,14.51927 -0.3718,31.8812 -0.0522,15.875 -0.228,40.5534 -0.39095,54.8409 -0.16275,14.2875 -0.40575,35.9549 -0.5397,48.1498 -0.134,12.19487 -0.34655,25.47872 -0.4724,29.51962 -0.12575,4.0409 -0.23875,11.47985 -0.25085,16.531 -0.0125,5.05113 -0.1435,14.7926 -0.29175,21.64773 -0.1485,6.8551 -0.3891,23.56322 -0.535,37.12912 -0.14575,13.56593 -0.43513,28.1486 -0.64275,32.406 -0.28023,5.74545 -0.38013,15.58635 -0.38755,38.17873 -0.008,26.20355 0.063,32.1902 0.51557,43.03305 0.47858,11.46847 0.51128,15.27067 0.36543,42.50827 -0.15525,28.99158 -7.8e-4,41.37303 0.67097,53.7913 0.14825,2.74205 0.39463,7.28808 0.5473,10.10228 0.15275,2.81422 0.50985,7.5964 0.79365,10.62707 0.2838,3.03068 0.68488,8.04903 0.89128,11.15185 0.54867,8.24828 0.92192,12.91805 1.08012,13.51345 0.0768,0.28863 0.25038,3.2406 0.38598,6.5599 0.1355,3.31933 0.31982,7.47543 0.40945,9.23578 0.21875,4.2953 0.0355,5.37362 -1.10768,6.51667 -0.97865,0.97865 -2.097,1.18648 -3.33912,0.6205 -0.5329,-0.24275 -1.09303,-0.113 -3.4891,0.80795 -1.56988,0.60345 -3.32663,1.25583 -3.9039,1.44978 -1.27423,0.42807 -12.0687,3.43245 -12.98865,3.6151 -2.30918,0.45842 -8.08763,1.8634 -9.00475,2.18942 -0.603631,0.2145 -3.400051,0.979 -6.214251,1.6987 -7.68003,1.96408 -17.19993,4.776 -17.66968,5.21913 -0.32075,0.30257 2.84203,0.53195 6.9114,0.50122 1.9483,-0.015 4.13275,0.1075 4.85435,0.2717 0.72158,0.16425 3.55548,0.3588 6.29753,0.43258 2.74202,0.0738 5.930151,0.308 7.084701,0.52047 1.3028,0.23975 4.38877,0.4251 8.1343,0.4886 3.31932,0.0563 7.98342,0.2455 10.36467,0.42028 8.26183,0.60672 18.20238,0.22625 25.32128,-0.96915 1.81562,-0.30488 5.2733,-0.41708 14.95662,-0.48528 6.92725,-0.0488 13.49433,-0.15575 14.59348,-0.23775 1.89432,-0.14125 3.2425,-0.0733 13.19422,0.6644 3.14205,0.23275 4.57288,0.2355 5.79588,0.01 1.00725,-0.1855 5.07627,-0.3029 10.7154,-0.30895 8.5737,-0.01 9.28972,0.0272 12.57187,0.6378 1.9142,0.35613 4.18885,0.714 5.05475,0.7953 1.1702,0.10975 22.66235,0.75025 25.3213,0.7545 4.9242,0.008 34.27188,-0.41182 34.4015,-0.49192 0.10025,-0.062 3.66568,-0.117 7.92323,-0.1225 5.9201,-0.007 8.16377,0.0825 9.5382,0.38217 2.56105,0.55863 2.69212,0.56515 7.04512,0.3497 2.16478,-0.107 6.94695,-0.203 10.62708,-0.21275 z m -14.03822,-26.7429 c -1.29888,-0.1115 -2.65678,-0.31998 -3.01758,-0.46355 -0.3608,-0.1435 -1.45397,-0.39855 -2.42935,-0.56658 -0.97535,-0.168 -2.97545,-0.77402 -4.44465,-1.3466 -4.97102,-1.93725 -7.80812,-4.06012 -9.10745,-6.81472 -0.58557,-1.2414 -0.68067,-1.79585 -0.68032,-3.96538 v -2.5222 l 1.4198,-2.85692 c 1.30165,-2.61923 1.65097,-3.08195 4.19795,-5.5607 5.65702,-5.50563 8.25912,-7.11238 14.71717,-9.0876 1.08238,-0.33105 2.49933,-0.83555 3.14875,-1.12108 0.64943,-0.28555 2.47965,-0.8982 4.06715,-1.36142 3.57753,-1.04393 5.7042,-1.91555 10.88945,-4.463 2.23695,-1.099 4.65755,-2.25983 5.37915,-2.5796 2.68238,-1.1888 7.70738,-6.60095 9.47938,-10.20978 l 0.7541,-1.53575 -0.01,-7.47832 c -0.01,-7.40635 -0.0175,-7.5149 -0.8413,-11.28305 -0.68863,-3.14993 -1.06448,-4.25348 -2.18373,-6.41205 -0.74355,-1.43403 -1.79815,-3.2052 -2.34352,-3.93595 -0.54538,-0.73075 -1.25748,-1.86 -1.58243,-2.50943 -0.32495,-0.64945 -0.98917,-1.80535 -1.47605,-2.56872 -1.80247,-2.8259 -4.52575,-8.15675 -5.3302,-10.4339 -1.35752,-3.84255 -1.81585,-5.75655 -2.66722,-11.13788 -0.76498,-4.83545 -0.80088,-5.39207 -0.6529,-10.12515 0.0975,-3.11602 0.35592,-6.17462 0.68422,-8.0948 0.73583,-4.30427 0.657,-7.49492 -0.18525,-7.49492 -0.21,0 -1.0506,0.7291 -1.86807,1.6202 -5.5161,6.013 -15.12425,15.6782 -17.6577,17.76257 -0.81248,0.66845 -2.67375,1.97648 -4.13623,2.90673 -1.46247,0.93022 -2.86407,1.99292 -3.11475,2.36155 -0.39225,0.5769 -0.44947,1.27307 -0.41112,4.99977 0.0442,4.30795 0.0492,4.34108 0.9791,6.64638 2.22482,5.51562 2.96127,12.28835 2.48725,22.87325 -0.33803,7.54712 -0.1775,13.21157 0.41437,14.62825 0.2185,0.5229 0.68508,1.3749 1.0369,1.89332 0.35183,0.51845 0.88375,1.44113 1.18208,2.0504 0.2983,0.60928 1.32585,2.16263 2.2834,3.45193 2.05395,2.76547 4.09312,6.16532 4.5578,7.59907 0.4332,1.33653 0.20275,3.46005 -0.53348,4.9143 -0.9471,1.871 -5.57907,6.1791 -9.56565,8.8968 -1.68832,1.15098 -5.1475,4.21675 -9.44627,8.37198 -2.65043,2.56192 -3.82078,3.49895 -5.24793,4.20167 -1.01022,0.49743 -2.48622,1.31223 -3.27997,1.81065 -2.2554,1.41623 -9.54635,5.16868 -12.98863,6.68483 -4.14707,1.8266 -5.0902,2.0438 -12.33265,2.84025 -1.29885,0.14275 -3.25952,0.29737 -4.357,0.34337 -1.0975,0.046 -3.28195,0.41538 -4.85435,0.8208 -3.18742,0.82185 -2.948,0.81453 -13.35477,0.40715 -6.91413,-0.2707 -10.33458,-0.67487 -12.20068,-1.44172 -0.50552,-0.20775 -1.95007,-0.6241 -3.21007,-0.92528 -4.51983,-1.08032 -5.83095,-2.2002 -6.23573,-5.32622 -0.118,-0.91163 -0.41637,-2.12905 -0.66295,-2.70538 -0.34422,-0.8046 -0.45652,-1.90122 -0.4837,-4.72315 -0.0348,-3.60047 -0.0175,-3.71532 0.81485,-5.64387 1.1459,-2.65318 2.93695,-4.7846 5.81335,-6.91815 3.78498,-2.80748 6.10988,-3.7486 11.43675,-4.62965 2.45618,-0.40625 5.2333,-0.81145 6.17138,-0.90045 1.92942,-0.183 2.701,-0.39215 8.39667,-2.27598 2.61805,-0.8659 4.75643,-1.76242 6.00168,-2.51627 1.064,-0.64408 2.4219,-1.32278 3.01757,-1.50818 0.59568,-0.18525 1.76085,-0.73625 2.58928,-1.22415 0.82842,-0.48787 2.4937,-1.45747 3.70062,-2.1546 2.8004,-1.61757 5.45318,-4.00315 6.24938,-5.61997 0.55515,-1.12728 0.61242,-1.58638 0.59757,-4.78915 -0.0125,-2.79203 -0.13225,-3.9314 -0.56322,-5.37913 -1.0087,-3.38827 -2.44705,-7.07257 -3.32935,-8.5279 -0.48123,-0.79375 -1.59493,-2.82272 -2.4749,-4.50882 -0.88,-1.6861 -1.96818,-3.57535 -2.41818,-4.19833 -0.7437,-1.02965 -2.41347,-3.594 -6.59195,-10.12365 -0.81785,-1.27805 -2.30887,-3.7926 -3.31335,-5.58787 -1.00447,-1.7953 -2.37247,-4.20648 -3.04,-5.35815 -1.5575,-2.68723 -2.6692,-5.36945 -3.34985,-8.08213 -0.474,-1.88922 -0.52522,-2.7095 -0.41322,-6.6173 0.11225,-3.9169 0.20875,-4.68465 0.79115,-6.2975 0.98132,-2.71755 2.68895,-6.57222 3.28037,-7.40482 0.54243,-0.76313 3.72753,-7.717 3.72753,-8.13733 0,-0.27105 1.73427,-4.29255 3.65147,-8.46715 0.69593,-1.51535 1.4607,-3.34557 1.6995,-4.06715 0.23875,-0.7216 0.8327,-2.49277 1.31983,-3.93595 0.4871,-1.4432 1.09247,-3.39147 1.34525,-4.32955 0.2528,-0.93807 0.72875,-2.11885 1.0577,-2.62397 0.32892,-0.5051 1.20052,-2.80765 1.9369,-5.11673 0.73635,-2.3091 1.7039,-5.08395 2.15012,-6.16632 2.57753,-6.2522 3.957,-12.41148 3.93643,-17.57568 -0.015,-3.7697 -0.39405,-5.84395 -1.75088,-9.58197 -1.01875,-2.80673 -1.15615,-3.06563 -3.75925,-7.08513 -0.93462,-1.44317 -2.1966,-3.39147 -2.80437,-4.32955 -4.07805,-6.29427 -5.70403,-9.57802 -6.69133,-13.51342 -0.77725,-3.09803 -0.792,-3.28403 -0.91545,-11.54545 -0.11475,-7.67615 -0.23225,-9.89915 -0.55057,-10.41423 -0.203,-0.32845 -2.1131,0.50613 -3.99318,1.74473 -1.0082,0.6642 -3.11302,2.455 -4.67737,3.97952 -4.0322,3.92963 -5.9834,5.18368 -17.32478,11.135 -2.69955,1.41653 -8.5371,5.2838 -10.84077,7.18175 -7.7851,6.41403 -18.50535,12.84358 -25.0027,14.9955 -2.5203,0.83475 -4.0206,1.6385 -7.83858,4.19935 -3.53897,2.37375 -4.97337,3.06518 -6.63517,3.19835 -1.0719,0.086 -1.50235,-0.0125 -2.24463,-0.5127 -1.39062,-0.93727 -1.87872,-2.11302 -1.66872,-4.01967 0.29477,-2.67623 1.44755,-4.78348 4.2785,-7.82095 1.69687,-1.82065 2.37577,-2.967 2.37577,-4.01158 v -0.70667 l -2.68957,0.149 c -2.972,0.16475 -6.57013,0.84165 -7.41503,1.39525 -0.7738,0.507 -4.5077,1.4087 -5.85325,1.41347 -1.38482,0.005 -2.02635,-0.306 -3.13152,-1.51777 -0.65398,-0.71708 -0.85278,-1.1717 -0.85278,-1.95003 0,-1.24152 0.36123,-1.96527 2.65458,-5.31845 1.9253,-2.81502 3.66905,-4.7597 6.07222,-6.77182 2.32303,-1.94503 2.2059,-2.03685 -2.49487,-1.95603 -3.70825,0.0638 -4.08168,0.026 -5.0944,-0.51557 -1.99108,-1.06458 -2.15558,-3.19228 -0.41485,-5.3664 0.5406,-0.6752 1.51425,-1.90508 2.16367,-2.73308 3.0474,-3.88535 5.24735,-5.67397 7.56318,-6.1491 4.75132,-0.97475 5.08822,-1.00035 9.62382,-0.73162 2.4534,0.1455 6.65963,0.20375 9.34715,0.12975 7.0089,-0.193 7.89073,-0.64975 10.47255,-5.42585 5.1426,-9.51315 10.48438,-15.08995 15.99745,-16.70128 6.238,-1.8232 9.27868,-3.02702 11.77208,-4.66062 2.59135,-1.69775 3.46012,-2.57873 4.43947,-4.50173 0.2989,-0.58692 0.7248,-1.21762 0.94643,-1.40157 0.54195,-0.44978 1.76115,-3.68813 2.7751,-7.37115 2.37557,-8.62885 5.11587,-16.17923 8.1313,-22.40433 0.70722,-1.46 2.0075,-4.23682 2.88947,-6.17067 0.882,-1.93385 1.82913,-3.83278 2.10475,-4.21985 0.27563,-0.38708 1.0772,-1.87488 1.78128,-3.30623 2.1281,-4.32622 3.25795,-6.50422 3.73215,-7.1944 1.04327,-1.51845 3.43082,-6.52372 3.54782,-7.4377 0.0697,-0.54462 0.5894,-1.8983 1.15478,-3.0082 2.19505,-4.30885 3.17782,-10.28742 2.38142,-14.4869 -0.3837,-2.02325 -1.77875,-4.60812 -3.1478,-5.83257 -1.88232,-1.6835 -5.49635,-3.30123 -8.41547,-3.767 -1.3607,-0.217 -4.06805,-0.69615 -6.01635,-1.06455 -3.0131,-0.5698 -4.68258,-0.70128 -11.17403,-0.87993 -11.43607,-0.31477 -13.47562,-0.62625 -18.76252,-2.8652 -4.02578,-1.7049 -8.99103,-4.652 -10.51003,-6.23822 -3.53992,-3.6965 -5.32972,-6.4859 -5.60417,-8.73403 -0.0795,-0.65042 -0.33878,-2.02515 -0.57638,-3.05495 l -0.432,-1.87235 1.22303,-3.53302 c 0.67267,-1.94315 1.46975,-4.70198 1.77127,-6.13073 0.30153,-1.42875 0.6485,-3.07005 0.77105,-3.64732 0.6421,-3.02438 2.2554,-6.45355 5.24655,-11.15185 1.4463,-2.2718 3.8563,-6.6534 5.98948,-10.88948 0.218,-0.43295 1.1225,-2.08605 2.00997,-3.67355 2.22268,-3.97592 3.351,-6.35217 4.54768,-9.57747 0.56222,-1.51535 1.6389,-4.17213 2.39257,-5.90393 0.75368,-1.73182 1.67333,-3.85725 2.04368,-4.72315 1.80492,-4.22007 4.68125,-9.56807 6.03877,-11.22792 2.22415,-2.71948 6.4513,-6.29555 10.69555,-9.04813 3.96628,-2.57232 4.56705,-2.94605 4.73583,-2.94605 0.0853,0 0.67715,-0.35915 1.31515,-0.7981 1.92905,-1.32725 5.34335,-2.82615 8.11842,-3.56412 3.53155,-0.9391 11.06118,-1.19815 14.56303,-0.501 1.2267,0.24425 3.58827,0.66355 5.24795,0.93185 3.84762,0.62202 7.3711,1.43427 8.31537,1.91692 0.40553,0.20725 1.15058,0.45655 1.65568,0.55395 3.33872,0.64373 8.29382,2.1035 11.80787,3.4786 2.01173,0.7872 6.64315,3.06828 7.59715,3.74175 0.36758,0.2595 1.49488,0.89545 2.5051,1.41323 2.40645,1.2334 5.54743,3.27322 8.5763,5.5697 2.3046,1.7473 3.17968,2.7483 4.83808,5.53417 0.27097,0.45518 0.91927,1.52613 1.4407,2.37988 0.5214,0.85377 1.10032,2.01382 1.2865,2.5779 0.18625,0.56407 0.87177,1.8547 1.52355,2.86805 2.96427,4.60862 4.5074,9.10102 4.5074,13.12212 0,1.52413 0.10775,2.25888 0.36197,2.46993 0.199,0.16525 0.43535,0.66722 0.525,1.11557 0.29833,1.49163 3.0648,3.8121 6.7482,5.6603 1.78985,0.8981 3.96165,1.82985 4.82618,2.07055 0.86457,0.24075 2.51767,0.84443 3.67355,1.34158 3.79142,1.6307 6.26927,2.44675 8.268,2.72297 1.08237,0.1495 2.8463,0.49983 3.91975,0.77835 1.0735,0.27848 2.2543,0.50723 2.62397,0.5083 1.8704,0.005 12.42178,3.18768 17.20318,5.18828 3.24077,1.35595 8.57622,4.35105 10.36467,5.81825 0.64943,0.53277 2.18445,1.64577 3.41115,2.4733 10.63998,7.1777 19.7562,13.93687 21.19708,15.71642 0.37682,0.46543 1.34655,1.55468 2.15495,2.4206 0.8084,0.8659 2.69232,3.16843 4.18655,5.11673 1.49417,1.9483 3.05565,3.90495 3.46995,4.3481 1.23425,1.3203 3.289,4.0328 4.85577,6.41017 2.22525,3.37655 4.483,6.48685 6.19028,8.52788 1.07627,1.2867 2.15395,3.09412 3.59842,6.03512 3.2177,6.5515 4.0963,8.54705 4.44778,10.10228 0.53772,2.37932 3.54942,9.30955 4.32567,9.9538 0.2095,0.17375 0.46218,0.69152 0.5617,1.1506 0.0995,0.45907 0.65045,1.771 1.22428,2.9154 0.57385,1.1444 1.21272,2.7311 1.41977,3.52595 0.207,0.79485 0.616,1.98392 0.90878,2.64237 0.29277,0.65845 0.75712,2.2843 1.03182,3.61298 0.2747,1.32865 0.68685,2.86365 0.9159,3.41115 0.63738,1.5236 1.61838,5.92932 2.37028,10.64512 0.59165,3.7107 0.71417,5.6049 0.95442,14.75318 0.31355,11.93852 0.33353,15.0861 0.139,21.91012 -0.14525,5.09205 -0.33865,6.21553 -2.46302,14.30063 -0.52403,1.99425 -0.73885,3.63147 -0.8952,6.8223 -0.2225,4.54067 -0.79588,8.36462 -2.0263,13.51342 -0.43113,1.80398 -0.86408,3.81133 -0.96215,4.46075 -0.098,0.64943 -0.3942,2.36158 -0.65808,3.80475 -0.2639,1.44318 -0.56182,3.5686 -0.66205,4.72315 -0.166,1.91135 -1.21992,6.88358 -2.08577,9.83988 -0.9789,3.3422 -1.71585,6.0913 -2.07503,7.7407 -0.49402,2.2686 -0.8897,8.07485 -1.09075,16.0062 -0.0842,3.31932 -0.26615,6.7436 -0.40445,7.6095 -0.13825,0.8659 -0.36685,4.23115 -0.5079,7.4783 -0.141,3.24717 -0.37325,8.02935 -0.516,10.62707 -0.14275,2.59773 -0.26062,9.033 -0.26197,14.30063 -0.002,8.05235 0.0802,10.20422 0.51685,13.51342 0.2856,2.16478 0.58457,6.00233 0.66435,8.5279 0.15575,4.92708 0.44942,7.38253 1.08297,9.05268 0.219,0.57727 0.66743,2.28942 0.99658,3.80475 0.50425,2.3214 1.56157,5.47835 3.42745,10.23347 0.19825,0.50513 0.36555,1.37365 0.37187,1.93013 0.007,0.55642 0.19825,1.73255 0.42663,2.61362 0.56647,2.1861 0.27722,4.00345 -1.52903,9.6072 -0.82237,2.55143 -1.24082,3.1405 -3.12535,4.39998 -1.15117,0.76932 -5.7012,2.17945 -7.0209,2.17585 -1.25165,-0.002 -3.37085,-1.03403 -4.37997,-2.13008 -1.82205,-1.97892 -4.9072,-7.55902 -5.2275,-9.45485 -0.0995,-0.5883 -0.51853,-1.79365 -0.93143,-2.67857 -0.41292,-0.8849 -1.06537,-2.9078 -1.44987,-4.4953 -0.38453,-1.5875 -0.91498,-3.47675 -1.17878,-4.19835 -1.56245,-4.27378 -2.39537,-6.80908 -2.86852,-8.73158 -0.29398,-1.19445 -1.35898,-4.11832 -2.36665,-6.49757 -3.92698,-9.27193 -5.32113,-11.57263 -9.0697,-14.96733 -3.2223,-2.9181 -4.0833,-3.5215 -5.02478,-3.5215 -0.91537,0 -1.62862,0.77485 -3.42805,3.72405 -2.16222,3.5439 -2.38747,4.17835 -4.1011,11.55128 -0.42345,1.82197 -1.07022,3.64135 -1.83772,5.16952 -0.65135,1.29695 -1.43518,2.98375 -1.7418,3.74848 -3.8064,9.49252 -4.42483,12.1245 -3.93343,16.74057 0.35295,3.31575 0.75793,6.22638 1.11348,8.0031 0.43857,2.1914 0.86862,8.20708 0.8289,11.5946 -0.0562,4.79648 -0.63173,7.73775 -2.55743,13.07068 -0.6528,1.80787 -0.66327,1.9587 -0.66425,9.57747 0,8.14038 0.2842,12.4166 0.874,13.10233 0.1945,0.226 0.49623,0.82437 0.67055,1.3295 0.43655,1.26485 1.33175,6.61452 1.33175,7.95842 0,2.05925 -2.4052,4.7307 -6.0606,6.73155 -1.70215,0.93168 -3.56225,2.03215 -5.09127,3.01205 -0.72158,0.46248 -1.66623,1.05655 -2.09918,1.32025 -1.82015,1.1085 -5.89825,4.92273 -10.27742,9.61243 -2.57355,2.75602 -4.71903,5.11717 -4.76765,5.247 -0.2881,0.76835 -6.33895,4.22005 -9.35783,5.33812 -1.45825,0.5401 -7.28037,2.05385 -8.65907,2.25133 -0.86593,0.124 -2.50838,0.4672 -3.64995,0.76252 -1.14153,0.29535 -2.55925,0.53698 -3.15048,0.53698 -0.59122,0 -1.48742,0.11925 -1.9916,0.2648 -1.31872,0.3809 -5.93002,1.0472 -7.24747,1.0472 -0.61693,0 -1.68835,0.118 -2.38095,0.26207 -1.12003,0.23325 -5.14525,0.62455 -9.2624,0.90075 -0.79375,0.0532 -2.5059,0.005 -3.80475,-0.10575 z m 92.38055,-569.75718 c -0.70588,-0.51615 -0.19625,-1.26057 1.76052,-2.5714 0.89855,-0.60192 2.13555,-1.4979 2.7489,-1.99105 l 1.11518,-0.89665 v -2.35272 c 0,-2.01705 -0.098,-2.54593 -0.6862,-3.7069 -1.30888,-2.58293 -0.74313,-4.36088 1.95077,-6.13053 0.89875,-0.59037 1.8047,-1.29885 2.0132,-1.57437 0.52085,-0.68825 0.5165,-3.09168 -0.007,-3.52563 -0.51502,-0.4274 -6.2002,-0.1965 -9.04415,0.36718 -13.45395,2.66702 -15.62167,2.80985 -24.14047,1.59057 -3.1406,-0.4495 -5.3953,-1.02742 -5.6564,-1.44987 -0.0838,-0.1355 -0.54605,-0.41088 -1.02738,-0.61198 -0.488,-0.204 -0.96022,-0.6336 -1.06737,-0.9713 -0.10575,-0.3331 -0.72485,-1.4066 -1.3758,-2.38557 -1.484,-2.2317 -1.72458,-3.76585 -0.86805,-5.5352 1.17787,-2.43318 3.29262,-3.94025 7.0881,-5.0513 2.59725,-0.7603 7.3475,-1.65228 10.3852,-1.95005 1.15455,-0.11325 3.22092,-0.33428 4.59192,-0.49133 1.37103,-0.157 4.7953,-0.47385 7.60953,-0.704 2.8142,-0.23025 5.94327,-0.57765 6.9535,-0.77222 1.01022,-0.1945 2.49835,-0.42853 3.30692,-0.51993 2.61488,-0.29555 4.89928,-1.1569 5.8477,-2.2049 0.47035,-0.51972 0.4716,-0.55487 0.026,-0.72585 -0.56067,-0.21525 -8.21365,0.33678 -9.70547,0.69995 -0.57728,0.1405 -4.06058,0.37098 -7.7407,0.51208 -15.09823,0.5789 -16.64208,0.39435 -19.20845,-2.2962 -1.63315,-1.71218 -2.05968,-2.441 -2.66883,-4.5602 -1.18655,-4.12793 0.30748,-9.339 3.57398,-12.4659 2.04385,-1.9565 3.3116,-2.70148 6.63152,-3.8969 1.4405,-0.5187 3.50468,-1.27538 4.58708,-1.6815 3.06372,-1.14958 4.43452,-1.53705 6.5599,-1.85428 1.0824,-0.1615 2.97165,-0.46667 4.19835,-0.67805 1.2267,-0.2115 3.1647,-0.49977 4.30667,-0.6409 1.14195,-0.141 2.12095,-0.30125 2.17555,-0.35585 0.0545,-0.0545 -0.21275,-0.47017 -0.59427,-0.9235 -1.50213,-1.78517 -2.15525,-5.18957 -1.3094,-6.82525 0.51057,-0.98735 2.1083,-2.35845 3.41122,-2.92737 1.19845,-0.5233 4.26155,-0.91525 5.23785,-0.67023 1.42125,0.3567 0.9602,2.17845 -0.73005,2.88468 -0.4809,0.201 -1.36827,0.44877 -1.97195,0.55077 -1.18815,0.20075 -2.65372,1.24875 -2.65372,1.89765 0,0.45253 1.93607,2.26093 3.38027,3.15735 0.5221,0.32408 1.54513,0.76318 2.2734,0.97578 1.63658,0.47775 2.4017,1.26012 2.63028,2.6895 0.22325,1.39662 0.02,2.19495 -0.8113,3.18267 -1.11405,1.324 -3.15185,1.7848 -8.91583,2.01608 -2.74205,0.11 -5.47027,0.17925 -6.06275,0.15425 -1.1685,-0.0497 -5.21782,0.59145 -6.6055,1.04597 -1.62572,0.53248 -5.32037,3.25718 -5.94745,4.3861 -1.31112,2.36035 -1.55122,3.11015 -1.5698,4.90268 -0.015,1.49312 0.12125,2.14065 0.7313,3.461 0.91478,1.9801 1.9485,2.76432 4.80688,3.64665 l 2.05227,0.6335 3.93595,-0.66598 c 5.86295,-0.99205 9.72123,-1.9514 16.2686,-4.04512 9.63635,-3.0815 14.67798,-3.81565 18.10538,-2.63645 0.83895,0.28862 1.77315,0.52477 2.07605,0.52477 0.3029,0 1.23427,0.43383 2.06975,0.96405 1.10872,0.70365 1.6819,1.2884 2.122,2.16478 0.3316,0.6604 0.79257,1.55497 1.02427,1.98792 0.73485,1.37288 1.25718,3.8477 1.07995,5.11673 -0.21925,1.56927 -1.38142,3.35395 -3.19125,4.90015 -1.94342,1.66032 -2.1586,1.75947 -5.91107,2.7244 -2.98948,0.7687 -3.66568,0.8407 -10.02795,1.06772 -3.75228,0.134 -7.6919,0.40573 -8.75475,0.60408 -1.06283,0.19825 -3.60153,0.38057 -5.64153,0.40495 -6.08122,0.0725 -8.55262,0.34232 -9.89127,1.07937 -1.15975,0.63855 -1.16528,0.64848 -1.2417,2.2246 -0.0758,1.5646 -0.0645,1.59305 0.96862,2.42325 0.57493,0.46205 1.1332,0.84008 1.2406,0.84008 0.1075,0 0.47228,0.26022 0.81083,0.57827 l 0.61555,0.57828 3.07492,-0.44813 c 1.6912,-0.2465 4.18628,-0.44767 5.54463,-0.4471 1.39115,5.3e-4 3.05275,-0.167 3.80475,-0.3836 0.73425,-0.2115 2.0435,-0.57955 2.90942,-0.8177 0.8659,-0.23825 2.0467,-0.58385 2.62398,-0.76817 1.57997,-0.5045 4.769,-1.1261 6.72807,-1.31143 2.91843,-0.27605 4.556,0.43858 5.94205,2.59308 0.62735,0.97512 0.69253,1.3071 0.6572,3.34712 -0.0475,2.75158 -0.34587,3.96588 -1.60277,6.52565 -1.12015,2.28133 -2.91695,4.19643 -5.28923,5.6375 -1.9414,1.17935 -3.60655,1.67873 -6.56652,1.96925 -1.25075,0.12275 -2.83545,0.47493 -3.60798,0.8018 l -1.37757,0.5829 v 1.22938 c 0,1.93187 -0.65563,3.72915 -1.76715,4.8444 -2.41753,2.4256 -6.87558,4.00865 -8.3182,2.95377 z m -175.42573,-15.64572 -0.65262,-0.50143 0.65262,-0.7014 c 0.35893,-0.38577 1.18395,-1.06127 1.8334,-1.50112 0.64943,-0.43985 1.74165,-1.21908 2.42715,-1.73163 l 1.2464,-0.9319 v -2.45772 c 0,-2.12233 -0.0865,-2.60733 -0.6346,-3.55403 -0.62737,-1.08385 -0.76302,-1.69145 -0.70642,-3.16442 0.032,-0.83218 1.43905,-2.34553 3.41887,-3.6771 1.65855,-1.11548 2.3277,-3.05793 1.45228,-4.21573 -0.35008,-0.463 -0.67183,-0.50817 -3.20603,-0.45022 -1.54927,0.0355 -4.3519,0.30907 -6.22802,0.60812 -3.2766,0.52225 -4.08423,0.67103 -6.69113,1.23263 -6.28527,1.354 -12.1793,1.3667 -18.63017,0.0403 -0.64943,-0.1335 -1.6531,-0.32375 -2.23035,-0.42268 -0.57728,-0.099 -1.46735,-0.42752 -1.97793,-0.73022 -0.51057,-0.30268 -1.1581,-0.68005 -1.4389,-0.8386 -0.28082,-0.1585 -0.8077,-0.8303 -1.17085,-1.49273 -0.36315,-0.66242 -0.99095,-1.73405 -1.39512,-2.38135 -1.42633,-2.2844 -1.18915,-4.44332 0.72905,-6.63612 1.40675,-1.60813 3.02085,-2.49385 6.04092,-3.31498 4.63398,-1.2599 9.21533,-1.93277 18.23658,-2.67845 7.27082,-0.601 10.02462,-0.93915 15.76927,-1.93635 1.68943,-0.29325 3.08398,-0.83212 4.1881,-1.61832 1.59758,-1.13758 0.8258,-1.3382 -3.90152,-1.01408 -1.9756,0.1355 -4.64518,0.43103 -5.93235,0.65688 -1.81965,0.31927 -4.62185,0.4205 -12.59505,0.45495 -10.09735,0.0435 -10.27413,0.0352 -11.52143,-0.54035 -1.1779,-0.54365 -3.28607,-2.55023 -4.04162,-3.8469 -0.6769,-1.16168 -1.38265,-4.07778 -1.37925,-5.69903 0.005,-1.87322 1.00182,-5.12092 2.20357,-7.17155 1.10993,-1.89395 4.0565,-4.15917 6.9768,-5.36355 1.37103,-0.56542 3.02413,-1.2039 3.67355,-1.41885 0.64945,-0.215 2.12543,-0.73727 3.27998,-1.1607 2.70925,-0.99365 4.31977,-1.40707 6.4287,-1.6503 1.90302,-0.2195 6.48375,-0.93652 8.59265,-1.34507 l 1.37672,-0.2667 -0.67445,-0.88425 c -1.72582,-2.26268 -2.19167,-5.55875 -1.02775,-7.27163 1.2974,-1.9093 3.27135,-2.87432 6.6305,-3.2416 1.37883,-0.15075 1.7309,-0.10375 2.16478,0.28888 1.2326,1.1155 0.12775,2.44565 -2.62393,3.15937 -1.733,0.44948 -3.15545,1.35388 -3.15545,2.0062 0,0.5648 3.02008,3.08593 4.19835,3.50475 2.73963,0.9738 3.42918,1.405 3.84738,2.4059 0.96865,2.31828 -0.2904,4.67408 -2.92185,5.46708 -1.38355,0.41692 -11.7483,1.04975 -13.04165,0.79625 -0.71215,-0.1395 -5.33033,0.65347 -6.58645,1.13105 -0.61358,0.23325 -2.10405,1.20755 -4.18928,2.73837 -0.99322,0.72915 -2.52425,3.38595 -2.8639,4.96975 -0.37335,1.7409 -0.13625,3.2626 0.7955,5.1027 0.93895,1.85455 1.82078,2.52715 4.43515,3.38278 2.21605,0.72525 2.83283,0.7201 7.27405,-0.0607 5.04393,-0.88678 12.43713,-2.8787 18.89258,-5.09018 1.15455,-0.39552 3.22092,-0.9199 4.59192,-1.16527 1.37103,-0.2455 2.98785,-0.55583 3.59295,-0.68988 1.63428,-0.36202 3.97655,-0.29077 5.45975,0.166 0.7216,0.22225 1.87408,0.51335 2.56108,0.64688 1.65247,0.32115 3.91652,1.99305 4.49627,3.32032 0.24075,0.55118 0.66408,1.35693 0.94073,1.79058 0.7917,1.24107 1.3423,3.73627 1.1564,5.2406 -0.18775,1.51942 -1.61788,3.85412 -2.78208,4.54182 -0.40197,0.2375 -0.73087,0.51938 -0.73087,0.6265 0,0.29023 -2.25123,1.5546 -3.22185,1.80953 -0.4649,0.122 -1.78993,0.47535 -2.94448,0.785 -1.59882,0.4288 -3.3813,0.61927 -7.4783,0.79912 -2.95852,0.12975 -6.55992,0.34873 -8.0031,0.48638 -1.44317,0.1375 -5.694,0.3805 -9.44627,0.5397 -6.77313,0.28737 -6.83415,0.29512 -8.4623,1.0773 l -1.63998,0.78787 v 1.53075 c 0,1.42378 0.0648,1.58768 0.92753,2.34513 0.51012,0.4479 1.03242,0.81437 1.16065,0.81437 0.12825,0 0.5794,0.29138 1.00262,0.6475 0.73055,0.6147 0.85353,0.63398 2.42815,0.38038 0.91223,-0.147 1.7303,-0.31143 1.81795,-0.36558 0.0878,-0.0542 1.86745,-0.18075 3.95513,-0.2816 2.97185,-0.14325 4.4223,-0.3523 6.68215,-0.96247 8.49852,-2.29468 11.2394,-2.7756 13.04592,-2.28915 4.4822,1.20692 5.42355,6.52032 2.2461,12.67817 -1.17845,2.28385 -2.09472,3.295 -4.4473,4.90775 -2.12532,1.45698 -3.6902,1.99613 -7.20427,2.4821 -1.7497,0.242 -3.52408,0.6481 -4.0877,0.93565 -0.93198,0.47545 -0.99595,0.58453 -0.99595,1.69853 0,2.23055 -0.51103,3.5427 -1.91073,4.90605 -1.42557,1.38855 -2.99075,2.27382 -5.156,2.91625 -1.8014,0.53447 -2.09997,0.5252 -2.90095,-0.0903 z m 92.53743,-52.6514 c -0.68583,-0.37175 -0.7132,-0.44445 -0.36628,-0.97348 0.20625,-0.31445 1.40953,-1.30385 2.67405,-2.19862 3.61435,-2.55755 3.37618,-2.18255 3.17118,-4.9932 -0.138,-1.8903 -0.3242,-2.6857 -0.849,-3.62468 -0.54683,-0.97837 -0.64895,-1.44632 -0.54705,-2.50677 0.14375,-1.4975 0.68855,-2.20678 2.69345,-3.50753 1.86067,-1.2072 2.28852,-1.78112 2.43067,-3.26057 0.11075,-1.1531 0.055,-1.33348 -0.53182,-1.71795 -1.09363,-0.71655 -5.6813,-0.34828 -12.91953,1.03717 -6.89097,1.31898 -8.0048,1.46108 -11.67665,1.48988 -2.09262,0.0175 -4.74937,-0.111 -5.90392,-0.28308 -5.52715,-0.82382 -7.14493,-1.15687 -7.8719,-1.6206 -0.43295,-0.27617 -1.10285,-0.6301 -1.48865,-0.78647 -0.40698,-0.165 -0.93348,-0.74468 -1.25413,-1.38088 -0.30397,-0.6031 -0.95192,-1.73035 -1.4399,-2.505 -0.488,-0.77465 -0.96185,-1.8061 -1.053,-2.2921 -0.39427,-2.10157 1.32308,-4.88387 3.91353,-6.34032 3.2415,-1.82248 10.81495,-3.3308 20.0835,-3.99983 1.9483,-0.14075 3.8966,-0.31302 4.32955,-0.3831 0.43295,-0.07 1.8499,-0.193 3.14877,-0.2731 1.29885,-0.08 3.36523,-0.3163 4.59193,-0.52485 1.22672,-0.2085 3.32147,-0.55515 4.65502,-0.77022 3.572,-0.5761 6.4562,-1.9966 5.66348,-2.78933 -0.33133,-0.33132 -7.35518,0.13675 -10.41388,0.69393 -1.3971,0.25452 -5.17175,0.43167 -11.68942,0.54857 -9.31203,0.167 -9.68555,0.1545 -11.45005,-0.3822 -1.48133,-0.45062 -2.05058,-0.7912 -3.02998,-1.8128 -1.75027,-1.8257 -2.2813,-2.70605 -2.76035,-4.57602 -0.30727,-1.1993 -0.39297,-2.3761 -0.30545,-4.1939 0.11325,-2.35295 0.20525,-2.69885 1.33753,-5.02615 1.05382,-2.16625 1.4527,-2.69895 2.99342,-3.99758 1.8923,-1.59497 3.60908,-2.49457 7.17303,-3.75867 8.14982,-2.89068 8.40647,-2.95725 14.8091,-3.8409 4.2065,-0.58055 5.90392,-0.9177 5.90392,-1.17268 0,-0.11625 -0.18575,-0.3656 -0.41277,-0.55402 -1.11603,-0.92623 -2.1205,-4.4213 -1.78658,-6.21635 0.18975,-1.01928 1.97858,-2.92493 3.36213,-3.58148 0.5309,-0.25192 2.03507,-0.59307 3.34267,-0.75812 2.33723,-0.295 2.3857,-0.28988 2.86688,0.30437 0.4467,0.55168 0.45527,0.67055 0.0983,1.36105 -0.4779,0.92415 -0.84723,1.131 -3.01593,1.68913 -1.76807,0.45502 -2.88022,1.21927 -2.88022,1.97922 0,0.5769 2.26227,2.68665 3.5707,3.32995 0.56167,0.27615 1.51897,0.6589 2.12732,0.85053 1.61788,0.50965 2.2383,1.29775 2.38158,3.0253 0.189,2.27917 -0.77698,3.40082 -3.73345,4.33517 -1.03113,0.32588 -11.37415,0.82025 -12.53165,0.59898 -0.6141,-0.1175 -5.46465,0.77852 -6.56565,1.21272 -0.3295,0.13 -1.51403,0.86998 -2.63238,1.64455 -2.2839,1.5819 -3.66072,3.4437 -4.2874,5.79765 -0.55082,2.06895 -0.46047,2.78368 0.63923,5.05775 0.9329,1.9291 1.11735,2.14223 2.42717,2.80453 2.6057,1.31755 4.0572,1.5509 6.9857,1.123 3.66243,-0.53515 7.07518,-1.1702 7.82923,-1.45688 0.35645,-0.1355 2.0339,-0.59427 3.72762,-1.01945 1.69375,-0.42517 5.13333,-1.44172 7.64348,-2.25897 8.03102,-2.61473 13.02395,-3.19288 17.3462,-2.00865 2.73175,0.74845 4.7671,2.04097 5.36585,3.40747 0.233,0.53183 0.6519,1.32503 0.93085,1.76265 0.80937,1.26975 1.39372,3.95685 1.19257,5.48415 -0.38547,2.92658 -3.43187,5.96445 -7.0957,7.07585 -3.3242,1.00838 -5.2026,1.28495 -10.23345,1.5069 -2.88637,0.12725 -6.48777,0.34215 -8.0031,0.47743 -1.51535,0.13525 -5.70715,0.3752 -9.3151,0.53322 -6.7893,0.29738 -8.03055,0.5094 -9.4311,1.6111 -0.55937,0.44 -0.67117,0.7455 -0.67117,1.83425 0,1.17393 0.0997,1.3979 0.984,2.21008 0.5412,0.49707 1.085,0.90432 1.2085,0.905 0.1235,8e-4 0.57075,0.2926 0.99395,0.6487 0.80787,0.67977 0.97462,0.6849 3.63587,0.112 0.64943,-0.13975 2.95195,-0.35605 5.11673,-0.48055 3.14847,-0.181 4.51345,-0.39075 6.82232,-1.04813 7.40303,-2.1077 10.50378,-2.60517 12.54303,-2.01235 2.47787,0.72035 3.86237,2.73168 3.84742,5.58933 -0.0125,2.38092 -0.5314,4.42395 -1.74152,6.85635 -2.19715,4.41637 -6.43473,7.04582 -12.1675,7.55002 -1.1578,0.10175 -2.51905,0.42458 -3.33423,0.79053 l -1.37757,0.61842 -0.002,1.38113 c -0.002,2.23362 -0.43955,3.34822 -1.85,4.71645 -1.40873,1.36657 -3.05355,2.29157 -5.21528,2.93295 -1.71517,0.5089 -1.78842,0.5089 -2.72715,1e-4 z"
       id="path623" /></g></svg>
