<?xml version="1.0" encoding="UTF-8" standalone="no"?>
<!-- Created with Inkscape (http://www.inkscape.org/) -->

<svg
   width="1780"
   height="3164"
   viewBox="0 0 470.95832 837.14166"
   version="1.1"
   id="svg5"
   xml:space="preserve"
   inkscape:version="1.2 (dc2aeda, 2022-05-15)"
   sodipodi:docname="part2.svg"
   xmlns:inkscape="http://www.inkscape.org/namespaces/inkscape"
   xmlns:sodipodi="http://sodipodi.sourceforge.net/DTD/sodipodi-0.dtd"
   xmlns="http://www.w3.org/2000/svg"
   xmlns:svg="http://www.w3.org/2000/svg"><sodipodi:namedview
     id="namedview7"
     pagecolor="#ffffff"
     bordercolor="#000000"
     borderopacity="0.25"
     inkscape:showpageshadow="2"
     inkscape:pageopacity="0.0"
     inkscape:pagecheckerboard="0"
     inkscape:deskcolor="#d1d1d1"
     inkscape:document-units="mm"
     showgrid="false"
     inkscape:zoom="0.16604267"
     inkscape:cx="918.43859"
     inkscape:cy="1409.2763"
     inkscape:window-width="1425"
     inkscape:window-height="806"
     inkscape:window-x="0"
     inkscape:window-y="25"
     inkscape:window-maximized="0"
     inkscape:current-layer="layer1" /><defs
     id="defs2" /><g
     inkscape:label="Layer 1"
     inkscape:groupmode="layer"
     id="layer1"><path
       style="fill:#000000;stroke-width:0.262397"
       d="m 250.58143,818.17505 c 54.61219,-1.51295 115.38928,6.77811 169.9835,3.67479 23.22158,1.79212 48.48468,0.9454 39.2022,-29.4778 2.3794,-48.65521 -3.45906,-108.41323 -5.79548,-157.06183 3.27734,-93.98639 1.83931,-188.03631 1.98878,-282.07305 -2.79041,-94.25113 5.2477,-191.75112 4.91749,-286.024047 0.82366,-25.132481 13.6385,-63.0823727 -25.81884,-51.44049 C 316.18599,11.706262 186.25754,11.677342 67.508991,15.693579 41.253895,14.393418 2.7206483,9.2204049 15.169563,49.529593 13.331349,126.9595 5.3717185,215.7317 15.492357,293.04067 c -1.483641,67.35985 2.387723,134.98962 1.406661,202.47346 3.603028,69.40696 -1.549539,138.89227 2.31603,208.3208 0.782617,38.08715 -1.049248,76.57237 -1.121105,114.38212 28.562609,4.26859 58.781296,-1.85392 87.942047,2.22348 44.51112,-2.94602 89.11561,-5.53508 133.74449,-2.443 l 4.64961,0.0483 6.15171,0.12986 z m 16.48534,-9.82559 c -46.44695,1.52489 -92.92285,-2.33409 -139.25192,2.70664 -35.112165,-0.43209 -70.475223,-4.55348 -105.267741,2.1069 10.368,-86.30319 0.0449,-173.37327 4.735445,-259.99062 -2.376923,-92.7971 -1.174286,-185.66326 -3.8115,-278.44978 -6.877241,-70.70575 1.258647,-152.57448 2.259672,-223.30672 -4.581339,-23.071555 3.362282,-34.006278 26.991214,-27.528464 86.26267,0.05371 175.47165,2.361744 261.79461,2.974729 44.61338,-0.502902 97.20752,-2.645933 141.77856,-1.853422 -8.29791,76.950957 -8.63872,157.709267 -10.65695,234.930577 2.43091,99.72761 0.74121,199.47287 0.62064,299.20589 -2.82335,48.99705 -2.04022,98.07029 -0.85134,147.03946 -2.21857,31.92286 4.53719,74.89673 6.34026,106.69026 -50.29619,-0.43849 -106.91599,-7.81145 -156.94508,-5.05389 -9.20692,-0.90773 -18.50758,0.48628 -27.73588,0.52844 z"
       id="path3049"
       sodipodi:nodetypes="sssscsssssssssssssssssscssssssssss" /><path
       style="fill:#000000;stroke-width:0.262397"
       d="m 248.63087,174.82876 c -1.84257,-4.52654 10.0605,-5.35395 7.23058,-11.69079 -1.30363,-4.53371 -3.78712,-10.69361 2.58315,-12.89645 4.34566,-2.11101 2.30984,-8.48387 -2.63516,-6.36226 -12.31002,0.57765 -24.40841,5.80842 -36.80997,3.31256 -5.22941,-0.80571 -12.31326,-0.69904 -14.74523,-6.42006 -3.42824,-3.40755 -3.49739,-9.15153 0.47943,-12.18498 6.61131,-4.94474 15.34032,-5.01978 23.18211,-6.34154 10.9679,-1.31705 22.17563,-1.28824 32.89009,-4.18957 2.52185,-0.51263 4.789,-3.66542 0.76864,-2.72978 -8.31662,0.43159 -16.5305,1.99344 -24.88563,1.8449 -6.304,-0.14627 -12.85333,1.01705 -18.97525,-0.83815 -5.68194,-2.79988 -8.01773,-9.51333 -6.98236,-15.52053 0.92284,-6.877001 6.18196,-12.402238 12.61184,-14.635573 6.42143,-2.304947 12.76775,-5.147528 19.6547,-5.749347 3.19662,-1.005031 8.84091,-0.428299 10.58586,-2.29149 -2.94591,-3.36602 -4.23742,-9.627017 0.16336,-12.418126 2.38088,-3.226206 14.56316,-3.563846 8.788,1.601268 -3.8383,0.381531 -9.0384,3.638358 -3.5695,6.407024 3.63547,2.30993 10.63479,3.706112 7.65311,9.667344 -3.31781,4.488443 -9.58858,3.050185 -14.43014,3.612632 -5.42449,0.365498 -11.00169,-0.265157 -16.13528,1.972509 -4.7914,2.276196 -9.15239,6.488153 -9.23926,12.139519 -0.0596,5.6259 4.82358,9.57244 10.15435,9.8435 12.27161,-0.89521 23.95202,-5.21492 35.6776,-8.63479 5.73938,-1.27252 11.85638,-2.855334 17.5642,-0.53305 5.73668,0.80625 8.54337,6.56357 9.62604,11.64814 0.77557,5.90335 -4.78501,10.72037 -9.99338,12.18683 -7.85028,2.7655 -16.27536,1.4174 -24.3852,2.53079 -7.03832,1.06704 -14.18256,0.53466 -21.2474,1.23065 -6.81368,0.53579 -4.80526,8.09368 0.35591,9.48582 5.25667,-0.29797 10.68465,-0.93912 16.02027,-1.24419 6.88124,-1.75379 13.82715,-4.62237 21.04607,-3.92469 5.00382,1.28443 6.01777,7.1501 4.91559,11.50591 -1.56581,8.4907 -9.25528,15.28668 -17.92779,15.5504 -2.22612,0.67688 -7.19402,0.1655 -6.70319,3.52703 0.53176,5.34488 -4.32497,8.92537 -8.90797,10.32107 -1.36899,0.45077 -3.02026,1.04266 -4.37819,0.21747 z"
       id="path3075" /><path
       style="fill:#000000;stroke-width:0.262397"
       d="m 124.51726,245.67586 c -1.84265,-4.52649 10.06052,-5.35394 7.23056,-11.69078 -1.30364,-4.5337 -3.78711,-10.69361 2.58315,-12.89646 4.34564,-2.11101 2.30986,-8.48387 -2.63515,-6.36227 -12.31002,0.57767 -24.4084,5.80841 -36.80997,3.31256 -5.229413,-0.80571 -12.313256,-0.69903 -14.745232,-6.42004 -3.428244,-3.40756 -3.497386,-9.15154 0.479442,-12.18499 6.61129,-4.94478 15.340314,-5.01978 23.1821,-6.34154 10.9679,-1.31706 22.17562,-1.28824 32.89008,-4.18957 2.52184,-0.51265 4.78904,-3.66542 0.76866,-2.72979 -8.31662,0.43159 -16.53051,1.99344 -24.88564,1.8449 -6.304,-0.14627 -12.853338,1.01705 -18.975258,-0.83815 -5.681946,-2.79988 -8.017742,-9.51332 -6.982369,-15.52053 0.922892,-6.87698 6.181975,-12.40223 12.61185,-14.63556 6.421417,-2.30498 12.767757,-5.1475 19.654697,-5.74935 3.19661,-1.00502 8.84094,-0.4283 10.58586,-2.29149 -2.9459,-3.36601 -4.2374,-9.627 0.16336,-12.41811 2.38085,-3.22623 14.56315,-3.56383 8.788,1.60125 -3.8383,0.38154 -9.0384,3.63837 -3.5695,6.40704 3.63546,2.30991 10.63474,3.70614 7.65309,9.66733 -3.31783,4.48843 -9.58857,3.05019 -14.43014,3.61262 -5.42446,0.36537 -11.00174,-0.26503 -16.13528,1.97254 -4.79139,2.27621 -9.1524,6.48816 -9.23925,12.13953 -0.0596,5.62587 4.82357,9.57245 10.15434,9.84348 12.27161,-0.89518 23.95201,-5.21491 35.67758,-8.63477 5.73939,-1.27249 11.85638,-2.85536 17.5642,-0.53305 5.7367,0.80624 8.54339,6.56356 9.62606,11.64815 0.77555,5.90335 -4.78502,10.72033 -9.99337,12.1868 -7.85027,2.76554 -16.27537,1.4174 -24.38521,2.53079 -7.03831,1.06705 -14.18255,0.53471 -21.24739,1.23068 -6.8137,0.53574 -4.80528,8.09368 0.3559,9.48581 5.25667,-0.298 10.68465,-0.93913 16.02028,-1.24419 6.88122,-1.75384 13.82714,-4.62238 21.04606,-3.9247 5.0038,1.28446 6.01775,7.1501 4.91558,11.50591 -1.56584,8.49069 -9.25525,15.28669 -17.92777,15.55043 -2.22615,0.67666 -7.19402,0.16556 -6.70321,3.527 0.53178,5.3449 -4.32496,8.92537 -8.90796,10.3211 -1.36898,0.45073 -3.02025,1.04267 -4.37815,0.21742 z"
       id="path3073" /><path
       style="fill:#000000;stroke-width:0.262397"
       d="m 360.14947,266.66759 c -1.84257,-4.52654 10.0605,-5.35394 7.23058,-11.69077 -1.30363,-4.53371 -3.78712,-10.69361 2.58314,-12.89646 4.34566,-2.111 2.30986,-8.48389 -2.63515,-6.36229 -12.31002,0.5777 -24.40841,5.80842 -36.80998,3.31259 -5.22942,-0.8057 -12.31325,-0.69904 -14.74522,-6.42007 -3.42828,-3.40754 -3.49737,-9.15153 0.47943,-12.18498 6.6113,-4.94477 15.34031,-5.01977 23.1821,-6.34153 10.96789,-1.31714 22.17563,-1.28821 32.89009,-4.18957 2.52186,-0.51264 4.78905,-3.66546 0.76866,-2.7298 -8.31663,0.43159 -16.53051,1.99348 -24.88564,1.84492 -6.304,-0.14626 -12.85333,1.01704 -18.97525,-0.83816 -5.68194,-2.79986 -8.01777,-9.51333 -6.98238,-15.52053 0.92288,-6.877 6.18198,-12.40224 12.61186,-14.63556 6.42142,-2.30497 12.76775,-5.14752 19.65469,-5.74935 3.19662,-1.00505 8.84094,-0.42827 10.58587,-2.29152 -2.94595,-3.36599 -4.23741,-9.627 0.16336,-12.4181 2.38088,-3.22622 14.56316,-3.56384 8.788,1.60127 -3.83831,0.38152 -9.0384,3.63836 -3.5695,6.40703 3.63547,2.30992 10.63478,3.70611 7.65311,9.66734 -3.31781,4.48846 -9.58858,3.05017 -14.43014,3.6126 -5.42446,0.3654 -11.00174,-0.26505 -16.13528,1.97252 -4.79138,2.27623 -9.1524,6.48816 -9.23926,12.13954 -0.0596,5.62589 4.82358,9.57244 10.15434,9.8435 12.27162,-0.89521 23.95202,-5.21493 35.67761,-8.63479 5.73938,-1.27251 11.85638,-2.85536 17.5642,-0.53305 5.73668,0.80625 8.54337,6.56356 9.62604,11.64814 0.77556,5.90336 -4.78504,10.72032 -9.99338,12.18683 -7.85028,2.76549 -16.27536,1.41739 -24.3852,2.53076 -7.03833,1.06697 -14.18256,0.53474 -21.2474,1.23068 -6.81369,0.53576 -4.80527,8.09369 0.3559,9.48582 5.25668,-0.29801 10.68465,-0.93913 16.02028,-1.2442 6.88124,-1.75378 13.82715,-4.62236 21.04607,-3.92469 5.00381,1.28443 6.01778,7.15009 4.91559,11.50591 -1.56583,8.4907 -9.25526,15.28669 -17.92779,15.55042 -2.22616,0.67665 -7.19399,0.16559 -6.70319,3.52703 0.53178,5.3449 -4.32498,8.92533 -8.90797,10.32107 -1.36899,0.45075 -3.02023,1.04269 -4.37819,0.21745 z"
       id="path3071" /><path
       style="fill:#000000;stroke-width:0.262397"
       d="M 233.73987,574.25196 C 208.37202,572.3635 181.56592,573.99886 158.03471,563.5662 142.37787,556.62468 125.36644,550.88071 113.56746,537.59364 99.116471,521.32009 87.925891,502.44049 83.155389,480.55707 80.042432,466.2772 80.862604,443.31501 100.0698,444.60575 c 11.17535,0.75099 31.61347,20.01525 32.35394,12.12532 3.66986,-39.1036 -2.22861,-78.62988 -8.21695,-117.52806 -2.06131,-13.38959 -15.73181,-30.80461 -4.89335,-41.28955 13.39306,-12.95621 35.00159,-11.42576 52.82624,-15.22315 32.45872,-6.91506 66.1816,-7.1282 98.99157,-2.57722 24.40394,3.385 49.56305,6.51114 72.1,16.73648 16.37866,7.43123 1.56757,28.30879 -0.37164,41.74338 -5.86434,40.62735 -25.19649,84.45718 -9.73841,122.38279 5.41805,13.29291 26.37859,-18.4638 41.00065,-15.26058 17.61501,3.85888 9.97035,28.21064 7.86097,41.74198 -2.31614,14.85764 -9.81565,27.5535 -20.87699,37.64903 -16.30347,14.87994 -33.78449,28.52454 -54.60082,36.63091 -18.52173,7.2128 -38.1367,10.85688 -57.71568,12.57892 -4.99799,0.43959 -10.03522,0.0557 -15.04946,-0.064 -1e-5,0 1e-5,-4e-5 0,-4e-5 z"
       id="path3069"
       sodipodi:nodetypes="ssssssssssssssssssss" /><path
       style="fill:#000000;stroke-width:0.262397"
       d="m 210.12417,676.21936 c -1.99037,-0.20675 -4.0684,-0.81095 -5.17572,-1.5052 -0.47268,-0.29635 -2.0669,-1.83092 -3.54275,-3.41015 -2.07195,-2.2171 -2.80835,-3.20547 -3.23202,-4.33787 -0.30178,-0.80658 -0.7016,-1.5565 -0.88845,-1.66648 -0.3629,-0.2135 -2.5617,-2.82955 -3.47835,-4.1383 -0.99433,-1.41965 -1.21815,-2.85257 -0.87983,-5.6324 0.41935,-3.44575 0.44583,-3.5406 1.18385,-4.2407 0.56518,-0.5361 0.6546,-0.85212 0.65853,-2.32677 0.005,-2.08463 0.6713,-4.50235 1.92485,-6.99028 1.11195,-2.20685 4.66322,-5.92567 9.86169,-10.32707 3.21583,-2.72273 7.6406,-7.231 8.78658,-8.95238 0.32495,-0.48812 0.86602,-1.57632 1.20237,-2.41822 0.8282,-2.07315 2.7064,-4.0517 5.7532,-6.06068 2.84163,-1.87367 4.1956,-2.51087 5.3352,-2.51087 0.43058,0 1.50838,-0.18825 2.39513,-0.41828 1.16892,-0.3033 2.47805,-0.39337 4.761,-0.32757 3.07607,0.0885 3.18892,0.11325 4.88842,1.06947 2.14615,1.20748 4.50618,3.1831 5.7908,4.84758 2.35188,3.04725 2.9962,3.99822 3.9632,5.84945 1.51753,2.90512 3.44668,5.37032 5.4591,6.976 0.98118,0.78285 2.10315,1.8419 2.49333,2.35342 0.89777,1.17705 2.25447,1.9596 5.15552,2.97375 2.89098,1.0106 5.78398,2.93803 7.18968,4.78998 1.89135,2.4919 2.9179,4.52027 3.12332,6.1715 0.10475,0.8425 0.4098,2.17022 0.67775,2.95052 0.83383,2.42803 0.66633,4.6087 -0.65097,8.47528 -0.7086,2.07987 -1.0929,3.62702 -1.02158,4.11297 0.17925,1.22148 -0.3738,2.47033 -1.83167,4.13585 -0.74,0.84533 -1.92528,2.334 -2.634,3.30815 -0.70873,0.97415 -1.37595,1.77118 -1.4827,1.77118 -0.10675,0 -0.70518,0.43745 -1.32978,0.97207 -1.18832,1.01715 -2.49382,1.8219 -4.4563,2.74695 -0.9128,0.43028 -1.71927,0.5571 -3.6917,0.58053 -2.62462,0.0312 -2.5422,0.0528 -6.4234,-1.68315 -2.12682,-0.95125 -4.9724,-1.5668 -7.24312,-1.5668 -1.22325,0 -2.92278,-0.182 -3.77668,-0.4044 -1.20387,-0.31358 -2.38015,-0.37083 -5.23747,-0.25498 -6.91033,0.28018 -9.82948,0.93645 -12.64475,2.84275 -2.43978,1.65205 -7.24078,2.63353 -10.98228,2.24515 z m 7.79138,-21.2681 c 1.62782,-0.48772 3.14562,-2.0178 4.13862,-4.17215 1.0169,-2.20622 0.95003,-2.45062 -0.8657,-3.16382 -0.95545,-0.37533 -1.59467,-0.4508 -2.7085,-0.3199 -1.2617,0.14825 -1.52525,0.28082 -1.95812,0.98472 -0.69068,1.12318 -1.0049,2.40088 -1.08315,4.40425 -0.097,2.48518 0.35802,2.90173 2.47685,2.2669 z m 30.95707,-2.48725 c 0.8444,-0.7642 0.62585,-2.33072 -0.63535,-4.55367 -1.10585,-1.94913 -1.12505,-1.9663 -2.29595,-2.0512 -0.64945,-0.047 -1.6327,0.049 -2.18505,0.2135 -1.00062,0.29795 -1.00357,0.30292 -0.82082,1.38462 0.37797,2.23728 1.3308,3.81848 3.0095,4.99428 0.81195,0.56872 2.30605,0.57512 2.92767,0.0125 z"
       id="path3067" /><path
       style="fill:#000000;stroke-width:0.262397"
       d="m 335.25815,712.74969 c -1.80913,-1.10315 -2.79293,-3.57678 -2.59535,-6.52585 0.14875,-2.22053 0.73522,-3.5489 2.09347,-4.74143 0.78533,-0.68952 1.15925,-0.82795 2.2367,-0.82795 1.07178,0 1.4522,0.13925 2.2176,0.81115 1.2347,1.08413 1.5167,2.28438 1.4114,6.00763 -0.0822,2.9089 -0.125,3.11417 -0.84282,4.0544 -1.25845,1.6482 -3.03478,2.12835 -4.521,1.22205 z"
       id="path3065" /><path
       style="fill:#000000;stroke-width:0.262397"
       d="m 131.53636,716.89344 c -1.1913,-0.45505 -1.55252,-1.3208 -1.9797,-4.7445 -0.2215,-1.77593 -0.5781,-4.03233 -0.7923,-5.0142 -0.47567,-2.18055 -0.22,-3.40548 0.9433,-4.52003 1.41285,-1.3536 3.7969,-0.88842 4.70275,0.9176 0.6099,1.2159 0.78483,2.76663 0.81865,7.25755 0.0315,4.16758 -0.20075,4.98445 -1.67185,5.88143 -0.93087,0.56757 -1.07507,0.58345 -2.02085,0.22225 z"
       id="path3063" /><path
       style="fill:#000000;stroke-width:0.262397"
       d="m 318.0438,744.01874 c -0.98803,-0.6127 -1.3583,-1.653 -1.16605,-3.27613 0.16025,-1.35385 1.2042,-3.84237 1.82945,-4.36127 0.18275,-0.15175 0.9028,-0.42833 1.60015,-0.61485 l 1.26792,-0.3391 1.14898,1.26907 c 0.97077,1.07225 1.1486,1.43815 1.14642,2.3589 -0.005,2.48035 -2.28677,5.42675 -4.18995,5.41238 -0.50832,-0.005 -1.24492,-0.206 -1.63692,-0.449 z"
       id="path3061" /><path
       style="fill:#000000;stroke-width:0.262397"
       d="m 310.3598,754.72026 c -0.70208,-0.2904 -1.6005,-1.32012 -1.7722,-2.03117 -0.0765,-0.31673 -0.0378,-1.93478 0.0863,-3.59565 0.31277,-4.19063 1.02687,-5.75868 2.77152,-6.08598 1.60665,-0.3014 2.534,0.052 3.33568,1.27148 0.5647,0.85887 0.70242,1.3246 0.60112,2.03255 -0.9622,6.72665 -1.12732,7.2421 -2.6095,8.14585 -0.89045,0.54292 -1.55965,0.61585 -2.41292,0.26292 z"
       id="path3059" /><path
       style="fill:#000000;stroke-width:0.262397"
       d="m 256.63067,772.31006 c -1.30242,-0.6081 -2.22437,-1.49422 -2.875,-2.76335 -0.4698,-0.91635 -0.51062,-1.32672 -0.35255,-3.54235 0.22575,-3.16405 0.7405,-5.68795 1.43943,-7.05795 0.55647,-1.09075 1.77852,-2.40145 2.23902,-2.40145 0.14075,0 0.80473,-0.5404 1.4753,-1.2009 1.5416,-1.51842 2.85738,-1.7955 4.298,-0.90515 1.50308,0.92895 1.83173,1.82585 1.7629,4.81073 -0.054,2.34125 -0.51607,5.2287 -0.9488,5.92887 -0.0942,0.1525 0.005,0.79905 0.22225,1.43675 0.70665,2.08143 -0.0825,3.92175 -2.0468,4.77298 -0.44837,0.19425 -1.16942,0.5937 -1.6024,0.88757 -0.9531,0.6469 -2.27237,0.65943 -3.61135,0.0343 z"
       id="path3057" /><path
       style="fill:#000000;stroke-width:0.262397"
       d="m 240.43107,772.66606 c -0.36077,-0.234 -1.06495,-0.96075 -1.56482,-1.61517 -1.28488,-1.6822 -1.81265,-3.93503 -1.8308,-7.8148 -0.0175,-3.89623 0.25037,-4.55055 2.47725,-6.03513 1.9084,-1.27227 3.42042,-1.41732 4.76642,-0.4572 0.68478,0.48843 0.95398,0.5454 1.53435,0.32475 2.29023,-0.87075 5.2872,2.18575 5.5853,5.6962 0.18775,2.21135 -0.10575,3.10388 -1.517,4.61263 -0.70432,0.753 -1.67612,1.90042 -2.15955,2.54985 -0.64087,0.86095 -1.2017,1.28875 -2.07055,1.57935 -0.6554,0.21925 -1.5241,0.61637 -1.93042,0.88262 -1.031,0.6755 -2.48643,0.798 -3.29018,0.2769 z"
       id="path3055" /><path
       style="fill:#000000;stroke-width:0.262397"
       d="m 281.0756,781.18339 c -0.42368,-7.08121 -0.0162,-14.68382 -0.31512,-21.97441 -0.14594,-4.26559 1.12968,-11.77781 -4.44678,-5.51897 -3.98817,1.63444 4.09254,2.5679 1.84685,6.31802 2.47427,5.93104 -6.99589,16.1293 -11.1455,9.03819 -2.03521,-4.60683 0.26448,-10.50424 2.54452,-13.11195 -6.42828,0.24118 -8.87049,-11.588 -13.63272,-2.89889 -5.37326,5.03883 -14.65148,2.76941 -20.15811,-0.68237 -1.84084,-2.0304 -7.42748,5.30306 -1.85465,5.25678 3.80993,4.3412 -0.88948,17.35304 -7.17785,14.14107 -7.71066,-2.81323 -3.23749,-14.28855 -2.11474,-14.2941 -3.08929,-0.40399 -11.83325,-3.80598 -5.68089,1.50054 5.91549,5.71171 -1.83867,16.29835 -8.94771,12.72034 -3.14654,-4.17538 -6.09305,-16.30057 2.47168,-15.91566 6.67713,1.95528 -0.41185,-4.67045 -1.696,-4.25083 -2.12367,3.98349 -13.05697,3.02571 -6.34441,7.72114 4.77749,6.62689 -2.18215,15.72503 -8.56794,8.23465 -6.01276,-3.24349 -1.92222,-10.8903 1.87276,-11.09571 -4.09101,-1.26771 -7.67922,-2.42444 -6.77197,3.50353 -1.31051,6.60876 1.56378,15.06067 -2.60822,20.43295 -4.45626,-0.3937 -7.36102,-10.5566 -11.24155,-14.3391 -2.84748,-2.5681 -5.74535,-10.55694 -9.08307,-9.989 -5.7209,3.28029 -5.11624,-7.54143 -10.85263,-6.24424 -3.6223,-2.89658 -0.13835,-15.75749 -3.64176,-7.32529 -5.88569,3.6544 -7.19585,-6.60616 -3.86831,-9.04028 -2.07039,-3.11909 -2.84211,-9.05841 -5.7366,-3.14721 -6.72555,-0.48043 -7.5404,-10.52996 -8.01158,-16.03601 -2.44918,-6.9639 8.6202,-17.71616 11.05359,-6.77461 -0.80428,3.78707 -1.88165,12.06603 1.68135,4.37388 3.84699,-9.9408 12.14,-0.60988 10.43692,6.35198 0.14467,6.84012 4.23934,14.08682 1.00652,20.63938 -1.36712,3.50183 6.67235,7.34921 3.09916,0.79571 1.171,-6.97669 -3.36926,-15.01934 2.02481,-21.05199 3.68255,-4.1817 9.82675,-4.72224 14.98301,-4.36775 3.55045,0.56038 4.93045,7.66525 7.37767,1.5656 5.34509,-5.57416 14.80711,-5.09696 20.08699,0.27367 3.7974,6.33777 10.20682,-5.57383 16.51348,-2.59711 7.22259,-1.37785 10.18832,9.76385 16.34855,2.59197 5.54067,-4.12802 14.17494,-4.17923 18.58169,1.68184 3.09015,4.09695 5.77112,-5.44743 10.36174,-3.98194 5.32254,-3.4745 11.83375,2.28054 15.4468,1.77322 4.42478,-4.28485 12.20599,-6.23116 17.89789,-3.35751 4.13079,1.29788 4.79099,11.72888 6.74376,3.06104 0.47659,-4.69982 4.64372,-14.38938 9.19919,-6.7535 2.37647,3.73744 2.94192,-7.43618 8.39224,-4.22541 7.67868,2.89317 4.3648,11.95648 2.46551,17.72391 -0.48883,4.6893 -5.06926,9.6786 -9.18263,5.51368 -0.84179,6.38294 -7.31357,17.68025 -14.05646,9.96834 -1.09551,-5.09802 -5.21561,7.51321 -1.64313,7.05651 6.10906,3.98884 -1.30202,19.22657 -5.57995,10.48787 -3.21951,6.64359 -6.66542,13.11772 -10.45988,19.45295 -1.9577,2.08768 -4.62477,7.71573 -7.61652,6.79508 z m 40.17357,-56.38843 c -0.31743,-0.95936 -0.64712,0.93473 0,0 z m 0.10125,-6.52415 c -0.50377,-6.92651 -2.01594,2.73092 -0.0619,1.46825 l 0.062,-1.46825 z"
       id="path3053" /></g></svg>
