<?xml version="1.0" encoding="UTF-8" standalone="no"?>
<!-- Created with Inkscape (http://www.inkscape.org/) -->

<svg
   width="1780"
   height="3164"
   viewBox="0 0 470.95832 837.14166"
   version="1.1"
   id="svg5"
   xml:space="preserve"
   sodipodi:docname="book3-part1.svg"
   inkscape:export-xdpi="96"
   inkscape:export-ydpi="96"
   inkscape:version="1.2 (dc2aeda, 2022-05-15)"
   xmlns:inkscape="http://www.inkscape.org/namespaces/inkscape"
   xmlns:sodipodi="http://sodipodi.sourceforge.net/DTD/sodipodi-0.dtd"
   xmlns="http://www.w3.org/2000/svg"
   xmlns:svg="http://www.w3.org/2000/svg"><sodipodi:namedview
     id="namedview6"
     pagecolor="#ffffff"
     bordercolor="#000000"
     borderopacity="0.25"
     inkscape:showpageshadow="2"
     inkscape:pageopacity="0.0"
     inkscape:pagecheckerboard="0"
     inkscape:deskcolor="#d1d1d1"
     showgrid="false"
     inkscape:zoom="0.20363696"
     inkscape:cx="1237.4964"
     inkscape:cy="1524.7723"
     inkscape:window-width="1416"
     inkscape:window-height="795"
     inkscape:window-x="0"
     inkscape:window-y="25"
     inkscape:window-maximized="0"
     inkscape:current-layer="svg5" /><defs
     id="defs2"><inkscape:path-effect
       effect="simplify"
       id="path-effect982"
       is_visible="true"
       lpeversion="1"
       steps="1"
       threshold="0.002"
       smooth_angles="0"
       helper_size="5"
       simplify_individual_paths="false"
       simplify_just_coalesce="false" /></defs><path
     id="path922"
     style="fill:#000000;stroke-width:0.263982"
     d="m 265.6767,4.9731174 c -6.48623,-0.00934 -12.97468,0.062302 -19.45125,0.4389902 -6.65429,0.2143173 -13.3133,0.038267 -19.96937,0.1531752 -14.57739,0.1072027 -29.15512,0.2054371 -43.73285,0.1959484 -5.411,0.019965 -10.80029,0.6751939 -16.18779,0.8516975 C 154.20733,7.1302833 142.06611,7.2101683 129.93156,7.5046623 119.21533,7.7795919 108.49402,7.6425328 97.777388,7.8775953 93.731663,7.9508016 89.769175,8.3159115 85.720845,8.2759522 77.085478,8.266874 68.441436,8.3559354 59.815255,7.9020729 53.942685,7.3738486 48.041154,7.6980692 42.16156,7.8806114 37.862983,7.7627475 33.545782,7.3141287 29.217815,7.426244 27.130309,7.424713 25.039007,7.6113341 22.957837,7.6127404 21.288338,7.3277379 19.803236,8.4132008 18.149363,8.4019803 16.666865,8.4505381 15.093733,8.7566032 14.014595,9.8598362 13.10334,10.654072 12.783102,11.844389 12.556014,12.979729 11.97666,14.909608 11.5888,16.897394 11.557592,18.917596 10.790851,29.798397 11.002968,40.741423 10.265578,51.610771 9.6202708,63.527603 9.165158,75.455225 9.0119656,87.389014 8.8938795,94.061091 8.7212735,100.73349 8.3618149,107.39688 c -0.018305,2.97593 -0.143018,5.90067 -0.4307245,8.859 -0.2997842,4.77385 -0.3403399,9.53314 -0.8223069,14.28259 -0.4636787,5.56285 -0.8267999,11.13282 -1.0270122,16.71076 -0.3431066,4.43691 -0.6614528,8.87555 -0.7438807,13.32552 -0.4211886,8.3028 -1.1325419,16.61701 -1.2193061,24.94692 -0.1286896,9.90156 -0.3061897,19.80655 -0.1007916,29.70816 0.1472326,5.67232 0.5847625,11.30639 0.8039126,16.97684 0.2099684,5.10766 0.5753564,10.20587 0.8555777,15.30924 0.071096,2.88 0.2611024,5.8149 0.5056112,8.64523 0.2290296,4.25413 0.1399599,8.54733 0.9613919,12.746 0.6661536,5.34795 1.3316087,10.68108 1.7016461,16.05233 -0.1403251,1.10298 -0.7444764,2.11717 -0.6518397,3.26072 -0.1517662,3.55074 0.096228,7.10416 0.088563,10.65648 0.1877997,11.77658 0.2066507,23.5578 -0.014838,35.33311 0.1307486,3.63682 0.6042395,7.25411 0.6470873,10.89649 0.1576033,5.59537 0.2286844,11.19556 0.6061933,16.78128 0.5732557,16.40163 0.9032187,32.81108 1.1505017,49.22048 0.170539,17.41602 0.230933,34.83296 0.334337,52.24946 0.0501,8.37804 -0.02302,16.75753 0.114083,25.1346 0.329278,11.7697 1.457283,23.49193 1.493756,35.27215 0.150956,10.35329 0.235442,20.70921 0.671329,31.05568 0.317766,12.32482 -0.476567,24.64141 -0.504,36.96514 -0.149563,14.72226 -0.423863,29.4447 -0.355466,44.16811 0.05664,8.47525 0.451693,16.94225 0.806432,25.40855 0.235998,7.09994 0.576494,14.19582 0.904774,21.29157 0.487993,14.21699 0.433493,28.44538 0.785189,42.66547 0.232842,18.62686 -0.279076,37.25172 -0.389455,55.87764 -0.09429,8.5583 -0.09678,17.11846 -0.166688,25.67613 -0.223752,3.6216 -0.614287,7.29356 -0.688283,10.94971 -0.09612,2.76173 -0.433786,5.5882 -0.532155,8.37939 0.03874,1.95187 1.326575,4.01151 3.373047,4.29688 0.619146,0.15676 1.353506,-0.17488 1.804687,0.39844 0.956118,0.81941 2.216842,1.06126 3.441933,1.0472 4.661728,0.19478 9.331602,0.19902 13.989708,0.46647 8.013675,-1.02824 16.089001,-1.03652 24.162839,-0.96873 5.084239,0.002 10.160845,0.34807 15.243708,0.44695 6.481291,0.17282 12.944039,0.22981 19.382744,1.02356 4.014469,0.27876 8.094261,-0.0183 12.043751,0.89941 3.55505,0.4536 7.14738,0.14513 10.71573,0.07 5.66564,-0.32006 11.333,-0.70417 16.99486,-1.03896 3.0523,-0.3027 6.06259,-0.71482 9.13892,-0.71622 2.82304,-0.0701 5.70261,-0.33067 8.45059,-0.54252 7.12572,-0.37575 14.3673,0.14999 21.52941,-0.34209 9.07462,-0.72275 18.18047,-0.16557 27.26334,0.0777 3.74533,0.18944 7.52678,0.54858 11.30492,0.49255 3.98895,0.0583 7.95084,0.63016 11.93545,0.99185 6.95229,0.51742 13.93169,0.41593 20.89219,0.76954 9.59785,0.33728 19.20409,0.514 28.80657,0.27635 7.8264,-0.13793 15.65906,-0.14732 23.47865,-0.51266 2.45396,-0.2227 4.85042,-0.89585 7.32676,-0.91226 4.80069,-0.21222 9.72388,-0.0889 14.57371,-0.12258 3.54476,-0.0147 7.02678,0.008 10.52683,0.61744 1.49721,0.22403 3.00932,0.0648 4.47708,-0.2559 4.60933,-0.59659 9.26914,-0.32614 13.90265,-0.47092 5.38686,-0.12135 10.76691,-0.48046 16.15694,-0.47874 7.33631,-0.12954 14.62225,-1.09669 21.94346,-1.51236 16.7049,-0.81908 33.4841,-1.04183 50.22548,-1.28735 3.74075,-0.0136 7.4757,-0.22941 11.20283,-0.52277 3.36817,-0.10586 6.74798,-0.16437 10.08168,-0.70004 2.15517,-0.23986 4.47921,-0.14721 6.42836,-1.22468 1.5644,-1.07567 1.8493,-3.14027 1.75266,-4.89648 -0.0122,-4.8392 -0.25042,-9.6748 -0.35436,-14.51255 -0.0404,-2.15068 -0.17972,-4.32515 0.0348,-6.46261 0.40462,-1.15552 0.8143,-2.33837 0.71355,-3.58287 0.12265,-4.44671 0.12927,-8.90432 0.48434,-13.3095 0.3761,-6.39145 0.21404,-12.8029 0.57903,-19.19444 0.19383,-8.43084 -0.16248,-16.89469 0.54761,-25.2861 0.45274,-8.39602 0.47718,-16.80939 0.84887,-25.2089 0.11225,-5.57953 0.008,-11.16843 -0.51806,-16.72557 -0.10139,-4.29201 -0.47851,-8.56789 -0.94389,-12.83413 -0.45001,-4.08895 -0.71244,-8.13445 -0.77016,-12.24416 -0.42866,-13.75051 -0.33079,-27.51267 0.10865,-41.26156 0.34549,-14.5412 0.34554,-29.0893 0.83478,-43.62741 0.214,-8.21043 0.57291,-16.41627 0.86441,-24.62375 0.2876,-13.75834 -0.40324,-27.51159 -0.42193,-41.26934 -0.31275,-33.36865 -0.38077,-66.73913 -0.38119,-100.10906 0.0217,-23.06312 0.25582,-46.1309 -0.30197,-69.18981 -0.29019,-11.62874 -0.97858,-23.24305 -1.25181,-34.87241 -0.35104,-11.84147 -0.53561,-23.68956 -1.14373,-35.52177 -0.321,-6.75697 -0.0811,-13.52129 -0.20237,-20.28188 -0.142,-10.98558 -0.33965,-21.97141 -0.23959,-32.95834 0.0562,-11.73931 2.7e-4,-23.47879 -0.18302,-35.21681 -0.28914,-21.88568 -0.41294,-43.77474 -1.00478,-65.65521 -0.2914,-11.30095 -0.63275,-22.60241 -0.59292,-33.908467 0.006,-12.643392 0.19082,-25.287531 0.55688,-37.92546 0.29662,-8.588931 1.81064,-17.168559 1.67244,-25.803005 0.0397,-3.502984 0.11839,-6.995342 0.50157,-10.464198 0.123,-1.589586 1.19427,-3.019414 0.97336,-4.663688 -0.21998,-3.257619 -3.34529,-6.0136319 -6.61867,-5.7019531 -4.5714,0.055955 -9.14737,0.2912707 -13.71434,-0.044199 C 439.69196,8.8331394 433.60968,8.6765253 427.54367,8.2753447 424.8515,8.1455542 422.15351,8.0729437 419.48672,7.6450793 415.54737,7.1962617 411.56979,7.3036487 407.61144,7.2105946 400.75488,7.2074216 393.90542,6.8934421 387.05688,6.5998228 371.29263,6.1736402 355.5166,6.1686297 339.76083,5.4474891 323.32637,5.0403483 306.88538,5.0530948 290.44707,4.9706695 282.1904,4.9477035 273.93332,4.9305475 265.6767,4.9731195 Z M 231.67866,17.63132 c -0.1,3.707355 -0.64008,7.384506 -0.89763,11.082017 -0.4023,5.269374 -1.21265,10.497093 -1.52522,15.774236 -0.32372,5.298615 -0.72412,10.595221 -0.75351,15.906289 -0.23652,19.954827 -0.51701,39.919988 0.21905,59.868288 0.18789,10.41486 0.36192,20.83034 0.61031,31.24401 0.33425,21.26372 0.31088,42.53213 0.77938,63.79388 0.023,6.09559 -0.15275,12.1904 -0.0957,18.28636 0.0142,16.65712 0.14082,33.3149 0.43879,49.96931 0.26081,9.64505 0.5896,19.28834 0.73677,28.93617 0.0796,3.75465 0.14265,7.50961 0.21236,11.26444 -2.50399,-1.73319 -5.03573,-3.78874 -8.18174,-4.11023 -2.15903,-0.36421 -4.24821,-0.51539 -6.30068,-1.13196 -3.19937,-0.50936 -6.47161,-0.22446 -9.66872,-0.71435 -1.56087,-0.61333 -2.7728,-1.94471 -4.4537,-2.2969 -2.67382,-0.97015 -5.40174,-1.8149 -8.19285,-2.36437 -1.27485,-0.63035 -2.69396,-0.76891 -4.09474,-0.79075 -4.23238,-0.28133 -8.44483,-0.30972 -12.64859,-0.84535 -0.0996,-2.83232 1.41713,-5.35637 2.09571,-8.03515 1.01425,-3.40856 1.35717,-6.9599 1.78332,-10.47389 0.57158,-2.76154 1.48523,-5.46099 2.10135,-8.18104 0.70365,-2.73113 1.38804,-5.47249 1.82431,-8.26109 2.76071,0.0929 5.54234,0.4402 8.29629,0.12755 2.13683,-0.41998 4.15145,-1.29197 6.16576,-2.08414 2.18216,-1.19479 3.88383,-3.0561 5.81725,-4.59028 2.60952,-2.31571 4.78222,-5.11495 6.43924,-8.18024 0.65021,-1.29955 0.98589,-2.71912 1.541,-4.05669 0.46252,-1.12046 0.27585,-2.36451 0.75987,-3.47637 0.59747,-1.82459 0.89412,-3.72824 1.43957,-5.5699 0.59306,-2.19293 0.85976,-4.46328 0.7263,-6.73313 -0.034,-3.86696 -0.371,-7.72715 -0.99445,-11.54259 -0.27392,-2.52169 -1.29476,-4.86436 -2.33173,-7.14907 -0.59838,-1.66183 -1.46539,-3.31052 -2.98673,-4.30218 -0.88848,-0.6529 -1.90283,-1.10184 -2.86261,-1.63632 0.51743,-3.37202 0.39229,-6.80016 0.49984,-10.20087 0.10248,-8.68352 0.0259,-17.38132 -0.63049,-26.04351 -0.42385,-4.45746 -0.62893,-8.88284 -0.83216,-13.34893 -0.14182,-2.7788 -0.55103,-5.53219 -0.86014,-8.29388 -0.47577,-3.3471 -1.56424,-6.56648 -2.16781,-9.89028 -0.36965,-1.1857 -0.49248,-2.41989 -0.64791,-3.64831 -0.4354,-1.74441 -1.14802,-3.42233 -1.66406,-5.16992 -0.73047,-1.86483 -2.42414,-3.33815 -2.51886,-5.43607 -0.46208,-2.45172 -1.62629,-4.70503 -2.76511,-6.8979 -2.10049,-3.27187 -5.31488,-5.7154 -7.0621,-9.23364 -1.64588,-2.76848 -4.16025,-4.90715 -5.63699,-7.79087 -1.43138,-2.43419 -2.25147,-5.31939 -4.42564,-7.24478 -0.77035,-0.5624 -1.54838,-1.09989 -2.28087,-1.71621 -2.1874,-1.6546 -4.77503,-2.670674 -7.04339,-4.205064 -3.44002,-2.429209 -6.97851,-4.804722 -10.89985,-6.393435 -1.89682,-0.57001 -3.94784,-0.01388 -5.73163,-1.009209 -4.00931,-1.529589 -7.93012,-3.445652 -12.21605,-4.083678 -3.27189,-0.615632 -6.6451,-0.477526 -9.8824,-1.307504 -3.52417,-0.814566 -7.07712,-1.77191 -10.72851,-1.615556 -4.3294,0.0052 -8.71925,-0.187895 -12.96612,0.813798 -3.79398,0.754923 -7.688215,1.363678 -11.174097,3.138219 -3.259911,1.186492 -6.658576,1.998628 -9.973945,3.090587 -4.528271,1.428824 -8.971106,3.306026 -12.874208,6.040941 -1.811986,1.265535 -3.283184,2.982859 -5.27354,3.997481 -2.106794,1.21609 -4.477602,1.97662 -6.371006,3.54872 -1.61594,1.29353 -3.630287,2.25878 -4.597874,4.19298 -0.536508,1.16304 -0.96772,2.38312 -1.723073,3.43737 -0.796798,1.25381 -1.816859,2.51793 -2.92505,3.5957 -1.346543,1.70881 -2.613028,3.48138 -3.904867,5.23264 -2.165952,3.04456 -3.990577,6.32395 -5.562514,9.70923 -0.585248,1.25978 -0.721335,2.64916 -0.717727,4.01903 -0.226925,1.72905 -1.240197,3.21365 -1.737058,4.8662 -1.761539,4.79192 -3.113527,9.72017 -4.675985,14.57722 -0.944177,3.81001 -1.062479,7.75674 -1.511757,11.64141 -0.385838,5.79969 -0.218151,11.61839 -0.239701,17.42692 0.0176,4.34194 0.302622,8.67399 0.661169,12.99876 0.387781,5.64829 0.467023,11.33914 1.251224,16.95856 0.11664,0.70188 0.253267,1.40065 0.353232,2.10518 -2.672438,0.6215 -4.5476,2.79977 -6.439453,4.625 -2.105381,2.16132 -3.861288,4.71891 -4.71875,7.63672 -1.237429,3.81172 -1.046028,7.87338 -1.239517,11.82596 -0.03871,3.36623 -0.198329,6.74423 0.03241,10.1042 0.433167,3.14525 1.677206,6.10881 2.932668,8.99948 1.092293,2.05462 2.19249,4.11067 3.380327,6.11088 1.965678,3.05654 4.420269,5.84661 7.366531,7.9872 3.778261,2.4599 8.363751,3.17502 12.78612,3.37793 1.209241,0.0916 2.421071,0.1953 3.612555,0.42833 0.935184,2.7814 2.217742,5.70124 2.074219,8.75391 0.150129,4.10709 2.156283,7.79843 3.267578,11.64844 0.989727,3.46999 1.716121,7.06284 1.829055,10.70618 0.06997,1.01484 0.149535,2.03123 0.325242,3.03405 -5.710609,0.84366 -11.442386,1.69058 -16.989615,3.3302 -3.614272,0.96563 -7.290826,1.66619 -10.957544,2.37073 -2.589592,0.81328 -5.108151,1.89774 -7.814307,2.28663 -1.374992,0.24816 -2.757967,0.4593 -4.119393,0.77612 -0.180873,-13.5383 -0.400689,-27.07676 -0.852811,-40.60908 -0.164024,-5.84606 -0.26154,-11.73032 -1.268227,-17.50382 -0.697678,-3.06839 -0.540891,-6.16294 -0.763245,-9.29297 -0.525783,-11.62733 -1.172818,-23.25647 -1.118333,-34.89998 0.0063,-11.03073 -0.04976,-22.06606 0.342257,-33.09151 0.341875,-7.55675 0.831514,-15.12038 1.368954,-22.69196 0.213077,-4.60016 0.369577,-9.17256 0.85965,-13.74761 0.379466,-6.79739 0.593825,-13.58307 1.314567,-20.35448 0.460208,-5.73779 0.26145,-11.51167 0.744184,-17.23257 0.25243,-3.53394 0.512974,-7.06695 0.552934,-10.611225 0.3946,-18.942503 1.100601,-37.878865 2.154096,-56.796323 0.35758,-7.732133 0.239658,-15.51274 0.820662,-23.213375 -0.110648,-0.657177 0.365402,-0.680913 0.8914,-0.60643 4.805429,-0.002 9.566588,0.374529 14.353998,0.774227 3.673915,0.07938 7.345111,-0.46007 11.016286,-0.116091 2.93984,0.109034 5.838476,0.278576 8.768248,0.603243 4.92319,0.288486 9.860346,0.182465 14.78998,0.22909 9.116762,0.02656 18.235416,0.05118 27.348781,-0.233282 6.5722,-0.09503 13.14761,0.06577 19.71825,-0.03576 4.45045,-0.301499 8.84712,-0.893282 13.28874,-0.83289 10.20313,-0.206075 20.40921,-0.314755 30.60948,-0.632505 9.26286,-0.385992 18.52261,-0.918596 27.79623,-0.953994 12.08899,-0.184682 24.18531,-0.06522 36.26881,-0.495794 0.39144,0.08829 1.31489,-0.396207 1.12196,0.334906 10e-4,0.14011 0.003,0.28022 0.004,0.42033 z m 120.79687,69.064453 c 3.50595,-0.02199 6.87908,0.130581 10.32032,0.931641 3.2101,0.675883 6.40374,1.715815 9.72461,1.552734 1.84912,-0.02138 3.63382,0.672214 5.39566,0.989977 2.76749,0.600712 5.41665,1.911238 8.08996,2.930172 1.33454,0.549757 2.65801,1.198379 4.12953,1.247739 1.60911,0.158168 3.28677,0.202438 4.71573,1.129269 2.40873,1.187178 4.57104,2.759172 6.90023,4.077409 0.66025,0.638056 1.36251,1.227866 2.19201,1.628806 1.53296,1.01338 3.26319,1.67114 4.77968,2.71378 1.67977,0.83242 2.94981,2.26889 4.22558,3.60969 1.56141,1.65247 2.1459,3.92566 3.33686,5.82114 0.84059,1.64879 1.8439,3.23419 3.22694,4.48483 1.4758,1.53334 2.43976,3.44251 3.55165,5.23064 1.87302,2.7978 4.71872,4.86676 6.25976,7.8925 0.70016,1.82166 1.81454,3.5295 1.93296,5.52674 0.10645,1.2985 0.69442,2.47199 1.44118,3.51418 0.73923,1.05584 1.2611,2.23663 1.57916,3.48045 0.7249,1.94888 1.27041,3.96265 1.52027,6.02792 0.54906,2.83121 1.06186,5.67185 1.8739,8.44179 0.50895,1.99703 0.50734,4.07155 0.8582,6.09683 0.71196,4.75813 0.58083,9.5858 1.00244,14.36986 0.21863,2.61799 0.5299,5.261 0.60383,7.86416 0.39558,8.26628 0.45335,16.54683 0.34736,24.82056 -0.053,2.22546 -0.27132,4.50018 -0.66993,6.7207 0.0387,1.47482 1.52853,2.20244 2.68525,2.74161 1.60895,0.79981 3.0176,2.12948 3.54022,3.88873 0.50765,1.4143 1.27009,2.73781 1.68538,4.17838 0.57065,2.47387 0.80878,5.0084 1.14784,7.51802 0.21782,3.19541 0.50986,6.4201 0.0837,9.61962 -0.58052,3.68845 -2.0328,7.18271 -2.51544,10.88762 -0.41088,1.21614 -0.90662,2.40679 -1.29781,3.63327 -0.22695,0.74474 -0.73107,1.36531 -1.16508,1.97416 -0.27421,0.80074 -1.02465,1.32954 -1.36896,2.09767 -1.53646,1.71832 -3.29798,3.2285 -4.98782,4.75617 -1.49914,1.26632 -3.01029,2.74265 -4.92956,3.42387 -2.13153,0.89965 -4.42046,1.57058 -6.75724,1.37486 -1.91337,-0.0779 -3.86585,-0.23891 -5.79627,-0.42406 -1.10355,-0.0844 -2.04299,0.84534 -2.07057,1.93299 -0.0532,1.58321 -0.59335,3.09002 -0.88348,4.64059 -0.59573,2.7257 -1.35393,5.41397 -2.12147,8.09224 -0.19894,1.41845 -0.69248,2.76737 -1.00037,4.1569 -0.30957,1.83156 -0.18081,3.71673 -0.56515,5.38228 -0.69241,3.24657 -1.5663,6.45461 -2.64495,9.59609 -0.52304,1.89983 -1.16387,4.02016 -0.38427,5.93565 0.71731,1.27484 2.34961,1.14935 3.59786,1.32737 4.42439,0.4801 8.9139,0.47083 13.3151,0.8599 1.06591,0.44559 2.15885,0.85548 3.32957,0.87287 1.68813,0.35031 3.26019,1.09748 4.93175,1.51532 1.47171,0.4061 2.94349,0.97103 4.10701,2.00118 1.25244,0.89535 2.80097,1.19182 4.31415,1.1642 2.9798,0.17662 6.0383,-0.0391 8.92158,0.87621 0.37803,0.19956 1.22317,-0.0493 1.16171,0.50664 0.17699,6.39516 0.0116,12.80159 0.46845,19.18699 0.6655,16.96011 0.46587,33.93773 0.35669,50.90603 -0.0531,6.67184 -0.1914,13.34529 -0.21298,20.01587 0.009,0.91845 0.26283,1.89485 0.13914,2.77287 -0.48252,0.47893 -0.64782,1.18312 -0.66016,1.84375 -13.05883,-0.0459 -26.11827,-0.006 -39.17734,-0.0195 -56.89466,0 -113.78932,0 -170.68399,0 -0.0347,-22.69727 0.0588,-45.39566 -0.17304,-68.09195 -0.14551,-5.65565 -0.66732,-11.32725 -0.0887,-16.97555 0.11382,-1.78317 0.18859,-3.56835 0.25004,-5.35438 1.89152,-0.51938 3.91143,-0.42044 5.75606,-1.1493 2.06467,-0.61534 4.23917,-1.20162 5.86113,-2.70617 1.1725,-0.95596 2.7687,-0.89316 4.17568,-1.21643 2.44472,-0.32308 4.81217,-1.01103 7.14351,-1.79412 2.17409,-0.75012 4.42053,-1.2432 6.68862,-1.59882 6.11033,-1.24403 12.03464,-3.37515 18.25593,-4.07275 2.13038,-0.32122 4.28743,-0.55503 6.37493,-1.08936 0.98718,-0.38591 1.47426,-1.65058 0.9574,-2.58448 -0.57212,-3.11204 -0.34664,-6.32058 -1.07892,-9.41196 -0.56337,-2.76331 -1.39957,-5.46582 -2.07574,-8.19887 -0.5531,-0.88283 -0.93193,-1.84116 -1.16983,-2.85491 -0.36197,-1.41148 -0.84845,-2.79832 -1.16568,-4.21536 -0.0891,-1.54588 0.27186,-3.16041 -0.35362,-4.63791 -0.47485,-1.94169 -1.25923,-3.79935 -1.62532,-5.76839 -0.49525,-1.41762 -2.07565,-2.04488 -3.47307,-2.06176 -3.39895,-0.44375 -6.94258,-0.16282 -10.19075,-1.4399 -2.16644,-0.68066 -4.22853,-1.70535 -5.81079,-3.21904 -1.36364,-1.33922 -2.86446,-2.58669 -3.8599,-4.24227 -0.57559,-0.56627 -0.81602,-1.333 -1.32956,-1.94523 -0.62181,-1.1723 -1.06522,-2.43869 -1.85148,-3.51856 -0.61428,-1.01638 -1.18414,-2.08252 -1.56489,-3.23038 -0.80347,-2.1095 -1.72364,-4.28398 -2.04213,-6.56061 -0.22167,-5.51871 -0.10189,-11.05095 0.24045,-16.56105 0.2734,-2.40383 0.91534,-4.72315 1.91271,-6.88411 0.7494,-1.48066 1.90453,-2.67237 3.09941,-3.79618 1.44082,-1.42133 2.85262,-3.04481 4.77618,-3.7946 1.00564,-0.006 2.30971,-0.45623 2.3762,-1.63133 0.11803,-2.22891 -0.83041,-4.34581 -0.79976,-6.5726 -0.51408,-6.86718 -0.76937,-13.75287 -1.35972,-20.61401 -0.27146,-7.51016 -0.2884,-15.03369 0.0146,-22.54225 0.28023,-3.27554 0.59529,-6.53043 1.03241,-9.79041 0.62881,-3.2645 1.83264,-6.34575 2.74343,-9.5338 1.05895,-3.44487 2.1868,-6.87858 3.70071,-10.15374 0.69696,-1.83213 0.21461,-3.93171 1.07759,-5.7024 1.32497,-2.08492 2.20352,-4.41953 3.59589,-6.46353 0.84064,-1.62607 2.1627,-2.92647 3.12962,-4.46486 1.55987,-2.40226 3.72986,-4.33759 5.28769,-6.73344 1.57448,-1.41651 1.38545,-4.00001 3.23199,-5.18694 0.807,-0.73769 1.74059,-1.31222 2.67098,-1.86267 1.62155,-1.5455 3.76725,-2.27173 5.79144,-3.11528 0.71769,-0.39542 1.41167,-0.87701 2.05551,-1.39379 0.47718,-0.67941 1.22605,-1.02893 1.88705,-1.49235 1.94444,-1.880583 4.2358,-3.391662 6.7392,-4.417628 1.79972,-0.983256 3.76513,-1.59333 5.6714,-2.317845 0.95317,-0.499227 1.9909,-0.765561 3.04364,-0.935301 1.76821,-0.472862 3.4971,-1.333273 5.25351,-1.594387 2.47811,-0.694436 4.86607,-1.674473 7.23394,-2.665661 2.57634,-0.731877 5.26439,-0.962012 7.86534,-1.59723 2.69481,-0.626731 5.47079,-0.56097 8.21833,-0.583995 z m 51.10938,89.917967 c -4.3843,0.0345 -8.74349,0.71942 -12.9598,1.90851 -3.00909,0.7671 -6.09972,1.38948 -8.87215,2.845 -1.64947,0.74328 -3.40401,1.22486 -5.00303,2.08714 -1.23689,0.65849 -2.78241,0.8216 -3.69084,1.99692 -1.22336,1.3321 -1.62756,3.6369 -0.27827,5.02706 1.08321,1.34468 2.42594,2.45666 3.61659,3.69592 1.01891,0.67337 2.28225,0.17574 3.41209,0.36404 3.30742,0.14505 6.69502,0.53763 10.04689,0.53049 1.6684,0.24291 3.32745,0.57527 5.02292,0.55777 1.94544,0.0565 3.85106,0.23739 5.79267,0.46075 2.48659,0.0397 5.12067,0.12 7.41488,-0.98141 0.56074,-0.37082 1.15984,-0.78291 1.86524,-0.63086 1.24905,-0.0155 2.2535,-1.07516 2.39581,-2.28283 0.45942,-1.68664 0.56327,-3.4785 1.31872,-5.07569 0.64046,-2.27561 -0.65766,-4.57028 -2.29234,-6.07948 -1.45629,-1.55488 -2.9585,-3.18324 -4.89499,-4.12961 -0.93483,-0.28494 -1.92407,-0.31507 -2.89439,-0.29372 z m -77.38672,1.49414 c -4.27456,0.12322 -8.59912,0.0538 -12.78711,1.04297 -1.77421,0.32918 -3.38264,1.22572 -5.17985,1.4661 -2.15115,0.40176 -4.28326,0.95988 -6.24203,1.95773 -2.29145,1.06923 -4.68717,2.35179 -6.08519,4.53989 -0.98768,1.85599 -0.33538,4.09921 0.68871,5.79214 0.76082,1.22028 2.06932,1.97251 3.45761,2.24517 2.59666,0.87754 5.29753,1.49868 8.05078,1.50263 3.51981,0.15628 7.0069,0.20362 10.49895,0.4636 3.88639,0.0815 7.80714,-0.16057 11.60817,-0.99649 1.94297,-0.60198 4.00719,-0.85129 5.81428,-1.84051 0.73136,-0.33984 1.35787,-0.88262 2.18154,-0.96229 1.88754,-0.54345 3.33837,-2.5988 2.78691,-4.56787 -1.02349,-3.35248 -3.4889,-6.24213 -6.68953,-7.69986 -2.5548,-1.32877 -5.32833,-2.22383 -8.10324,-2.94321 z m -157.23828,1.36329 c 1.84922,-0.0913 2.92813,1.62997 4.17088,2.70293 1.05232,1.12921 2.31734,2.26292 2.70021,3.80878 -0.19838,0.70329 -0.75872,1.26126 -0.84791,2.06107 -0.31308,1.13606 -0.29236,2.34948 -0.73217,3.45261 -0.90057,-0.18571 -1.77031,0.16598 -2.46998,0.71445 -0.93888,0.64614 -2.04823,1.10089 -3.20495,0.95194 -1.77966,0.10587 -3.54715,-0.10067 -5.30378,-0.35695 -3.63937,-0.3496 -7.25616,-0.41559 -10.88863,-0.75008 -3.34565,-0.24952 -6.70781,-0.35323 -10.04477,-0.66679 -0.68211,-0.41728 -0.68388,-1.43269 -1.48437,-1.75 -0.53692,-0.27897 -1.21346,-0.59345 -1.16016,-1.30468 -0.0943,-0.68482 0.34139,-1.46385 1.10015,-1.42757 1.85367,-0.52437 3.42964,-1.72925 5.29643,-2.22272 2.53489,-0.99675 4.92367,-2.16067 7.59385,-2.71674 4.64218,-1.28148 9.44301,-2.44292 14.22794,-2.46512 0.34895,-0.0156 0.69797,-0.0269 1.04726,-0.0311 z m -79.414065,1.5996 c 2.908456,0.0969 5.686455,1.42003 8.220703,2.58985 2.217156,1.24816 4.139162,2.96547 5.080092,5.371 0.24828,0.59587 0.16024,1.63627 -0.69371,1.59617 -0.89492,0.0822 -1.69314,0.47839 -2.423253,0.97057 -0.871804,0.28999 -1.717759,0.64553 -2.570551,0.97827 -1.126401,0.18986 -2.24098,0.41153 -3.330078,0.76172 -2.941122,0.64367 -5.961642,0.68453 -8.92538,0.77636 -2.380872,0.0823 -4.716195,-0.38874 -7.121495,-0.37206 -2.909624,-0.0796 -5.862209,0.13687 -8.733908,-0.42022 -1.476351,-0.38564 -2.94311,-0.81914 -4.402811,-1.25752 -1.129073,-0.3637 -1.296625,-1.63773 -1.511719,-2.63085 -0.190327,-1.09134 0.965113,-1.66353 1.639542,-2.2911 1.49941,-1.15078 3.250816,-1.98153 4.958114,-2.64055 2.599765,-0.8495 5.348861,-1.18678 7.889143,-2.22116 2.882689,-0.79786 5.911075,-1.12054 8.929014,-1.14854 0.998519,-0.0309 1.997536,-0.0413 2.996297,-0.0619 z m 274.986325,24.56836 c -1.74122,-0.0537 -3.60187,0.46309 -4.72964,1.86829 -1.49958,1.4216 -3.05809,2.88041 -4.04575,4.71179 -0.40995,1.88647 -0.31862,3.9107 0.30544,5.73735 0.86496,2.00084 2.85779,3.13802 4.59684,4.28396 1.49646,0.94448 3.33907,0.91748 5.00851,0.54959 2.85493,-0.63006 5.42447,-2.49083 6.94273,-4.97715 0.43924,-1.21145 0.10747,-2.52919 0.29492,-3.7832 0.12038,-1.89941 -0.0793,-3.95619 -1.34961,-5.47266 -1.3583,-1.87575 -3.65519,-3.01527 -5.97567,-2.90675 -0.34878,-0.0277 -0.69839,-0.009 -1.04777,-0.0112 z m -19.77539,0.51954 c -2.08488,0.0323 -4.52019,0.0396 -6.02148,1.73242 -1.88518,1.87945 -3.19439,4.76275 -2.2927,7.41038 0.78742,1.9415 2.44816,3.34968 4.0021,4.6727 2.13521,1.40922 4.82457,1.47098 7.294,1.37279 1.78231,-0.18226 3.42393,-1.32176 4.16,-2.96605 0.98438,-1.63749 1.07372,-3.60435 0.89833,-5.45688 -0.0522,-1.50344 -0.61549,-2.97093 -1.63949,-4.0791 -0.86085,-1.26038 -2.05601,-2.57492 -3.70672,-2.58343 -0.89188,-0.1239 -1.79545,-0.12332 -2.69404,-0.10283 z m -214.04101,2.4707 c 0.85318,-0.0565 1.79914,0.071 2.33404,0.81579 0.8305,0.73714 1.8117,1.62229 1.65761,2.85057 0.0691,1.41056 0.25127,2.9124 -0.16157,4.31215 -0.721,1.24013 -1.99669,2.0363 -3.16586,2.80297 -1.3332,0.66233 -2.93262,0.8739 -4.37125,0.4861 -0.64431,-0.54588 -1.14138,-1.28227 -1.96541,-1.59247 -0.66336,-0.45524 -1.25165,-0.94923 -1.71428,-1.54621 0.0169,-1.2909 0.008,-2.58339 0.01,-3.875 1.41732,-1.41731 2.83464,-2.83463 4.25196,-4.25195 1.04165,-0.004 2.08344,0.007 3.125,-0.002 z m -21.76563,0.4414 c 1.25131,0.1345 2.60868,-0.18223 3.78409,0.32015 0.56001,0.7038 0.85365,1.59205 1.51349,2.22857 0.65947,0.92568 0.4426,2.1275 0.46007,3.1955 -0.10047,1.31897 -0.53594,2.89127 -1.80668,3.51429 -1.11881,0.20084 -2.27442,0.0869 -3.40336,0.0644 -1.51512,-0.19008 -3.03495,-0.89496 -4.01831,-2.06902 -0.24281,-0.67872 -0.7501,-1.16866 -1.25781,-1.64648 -0.62326,-0.75202 -0.43952,-1.76989 -0.0547,-2.58008 0.55252,-1.24804 1.58999,-2.30097 2.80273,-2.90235 0.6481,-0.15979 1.31991,-0.1003 1.98047,-0.125 z m 242.95313,23.0586 c -0.62999,0.17968 -1.0298,0.89415 -1.5387,1.3207 -0.65265,0.7052 -1.44127,1.31089 -2.39081,1.53022 -2.54717,1.22205 -4.06269,3.72274 -5.59588,5.97134 -1.07339,1.43024 -2.37114,2.68584 -3.27228,4.24561 -1.59788,2.59985 -2.91336,5.39864 -3.76778,8.3309 -1.52609,5.71911 -1.21058,11.69539 -1.3149,17.55629 -0.0418,4.01144 0.0142,8.07607 1.0837,11.97202 0.54725,2.51674 1.1786,5.09432 2.71607,7.21477 1.31417,2.07031 3.06775,3.93909 5.35182,4.92773 1.36199,0.63802 2.78832,1.18284 4.23282,1.57592 3.22306,0.26038 6.7605,0.32627 9.54535,-1.58195 1.69731,-0.94591 3.29241,-2.08987 4.55928,-3.57756 1.28677,-1.40537 2.48515,-2.97287 3.05045,-4.8128 0.80776,-1.55388 1.88719,-2.95494 2.62193,-4.55305 1.05578,-2.03705 1.81176,-4.24077 2.13422,-6.51211 0.77252,-1.77505 1.72479,-3.48726 2.1663,-5.39007 0.36681,-1.23205 0.37198,-2.53849 0.60204,-3.78353 0.49788,-1.71259 0.76471,-3.48771 1.01363,-5.25084 0.16966,-2.65233 0.1079,-5.31395 0.21278,-7.96978 0.0336,-3.14718 0.20966,-6.30306 0.045,-9.44623 -0.41455,-2.63378 -2.28759,-4.697 -3.95701,-6.64973 -1.54829,-1.72552 -3.34282,-3.41431 -5.66221,-3.97444 -2.59956,-0.76194 -5.27809,-1.41305 -8.00877,-1.25933 -1.2757,0.0386 -2.5514,0.0773 -3.82709,0.11592 z m -230.1836,2.7832 c 2.55387,0.0812 5.1359,0.63036 7.41993,1.78906 1.95806,1.27678 3.38545,3.17508 4.94099,4.88211 1.08808,1.41119 1.24963,3.25012 1.17063,4.96865 0.0256,4.95053 -0.24069,9.93733 -0.59095,14.84217 -0.29198,2.62229 -0.68843,5.2168 -1.20945,7.79757 -0.41274,1.80719 -1.25064,3.4741 -2.00063,5.15055 -0.54769,2.15312 -0.87163,4.39829 -1.93847,6.38142 -0.88848,1.93995 -2.47184,3.48954 -3.11626,5.55175 -0.22156,0.9762 -0.99657,1.677 -1.48064,2.51287 -1.27143,1.4479 -2.68962,2.79758 -4.40695,3.69786 -1.02636,0.74164 -2.19288,1.27646 -3.46349,1.39818 -3.03792,0.50792 -6.22226,-0.19601 -8.78369,-1.89992 -1.00694,-0.64852 -2.02307,-1.64679 -2.68533,-2.74231 -0.95315,-1.3071 -2.0183,-2.65952 -2.18468,-4.32642 -0.82548,-3.22255 -1.77839,-6.49094 -1.62299,-9.86086 -0.0439,-5.3634 -0.12391,-10.76271 0.30791,-16.07819 0.38506,-3.06493 1.04298,-6.08448 2.46209,-8.82675 0.81292,-1.8238 1.82144,-3.5693 3.03745,-5.1479 1.44193,-1.39428 2.6514,-3.00329 3.62228,-4.75733 0.91501,-1.47715 2.43263,-2.48017 4.03788,-3.07274 0.99716,-0.5383 1.78436,-1.37028 2.58008,-2.16016 1.30143,-0.0331 2.60285,-0.0671 3.90429,-0.0996 z m 97.39453,187.8711 c 3.48612,0.0665 6.99239,-0.1093 10.46224,0.25375 0.80859,0.274 1.67965,0.30391 2.52409,0.23062 -0.38743,6.82814 -0.29427,13.6731 -0.35901,20.50974 -0.0528,24.0515 0.0743,48.103 0.17191,72.15425 0.0455,12.04756 0.17037,24.09507 0.31624,36.14144 -0.0716,9.10308 -0.77178,18.1871 -0.89564,27.28923 -0.0915,4.71457 -0.29283,9.42608 -0.45281,14.138 -0.15504,10.15788 -0.31916,20.31583 -0.64244,30.46999 -0.32947,15.23979 -0.23825,30.48555 -0.0506,45.72653 0.0572,3.88446 0.26628,7.76395 0.63998,11.63049 0.53613,7.10711 0.80804,14.23595 1.12738,21.36478 0.13619,7.82316 -0.47451,15.6324 -0.65952,23.44995 -0.18668,4.75432 -0.25234,9.47689 -0.77162,14.20177 -1.70744,-1.36845 -3.49521,-2.83851 -5.72737,-3.18863 -2.09696,-0.59892 -4.26684,-0.88416 -6.4233,-1.13116 -1.72978,-0.49053 -3.51926,-0.72327 -5.27769,-0.75056 -2.05888,-0.121 -4.09592,0.0236 -6.10875,-0.41402 -1.41829,-0.73069 -2.57595,-1.99302 -4.20328,-2.28608 -2.19035,-0.67386 -4.34645,-1.4891 -6.5643,-2.05572 -0.91829,-0.0966 -1.8655,-0.1969 -2.66307,-0.68185 -2.5756,-0.68705 -5.27287,-0.39859 -7.90181,-0.65434 -2.5197,-0.12659 -5.10086,-0.26126 -7.55816,-0.58959 0.18582,-2.89945 1.56203,-5.53604 2.21966,-8.33544 0.58024,-2.35843 1.17502,-4.73155 1.44245,-7.14894 0.0405,-1.52909 0.0983,-3.08188 0.67309,-4.52074 0.40974,-1.73738 0.71808,-3.50019 1.31331,-5.18771 0.87467,-3.068 1.55677,-6.18749 2.17375,-9.31694 2.11236,0.22616 4.24546,0.371 6.37305,0.35157 2.78447,-0.0775 5.40591,-1.18551 7.92187,-2.28516 2.5429,-1.51635 4.6116,-3.66969 6.8308,-5.60125 1.37433,-1.26613 2.74343,-2.57966 3.74537,-4.16256 0.59168,-0.63992 0.87101,-1.46053 1.40077,-2.14245 0.94472,-1.65473 1.34196,-3.54846 2.09142,-5.28905 0.34647,-1.30751 0.2848,-2.69708 0.7958,-3.96569 1.04444,-3.7992 2.23844,-7.65289 2.05574,-11.64093 -0.0318,-3.75807 -0.3741,-7.50695 -0.99285,-11.21336 -0.26944,-1.86985 -0.56633,-3.76969 -1.47752,-5.45334 -0.85435,-1.87557 -1.45155,-3.94089 -2.92847,-5.45415 -1.03485,-1.186 -2.49658,-1.83565 -3.83356,-2.60456 0.85511,-5.30409 0.54594,-10.69906 0.57895,-16.04874 -0.074,-7.65683 -0.17524,-15.3281 -0.98713,-22.9481 -0.42037,-5.23954 -0.31156,-10.59924 -1.1906,-15.82696 -0.2586,-2.46413 -0.51128,-4.9528 -1.31117,-7.31121 -0.73291,-3.01863 -1.20361,-6.09246 -1.80571,-9.13584 -0.47199,-1.8562 -1.09895,-3.6732 -1.78432,-5.45903 -0.47973,-1.25627 -1.30993,-2.32666 -1.96766,-3.47983 -0.38598,-1.27505 -0.33214,-2.65615 -0.88977,-3.88964 -0.56242,-1.39213 -1.19589,-2.7568 -1.80925,-4.1258 -1.88221,-3.43042 -5.27434,-5.73072 -7.12378,-9.1908 -1.08977,-2.26744 -2.90894,-4.0396 -4.5219,-5.92498 -1.50179,-2.30741 -2.52087,-4.88736 -3.93779,-7.23816 -1.26123,-1.75505 -2.87565,-3.23172 -4.51751,-4.62262 -1.13994,-0.81743 -2.42346,-1.39904 -3.60736,-2.14986 -0.98227,-0.51519 -1.98218,-0.96818 -2.88262,-1.61981 -1.11675,-0.60606 -1.90408,-1.70542 -3.13691,-2.13409 -2.73013,-1.66837 -5.38686,-3.59673 -8.47656,-4.54883 -1.90739,-0.49824 -4.00089,-0.1492 -5.77535,-1.13868 -2.63169,-1.05542 -5.23682,-2.20423 -7.94596,-3.04662 -1.74003,-0.43051 -3.48938,-0.83645 -5.23607,-1.23222 -2.06695,-0.32716 -4.22149,-0.0694 -6.16762,-0.47701 -4.91122,-1.23579 -9.92484,-2.35334 -15.02144,-2.18615 -4.06627,-0.0789 -8.18785,0.0162 -12.13433,1.09535 -2.68474,0.52788 -5.50295,0.71271 -7.964027,2.02015 -2.270376,0.95941 -4.622372,1.73917 -7.0286,2.25994 -1.455393,0.46745 -2.841012,1.15208 -4.371957,1.36189 -1.658023,0.36316 -3.133641,1.27243 -4.770301,1.7203 -2.096813,0.7487 -4.058734,1.8318 -6.073507,2.7707 -1.894169,1.04254 -3.520725,2.4977 -5.215917,3.80547 -0.999932,0.50754 -1.59466,1.5505 -2.595101,2.04815 -0.917125,0.65754 -2.093286,0.80085 -3.069044,1.36669 -1.45237,0.63886 -2.714482,1.61968 -3.984993,2.53771 -1.404627,0.787 -2.652995,1.8594 -3.744533,3.03434 -1.130129,1.30846 -1.175165,3.21069 -2.401157,4.45548 -0.794389,1.18183 -1.692188,2.28567 -2.657834,3.33625 -1.847266,2.08841 -3.302768,4.4885 -5.064655,6.64072 -1.417184,2.24726 -2.69047,4.58021 -3.867857,6.95932 -0.842279,1.20726 -1.449108,2.59076 -1.499213,4.08019 -0.123705,1.55486 -0.227709,3.17815 -1.045706,4.57071 -1.687322,3.85629 -2.792633,7.93308 -4.071825,11.93523 -0.961138,3.08347 -1.96344,6.18473 -2.228742,9.42283 -0.26937,2.90156 -0.622847,5.79882 -0.785504,8.70869 -0.241246,5.72901 -0.157225,11.46631 -0.111134,17.19849 0.03376,4.29431 0.472345,8.56669 0.756716,12.84755 0.325501,5.10583 0.434594,10.26475 1.101133,15.35421 0.119162,0.65346 0.253861,1.30404 0.367106,1.95852 -2.517749,0.71854 -4.244632,2.83246 -6.105942,4.53474 -2.101878,1.95171 -3.960964,4.29961 -4.704092,7.11982 -0.199117,0.6292 -0.405377,1.2573 -0.572779,1.89622 -0.158176,-12.5565 0.0075,-25.1142 0.05316,-37.67099 0.08135,-9.38789 0.04819,-18.77954 0.339078,-28.16367 0.56477,-10.43502 0.937994,-20.9035 0.317901,-31.34421 -0.270205,-14.08204 -0.100645,-28.17699 -0.790196,-42.24794 -0.606983,-8.69045 -1.30297,-17.35665 -1.114495,-26.07787 0.06212,-18.39469 -0.101182,-36.79049 0.08264,-55.18446 -0.0068,-0.55975 -0.08727,-1.30066 0.74807,-1.08478 3.866837,-0.18121 7.858117,0.0212 11.756012,0.36669 7.358089,0.46158 14.742805,0.18181 22.101979,0.65333 4.057981,0.25579 8.199171,0.21558 12.2902,0.29648 14.794503,0.11773 29.590252,0.069 44.384646,-0.0448 3.84793,-0.081 7.70433,-0.0746 11.54353,-0.35193 4.76477,-0.3788 9.60535,-0.38865 14.41053,-0.54232 10.8148,-0.23524 21.64516,-0.1806 32.43757,-1.00377 5.58123,-0.41873 11.1677,-0.57241 16.77452,-0.61871 9.74589,-0.11693 19.4927,-0.0986 29.23908,-0.12361 z m 133.35938,81.26757 c 3.50662,-0.022 6.8804,0.13042 10.32227,0.93164 3.2101,0.67589 6.40374,1.71582 9.72461,1.55274 1.78944,-0.0311 3.4648,0.63584 5.20117,0.94531 1.77389,0.35915 3.58712,1.05843 5.29624,1.77981 1.86871,0.68607 3.67341,1.555 5.55532,2.19285 2.11805,0.49632 4.47666,0.15768 6.36742,1.42425 2.37155,1.17845 4.50481,2.72979 6.80469,4.02503 0.65894,0.64305 1.36677,1.22763 2.19028,1.64033 1.52307,0.99431 3.23478,1.6443 4.73695,2.67421 1.42739,0.68752 2.52744,1.85694 3.64745,2.95147 1.30625,1.22449 2.13003,2.81821 2.86885,4.42265 1.02718,1.95488 1.95892,4.01299 3.44107,5.67528 1.77841,1.63626 3.04252,3.71163 4.21376,5.79925 1.87212,2.96466 4.87519,5.08213 6.48039,8.22551 0.70016,1.82166 1.81454,3.5295 1.93296,5.52674 0.10645,1.2985 0.69442,2.47199 1.44118,3.51418 0.73923,1.05584 1.2611,2.23663 1.57916,3.48045 0.7249,1.94888 1.27041,3.96264 1.52027,6.02792 0.54906,2.83121 1.06186,5.67185 1.8739,8.44178 0.50895,1.99704 0.50734,4.07155 0.8582,6.09684 0.71196,4.75813 0.58083,9.5858 1.00244,14.36986 0.21863,2.61799 0.5299,5.26099 0.60383,7.86416 0.39558,8.26628 0.45335,16.54683 0.34736,24.82056 -0.0526,2.22477 -0.27274,4.49841 -0.66797,6.71875 0.0331,1.47765 1.52617,2.20406 2.68329,2.74356 1.60895,0.79981 3.0176,2.12947 3.54022,3.88872 0.50765,1.41431 1.27009,2.73782 1.68538,4.17839 0.57036,2.47459 0.809,5.00967 1.14784,7.51997 0.21776,3.19477 0.50985,6.4188 0.0837,9.61767 -0.58052,3.68845 -2.0328,7.1827 -2.51544,10.88762 -0.42687,1.24573 -0.92158,2.4723 -1.33393,3.72652 -0.22338,0.71107 -0.71953,1.29448 -1.12896,1.88091 -0.27421,0.80074 -1.02465,1.32954 -1.36896,2.09767 -1.53646,1.71832 -3.29798,3.2285 -4.98782,4.75617 -1.49914,1.26632 -3.01029,2.74264 -4.92956,3.42387 -2.13153,0.89965 -4.42046,1.57058 -6.75724,1.37485 -1.91872,-0.0747 -3.87552,-0.24638 -5.81189,-0.42405 -1.10248,-0.0758 -2.04357,0.85829 -2.05512,1.94833 -0.062,1.60992 -0.60957,3.14558 -0.90623,4.72259 -0.58808,2.69328 -1.34183,5.34824 -2.09855,7.9949 -0.19894,1.41845 -0.69248,2.76737 -1.00037,4.1569 -0.30957,1.83155 -0.18081,3.71673 -0.56515,5.38228 -0.69241,3.24657 -1.5663,6.45461 -2.64495,9.59609 -0.52304,1.89983 -1.16387,4.02016 -0.38427,5.93565 0.71731,1.27484 2.34961,1.14934 3.59786,1.32737 4.42439,0.4801 8.9139,0.47083 13.3151,0.8599 1.06591,0.44559 2.15885,0.85548 3.32957,0.87287 1.58086,0.31052 3.13965,1.05772 4.61773,1.42323 1.43864,0.41795 2.93934,0.8389 4.05594,1.89663 1.38764,1.06625 3.16645,1.45398 4.8889,1.35988 2.83885,0.0208 5.6558,0.41029 8.45773,0.93759 1.32336,0.22275 2.64639,0.44914 3.9797,0.60532 -0.0208,0.74236 -0.0205,1.4865 -0.0879,2.22656 -2.34052,-0.33933 -4.67283,-0.74511 -7.01731,-1.04232 -1.32745,-0.42163 -2.70574,-0.58165 -4.09355,-0.61477 -1.55825,-0.10661 -3.16702,-8.2e-4 -4.69504,-0.1785 -1.83698,-1.26207 -3.75241,-2.46274 -5.88356,-3.15855 -1.90301,-0.73593 -3.8866,-1.23598 -5.88052,-1.63327 -3.12898,-1.00652 -6.46458,-0.71242 -9.69599,-0.99889 -3.29396,-0.17067 -6.65963,-0.73723 -10.00161,-0.76823 -0.50613,-0.11508 -1.24368,0.0651 -1.56445,-0.4082 -0.0489,-1.39584 0.12003,-2.83934 0.16786,-4.21548 0.12878,-2.47914 0.49917,-4.88256 1.42325,-7.21444 1.25421,-3.57281 2.03954,-7.30015 2.34631,-11.07336 0.29248,-2.54039 0.3797,-5.04815 1.05022,-7.52855 0.99882,-2.81237 2.23713,-5.56536 2.7244,-8.53011 0.49386,-1.64537 0.34322,-3.49048 1.36366,-4.95226 0.3085,-0.58035 0.83469,-0.91409 1.41648,-1.15767 0.60098,-0.32989 1.14876,-1.22862 1.92133,-0.76842 1.17858,0.58326 2.41258,1.0549 3.72664,1.21971 3.89844,0.57166 7.87395,-0.79063 11.07005,-2.97832 2.70098,-2.05953 4.18306,-5.21603 5.96424,-8.01873 1.63161,-2.81414 3.19219,-5.69648 4.32776,-8.7486 0.42418,-1.69866 0.66967,-3.43848 1.18017,-5.11716 0.55998,-2.13489 0.72547,-4.38437 0.53048,-6.54998 -0.17708,-4.03421 -0.68315,-8.07246 -1.66907,-11.98968 -0.52345,-1.26085 -1.05675,-2.53071 -1.72091,-3.7228 -0.76829,-1.34134 -2.18994,-2.30708 -3.76233,-2.3104 -0.83414,-0.1227 -1.90775,0.0374 -2.50758,-0.63608 -0.24253,-0.88471 -0.26296,-1.91899 -0.97093,-2.59439 0.18753,-0.80777 0.5846,-1.56377 0.74526,-2.38964 0.78151,-2.62274 1.32575,-5.33338 1.29362,-8.0809 0.0934,-6.92914 -0.0117,-13.86336 -0.32478,-20.78626 -0.12799,-2.97533 -0.3852,-5.94233 -0.79635,-8.89217 -1.08257,-8.86735 -0.64078,-17.99304 -3.28096,-26.61704 -0.7911,-2.25366 -0.84506,-4.6981 -1.68423,-6.93127 -1.12493,-2.35106 -2.25116,-4.71932 -2.91088,-7.25309 -0.39726,-1.56824 -0.70053,-3.16073 -1.34772,-4.65369 -0.36003,-1.13249 -0.75333,-2.26639 -1.52888,-3.19248 -1.85153,-2.50655 -4.2472,-4.5266 -5.89108,-7.18447 -1.14533,-2.4425 -2.98226,-4.45126 -4.81892,-6.39204 -0.55521,-1.01265 -1.01321,-2.16469 -2.06277,-2.7743 -1.76588,-1.41572 -3.42692,-2.98574 -4.88706,-4.71498 -1.13854,-1.69989 -2.83986,-2.86514 -4.40591,-4.13405 -1.3956,-1.12426 -2.9847,-1.96371 -4.62337,-2.66511 -1.70036,-0.94734 -3.4813,-1.74646 -5.20175,-2.64755 -1.60841,-1.04043 -3.3624,-1.90228 -5.26846,-2.20597 -1.82012,-0.57476 -3.43173,-1.65764 -5.25441,-2.23015 -1.58342,-0.72837 -3.13936,-1.54322 -4.79429,-2.08817 -3.4419,-2.00739 -7.60254,-1.57993 -11.35633,-2.23671 -1.93475,-0.38666 -3.91656,-0.70255 -5.90995,-0.66121 -5.7797,-0.10261 -11.56155,-0.0639 -17.34191,-0.0417 -1.40838,0.0723 -2.85968,-0.0105 -4.22973,0.33939 -0.75742,0.37439 -1.49141,0.80294 -2.34679,0.89878 -1.42381,0.41663 -2.83887,0.88014 -4.31254,1.08553 -1.88126,0.47768 -3.69692,1.21993 -5.63613,1.45278 -2.09817,0.50457 -3.93121,1.6596 -6.03309,2.14685 -4.28456,1.42028 -8.77791,2.8835 -12.09204,6.10074 -1.30661,1.11152 -2.42053,2.51691 -3.9134,3.36805 -0.72978,0.27411 -1.15854,0.97983 -1.88086,1.27539 -1.03633,0.62019 -1.71242,1.65596 -2.73526,2.28458 -2.50061,2.07524 -4.71472,4.47052 -7.04679,6.72959 -1.10263,1.18426 -2.44133,2.19644 -3.15918,3.68126 -0.47219,0.61998 -0.80555,1.34313 -1.33416,1.9159 -0.75697,0.57598 -0.81526,1.67628 -1.47738,2.35245 -1.29842,1.9811 -2.37671,4.09819 -3.65645,6.09028 -1.2597,2.24911 -2.19277,4.686 -2.69031,7.21532 -0.23897,0.71778 -0.76794,1.27763 -0.92147,2.03461 -0.8456,2.06424 -1.80305,4.0996 -2.24267,6.30148 -1.2021,4.8571 -1.54489,9.88064 -2.69552,14.74595 -0.44476,1.39563 -0.77065,2.82931 -0.98786,4.27201 -0.80821,2.58249 -1.54116,5.25649 -1.33176,7.98985 -0.003,6.96016 0.14684,13.92518 0.75549,20.86107 0.41288,5.96668 0.54059,11.99546 1.19141,17.96142 0.28156,1.87864 0.6525,3.76807 1.5237,5.47323 0.30547,0.85699 0.66224,1.8342 0.42736,2.73553 -0.69937,0.62207 -1.71776,0.77399 -2.61477,0.95086 -1.63656,0.13875 -3.43119,-0.0274 -4.83049,1.00936 -1.83897,1.22498 -3.07307,3.14538 -4.17974,5.01244 -2.06135,4.03985 -2.00972,8.69189 -2.21146,13.11088 -0.0605,2.94166 -0.20895,5.89938 0.0205,8.83316 0.36861,2.09422 1.21489,4.06833 1.82217,6.05662 0.6627,1.88833 1.76132,3.57622 2.74194,5.29973 1.35607,3.16369 3.786,5.74246 6.41474,7.90173 3.44803,2.54143 7.8945,3.08059 12.06243,3.05326 1.38509,0.018 2.77039,0.002 4.15556,0.006 1.08004,1.20152 2.41037,2.23245 3.23175,3.6328 0.52387,1.29851 1.08672,2.58675 1.47466,3.93186 0.58306,1.3562 1.09384,2.80374 1.02797,4.30057 -0.608,0.86173 -1.11344,1.97326 -0.65094,3.01683 0.63386,2.86955 1.97279,5.519 2.73564,8.34598 0.9133,2.10521 1.14124,4.40311 1.63593,6.62315 0.57614,2.98785 0.55976,6.05087 0.44929,9.05311 0.12025,0.83692 -0.78517,1.3267 -0.78958,2.15979 -0.22459,0.96078 0.96319,1.444 0.86185,2.36364 -0.32683,1.09105 -1.67989,0.84955 -2.55919,1.02448 -5.34921,0.81509 -10.78593,1.28729 -15.98284,2.89157 -4.20929,1.14779 -8.4842,2.03734 -12.75669,2.90209 -2.01884,0.63758 -3.94037,1.59563 -6.0548,1.91038 -2.84895,0.53373 -5.91906,0.85009 -8.34548,2.61631 -1.5586,0.98266 -3.30056,1.64636 -5.11084,1.97036 -1.69446,0.51194 -3.40986,0.96603 -5.10438,1.4658 -1.01201,0.37361 -2.01294,0.98114 -3.12875,0.8987 -0.0698,-0.84029 -0.0201,-1.70209 0.0312,-2.53125 2.70544,-0.28265 5.25743,-1.2894 7.88084,-1.95198 2.20338,-0.56078 4.46784,-1.28152 6.14846,-2.88786 1.41585,-0.86925 3.15582,-0.72216 4.72076,-1.12325 2.78344,-0.45441 5.44317,-1.40285 8.12884,-2.22832 2.93934,-0.82863 5.99277,-1.13633 8.93286,-1.96592 4.592,-1.16679 9.05926,-2.53354 13.77078,-3.08023 2.28384,-0.34988 4.60268,-0.58168 6.83738,-1.17064 0.96427,-0.40238 1.42303,-1.64524 0.91638,-2.56495 -0.57191,-3.11209 -0.34706,-6.32049 -1.07861,-9.41203 -0.56435,-2.76252 -1.39786,-5.46402 -2.0741,-8.19685 -0.52834,-0.85876 -0.9199,-1.77505 -1.13981,-2.76146 -0.38833,-1.4744 -0.90308,-2.92512 -1.2068,-4.41448 -0.0421,-1.5427 0.24984,-3.14667 -0.36527,-4.6179 -0.47756,-1.91108 -1.24291,-3.74421 -1.60452,-5.68468 -0.49534,-1.41771 -2.07551,-2.04489 -3.47305,-2.06189 -3.39899,-0.44325 -6.94249,-0.16322 -10.19077,-1.43977 -2.16644,-0.68066 -4.22853,-1.70535 -5.81079,-3.21904 -1.36364,-1.33922 -2.86446,-2.58669 -3.8599,-4.24227 -0.57559,-0.56627 -0.81602,-1.333 -1.32956,-1.94523 -0.61717,-1.17777 -1.07542,-2.43728 -1.85196,-3.5261 -0.63423,-1.03642 -1.19533,-2.09769 -1.57677,-3.25615 -0.81209,-2.15736 -1.75437,-4.32604 -2.03351,-6.62723 -0.2166,-5.48552 -0.0961,-10.98429 0.24419,-16.46112 0.2734,-2.40383 0.91534,-4.72315 1.91271,-6.88411 0.7494,-1.48066 1.90453,-2.67237 3.09941,-3.79618 1.44082,-1.42133 2.85262,-3.04481 4.77618,-3.7946 1.00564,-0.006 2.30971,-0.45623 2.3762,-1.63134 0.11778,-2.22887 -0.82989,-4.34588 -0.80016,-6.57256 -0.51625,-6.86702 -0.76837,-13.75295 -1.35932,-20.61404 -0.27146,-7.51017 -0.2884,-15.03369 0.0146,-22.54225 0.28023,-3.27554 0.59529,-6.53044 1.03241,-9.79041 0.62942,-3.26451 1.83136,-6.34651 2.74512,-9.53388 1.05708,-3.44512 2.18657,-6.87834 3.69902,-10.15366 0.69674,-1.83176 0.21633,-3.93134 1.07759,-5.7024 1.32497,-2.08492 2.20352,-4.41953 3.59589,-6.46353 0.80261,-1.57007 2.0745,-2.81125 3.01065,-4.29482 1.46732,-2.28942 3.48617,-4.15015 5.03745,-6.37241 0.56322,-0.85789 1.42523,-1.6426 1.70651,-2.74051 0.42644,-1.127 0.85772,-2.3748 1.95259,-3.02587 0.80665,-0.77028 1.80841,-1.28804 2.71475,-1.90323 1.71589,-1.61644 4.04768,-2.26439 6.11865,-3.24904 0.79482,-0.56173 1.65281,-1.05649 2.25571,-1.84003 0.82448,-0.49303 1.60016,-1.04744 2.27357,-1.74015 1.7178,-1.51036 3.71626,-2.65416 5.81224,-3.5472 1.80144,-0.98203 3.77626,-1.56591 5.67369,-2.31314 0.95216,-0.50906 2.00286,-0.72297 3.04968,-0.91815 1.7308,-0.48271 3.43349,-1.31152 5.15654,-1.56994 2.47811,-0.69444 4.86607,-1.67447 7.23394,-2.66566 2.53407,-0.71851 5.17575,-0.95732 7.73636,-1.56813 2.73947,-0.65216 5.5493,-0.59941 8.34536,-0.6131 z m -234.7207,6.70703 c 4.15285,0.086 8.3312,-0.17394 12.46319,0.31317 3.22247,0.76608 6.56708,0.6967 9.81258,1.29854 1.1595,0.20829 2.20779,0.75991 3.23795,1.28817 1.89445,0.53835 3.64289,1.68346 5.51753,2.35208 1.85523,0.69642 3.53941,1.83409 5.52144,2.1741 2.13493,0.41259 3.75771,2.02254 5.76964,2.76005 1.9173,0.94086 3.79176,1.97017 5.72064,2.88421 1.52092,0.99916 2.95515,2.14278 4.29936,3.36709 0.9567,1.02346 1.69801,2.22572 2.76502,3.15033 1.33907,1.3853 2.83215,2.63823 4.27475,3.89063 0.50364,1.20788 1.32035,2.22833 2.25694,3.12798 1.40071,1.43633 2.56441,3.08573 3.456,4.88137 1.7793,2.99064 4.64453,5.09994 6.44793,8.06307 0.41403,1.0467 0.79702,2.11089 1.1462,3.18594 0.52756,2.03075 0.96428,4.09199 1.7834,6.03433 0.60518,1.7156 1.54306,3.2933 2.16202,4.99689 0.49366,2.16124 0.79768,4.36688 1.50994,6.48596 1.13325,3.70421 1.55572,7.62358 1.91411,11.49816 0.4691,5.72343 0.65883,11.47517 1.49211,17.16282 0.60875,6.13966 0.62022,12.33921 0.74664,18.5232 0.002,3.42751 0.10059,6.86631 -0.1672,10.28532 -0.31736,2.38531 -1.00549,4.7031 -1.77609,6.97456 -0.34036,1.04934 -0.11455,2.2431 0.64004,3.05203 0.32601,0.99782 0.27789,2.24413 1.24293,2.9109 1.3622,1.30028 3.36663,1.1869 5.09496,1.49145 1.08892,0.90138 1.29242,2.40242 1.95839,3.58151 0.61155,1.94173 0.78498,3.98624 1.13145,5.98489 0.34596,2.89257 0.61107,5.75948 0.43308,8.66941 -0.31047,2.35368 -1.11177,4.57909 -1.49968,6.92336 -0.61761,2.12061 -1.78508,4.02479 -2.75321,5.99575 -1.55441,2.81888 -3.1871,5.57926 -5.0871,8.15646 -1.82504,2.03658 -4.33122,3.10524 -6.98456,3.61404 -2.31214,0.56679 -4.68019,-0.18377 -6.7414,-1.21204 -1.43873,-0.47202 -2.98243,0.18655 -4.03141,1.16952 -1.55683,0.50903 -2.43867,2.00353 -3.14431,3.37686 -0.65258,1.29746 -0.77891,2.75138 -1.01687,4.15559 -0.52457,2.50377 -1.17854,4.9915 -2.2429,7.32488 -0.84343,2.05557 -1.24694,4.25216 -1.4027,6.46054 -0.44782,4.25695 -0.74455,8.59863 -2.21144,12.66326 -0.84349,2.51886 -1.67211,5.07385 -1.81366,7.74747 -0.14399,1.99877 -0.27207,3.99081 -0.30704,5.98005 0.18511,2.02646 2.24676,3.4658 4.20956,3.31178 4.30207,0.0977 8.61655,0.86247 12.95057,0.92456 2.25732,0.11194 4.58439,0.13318 6.77393,0.85766 2.66417,0.52594 5.3356,1.24873 7.7477,2.52024 1.07129,0.66695 2.17861,1.23357 3.16832,2.02858 1.19073,0.58396 2.5635,0.24066 3.83506,0.39664 2.71676,0.12996 5.4077,0.0308 8.06793,0.61056 2.31062,0.73638 4.81185,0.61304 7.11124,1.34801 2.30322,1.47793 4.44048,3.31824 7.09514,4.15065 0.84554,0.52962 0.33812,1.66728 0.37886,2.47015 -0.22636,3.176 -0.32295,6.29522 -0.54221,9.48588 -0.37111,5.83419 -0.37864,11.69288 -0.12701,17.5332 0.009,1.12042 0.16972,2.22673 0.6144,3.26269 0.35226,1.26652 0.13432,2.61051 0.1682,3.91075 -0.0201,2.48832 -0.24671,4.98279 -0.0885,7.46789 0.0531,1.0587 0.47872,2.03702 0.77983,3.03155 0.28919,1.39818 0.29866,3.1825 0.32031,4.75 0.26516,6.4396 0.27448,12.89397 -0.0937,19.33008 -1.988,-0.15164 -3.97495,-0.12596 -5.95125,-0.29497 -2.78176,-0.17004 -5.54297,-0.56991 -8.28934,-1.01625 -4.7088,-0.32726 -9.4261,0.10749 -14.13855,0.13358 -5.42361,0.14588 -10.87692,0.35048 -16.25625,-0.22922 -4.74655,-0.29248 -9.50733,-0.15646 -14.26021,-0.1568 -6.72366,0.0738 -13.45083,0.13481 -20.16915,0.40884 -3.31456,0.26158 -6.5828,0.94354 -9.90878,1.1037 -3.63141,0.23164 -7.2481,0.75646 -10.89481,0.64636 -5.86354,-0.0906 -11.69439,-0.6935 -17.57016,-0.74472 -3.27104,-0.0282 -6.54175,-0.1409 -9.79447,-0.50241 -4.27386,-0.30071 -8.542125,-0.0897 -12.75715,-0.9315 -4.395754,-0.4043 -8.817718,-0.0744 -13.220937,-0.3452 -10.343237,-0.30084 -20.708573,-1.1486 -31.050065,-0.37817 -2.478557,0.30654 -4.956403,0.62847 -7.441358,0.87604 -2.238234,0.34601 -4.450795,0.8844 -6.715492,1.02642 -2.674465,0.19315 -5.545511,0.16974 -8.236329,0.6151 -1.064208,0.14275 -2.134227,0.2228 -3.236327,0.3224 0.167792,-5.4598 1.659756,-10.81905 1.600995,-16.30103 0.237018,-4.39341 0.673517,-8.82934 0.728647,-13.25657 -0.01253,-1.63666 0.339574,-3.2321 0.721139,-4.81154 0.798373,-4.45164 0.614569,-8.99668 0.845196,-13.49643 0.267095,-9.86398 0.552701,-19.72898 0.572773,-29.59732 3.166943,-0.40073 6.237752,-1.33911 9.209596,-2.47452 2.666155,-0.6342 5.387821,-1.01127 8.038899,-1.71568 4.227524,-1.00007 8.369943,-2.37703 12.652515,-2.9267 3.461982,-0.545 6.971119,-0.87472 10.399961,-1.57466 2.253584,-0.85455 3.33352,-3.89632 2.06231,-5.96078 0.713177,-1.3364 0.432195,-2.91905 0.533848,-4.37226 0.03629,-3.39755 -0.271014,-6.80296 -1.096588,-10.104 -0.294941,-1.66268 -0.695215,-3.31192 -1.344241,-4.87036 -0.683439,-2.66124 -2.038283,-5.0596 -2.526612,-7.75494 0.95457,-1.35303 0.90572,-3.10928 0.486956,-4.64229 -0.418469,-1.76837 -1.17516,-3.43185 -1.735792,-5.1554 -0.436475,-0.93464 -0.748025,-1.95287 -1.276059,-2.82796 -1.314468,-1.6444 -2.868078,-3.07133 -4.30909,-4.60092 -3.474146,-0.0919 -7.0983,0.2249 -10.46875,-0.36914 -2.389655,-0.41542 -4.736176,-1.38109 -6.454217,-3.1402 -1.866107,-1.77149 -3.523565,-3.82786 -4.462817,-6.24532 -0.787421,-1.28519 -1.681504,-2.51725 -2.155723,-3.96679 -0.723571,-1.89546 -1.375748,-3.83644 -1.833066,-5.80917 -0.30011,-2.88402 -0.0073,-5.78706 0.0024,-8.67848 0.136089,-3.50544 0.136619,-7.11119 1.406652,-10.45543 0.832241,-1.8763 2.027335,-3.68859 3.702445,-4.89953 1.344569,-0.5424 2.854706,-0.12783 4.231778,-0.57337 1.807944,-0.35409 3.910691,-1.23526 4.429694,-3.19069 0.545498,-2.20393 -0.514716,-4.37041 -1.308288,-6.37108 -1.076873,-3.88811 -0.985588,-7.90183 -1.277669,-11.88856 -0.251842,-5.24272 -0.666611,-10.51214 -0.980403,-15.76506 -0.190629,-5.45873 -0.404773,-10.92736 -0.212937,-16.38741 0.323745,-2.24286 1.290281,-4.34111 1.543238,-6.59888 0.4499,-1.79316 1.062597,-3.54882 1.27556,-5.39623 0.844806,-4.78002 1.270659,-9.677 2.828972,-14.29847 0.699131,-1.66747 1.330329,-3.37148 2.162052,-4.97144 0.508388,-1.39178 0.55959,-2.91654 1.240986,-4.25388 0.696795,-1.82994 1.711207,-3.51014 2.757489,-5.15295 1.021239,-1.89858 2.207804,-3.71519 3.348647,-5.53292 0.699294,-0.77525 1.120617,-1.74462 1.76846,-2.56253 0.612658,-1.21994 1.768308,-2.04333 2.674717,-3.04376 2.294677,-2.18645 4.407204,-4.58456 6.915504,-6.53464 1.047386,-0.57294 1.597737,-1.75929 2.728727,-2.20969 0.86717,-0.57922 1.728575,-1.15647 2.564429,-1.78067 1.95768,-1.7151 3.685376,-3.71798 5.960206,-5.03986 3.585326,-2.16222 7.755298,-2.98615 11.603294,-4.5411 1.255785,-0.64696 2.631289,-0.96665 4.015935,-1.17116 1.947981,-0.47785 3.816908,-1.22722 5.81487,-1.49461 1.28493,-0.35228 2.54661,-0.81554 3.85617,-1.05493 0.74288,-0.29478 1.41192,-0.90794 2.26365,-0.74498 3.46305,-0.14615 6.93085,-0.0734 10.39585,-0.10168 z m 50.75586,83.21875 c -4.53137,-0.007 -9.0301,0.75052 -13.38427,1.97473 -2.91393,0.73923 -5.90004,1.36079 -8.58225,2.77142 -1.64833,0.74283 -3.40024,1.22776 -4.99943,2.08645 -1.25393,0.65884 -2.8138,0.83402 -3.72351,2.03069 -1.18947,1.3312 -1.58456,3.60022 -0.25774,4.97833 1.05492,1.33155 2.39451,2.40397 3.5429,3.64667 1.04458,0.73726 2.37338,0.2402 3.54848,0.42887 3.13074,0.12554 6.33607,0.53916 9.5111,0.50659 1.94263,0.17965 3.85821,0.6307 5.82036,0.59968 1.9766,0.0443 3.90579,0.27532 5.88143,0.46584 2.051,0.0141 4.16552,0.009 6.13488,-0.62394 0.71505,-0.22824 1.34198,-0.69545 2.00643,-0.98955 1.12008,0.055 2.4902,-0.27984 2.85403,-1.49274 0.7785,-1.85553 0.66578,-3.96433 1.56751,-5.78147 0.67813,-2.20331 -0.49611,-4.48881 -2.07746,-5.98853 -1.48461,-1.57619 -2.98224,-3.24823 -4.9284,-4.25561 -0.91986,-0.38049 -1.93545,-0.38072 -2.91406,-0.35743 z m -77.517583,1.48633 c -4.24508,0.12328 -8.538893,0.055 -12.699957,1.02423 -1.834259,0.33167 -3.497187,1.26046 -5.355067,1.50359 -2.123723,0.39256 -4.2225,0.95775 -6.155913,1.93898 -2.294722,1.07023 -4.692748,2.35529 -6.090751,4.54786 -0.999549,1.91129 -0.30511,4.22072 0.795665,5.92587 0.7697,1.17658 2.073558,1.84052 3.416591,2.12324 2.577544,0.87033 5.260297,1.47769 7.992351,1.48286 3.519817,0.15628 7.006905,0.20362 10.498949,0.4636 3.855408,0.0823 7.742718,-0.16302 11.516747,-0.97128 1.982345,-0.61733 4.087566,-0.87293 5.934898,-1.87489 0.69311,-0.32933 1.28101,-0.85931 2.06632,-0.92772 1.9703,-0.52721 3.56019,-2.74784 2.78082,-4.77531 -0.91776,-3.01882 -3.06553,-5.62866 -5.845832,-7.12364 -2.766014,-1.52838 -5.808494,-2.55238 -8.854821,-3.33739 z m 313.197263,1.36328 c 1.8221,-0.0834 2.88054,1.60499 4.10743,2.65625 1.07251,1.13313 2.32249,2.29096 2.75,3.83399 -0.21293,0.73136 -0.78624,1.32734 -0.86509,2.11533 -0.31263,1.12526 -0.27334,2.33494 -0.73062,3.42178 -0.89986,-0.18634 -1.77795,0.14733 -2.46094,0.72461 -0.97494,0.65465 -2.12414,1.1013 -3.31363,0.94612 -1.63873,0.067 -3.309,-0.062 -4.85644,-0.33897 -4.94878,-0.37919 -9.90527,-0.65442 -14.85512,-1.01557 -2.16335,-0.13543 -4.32161,-0.17387 -6.47871,-0.45291 -0.61461,-0.51954 -0.73769,-1.54476 -1.59802,-1.82631 -0.55374,-0.21332 -1.05155,-0.64484 -0.98792,-1.28502 -0.0704,-0.66499 0.37981,-1.38295 1.10405,-1.34358 1.85328,-0.52388 3.42795,-1.73002 5.29448,-2.22273 2.53412,-0.99905 4.92542,-2.15686 7.59383,-2.71878 4.72489,-1.30348 9.51863,-2.45605 14.42554,-2.47094 0.29024,-0.0143 0.58062,-0.0196 0.87116,-0.0233 z m -79.43554,1.59961 c 2.92497,0.10587 5.63033,1.39556 8.24023,2.59766 2.22082,1.26434 4.35826,3.11712 5.12074,5.635 0.20481,0.57106 -0.0334,1.34771 -0.74247,1.32497 -0.86119,0.0753 -1.63769,0.43115 -2.33283,0.92383 -0.92595,0.33282 -1.83964,0.69831 -2.75638,1.04784 -1.14084,0.16199 -2.25229,0.43748 -3.35568,0.76272 -2.85174,0.61048 -5.77604,0.65736 -8.64157,0.74992 -2.08503,0.0894 -4.1012,-0.25904 -6.19682,-0.34025 -3.23916,-0.13991 -6.51895,0.14455 -9.72548,-0.4241 -1.52237,-0.37662 -3.02352,-0.84784 -4.52576,-1.28931 -1.15989,-0.43166 -1.36633,-1.80432 -1.5,-2.875 -10e-4,-1.03829 1.13108,-1.49106 1.7675,-2.13031 1.11392,-0.90363 2.56176,-1.5374 3.9047,-2.18697 2.8108,-1.14781 5.88895,-1.41364 8.70671,-2.54209 2.59171,-0.73986 5.28141,-1.10358 7.94773,-1.15165 1.36243,-0.0552 2.72604,-0.0803 4.08938,-0.10226 z m 76.44336,0.57813 c -2.68276,0.42814 -5.36429,0.88112 -7.99428,1.57414 -2.49152,0.62067 -5.00544,1.18233 -7.48336,1.83665 -2.85744,1.18851 -5.53258,2.7627 -8.31729,4.10679 5.32386,0.35343 10.69474,0.25233 15.94922,0.83789 3.73685,0.63042 7.64047,0.48198 11.45272,0.52451 0.57968,0.11132 1.05233,-0.0632 1.4074,-0.53734 0.94177,-0.85579 1.88401,-1.71108 2.82543,-2.56725 -2.0394,-1.85736 -3.54766,-4.44104 -6.18295,-5.53885 -0.52864,-0.19147 -1.09637,-0.2638 -1.65689,-0.23654 z m -80.30664,1.69726 c -3.15691,0.007 -6.24318,0.8054 -9.22192,1.77932 -1.69821,0.25375 -3.35135,0.75759 -4.85889,1.58867 -1.14802,0.58769 -2.45249,1.27028 -2.98169,2.51092 -0.3693,1.33037 1.08066,2.51764 2.3445,2.22399 6.94345,0.10698 13.89456,0.23762 20.83494,-0.004 1.93697,-0.1862 4.08545,-0.85507 5.17016,-2.59098 0.55181,-1.07425 -0.0373,-2.49396 -1.17303,-2.88936 -1.34785,-0.73824 -2.74773,-1.39944 -4.10264,-2.11139 -1.93452,-0.64057 -4.00593,-0.49165 -6.01143,-0.50707 z m -154.19727,1.52344 c 1.26554,0.45316 1.99282,1.67085 2.97266,2.51367 -0.45658,0.54541 -1.24777,0.10079 -1.85586,0.23964 -3.55743,0.0134 -7.0687,-0.0839 -10.58734,-0.65663 -0.57516,-0.0552 -1.15005,-0.1124 -1.72673,-0.14941 3.65294,-0.88346 7.19491,-2.01426 10.9961,-2.00391 0.0671,0.0189 0.13411,0.0378 0.20117,0.0566 z m -79.962892,1.35156 c 1.70288,0.0478 3.592892,-0.0554 5.013777,1.05728 0.545772,0.3105 1.11727,0.57043 1.673723,0.86069 -1.432733,0.57468 -3.016316,0.26168 -4.517578,0.4043 -4.787696,0.098 -9.576686,0.1176 -14.365234,0.0918 1.440995,-0.51697 2.992988,-0.6127 4.408849,-1.21589 2.479458,-0.90689 5.168714,-1.10285 7.786463,-1.19818 z m 42.146482,19.4336 c -1.63075,-0.0956 -3.2159,0.65544 -4.27474,1.8785 -1.48952,1.39619 -3.03617,2.82569 -4.0319,4.62345 -0.43857,1.78763 -0.31938,3.70158 0.15755,5.46623 0.60577,1.78058 2.17105,2.95515 3.68386,3.93924 1.37449,1.07516 3.12986,1.73337 4.88711,1.43047 3.39909,-0.34314 6.75142,-2.44085 8.07281,-5.66307 0.57803,-1.75602 0.33854,-3.6489 0.21657,-5.45669 -0.29275,-2.4589 -1.82733,-4.85562 -4.2298,-5.69853 -1.42526,-0.54046 -2.9779,-0.54444 -4.48146,-0.5196 z m -19.14453,0.49804 c -2.09345,0.0131 -4.54069,-0.0299 -6.08203,1.64063 -1.82089,1.7975 -3.16834,4.47936 -2.49564,7.07069 0.7662,2.25518 2.54705,4.02879 4.47416,5.34532 1.19131,0.58878 2.50227,0.93668 3.80468,1.16993 1.68891,0.15702 3.4704,0.0337 5.03711,-0.64453 2.26907,-1.2246 3.12481,-3.94898 3.19397,-6.37725 0.15171,-2.18231 -0.54799,-4.45808 -2.16052,-5.98405 -0.66055,-0.76251 -1.35951,-1.48999 -2.04321,-2.23245 -1.24284,0.002 -2.48568,0.008 -3.72852,0.0117 z m 256.19141,2.47657 c 0.85377,-0.0544 1.80574,0.0666 2.33624,0.81944 0.82557,0.73367 1.81146,1.60644 1.65508,2.83132 0.0442,1.44939 0.29042,2.99148 -0.19728,4.38241 -0.74087,1.24665 -2.03796,2.04459 -3.23488,2.79603 -1.32497,0.63095 -2.92378,0.85055 -4.32869,0.39736 -0.59814,-0.56937 -1.11711,-1.24052 -1.91428,-1.55394 -0.61862,-0.42304 -1.24768,-0.93891 -1.65861,-1.54308 -0.0824,-1.27948 -0.007,-2.56882 -0.0248,-3.84829 0.39839,-0.54146 1.00851,-0.9767 1.4638,-1.49896 0.92678,-0.92678 1.85356,-1.85356 2.78034,-2.78034 1.041,-0.004 2.08214,0.007 3.12305,-0.002 z m -21.76563,0.4414 c 1.24523,0.115 2.53595,-0.13762 3.74219,0.27344 0.61229,0.74656 0.93679,1.69758 1.63968,2.38121 0.5616,0.99449 0.38274,2.30936 0.35359,3.33533 -0.13072,1.24966 -0.59772,2.76319 -1.84612,3.2845 -1.17105,0.15896 -2.373,0.10157 -3.54865,0.0243 -1.46417,-0.22731 -2.93936,-0.9425 -3.84574,-2.12387 -0.34427,-1.05314 -1.67503,-1.51554 -1.63805,-2.73543 0.15388,-1.81091 1.46737,-3.38267 3.01029,-4.25786 0.68245,-0.24318 1.42242,-0.15502 2.13281,-0.18164 z m -0.9082,2.44532 c -1.35832,-0.009 -1.84165,1.84637 -0.98228,2.73454 1.00763,0.79742 2.21826,1.53171 3.53931,1.59358 1.05226,0.11264 2.17036,-0.70806 2.02305,-1.83594 -0.03,-0.9424 -0.83531,-1.60266 -1.6961,-1.80526 -0.90767,-0.39971 -1.87734,-0.73855 -2.88398,-0.68692 z m 22.71289,1.0332 c -1.65853,0.27098 -3.38166,1.0947 -4.27392,2.56218 -0.55784,1.38022 1.06695,2.68152 2.37182,2.33278 1.48189,-0.0289 3.34164,-0.52894 3.78556,-2.14581 0.3611,-1.24658 -0.40028,-2.91085 -1.88346,-2.74915 z m -244.82812,19.44726 c -1.5446,0.055 -3.0899,0.091 -4.63477,0.13868 -1.17298,0.97783 -2.05581,2.45854 -3.64153,2.80568 -2.57752,1.18195 -4.11252,3.69713 -5.64558,5.95213 -1.08063,1.45385 -2.39888,2.72253 -3.31161,4.30208 -1.59434,2.58788 -2.9016,5.37592 -3.76008,8.29386 -1.547162,5.76438 -1.214796,11.79081 -1.323006,17.69895 -0.05148,3.95052 0.02347,7.95035 1.062907,11.78889 0.549199,2.53843 1.173199,5.14394 2.727779,7.28073 1.31028,2.07851 3.06904,3.94729 5.35547,4.93997 1.36122,0.64008 2.78773,1.18378 4.23306,1.57558 3.22397,0.26379 6.76338,0.32785 9.54913,-1.58041 1.64699,-0.92873 3.21574,-2.01851 4.45292,-3.46441 1.36427,-1.4589 2.60839,-3.10804 3.19507,-5.03641 0.84864,-1.48556 1.84527,-2.88563 2.57958,-4.43795 1.0317,-1.98838 1.79542,-4.12641 2.08691,-6.35201 0.44001,-1.37995 1.32259,-2.57366 1.72414,-3.97371 0.621,-1.61201 0.88192,-3.33661 1.00334,-5.04411 0.84547,-2.99694 1.28368,-6.10778 1.23882,-9.22421 -0.02,-4.4453 0.32366,-8.88909 0.13674,-13.33325 -0.17557,-2.79521 -2.17024,-4.97265 -3.89693,-6.99492 -1.6057,-1.81693 -3.48875,-3.62583 -5.957,-4.10826 -2.32659,-0.7021 -4.73012,-1.27049 -7.17536,-1.2269 z m 235.79296,2.91602 c 2.49914,0.0684 5.01527,0.62446 7.271,1.70234 2.01118,1.22279 3.3759,3.13181 4.97119,4.80743 1.02313,1.32354 1.38604,2.89265 1.28587,4.5285 0.0538,5.08501 -0.21874,10.20704 -0.56691,15.24656 -0.28471,2.66955 -0.6878,5.27811 -1.21364,7.91875 -0.40011,1.8045 -1.21763,3.47209 -1.98105,5.13701 -0.50016,1.64445 -0.66577,3.37903 -1.31892,4.98131 -0.66442,1.76451 -1.63611,3.28932 -2.71121,4.82849 -0.63176,0.94064 -0.9564,2.03053 -1.38476,3.0625 -0.66528,0.90501 -1.22012,1.87549 -2.06225,2.63815 -1.0192,1.06677 -2.19581,2.0623 -3.5536,2.75307 -0.9827,0.70715 -2.08812,1.22818 -3.30212,1.35292 -3.60956,0.63035 -7.49045,-0.44093 -10.19762,-2.92172 -1.08326,-1.07626 -1.86891,-2.41034 -2.73012,-3.66226 -0.80971,-1.22563 -0.82227,-2.7309 -1.27577,-4.08967 -0.71611,-2.68471 -1.29974,-5.43659 -1.18003,-8.23127 -0.0503,-5.36616 -0.12656,-10.76382 0.32089,-16.08676 0.37214,-3.02485 1.06739,-6.03891 2.45663,-8.7688 0.86621,-1.84209 1.85542,-3.65817 3.14533,-5.2361 1.51771,-1.44046 2.70286,-3.17231 3.72241,-4.98975 0.94297,-1.19435 2.21692,-2.14448 3.66015,-2.625 1.07981,-0.52958 1.90108,-1.43352 2.76953,-2.24023 1.29143,-0.0448 2.58309,-0.0786 3.875,-0.10547 z m -2.17187,2.66602 c -0.90277,0.01 -1.64769,0.70858 -1.92969,1.51562 -0.97413,0.7821 -2.22722,1.1875 -3.03916,2.1777 -2.78066,2.56201 -5.70789,5.16372 -7.36674,8.63254 -0.81528,1.51664 -1.63816,3.04404 -2.0181,4.73788 -1.34633,4.62347 -1.27835,9.48562 -1.34899,14.25618 0.0643,4.52299 -0.14658,9.15586 1.23163,13.52561 0.96398,2.87351 2.16828,5.90937 4.66753,7.79676 3.07569,2.33362 7.66639,2.16616 10.65704,-0.23214 1.65533,-0.93852 2.74732,-2.60399 3.66933,-4.21458 0.68227,-1.36435 1.46545,-2.67686 2.15835,-4.03101 2.09526,-2.5779 2.43355,-6.06499 3.50177,-9.04101 0.78658,-2.28548 1.39441,-4.62514 1.86016,-6.99447 0.72324,-2.61521 1.04881,-5.3129 1.17931,-8.01771 0.28911,-4.31536 0.35551,-8.64292 0.5217,-12.96489 -0.88983,-1.58033 -2.06397,-2.98082 -3.14648,-4.41602 -0.86342,-1.45535 -2.71247,-1.73102 -4.22071,-2.08203 -2.10407,-0.36336 -4.2444,-0.57282 -6.37695,-0.64843 z m -234.43945,2.92773 c 2.15012,0.24815 4.3668,0.32108 6.42369,1.04615 1.66265,0.80895 2.59564,2.50171 3.55482,3.99487 -0.0647,4.34794 -0.19512,8.72144 -0.48856,13.03132 -0.22228,3.51583 -0.93019,6.98024 -1.985,10.33771 -0.83047,2.71123 -1.64115,5.43144 -2.41536,8.15631 -1.12132,2.76324 -2.88074,5.16766 -4.15147,7.8586 -0.71233,1.2326 -1.67064,2.36815 -2.99867,2.95199 -0.97025,0.66135 -2.08696,1.14421 -3.28436,1.05919 -2.23989,0.0271 -4.50479,-1.27254 -5.3521,-3.39359 -1.48622,-2.63095 -2.54963,-5.56069 -2.59794,-8.6097 -0.41058,-5.36103 -0.34122,-10.80033 -0.0234,-16.12621 0.48471,-5.42382 2.5927,-11.03897 6.78057,-14.74607 1.64259,-1.66972 3.39433,-3.24133 5.33864,-4.54975 0.43412,-0.26797 0.71329,-0.92384 1.19915,-1.01082 z m -94.531254,16.17383 c 0.530049,1.53118 1.363962,2.9215 2.115234,4.34375 0.915466,1.17251 1.22719,2.72677 2.19336,3.88476 0.392959,0.91752 1.188078,1.58599 1.669628,2.44643 1.735072,1.95998 3.606178,3.846 5.776891,5.32326 2.142566,1.42249 4.632837,2.19611 7.095479,2.8539 3.059504,0.73999 6.263967,0.4206 9.334955,1.04243 0.24878,2.04983 1.345112,3.90117 1.550781,5.96484 0.507931,0.77341 -1.5e-5,1.71542 0.147967,2.56861 0.02421,2.07813 0.949838,3.97776 1.392786,5.97589 0.273679,1.14025 0.798017,2.20701 1.28695,3.25095 0.67225,2.96494 1.710097,5.84848 2.094927,8.87667 0.368971,2.32871 0.352342,4.69556 0.647683,7.03101 -4.809813,0.80196 -9.698811,1.25893 -14.379229,2.69345 -4.018553,1.08546 -8.056953,2.05667 -12.164031,2.79231 -2.72728,0.6381 -5.323777,1.73898 -8.068069,2.31502 -0.285738,-10.08434 -0.136189,-20.17511 -0.399193,-30.26 -0.169929,-10.70513 -0.20195,-21.41476 -0.6594,-32.11305 0.121093,0.33659 0.242187,0.67318 0.363281,1.00977 z" /></svg>
