<?xml version="1.0" encoding="UTF-8" standalone="no"?>
<!-- Created with Inkscape (http://www.inkscape.org/) -->

<svg
   width="1780"
   height="3164"
   viewBox="0 0 470.95832 837.14166"
   version="1.1"
   id="svg5"
   xml:space="preserve"
   sodipodi:docname="book2-part3.svg"
   inkscape:export-filename="../../- table sources/book 2/3-hole - The boy said &quot;I rose from the hole&quot;/book2-part3.png"
   inkscape:export-xdpi="96"
   inkscape:export-ydpi="96"
   inkscape:version="1.2 (dc2aeda, 2022-05-15)"
   xmlns:inkscape="http://www.inkscape.org/namespaces/inkscape"
   xmlns:sodipodi="http://sodipodi.sourceforge.net/DTD/sodipodi-0.dtd"
   xmlns="http://www.w3.org/2000/svg"
   xmlns:svg="http://www.w3.org/2000/svg"><sodipodi:namedview
     id="namedview6"
     pagecolor="#ffffff"
     bordercolor="#000000"
     borderopacity="0.25"
     inkscape:showpageshadow="2"
     inkscape:pageopacity="0.0"
     inkscape:pagecheckerboard="0"
     inkscape:deskcolor="#d1d1d1"
     showgrid="false"
     inkscape:zoom="0.14917826"
     inkscape:cx="898.25424"
     inkscape:cy="1632.2754"
     inkscape:window-width="1416"
     inkscape:window-height="797"
     inkscape:window-x="0"
     inkscape:window-y="25"
     inkscape:window-maximized="0"
     inkscape:current-layer="svg5" /><defs
     id="defs2"><inkscape:path-effect
       effect="simplify"
       id="path-effect982"
       is_visible="true"
       lpeversion="1"
       steps="1"
       threshold="0.002"
       smooth_angles="0"
       helper_size="5"
       simplify_individual_paths="false"
       simplify_just_coalesce="false" /></defs><path
     style="fill:#000000;stroke-width:0.264083"
     d="m 264.04811,825.27321 c -0.5192,-0.45034 -65.86203,-0.97584 -69.32446,-0.55754 -1.28701,0.1555 -12.28004,-0.23482 -17.86768,-0.63441 -3.74295,-0.26765 -11.49474,-0.52632 -20.64709,-0.68895 -3.20295,-0.0569 -10.5287,-0.2461 -16.27944,-0.42043 -11.73708,-0.3558 -11.88419,-0.35688 -24.8824,-0.17913 -5.1684,0.0707 -11.24341,0.0274 -13.50003,-0.096 -8.034446,-0.43972 -32.955496,-0.32864 -36.794186,0.164 -1.94523,0.24963 -8.76012,0.27869 -14.42649,0.0615 -3.61583,-0.13858 -5.75566,-0.10997 -6.75002,0.0903 -2.08778,0.4204 -8.63835,0.5911 -12.04414,0.31383 -1.60147,-0.13036 -3.03088,-0.15136 -3.17647,-0.0467 -0.14559,0.1047 -0.91986,-0.025 -1.72059,-0.28814 -0.80074,-0.26317 -1.93236,-0.48701 -2.51472,-0.49739 -1.8508,-0.033 -2.96376,-0.483 -3.55677,-1.43802 -0.3004,-0.48374 -0.54617,-1.07676 -0.54617,-1.31783 0,-0.24104 -0.25645,-1.17551 -0.56989,-2.07657 -0.61613,-1.77124 -0.71379,-3.37293 -1.27255,-20.87095 -0.14344,-4.492 -0.38104,-9.53068 -0.52798,-11.19707 -0.14695,-1.66639 -0.33144,-5.10454 -0.41,-7.64035 -0.0786,-2.53581 -0.25774,-5.73685 -0.3982,-7.11344 -0.14045,-1.37658 -0.31938,-5.05185 -0.39762,-8.16727 -0.0782,-3.11542 -0.26597,-7.3242 -0.41719,-9.35285 -0.15122,-2.02865 -0.2436,-5.11113 -0.20529,-6.84997 0.0383,-1.73884 -0.009,-4.58422 -0.10537,-6.32306 -0.0963,-1.73883 -0.24475,-5.05844 -0.32995,-7.37689 -0.0852,-2.31845 -0.26999,-6.23084 -0.41065,-8.6942 -0.14066,-2.46335 -0.36638,-6.73141 -0.50161,-9.48457 -0.13522,-2.75317 -0.42481,-6.90267 -0.64353,-9.22112 -0.21871,-2.31845 -0.58138,-6.94219 -0.80593,-10.27496 -0.22455,-3.33278 -0.52592,-7.77867 -0.66971,-9.87977 -0.14379,-2.1011 -0.33013,-5.24287 -0.4141,-6.9817 -0.18027,-3.73313 -0.32386,-6.03238 -0.63346,-10.14323 -0.1255,-1.66639 -0.2239,-3.32619 -0.21866,-3.68845 0.0155,-1.07579 -0.35693,-6.41184 -0.45904,-6.57629 -0.266,-0.42836 -0.46303,-10.29496 -0.49737,-24.90724 -0.0344,-14.62912 0.079,-21.22944 0.48677,-28.32201 0.0708,-1.23167 0.19551,-3.78066 0.27713,-5.6644 0.0816,-1.88374 0.25839,-5.38118 0.39282,-7.77208 0.13443,-2.39091 0.31229,-6.54041 0.39524,-9.22112 0.083,-2.68071 0.22252,-5.52609 0.31016,-6.32305 0.0876,-0.79697 0.13494,-1.9895 0.10513,-2.65005 -0.0298,-0.66055 0.12239,-2.26107 0.33824,-3.55671 0.21585,-1.29565 0.47289,-3.482 0.5712,-4.85858 0.15897,-2.22609 0.40044,-4.04918 0.75023,-5.66441 0.0628,-0.2898 0.2003,-2.25572 0.30565,-4.36872 0.16824,-3.3743 0.13556,-3.94957 -0.26849,-4.72725 -0.40904,-0.78727 -0.43969,-1.41283 -0.27647,-5.64277 0.22822,-5.91432 0.21532,-26.84389 -0.0211,-34.26491 -0.21982,-6.89953 -0.19519,-8.58473 0.17136,-11.72399 0.16073,-1.37658 0.33913,-5.82248 0.39644,-9.87977 0.0573,-4.05729 0.23243,-11.64496 0.38914,-16.86147 0.55547,-18.48916 0.68332,-34.77049 0.61859,-78.7747 -0.0371,-25.23791 0.0403,-46.06549 0.17881,-48.08154 0.13437,-1.95619 0.30979,-5.43656 0.38984,-7.73412 0.08,-2.29759 0.21016,-4.2815 0.28916,-4.40872 0.15351,-0.24721 0.29418,-7.88751 0.57924,-31.45987 0.21864,-18.07951 0.16114,-28.86658 -0.19168,-35.96236 -0.30828,-6.20019 -0.50737,-15.08061 -0.65855,-29.37585 -0.0582,-5.50632 -0.17895,-12.02697 -0.26827,-14.49033 -0.17721,-4.88786 -0.18861,-26.65118 -0.0146,-27.92681 0.14576,-1.06868 0.36945,-6.28689 0.53644,-12.51438 0.32161,-11.99349 0.42497,-14.8446 0.54514,-15.03813 0.37172,-0.59863 0.77364,-51.72299 0.51867,-65.975967 -0.0415,-2.31848 -0.1457,-9.72831 -0.23162,-16.466312 -0.0859,-6.738003 -0.24023,-13.199372 -0.34292,-14.358598 -0.10268,-1.159226 -0.21581,-6.96853 -0.25139,-12.909565 -0.0789,-13.166613 -0.24629,-20.80027 -0.46394,-21.150781 -0.0898,-0.144563 -0.29468,-2.380373 -0.45535,-4.96847 -0.66902,-10.776525 -0.67161,-11.002877 -0.13494,-11.818075 0.56558,-0.859132 1.54628,-1.248935 2.36383,-0.939566 0.50607,0.191501 0.74773,0.09741 1.33184,-0.518539 0.89859,-0.947586 1.29794,-0.997368 9.22848,-1.150411 3.45482,-0.06667 6.38599,-0.185494 6.5137,-0.264051 0.12771,-0.07856 0.93413,-0.02585 1.79204,0.117129 2.90834,0.4847 13.74097,0.999332 16.78046,0.797198 0.80074,-0.05325 3.48089,-0.07656 5.9559,-0.05181 2.475,0.02475 5.15515,-0.0072 5.95589,-0.07104 0.80074,-0.06383 4.55295,-0.187765 8.33825,-0.27541 8.10217,-0.187599 14.57178,-0.573633 18.29871,-1.091864 1.47457,-0.205039 4.39296,-0.374551 6.48531,-0.376693 2.305546,-0.0024 4.429956,-0.14873 5.392506,-0.37154 2.75076,-0.636748 5.3755,-0.732923 11.67237,-0.427694 3.36245,0.162989 6.39995,0.340895 6.75001,0.395348 0.35006,0.05445 2.42325,0.176626 4.60707,0.271497 2.18383,0.09487 5.10222,0.284354 6.48531,0.421072 1.38309,0.136719 5.49266,0.448015 9.13237,0.691769 6.3842,0.427554 9.06472,0.477119 20.77945,0.384227 2.98456,-0.02367 6.73678,0.07717 8.33825,0.22408 5.23289,0.480034 11.25688,0.603548 14.16179,0.290367 1.52868,-0.164808 5.20735,-0.303388 8.17482,-0.307956 2.96748,-0.0046 6.30278,-0.124561 7.41178,-0.26665 1.10901,-0.14209 4.45829,-0.312549 7.44286,-0.378798 5.04778,-0.112046 6.89548,-0.26068 11.82674,-0.95137 1.04514,-0.146386 4.91647,-0.324743 8.60296,-0.396347 3.68648,-0.0716 7.06005,-0.17665 7.49682,-0.233433 3.04099,-0.395356 23.03991,-0.681315 37.3236,-0.533681 19.85165,0.205184 20.96712,0.245924 22.71289,0.829543 1.22297,0.408848 2.68073,0.461761 13.15482,0.477496 10.62497,0.01596 12.03035,-0.03218 14.33975,-0.491224 2.46352,-0.48968 2.65863,-0.491973 5.16178,-0.06065 1.95461,0.336812 4.74049,0.477288 11.20441,0.564979 4.73162,0.06419 10.74708,0.181643 13.36767,0.261007 2.62059,0.07936 6.43236,0.193387 8.4706,0.253384 2.03824,0.06 5.01619,0.228824 6.61766,0.375172 6.37514,0.582583 10.36095,0.808446 17.07356,0.967504 3.8581,0.09142 7.43164,0.229168 7.94119,0.306109 0.50956,0.07694 3.65624,0.1729 6.99262,0.213243 3.33636,0.04034 7.44593,0.160786 9.13237,0.267653 1.68642,0.106868 8.54565,0.230749 15.24272,0.275291 10.99852,0.07315 22.97876,0.4361 24.35299,0.737789 0.71695,0.157395 2.7967,0.390797 4.97936,0.558813 3.62404,0.27897 4.1209,1.021466 3.96948,5.931854 -0.0559,1.811291 -0.16012,6.782006 -0.23169,11.046033 -0.10761,6.411396 -0.0639,7.892866 0.2525,8.562466 0.26725,0.565553 0.43997,2.358752 0.57288,5.947171 0.10464,2.825614 0.33649,6.738002 0.51522,8.694197 0.17873,1.956194 0.34282,5.927861 0.36466,8.825927 0.0217,2.898065 0.15486,6.751175 0.2956,8.562466 0.14072,1.811291 0.31188,7.976264 0.38036,13.699944 0.0765,6.40102 0.28156,12.029237 0.53261,14.622057 0.22447,2.31845 0.41427,6.64579 0.42179,9.61631 0.007,2.97051 0.12144,6.46795 0.25321,7.77208 0.1966,1.94543 0.61428,8.75898 0.59758,9.74804 -0.003,0.1449 -0.0746,1.74543 -0.16026,3.55672 -0.0857,1.81129 -0.22465,5.19017 -0.30878,7.50862 -0.22971,6.33073 -0.41061,8.87497 -1.19604,16.82085 -0.14104,1.42669 -0.3186,6.99888 -0.3946,12.38265 -0.076,5.38376 -0.18011,11.62629 -0.23138,13.87229 -0.0512,2.246 0.009,6.03984 0.13352,8.43074 0.1247,2.3909 0.28638,6.77752 0.35933,9.74804 0.073,2.97052 0.20351,6.94218 0.2901,8.82593 0.0866,1.88374 0.20409,6.03324 0.26108,9.22111 0.35957,20.11544 0.45746,23.47698 0.80494,27.64279 0.0716,0.85811 0.13063,3.58492 0.13127,6.05959 0,2.47467 0.16952,6.87054 0.37535,9.76861 0.65121,9.16885 0.7217,12.27072 0.64962,28.58546 -0.19329,43.74881 0,96.9159 0.40497,111.18034 0.13177,4.64523 0.45525,44.92354 0.49196,61.25457 0.0122,5.40789 -0.32244,26.3338 -0.48447,30.29795 -0.0437,1.06894 -0.32259,9.81022 -0.55064,17.25667 -0.0688,2.246 -0.18452,8.41097 -0.25724,13.69994 -0.15639,11.37352 -0.30396,17.6919 -0.56004,23.97491 -0.19601,4.80916 -0.20088,5.28062 -0.15647,15.14898 0.29462,65.4673 0.17442,118.72302 -0.33866,150.04076 -0.3069,18.7327 -0.32249,23.1816 -0.0997,28.45373 0.13164,3.11543 0.29515,8.56906 0.36334,12.11919 0.25684,13.36985 0.43917,19.19186 0.69308,22.13068 0.14397,1.66639 0.32154,3.8597 0.3946,4.87402 0.11364,1.57781 0.53611,5.28107 1.05194,9.22112 0.0759,0.57961 0.18583,4.01777 0.2443,7.64035 0.1462,9.05353 0.3019,10.77024 1.12185,12.37005 1.22575,2.39157 0.34923,4.99105 -2.10277,6.23609 -1.03599,0.52602 -1.40869,0.54934 -7.33025,0.4586 -3.43134,-0.0526 -7.6682,-0.003 -9.41526,0.10989 -1.74707,0.113 -4.66545,0.25319 -6.48531,0.31152 -6.60829,0.21179 -16.19894,0.80187 -17.86768,1.09929 -0.43677,0.0779 -2.22353,0.19188 -3.9706,0.25337 -1.74706,0.0615 -4.28808,0.2389 -5.64671,0.39427 -1.47757,0.16898 -3.94177,0.2086 -6.132,0.0986 -2.04221,-0.10254 -5.86685,-0.0551 -8.64743,0.1072 -2.74212,0.16008 -9.21435,0.35659 -14.38274,0.43666 -17.86032,0.27666 -23.167,0.40889 -24.48534,0.61002 -0.72795,0.11107 -3.58677,0.23013 -6.35296,0.26459 -2.76618,0.0344 -6.63751,0.19125 -8.60295,0.34843 -1.96545,0.15718 -9.64855,0.3147 -17.07356,0.35 -26.4082,0.12567 -59.05832,0.40716 -60.91108,0.52516 -1.03485,0.0659 -1.92824,0.0793 -1.9853,0.0299 z M 23.376464,634.4804 c 1.95435,-0.40178 5.3307,-1.54006 14.37631,-4.84664 2.40221,-0.87814 6.86913,-2.31482 9.92649,-3.19267 6.24395,-1.79277 10.10767,-3.47942 13.36767,-5.83549 1.09192,-0.78915 2.58647,-1.75586 3.32123,-2.14826 0.73477,-0.39243 1.8925,-1.15235 2.57274,-1.68873 4.01888,-3.1689 6.81796,-5.57809 10.00997,-8.61558 4.77198,-4.54098 7.45409,-6.78031 9.30302,-7.76724 0.46066,-0.24589 1.43969,-0.94295 2.17563,-1.54904 2.39999,-1.97656 4.7924,-3.65607 6.25581,-4.39173 0.78936,-0.3968 1.91167,-1.04628 2.49402,-1.44324 1.5334,-1.04527 7.630806,-3.81274 9.794136,-4.44529 4.52344,-1.32267 5.53159,-1.65408 9.52943,-3.13257 6.49989,-2.40384 16.39458,-6.21922 19.58827,-7.55325 1.16471,-0.48648 3.13016,-1.24601 4.36766,-1.68778 4.19394,-1.49725 9.12086,-3.39751 12.04414,-4.64534 1.60147,-0.6836 4.37408,-1.8111 6.16135,-2.50553 1.78727,-0.69446 4.28875,-1.85113 5.55884,-2.57038 1.27009,-0.71924 3.02395,-1.6956 3.89748,-2.1697 1.98822,-1.07908 5.49385,-3.33757 12.3677,-7.96789 l 5.36763,-3.61568 2.77942,-0.0184 c 1.52868,-0.01 3.25589,-0.11932 3.83824,-0.2427 7.37972,-1.56361 13.7135,-2.67776 27.15844,-4.77736 3.34261,-0.52199 39.09113,0.20861 43.25345,0.88397 3.69569,0.59963 8.60894,2.20527 12.70213,4.15095 0.87562,0.41621 2.24717,0.82903 3.0479,0.91732 1.93411,0.21332 6.32807,1.56456 8.48072,2.60802 0.95188,0.4614 2.91733,1.53405 4.36765,2.38368 1.45033,0.84964 3.64946,2.13856 4.88696,2.86429 1.2375,0.72573 3.93796,2.48773 6.001,3.91558 2.06307,1.42785 4.75127,3.0626 5.97381,3.6328 1.22255,0.57021 2.51254,1.25758 2.86667,1.52744 0.35412,0.26989 1.35855,0.88373 2.23208,1.36404 9.4046,5.17136 13.55755,8.49252 20.11763,16.08822 5.09311,5.89717 6.18079,6.74345 9.29506,7.23225 1.30564,0.20492 9.67118,-0.68687 14.66092,-1.5629 8.23444,-1.44566 9.09452,-1.50188 21.57357,-1.41035 l 11.64708,0.0854 3.0086,1.00839 c 2.72679,0.91392 4.40985,1.58638 10.62378,4.24464 2.61556,1.11892 5.37108,3.05114 7.28432,5.10797 0.85233,0.91626 2.27195,2.20822 3.15475,2.87106 0.88279,0.66282 3.16914,2.69786 5.08077,4.5223 5.92143,5.65139 7.55067,6.91394 12.06434,9.34914 2.43095,1.31155 3.00574,1.52512 5.76882,2.14346 0.94633,0.21177 2.55442,0.62537 3.57354,0.91913 1.7429,0.5024 5.1042,0.91005 10.12502,1.22794 l 2.18382,0.13826 -0.004,-4.70345 c -0.003,-2.58689 -0.0916,-4.8355 -0.19853,-4.9969 -0.10696,-0.16137 -1.08786,-0.36682 -2.17977,-0.45652 -6.23611,-0.51233 -7.77837,-0.76146 -11.6006,-1.87387 -4.24785,-1.23629 -6.35849,-2.69833 -12.9775,-8.98951 -1.84164,-1.7504 -4.26359,-3.86317 -5.38214,-4.69502 -1.11854,-0.83185 -2.51127,-2.12855 -3.09494,-2.88155 -1.38413,-1.7856 -6.32559,-5.14225 -9.61197,-6.52921 -1.3559,-0.57223 -3.25811,-1.39613 -4.2271,-1.83089 -2.31946,-1.04062 -7.79446,-3.01499 -10.1382,-3.65596 -1.0256,-0.28048 -3.23458,-0.64519 -4.90884,-0.81043 -3.89402,-0.38439 -22.75038,-0.21343 -25.01476,0.22678 -0.87353,0.1698 -2.83897,0.48417 -4.36765,0.69857 -1.52868,0.2144 -3.73236,0.56241 -4.89707,0.77336 -1.16471,0.21093 -4.01019,0.59015 -6.3233,0.84271 l -4.20563,0.45918 -0.8238,-0.93254 c -0.45307,-0.51291 -1.89582,-2.15472 -3.20612,-3.64848 -4.0944,-4.66768 -4.94347,-5.52253 -8.11971,-8.1751 -3.78856,-3.16395 -9.21641,-6.82803 -12.65974,-8.546 -0.50956,-0.25424 -1.63176,-0.93682 -2.49377,-1.51683 -0.86199,-0.58003 -2.58761,-1.52156 -3.83467,-2.09229 -1.24709,-0.57071 -3.81754,-2.1348 -5.71215,-3.47576 -1.89461,-1.34093 -4.27856,-2.91927 -5.29768,-3.5074 -1.01912,-0.58812 -3.34191,-1.9421 -5.16177,-3.00882 -1.81986,-1.06675 -4.32133,-2.44091 -5.55883,-3.05372 -2.46712,-1.22169 -8.26459,-3.1708 -10.41591,-3.50181 -0.74994,-0.1154 -2.25691,-0.58741 -3.34883,-1.04892 -5.42372,-2.29237 -9.73602,-3.56311 -13.96462,-4.11506 -1.69365,-0.22107 -3.20513,-0.48298 -3.35885,-0.58201 -0.41064,-0.26455 -17.4707,-0.64533 -29.66191,-0.66205 -8.61223,-0.0119 -11.05756,0.0653 -13.10296,0.41329 -1.38309,0.23529 -5.19486,0.85237 -8.47061,1.37128 -3.27574,0.51891 -8.6956,1.46811 -12.04414,2.10935 -4.68378,0.89692 -6.88207,1.19036 -9.52943,1.27206 -3.00307,0.0927 -3.67708,0.2001 -5.29412,0.84389 -1.01912,0.40576 -2.32942,1.0785 -2.91177,1.49501 -2.47611,1.77095 -8.3185,5.71027 -10.09377,6.80584 -1.05659,0.65207 -2.55303,1.61375 -3.32543,2.13709 -3.10911,2.10652 -8.83182,5.09064 -12.25732,6.39158 -3.70201,1.40595 -7.0738,2.78749 -7.89057,3.23303 -0.40892,0.22307 -1.65966,0.73365 -2.77942,1.13467 -5.80735,2.07975 -8.90589,3.23943 -11.30064,4.22936 -1.45588,0.60182 -4.31471,1.72569 -6.35295,2.49747 -2.03824,0.77178 -5.4331,2.07799 -7.54413,2.90268 -2.11104,0.82468 -4.69221,1.71789 -5.73595,1.98491 -1.04373,0.26701 -2.40886,0.74504 -3.03361,1.06227 -0.62476,0.31723 -2.1802,0.86159 -3.45653,1.20968 -4.29622,1.17171 -9.972096,3.61895 -13.318076,5.74228 -0.72794,0.46195 -2.15736,1.27533 -3.17648,1.80752 -1.01912,0.53217 -2.50725,1.50191 -3.30695,2.15495 -0.79971,0.65307 -1.53956,1.18736 -1.64411,1.18736 -0.10456,0 -0.82998,0.51873 -1.61205,1.15275 -0.78207,0.63399 -1.70987,1.30342 -2.06178,1.48763 -0.35191,0.18418 -1.75587,1.23634 -3.11992,2.33811 -1.36404,1.10176 -2.79346,2.22919 -3.17647,2.5054 -0.38302,0.27619 -2.24493,2.01139 -4.13758,3.85596 -1.89265,1.84459 -4.16687,3.93048 -5.05382,4.63532 -0.88695,0.70481 -2.25681,1.82718 -3.04412,2.49413 -0.78732,0.66695 -2.27352,1.697 -3.30266,2.28902 -1.02915,0.59202 -2.59936,1.62121 -3.48936,2.2871 -2.36228,1.7674 -4.8924,2.82809 -10.94964,4.59035 -5.26068,1.53053 -6.50279,1.95198 -17.12511,5.81094 -2.81144,1.02136 -5.52137,1.857 -6.02207,1.857 l -0.91045,8e-5 v 5.00575 c 0,5.77595 -0.32431,5.29469 3.09431,4.59188 z m 2.72923,-52.32117 c 1.38309,-0.36563 3.63447,-0.93347 5.00307,-1.26185 1.3686,-0.32838 3.21831,-0.92301 4.11047,-1.32141 0.89216,-0.39841 2.41214,-0.86131 3.37773,-1.02866 2.03044,-0.3519 2.70033,-0.60519 6.8323,-2.58307 6.51203,-3.11718 8.63345,-4.2009 9.872,-5.04313 0.70722,-0.4809 2.19447,-1.29209 3.30501,-1.80265 1.11054,-0.51056 2.50113,-1.25689 3.09021,-1.65857 0.58907,-0.40164 1.97489,-1.14473 3.07959,-1.65131 1.1047,-0.50656 2.77235,-1.4293 3.70589,-2.05052 0.93354,-0.62124 2.29293,-1.48017 3.02088,-1.90877 0.72794,-0.4286 2.15735,-1.40901 3.17647,-2.17871 1.01912,-0.76967 3.03871,-2.11251 4.48798,-2.98403 4.26866,-2.567 7.76715,-5.69541 11.65911,-10.42574 4.16121,-5.0576 7.85873,-7.87241 11.117666,-8.46357 2.43528,-0.44177 3.68813,-1.22567 16.21686,-10.14691 4.18369,-2.97903 7.96407,-5.65761 8.40083,-5.95239 4.08371,-2.75612 12.64195,-5.83025 19.45592,-6.98858 0.80074,-0.13613 5.50589,-0.33223 10.4559,-0.43577 8.30888,-0.1738 9.09196,-0.23013 10.19722,-0.7336 1.72584,-0.78614 5.59336,-3.18137 8.19988,-5.07834 2.92177,-2.12639 9.63423,-5.39098 12.81965,-6.23484 3.07449,-0.81444 8.59178,-1.8956 11.53333,-2.26002 5.09574,-0.6313 7.82268,-0.77462 19.19121,-1.00871 6.55149,-0.13489 12.56694,-0.37606 13.36768,-0.53596 0.87497,-0.17472 6.70546,-0.34961 14.61242,-0.43826 15.74281,-0.17652 15.43438,-0.21428 20.72588,2.53683 4.56388,2.37281 8.13239,4.23397 11.51472,6.00545 1.52868,0.80066 4.80442,2.82135 7.27943,4.49045 2.475,1.6691 5.33383,3.59571 6.35295,4.28139 3.16446,2.12902 6.44311,3.87103 7.61391,4.04536 0.61677,0.0918 5.52876,-0.0432 10.91554,-0.29995 6.84644,-0.3264 14.29533,-0.46693 24.75004,-0.46693 14.42984,0 15.03776,0.02 17.28255,0.56899 1.79799,0.43972 2.65445,0.81533 3.76939,1.65314 2.41688,1.81619 4.8998,4.26134 6.43824,6.34033 3.14879,4.25515 10.69126,13.44244 11.66773,14.2122 2.2324,1.75975 1.74412,1.70274 16.29808,1.90313 15.1956,0.20927 22.78894,0.66107 27.79417,1.65382 3.08052,0.61099 3.77672,0.92016 6.14484,2.72884 1.0809,0.82553 2.43283,1.79736 3.00428,2.15962 1.19814,0.7595 3.30566,3.06425 5.0592,5.53267 1.55783,2.19291 4.08466,4.58526 6.43877,6.09613 1.01912,0.65407 2.42919,1.68678 3.13349,2.29493 1.6847,1.45472 2.70025,1.8463 5.58494,2.1535 1.31958,0.14053 2.66535,0.32853 2.9906,0.41777 0.32521,0.0892 0.89102,0.0874 1.25735,-0.004 l 0.666,-0.16637 0.0117,-3.61758 c 0.007,-2.33063 0.13802,-3.97009 0.36691,-4.60853 0.1954,-0.54505 0.26515,-1.04641 0.15501,-1.11418 -0.4536,-0.279 -3.35303,-0.92464 -4.15245,-0.92464 -1.6744,0 -6.91617,-4.06978 -8.82258,-6.84997 -0.90461,-1.31925 -2.51519,-3.23724 -4.91637,-5.85483 -0.49487,-0.53944 -1.3932,-1.23136 -1.99633,-1.53761 -0.60314,-0.30624 -2.27732,-1.42909 -3.72045,-2.49521 -1.44313,-1.06612 -3.30385,-2.19404 -4.13493,-2.50653 -1.85773,-0.69846 -8.48974,-2.07605 -10.11403,-2.10089 -0.65515,-0.01 -1.72721,-0.13631 -2.38236,-0.28069 -1.97187,-0.43453 -9.81025,-0.77162 -21.74687,-0.93526 l -11.29094,-0.15476 -4.33407,-5.43774 c -2.38373,-2.99075 -5.03871,-6.37006 -5.89993,-7.50957 -1.6388,-2.16839 -4.97889,-5.2831 -8.34736,-7.78416 -2.05822,-1.52823 -2.87921,-1.86082 -7.67505,-3.10925 l -2.77942,-0.72354 -13.36767,-0.087 c -7.65963,-0.0498 -14.85771,0.0291 -16.85719,0.18482 -1.91923,0.14949 -7.0697,0.41213 -11.44551,0.58364 l -7.95599,0.31184 -2.50785,-1.55608 c -1.37933,-0.85583 -4.80535,-3.10523 -7.61335,-4.99869 -5.36592,-3.61824 -6.13521,-4.07104 -12.51728,-7.36802 -2.18383,-1.12813 -5.46002,-2.84123 -7.28043,-3.80684 -3.98752,-2.11512 -4.91519,-2.473 -8.33725,-3.21638 -2.39231,-0.51968 -3.58963,-0.58475 -12.4412,-0.67599 -7.71811,-0.0796 -10.94436,-0.004 -15.22061,0.35538 -3.14231,0.26425 -10.21768,0.54363 -16.80886,0.66369 -17.76045,0.32347 -19.81593,0.54331 -32.16182,3.43947 -5.92706,1.39039 -11.70185,4.05392 -17.85139,8.23365 -2.19279,1.49039 -4.28468,2.87559 -4.64865,3.07816 -0.50207,0.27948 -2.51427,0.40974 -8.33825,0.53975 -4.22207,0.0943 -8.74855,0.29123 -10.05884,0.43772 -2.82119,0.31541 -6.96639,1.32125 -10.45591,2.53718 -1.38309,0.48194 -3.46765,1.13785 -4.63236,1.45762 -4.1406,1.13667 -11.63792,5.85359 -25.17417,15.83824 -3.36153,2.47953 -4.81657,3.32785 -6.260366,3.64988 -1.71678,0.38294 -5.25253,2.04516 -7.77237,3.65396 -2.16254,1.38069 -4.75443,3.89863 -8.30788,8.07087 -2.47589,2.90703 -3.92489,4.36905 -6.10249,6.15739 -1.6708,1.37216 -8.77188,6.16442 -10.93619,7.38048 -0.60154,0.33799 -1.6893,1.06933 -2.41724,1.62523 -0.72795,0.55591 -2.2519,1.43091 -3.38658,1.94447 -1.13467,0.51359 -2.42925,1.19332 -2.87684,1.51053 -0.44759,0.31721 -2.19938,1.2743 -3.89285,2.12686 -1.69348,0.85256 -3.79376,2.01284 -4.66729,2.57839 -0.87353,0.56554 -2.48162,1.40493 -3.57354,1.86532 -1.09191,0.4604 -3.29559,1.47164 -4.89706,2.24722 -1.70951,0.82789 -3.69632,1.56927 -4.81186,1.79556 -1.04505,0.21195 -2.65314,0.69959 -3.57354,1.08364 -1.63206,0.68096 -4.33526,1.43001 -8.48963,2.35244 l -2.05148,0.45549 v 1.24701 c 0,0.68587 -0.16952,1.83169 -0.37671,2.54627 -0.39083,1.34797 -0.94685,4.66794 -0.94685,5.65355 0,0.52855 0.10613,0.55795 1.65442,0.45805 0.90993,-0.0587 2.78603,-0.40591 4.16912,-0.77154 z m 0.86242,-27.88387 c 4.89716,0 9.36001,-1.82507 13.25328,-5.41989 1.17413,-1.08411 2.89425,-2.34229 3.9706,-2.90428 2.41912,-1.26306 4.20185,-2.39783 6.75017,-4.29673 1.11718,-0.83248 2.98417,-2.1463 4.14888,-2.91966 1.16471,-0.77334 2.53344,-1.764 3.04163,-2.20148 0.50819,-0.43748 2.05672,-1.31069 3.44119,-1.94047 1.38445,-0.62977 2.75543,-1.28342 3.04661,-1.45256 0.29118,-0.16914 1.36324,-0.73587 2.38236,-1.25939 1.01912,-0.52353 2.21029,-1.14561 2.64706,-1.38241 1.43425,-0.77757 5.2804,-2.53372 5.95589,-2.71944 0.36398,-0.10006 1.1457,-0.61107 1.73718,-1.13554 0.59147,-0.5245 2.90627,-2.37631 5.14399,-4.11515 2.23772,-1.73883 5.26776,-4.09433 6.73343,-5.23443 1.46566,-1.1401 3.38494,-2.81223 4.26506,-3.71582 0.88012,-0.90359 2.28838,-2.09765 3.12946,-2.65347 0.84109,-0.55582 1.71205,-1.36241 1.93546,-1.7924 0.7242,-1.39386 2.772726,-3.32181 4.827096,-4.54295 2.59731,-1.54391 2.71189,-1.63781 3.43362,-2.81408 0.85219,-1.38891 1.74676,-1.99882 6.02089,-4.10506 2.30606,-1.13638 4.26603,-2.30767 5.11017,-3.05387 0.75315,-0.66574 2.65844,-1.85392 4.23399,-2.64035 1.57555,-0.78646 3.3167,-1.73526 3.86922,-2.10845 0.55252,-0.37319 1.6638,-0.86926 2.4695,-1.10237 0.80571,-0.23314 1.94661,-0.7095 2.53533,-1.05861 1.56336,-0.92707 3.66381,-1.86917 6.36454,-2.85462 1.3103,-0.4781 3.27575,-1.24981 4.36766,-1.71492 6.14968,-2.61946 7.74704,-3.09814 14.82356,-4.44205 1.52868,-0.29031 5.10221,-1.01672 7.94119,-1.61427 2.83897,-0.59753 5.87648,-1.19627 6.75001,-1.33053 1.50508,-0.23135 4.05766,-0.67533 5.3603,-0.93236 0.56529,-0.11153 0.59559,-0.2393 0.59559,-2.51147 0,-1.31667 0.17072,-3.06315 0.37937,-3.88103 0.46058,-1.80537 1.21058,-10.97653 1.20964,-14.79181 -2.6e-4,-1.52148 0.17798,-3.69559 0.39634,-4.83134 0.27782,-1.44503 0.39984,-3.85745 0.40644,-8.03554 0.007,-4.28197 0.11789,-6.41761 0.39292,-7.55131 0.31564,-1.30105 0.38588,-4.89069 0.39693,-20.28646 0.0109,-15.20673 0.0842,-19.02601 0.3919,-20.41819 0.5762,-2.60725 0.57624,-48.55221 4e-5,-51.54921 -0.32804,-1.70627 -0.39702,-5.10201 -0.39705,-19.54711 -4e-5,-15.47214 -0.0506,-17.66819 -0.44001,-19.10088 -0.28651,-1.05421 -0.4298,-2.53766 -0.41085,-4.25339 0.017,-1.5374 -0.13051,-3.25392 -0.35416,-4.12165 -0.2108,-0.81789 -0.38327,-2.1921 -0.38327,-3.0538 0,-0.8617 -0.17739,-2.14873 -0.39419,-2.86005 -0.21681,-0.71132 -0.39549,-1.80244 -0.39706,-2.42473 -0.002,-0.6223 -0.16945,-1.86715 -0.37306,-2.76634 -0.20361,-0.89919 -0.52744,-2.34625 -0.71963,-3.21566 -0.24845,-1.12398 -0.39512,-5.27319 -0.50755,-14.3586 -0.15792,-12.76114 -0.24953,-14.10484 -1.2484,-18.31051 -0.26385,-1.11092 -0.42192,-2.78704 -0.39754,-4.21537 0.0223,-1.30413 -0.13228,-3.11948 -0.34341,-4.03412 -0.29337,-1.27091 -0.38387,-3.68927 -0.38387,-10.25767 0,-6.48717 -0.0908,-8.95426 -0.37014,-10.06102 -0.20358,-0.80647 -0.5758,-2.41477 -0.82717,-3.574 -0.25136,-1.15923 -0.60872,-2.75975 -0.79412,-3.55672 -0.33242,-1.42897 -0.84557,-3.89063 -1.45538,-6.9817 -0.75887,-3.84661 -0.67489,-3.74704 -1.33328,-1.58076 -0.17616,0.57961 -1.09228,2.77292 -2.03582,4.87402 -1.57445,3.50604 -1.72605,4.00432 -1.84361,6.05959 -0.0722,1.26269 -0.40489,3.13455 -0.76274,4.29178 -0.34905,1.1288 -0.87615,3.26283 -1.17132,4.74229 -0.29517,1.47945 -0.76931,3.5791 -1.05364,4.66587 -1.00072,3.82488 -1.85281,7.58677 -1.85281,8.17996 0,0.32981 -0.1692,1.20287 -0.37599,1.94012 -0.87369,3.11476 -1.17728,5.1752 -1.16797,7.92697 0.005,1.59394 -0.11992,3.66869 -0.27847,4.61056 -0.15855,0.94187 -0.36284,3.60941 -0.45398,5.92786 -0.16237,4.13041 -0.1491,4.27833 0.65829,7.33947 0.4532,1.71825 0.824,3.70566 0.824,4.41648 0,1.37381 1.2912,5.60438 2.49639,8.17934 0.38435,0.82121 0.82974,2.2439 0.98976,3.16153 0.16001,0.91766 0.74901,2.57996 1.30889,3.69398 0.55987,1.11404 1.4968,3.27884 2.08205,4.81066 1.01087,2.64577 1.0641,2.93173 1.0641,5.71598 0,3.52542 -0.29881,4.64455 -1.55853,5.83715 -1.82321,1.72604 -3.96824,1.95051 -6.64736,0.69564 -0.94633,-0.44324 -2.30119,-1.36195 -3.01081,-2.0416 l -1.29022,-1.23571 0.18258,1.58076 c 0.10042,0.86942 0.27646,2.46994 0.39119,3.55672 0.1481,1.40282 0.45541,2.46169 1.0595,3.65064 0.46799,0.92106 1.07472,2.52158 1.34829,3.55672 0.27357,1.03511 1.06909,3.00832 1.76782,4.3849 l 1.27043,2.50287 0.0869,4.61056 c 0.0863,4.57781 0.0813,4.625 -0.69998,6.64232 -0.83813,2.16414 -2.69605,5.15018 -3.93016,6.31649 -0.41197,0.38934 -1.40419,1.01061 -2.20492,1.38061 -1.38462,0.63976 -1.68186,0.6728 -6.07187,0.67525 l -4.61599,0.003 -4.03046,-1.89919 c -3.58685,-1.69017 -4.08017,-2.0019 -4.48211,-2.8322 -0.5732,-1.18412 -1.33197,-3.46058 -1.7026,-5.10821 -0.15801,-0.70241 -0.64199,-2.0322 -1.0755,-2.95505 -0.77805,-1.65632 -1.12934,-2.8386 -2.14773,-7.22835 -0.88557,-3.81723 -0.99046,-4.10011 -2.01222,-5.42726 l -0.99393,-1.29104 0.0139,-9.61631 c 0.01,-6.74683 0.11343,-10.0487 0.34746,-11.06534 1.11405,-4.83935 1.0994,-4.63661 1.07309,-14.84107 -0.0267,-10.33746 -0.0342,-10.24165 1.13936,-14.53478 0.15844,-0.57961 0.37451,-2.29869 0.48016,-3.82017 0.25689,-3.69949 0.74007,-7.76657 1.0955,-9.22112 0.15934,-0.65207 0.38844,-2.7861 0.50911,-4.74229 0.12067,-1.95619 0.38616,-4.56445 0.58997,-5.79613 0.369,-2.22988 2.04766,-9.14799 3.13247,-12.90957 0.31342,-1.08677 0.71452,-2.77248 0.89134,-3.74601 0.31632,-1.74159 0.52172,-2.46315 2.79604,-9.8222 0.75031,-2.42782 1.20108,-4.45383 1.31888,-5.92786 0.0984,-1.23168 0.3211,-3.06932 0.49482,-4.08364 0.17372,-1.01432 0.6196,-3.62258 0.99083,-5.79613 0.37123,-2.17355 0.77305,-5.61171 0.89293,-7.64036 0.11988,-2.02864 0.35161,-4.34051 0.51496,-5.13748 0.16336,-0.79697 0.46964,-2.27893 0.68063,-3.29325 0.21099,-1.01433 0.38209,-2.05907 0.38022,-2.32164 -0.002,-0.26258 0.1617,-1.03321 0.36348,-1.7125 0.20178,-0.67929 0.62639,-2.56733 0.94358,-4.19563 0.31719,-1.62831 1.1181,-4.41441 1.77981,-6.19133 0.6617,-1.77691 1.37071,-3.9421 1.57557,-4.81152 0.20486,-0.86942 0.60532,-2.11427 0.88993,-2.76634 1.70938,-3.9164 2.81783,-7.45487 3.30124,-10.53842 0.20002,-1.27592 1.05594,-2.58091 2.0405,-3.11107 0.45519,-0.2451 1.39384,-0.91987 2.08589,-1.49949 0.69205,-0.57961 2.2528,-1.73808 3.46834,-2.57438 1.21554,-0.8363 3.63948,-2.57408 5.38654,-3.86172 4.93922,-3.64038 14.61973,-9.2448 18.72268,-10.8393 0.80959,-0.31462 1.95043,-1.07678 2.71854,-1.81616 1.62416,-1.56343 3.09635,-2.30934 6.95912,-3.52598 1.64369,-0.51771 3.34112,-1.19117 3.77207,-1.49659 0.43094,-0.30542 0.78354,-0.48554 0.78354,-0.40028 0,0.0853 0.49092,-0.0943 1.09095,-0.39892 1.02781,-0.52188 3.63522,-1.48389 5.85759,-2.16117 0.54596,-0.16638 0.99265,-0.42099 0.99265,-0.5658 0,-0.14481 -0.78327,-1.66193 -1.74059,-3.37138 -1.80498,-3.22309 -2.87117,-5.64191 -3.28543,-7.45355 -0.25937,-1.134267 -1.45695,-3.754777 -2.58455,-5.655397 -0.63647,-1.07281 -0.71593,-1.52593 -0.90092,-5.13748 -0.23364,-4.56151 -0.58197,-7.592802 -0.99448,-8.654482 -0.1777,-0.457322 -0.28818,-3.055949 -0.28818,-6.778093 0,-5.704144 0.0344,-6.127398 0.62565,-7.689068 1.14317,-3.019669 3.55327,-7.504699 4.32698,-8.052215 1.24014,-0.877587 2.84736,-1.240594 3.9719,-0.897088 0.53627,0.163814 0.99199,0.272054 1.01271,0.240534 0.0207,-0.03152 0.43562,-0.887209 0.92201,-1.901532 0.48639,-1.014323 1.26408,-2.437009 1.7282,-3.161526 0.46411,-0.724516 1.27752,-2.109502 1.80757,-3.077746 1.13138,-2.066681 3.18213,-3.974473 4.89771,-4.556278 1.60904,-0.545674 7.63972,-0.549597 9.73532,-0.0063 0.83843,0.217355 2.329,0.395191 3.31238,0.395191 1.42695,0 2.39113,0.216968 4.77527,1.074576 4.04709,1.455791 4.57251,1.695869 6.57549,3.004523 2.27737,1.48793 6.00359,5.44639 7.11843,7.562101 0.79594,1.510509 1.32946,2.367925 3.11711,5.009478 0.32361,0.478194 1.36589,2.396102 2.31618,4.262014 l 1.72779,3.39256 -0.003,3.457405 c -0.002,2.34253 -0.13322,3.882183 -0.40712,4.774708 -0.31718,1.033585 -0.39451,2.565657 -0.35902,7.113438 0.0275,3.53041 -0.0629,6.06229 -0.23144,6.47702 -0.15216,0.37449 -0.3598,2.74564 -0.46141,5.26921 -0.14341,3.561597 -0.29331,4.838757 -0.66989,5.707547 -0.57571,1.3282 -2.55134,3.69072 -3.28022,3.92259 -1.04405,0.33213 -3.2295,1.83714 -4.56709,3.14512 -1.37094,1.34059 -1.37608,1.35185 -1.36818,2.99552 0.007,1.48471 0.0919,1.73889 0.84669,2.53898 0.70549,0.74783 1.59585,1.14366 5.60348,2.49114 7.05764,2.37299 11.02463,3.60249 14.42649,4.47123 1.67427,0.42755 4.65222,1.2972 6.61766,1.93254 1.96545,0.63534 4.52648,1.41732 5.69119,1.73775 1.16471,0.32043 2.71554,0.81078 3.44629,1.08967 0.73078,0.2789 1.5646,0.50969 1.85295,0.51287 1.54628,0.0171 3.46686,1.5151 4.21473,3.28747 0.4923,1.16669 2.52972,3.91305 4.78854,6.45478 1.09456,1.23168 2.31472,2.75614 2.71147,3.3877 0.39674,0.63156 1.25738,1.76493 1.91253,2.51861 2.3873,2.74634 4.39955,5.50945 5.89953,8.10101 0.84344,1.45722 1.72615,2.84124 1.96164,3.07559 0.23545,0.23436 0.64839,0.92177 0.91763,1.52757 0.26926,0.60581 0.90564,1.71687 1.41419,2.46904 0.50858,0.75217 0.92467,1.48797 0.92467,1.63513 0,0.14715 0.40138,0.81694 0.89196,1.48842 0.49058,0.67148 1.33123,2.4188 1.86816,3.88295 0.53693,1.46414 1.6406,3.83528 2.45261,5.26921 0.81202,1.43392 2.04963,3.70634 2.75022,5.04982 0.70063,1.34348 1.51291,2.77684 1.80509,3.18525 0.29218,0.4084 0.78999,1.44322 1.10621,2.29959 0.52645,1.42562 1.30352,2.69538 2.35305,3.84495 0.2228,0.24402 1.00067,1.28909 1.72861,2.32238 0.72795,1.03329 1.99266,2.78983 2.81047,3.90342 0.81781,1.1136 1.75159,2.54458 2.07509,3.17997 0.32347,0.63539 1.15724,1.88024 1.85284,2.76633 0.69556,0.8861 1.45593,1.98422 1.6897,2.44026 0.42387,0.82692 3.03779,4.73543 4.62974,6.92273 0.46159,0.6342 0.83925,1.28597 0.83925,1.44839 0,0.16242 0.51843,1.18201 1.15208,2.26575 0.63363,1.08375 1.55139,3.03746 2.03948,4.34159 0.48807,1.30413 1.19552,2.79937 1.57209,3.32275 0.37657,0.52338 1.03133,1.76823 1.45499,2.76634 0.42366,0.9981 1.09988,2.33587 1.50274,2.97283 0.40283,0.63696 1.0489,2.00037 1.43568,3.0298 0.6659,1.77229 1.08522,2.51244 3.37387,5.95533 0.97457,1.46607 2.28884,4.84128 5.3346,13.69994 1.24068,3.60852 1.82417,5.7975 2.24731,8.43074 1.15954,7.21616 2.37833,13.37599 3.16311,15.98657 0.44341,1.47501 0.98222,3.84616 1.19737,5.26921 0.21515,1.42308 0.57454,3.53585 0.79867,4.69508 0.60496,3.12904 0.80225,6.96779 0.43311,8.42689 -0.17174,0.6788 -0.48001,2.50034 -0.68511,4.04783 -0.62137,4.68915 -2.9537,9.38676 -6.2072,12.50207 -1.08917,1.04291 -2.53785,2.42969 -3.21931,3.08175 l -1.23904,1.18557 -1.55221,-0.16439 c -0.8537,-0.0904 -1.85001,-0.28554 -2.21398,-0.43363 -1.26609,-0.51507 -4.46694,-3.10007 -5.70429,-4.60672 -1.21272,-1.47672 -1.24822,-1.57104 -1.35892,-3.61215 -0.0629,-1.15967 0.007,-2.32013 0.15628,-2.59798 0.18744,-0.34853 0.17672,-0.74807 -0.035,-1.30632 -0.31817,-0.83899 -0.24464,-1.10988 1.14369,-4.2132 0.27726,-0.61972 0.50409,-1.41558 0.50409,-1.76859 0,-0.35303 0.23823,-1.24343 0.52941,-1.97867 1.36578,-3.44867 0.006,-8.15826 -3.61348,-12.51437 -0.48161,-0.57961 -1.1646,-1.40841 -1.5178,-1.84175 -0.62505,-0.76693 -0.65629,-0.7752 -1.17215,-0.31054 -0.29149,0.26254 -0.77389,1.04173 -1.07203,1.73147 -0.97484,2.2554 -4.01605,4.48559 -6.13465,4.49866 -2.4592,0.0153 -4.38394,-1.95411 -5.71856,-5.85098 -0.67063,-1.95812 -0.74009,-2.48562 -0.68596,-5.20856 0.0331,-1.66639 0.18646,-4.04149 0.34068,-5.27801 0.18421,-1.47687 0.1944,-2.78756 0.0297,-3.82019 -0.13789,-0.86457 -0.18794,-3.47849 -0.11126,-5.8087 0.11745,-3.56937 0.0673,-4.45275 -0.3182,-5.60806 -0.25171,-0.75423 -0.61044,-2.87864 -0.79722,-4.72092 -0.28789,-2.84005 -0.53033,-3.87027 -1.59366,-6.77243 -0.68977,-1.88257 -1.88209,-4.66909 -2.64961,-6.19228 -0.76751,-1.52318 -1.77324,-3.83601 -2.23491,-5.13962 -0.46168,-1.30361 -1.24968,-2.964 -1.75109,-3.68978 -0.50143,-0.72577 -0.91167,-1.42123 -0.91167,-1.54546 0,-0.12423 -0.41212,-0.78467 -0.91583,-1.46764 -0.50371,-0.68296 -1.04181,-1.5715 -1.19576,-1.97453 -0.15398,-0.40303 -0.62129,-1.22353 -1.03852,-1.82334 -1.45584,-2.09293 -3.51504,-5.25647 -5.23158,-8.03723 -0.95109,-1.54075 -2.35554,-3.63127 -3.12097,-4.64559 -0.76545,-1.01432 -1.73229,-2.72102 -2.14854,-3.79265 -0.66793,-1.71959 -1.11179,-2.32214 -3.77935,-5.13043 -1.6624,-1.7501 -3.33421,-3.65269 -3.71512,-4.22798 l -0.69261,-1.04598 -0.0852,1.17066 c -0.0469,0.64386 0.0923,1.94128 0.30939,2.88315 0.21706,0.94187 0.47959,2.54239 0.58341,3.55672 0.10382,1.01432 0.22495,2.14061 0.26921,2.50287 0.0442,0.36226 0.21065,1.72567 0.36984,3.0298 0.1592,1.30413 0.39307,3.20104 0.5197,4.21536 0.15369,1.23105 1.16942,4.47213 3.05498,9.74804 1.9102,5.3449 2.8975,8.5009 3.04947,9.74804 0.12362,1.01433 0.58937,2.85196 1.035,4.08364 0.44566,1.23168 0.81262,2.73002 0.81551,3.32965 0.003,0.59963 0.31595,2.14087 0.69578,3.42499 1.36538,4.61641 1.47129,5.25798 1.68996,10.23856 0.25192,5.7374 0.90718,12.34215 1.33566,13.46262 0.16073,0.42034 0.40156,2.12766 0.53515,3.79405 0.13363,1.66638 0.6511,4.86743 1.14997,7.11343 0.49889,2.246 0.97523,4.74458 1.05856,5.55238 0.0833,0.80779 0.88097,3.65093 1.77255,6.31807 1.44811,4.33203 1.64362,5.17313 1.83262,7.88414 0.11636,1.6691 0.52025,4.38796 0.89754,6.04186 0.37728,1.65392 0.65586,3.03187 0.61907,3.06214 -0.0368,0.0303 -0.45932,0.25372 -0.93892,0.49655 -0.47959,0.2428 -1.10454,0.82105 -1.38873,1.28492 -0.47639,0.77763 -0.51572,1.34729 -0.5041,7.29825 0.007,3.55013 0.1297,7.28469 0.27286,8.29901 0.14312,1.01432 0.42895,4.27465 0.63516,7.24516 0.20623,2.97052 0.49254,6.29012 0.63627,7.3769 0.14374,1.08677 0.26871,4.78997 0.27771,8.22934 0.009,3.4394 0.12872,6.75901 0.26608,7.3769 0.2394,1.07705 0.44849,2.28468 1.19803,6.91963 0.18747,1.15923 0.46456,2.46336 0.61579,2.89807 0.15123,0.43471 0.34407,2.33162 0.42853,4.21537 0.22064,4.91928 0.80506,9.29944 1.70495,12.77783 0.43113,1.66639 1.09822,4.6896 1.48244,6.71824 0.38424,2.02865 0.82149,4.28124 0.97168,5.00575 0.17322,0.83562 0.21566,4.06293 0.11605,8.82593 -0.0864,4.12974 -0.2223,10.65039 -0.30206,14.49033 -0.0974,4.69065 -0.0504,7.28429 0.14331,7.90381 0.56131,1.79525 0.86536,7.65653 1.03188,19.89127 l 0.16851,12.38264 0.74335,2.89807 c 0.40884,1.59394 0.93206,3.43157 1.16273,4.08364 0.23066,0.65206 0.5086,2.66754 0.61763,4.47883 0.1884,3.13001 1.11437,8.82147 1.91447,11.7672 0.30457,1.12136 0.30925,1.46868 0.0265,1.97595 -0.45704,0.8201 -0.43658,3.0871 0.0353,3.9087 0.2295,0.39959 0.382,1.4132 0.38769,2.57701 0.006,1.30208 0.11568,1.94861 0.34025,2.01255 3.95252,1.12529 12.82606,1.80608 15.94856,1.22362 0.87353,-0.16295 2.71986,-0.40613 4.10295,-0.54039 2.78069,-0.26994 7.4198,-0.94932 9.26473,-1.35684 0.65514,-0.1447 6.08665,-0.32849 12.07005,-0.40839 10.43308,-0.13935 10.97676,-0.12241 13.26809,0.413 1.31405,0.30703 2.71181,0.55827 3.10609,0.55827 1.74394,0 8.2631,2.70334 9.54113,3.95649 0.43677,0.42826 1.53604,1.28413 2.44282,1.90192 4.81424,3.28003 6.66398,4.66104 7.6799,5.73385 1.3546,1.43046 1.21796,1.2977 4.17142,4.05276 5.35168,4.9921 6.88811,6.3005 9.21234,7.84501 1.3391,0.88989 3.14945,2.23386 4.02298,2.98664 0.87353,0.75276 1.86965,1.51685 2.21358,1.69798 0.34394,0.18113 1.31668,0.9619 2.16167,1.73507 0.84497,0.77315 1.87389,1.57961 2.28643,1.79209 0.41255,0.21248 1.40538,1.08021 2.20625,1.92827 2.78688,2.95099 8.35628,7.0488 10.54445,7.75827 0.53351,0.17299 1.8634,0.73 2.95531,1.23779 1.34005,0.62322 2.58753,0.98664 3.83824,1.11824 2.43813,0.2565 6.07697,1.46347 7.11415,2.35968 0.45487,0.39306 1.09506,0.85475 1.42263,1.026 l 0.59559,0.31138 0.0402,-5.87127 c 0.0827,-12.08536 0.49714,-36.62749 0.62195,-36.82849 0.17844,-0.28735 0.19604,-24.08002 0.0233,-31.61465 -0.0946,-4.12975 -0.22709,-14.74062 -0.29435,-23.57972 -0.11949,-15.70433 -0.29541,-26.1875 -0.52388,-31.22007 -0.38941,-8.57764 -0.64808,-43.37031 -0.75701,-101.82748 -0.0259,-13.91072 -0.13418,-25.94428 -0.24054,-26.74125 -0.29763,-2.23022 -0.78403,-11.2553 -0.85193,-15.80763 -0.0335,-2.246 -0.19202,-6.86973 -0.3523,-10.27496 -0.31529,-6.69805 -0.68058,-21.01986 -0.60146,-23.57971 0.0269,-0.86942 -0.0813,-3.65552 -0.24051,-6.19132 -0.15917,-2.53581 -0.34552,-7.85599 -0.41414,-11.82261 -0.0686,-3.96663 -0.20271,-7.33762 -0.298,-7.49109 -0.36157,-0.58227 -0.0839,-34.90007 0.32522,-40.19369 0.2169,-2.80654 0.44351,-5.18195 0.50357,-5.27868 0.0601,-0.0967 0.18657,-3.31339 0.28109,-7.14812 0.0945,-3.83473 0.22021,-7.26863 0.27932,-7.63089 0.28218,-1.72928 0.0409,-12.88655 -0.29078,-13.44709 -0.0463,-0.0783 -0.15721,-3.22005 -0.24639,-6.9817 -0.0892,-3.76166 -0.27471,-7.96566 -0.41225,-9.34225 -0.13757,-1.37658 -0.32331,-4.10339 -0.41278,-6.05959 -0.0895,-1.95619 -0.20221,-3.621477 -0.25049,-3.700627 -0.0483,-0.0792 -0.1606,-4.52505 -0.24954,-9.87977 -0.089,-5.354715 -0.28477,-10.802862 -0.43513,-12.106992 -0.15035,-1.304129 -0.27251,-5.828866 -0.27145,-10.05497 0.003,-6.609676 0.0627,-7.800847 0.43684,-8.520942 0.38245,-0.736088 0.41231,-1.525766 0.24726,-6.543042 -0.17722,-5.388476 -0.15742,-5.779212 0.35558,-7.023228 0.49847,-1.208709 0.55575,-2.04753 0.69486,-10.175379 l 0.15157,-8.858078 -1.51926,-0.136635 c -1.4585,-0.13117 -14.04098,-0.05194 -24.01929,0.151245 -2.6206,0.05336 -8.9934,0.183655 -14.1618,0.289538 -8.50197,0.174177 -32.53323,-0.121906 -36.79418,-0.453333 -2.83048,-0.220161 -5.52927,-0.452332 -8.4706,-0.728709 -1.52868,-0.14364 -4.38751,-0.242713 -6.35296,-0.220162 -5.54438,0.06361 -27.22394,-0.286341 -28.85299,-0.465748 -0.80074,-0.08818 -1.69412,-0.183418 -1.9853,-0.211629 -0.66288,-0.06423 -1.98871,-0.307986 -5.02942,-0.924694 -1.90279,-0.385917 -3.68786,-0.487699 -8.86766,-0.505619 -3.56692,-0.01234 -8.26181,-0.111529 -10.43306,-0.220419 -3.08399,-0.154664 -4.38711,-0.111516 -5.95589,0.197209 -2.3358,0.45967 -10.11422,0.512139 -29.0082,0.195675 -17.80352,-0.298201 -23.29694,-0.293454 -35.1231,0.03035 -10.88614,0.298063 -14.44909,0.546625 -17.81817,1.243054 -2.35491,0.486787 -18.88965,0.540622 -21.45664,0.06986 -1.27592,-0.23399 -2.61448,-0.225012 -5.849,0.03923 -6.76564,0.552716 -10.75459,0.672602 -16.10621,0.484067 -2.76618,-0.09745 -9.07942,-0.177087 -14.02943,-0.176968 -6.99518,1.69e-4 -9.44226,-0.08879 -10.98532,-0.399334 -2.13892,-0.43047 -2.9896,-0.520281 -9.26472,-0.978124 -5.65823,-0.412835 -9.46071,-0.412408 -16.4118,0.0018 -3.27574,0.195219 -7.99116,0.333798 -10.47872,0.307954 -2.85896,-0.0297 -4.80658,0.06309 -5.29413,0.252227 -0.42411,0.16457 -3.51091,0.397486 -6.859436,0.517592 -3.34854,0.120106 -6.7434,0.352869 -7.54413,0.517251 -0.80074,0.164382 -4.1956,0.358486 -7.54414,0.431342 -8.72712,0.18988 -10.92921,0.268182 -17.60297,0.625923 -11.3006,0.605759 -21.00593,0.319544 -27.66182,-0.81576 -3.04987,-0.520222 -5.04587,-0.770052 -7.27942,-0.911133 -2.75736,-0.174522 -10.12438,-0.865113 -11.35704,-1.064977 l -0.90129,-0.146138 0.15987,2.720064 c 0.0879,1.496034 0.35016,3.668521 0.58275,4.827747 0.79294,3.952098 0.92917,5.006122 1.07269,8.299006 0.0789,1.811291 0.26516,4.478829 0.41383,5.927862 0.14868,1.449033 0.31961,4.590799 0.37985,6.981703 0.0602,2.390904 0.2216,4.762049 0.35855,5.26921 0.59818,2.2151 0.79314,3.102409 0.9262,4.215369 0.20032,1.675566 0.42779,6.705899 0.55397,12.250913 0.0594,2.608259 0.25997,8.299006 0.44581,12.646102 0.24013,5.61723 0.32201,17.926677 0.28304,42.548867 -0.0302,19.05478 -0.10899,35.17857 -0.17518,35.83063 -0.16672,1.64253 -0.38671,8.68179 -0.56399,18.04705 -0.0823,4.3471 -0.26368,8.71829 -0.4031,9.71376 -0.13943,0.99548 -0.19302,2.71456 -0.11911,3.82018 0.13175,1.97083 0.3086,15.70092 0.51625,40.08027 0.0998,11.71939 0.5482,28.49818 0.80613,30.16623 0.22189,1.43494 0.53632,11.77516 0.49671,16.33455 -0.0214,2.46336 -0.1044,14.37836 -0.18445,26.47778 -0.0801,12.09943 -0.20859,22.35463 -0.28564,22.78934 -0.14489,0.81741 -0.30866,3.25858 -0.53908,8.03554 -0.0734,1.52149 -0.22495,4.18902 -0.3368,5.92786 -0.11184,1.73884 -0.19998,4.82133 -0.19586,6.84998 0.0161,7.90921 0.1007,26.16523 0.15267,32.93256 0.19207,25.00767 0.0399,81.08023 -0.23983,88.391 -0.17466,4.56445 -0.36815,12.09284 -0.42997,16.72974 -0.0658,4.93828 -0.23057,8.81273 -0.39766,9.35285 -0.18332,0.5926 -0.22497,2.24013 -0.11656,4.61056 0.29242,6.39419 0.32437,8.81881 0.34021,25.81913 0.008,9.12891 -0.0745,17.25008 -0.18435,18.04704 -0.10989,0.79697 -0.15657,2.60305 -0.10373,4.01351 0.0897,2.39343 0.12852,2.54719 0.58267,2.30528 0.26763,-0.14256 1.72418,-0.25919 3.23677,-0.25919 z M 319.97156,354.83575 c 0,-0.36226 0.0601,-0.51045 0.13352,-0.32933 0.0734,0.18113 0.0734,0.47753 0,0.65866 -0.0734,0.18113 -0.13352,0.0329 -0.13352,-0.32933 z m -0.43885,-1.58076 c -0.10051,-0.45545 -0.12756,-0.88299 -0.0601,-0.95009 0.0675,-0.0671 0.19872,0.25669 0.29174,0.71956 0.093,0.46287 0.12007,0.89042 0.0601,0.95009 -0.06,0.0597 -0.19122,-0.26412 -0.29173,-0.71956 z m -48.58545,116.58127 c -0.12537,-1.59393 -0.4755,-3.72796 -0.77808,-4.74229 -0.52211,-1.75038 -0.7325,-2.94593 -1.71527,-9.74804 -0.23029,-1.59393 -0.6579,-4.13822 -0.95023,-5.65399 -0.42579,-2.20777 -0.58028,-4.59212 -0.7767,-11.98745 -0.15445,-5.81534 -0.38621,-10.0115 -0.62627,-11.33921 -0.2096,-1.15923 -0.5204,-3.64893 -0.69066,-5.53267 -0.31096,-3.44048 -0.85383,-7.79274 -1.85671,-14.88552 -0.29708,-2.1011 -0.7161,-5.53926 -0.93115,-7.64036 -0.21504,-2.10109 -0.51109,-4.53152 -0.65788,-5.40094 -0.14678,-0.86942 -0.26757,-2.24629 -0.26841,-3.05969 -8e-4,-0.81341 -0.12417,-2.11754 -0.27406,-2.89807 -0.75039,-3.90749 -1.85133,-12.44158 -2.10338,-16.30465 -0.37128,-5.69051 -0.72352,-8.97057 -1.34391,-12.51437 -1.44315,-8.24363 -1.83915,-10.81213 -1.84049,-11.93774 -0.002,-1.53115 -0.0219,-1.61056 -2.4801,-9.79776 -0.68987,-2.29769 -1.43172,-6.32481 -1.55306,-8.43073 l -0.0683,-1.18557 -4.10295,-0.44412 c -2.25662,-0.24425 -4.3041,-0.45173 -4.54996,-0.46105 -0.5754,-0.0219 -0.40226,-1.55253 -2.59067,22.90412 -1.01784,11.37491 -2.62685,29.26943 -3.57559,39.76565 l -1.72497,19.08397 v 12.80368 12.80368 l -2.11445,7.6314 -2.11445,7.63142 -0.002,6.19132 c -0.002,5.20619 0.075,6.46382 0.4825,7.90382 0.44492,1.57207 0.54795,1.71813 1.25632,1.78128 0.42441,0.0378 3.98784,-0.0291 7.91873,-0.14877 l 7.14707,-0.2176 0.57332,0.65225 c 0.51617,0.5872 0.79326,0.65689 2.77942,0.69886 1.31974,0.0279 2.68468,0.22613 3.39727,0.49343 0.65515,0.24573 1.83555,0.55822 2.62312,0.69438 2.15006,0.37177 5.02223,1.53023 6.50925,2.62546 1.82665,1.34536 3.55282,2.29532 5.49721,3.02524 0.90742,0.34065 1.66871,0.60122 1.69177,0.57903 0.023,-0.0221 -0.0607,-1.34446 -0.18609,-2.9384 z m -5.89559,-113.46915 c -0.0845,-0.21016 -0.14723,-0.14774 -0.15993,0.15919 -0.0115,0.27771 0.0511,0.43334 0.13903,0.34579 0.088,-0.0875 0.0974,-0.31478 0.0209,-0.50498 z"
     id="path1263" /></svg>
