<?xml version="1.0" encoding="UTF-8" standalone="no"?>
<!-- Created with Inkscape (http://www.inkscape.org/) -->

<svg
   width="1780"
   height="3164"
   viewBox="0 0 470.95832 837.14166"
   version="1.1"
   id="svg5"
   xml:space="preserve"
   inkscape:version="1.2 (dc2aeda, 2022-05-15)"
   sodipodi:docname="book4-part3.svg"
   inkscape:export-filename="book4-part3.png"
   inkscape:export-xdpi="96"
   inkscape:export-ydpi="96"
   xmlns:inkscape="http://www.inkscape.org/namespaces/inkscape"
   xmlns:sodipodi="http://sodipodi.sourceforge.net/DTD/sodipodi-0.dtd"
   xmlns="http://www.w3.org/2000/svg"
   xmlns:svg="http://www.w3.org/2000/svg"><sodipodi:namedview
     id="namedview7"
     pagecolor="#ffffff"
     bordercolor="#000000"
     borderopacity="0.25"
     inkscape:showpageshadow="2"
     inkscape:pageopacity="0.0"
     inkscape:pagecheckerboard="0"
     inkscape:deskcolor="#d1d1d1"
     inkscape:document-units="mm"
     showgrid="false"
     inkscape:zoom="0.16604267"
     inkscape:cx="617.3112"
     inkscape:cy="1758.5841"
     inkscape:window-width="1052"
     inkscape:window-height="802"
     inkscape:window-x="282"
     inkscape:window-y="25"
     inkscape:window-maximized="0"
     inkscape:current-layer="layer1" /><defs
     id="defs2" /><g
     inkscape:label="Layer 1"
     inkscape:groupmode="layer"
     id="layer1"><path
       style="fill:#000000;stroke-width:0.263744"
       d="m 103.3699,831.54724 c -1.15667,-0.20473 -4.646404,-0.48238 -7.754962,-0.61707 -3.108559,-0.13469 -6.679507,-0.42973 -7.935441,-0.65568 -1.255937,-0.22595 -2.557194,-0.39361 -2.891683,-0.3726 -0.334491,0.0209 -2.382606,-0.0404 -4.551368,-0.13648 -5.01141,-0.22201 -19.745948,-0.46582 -28.785383,-0.4763 -6.434568,-0.007 -12.541777,0.26633 -17.744413,0.79552 -2.142187,0.21791 -15.398843,0.12948 -17.397715,-0.11605 -0.758262,-0.0932 -1.33634,-0.37922 -1.863968,-0.92244 -0.632464,-0.65115 -0.874203,-0.7467 -1.396856,-0.55208 -0.896033,0.33365 -2.022196,-0.13378 -2.482906,-1.03058 -0.484231,-0.94254 -0.486917,-2.62699 -0.01116,-6.99661 0.205995,-1.89196 0.367521,-4.33299 0.358949,-5.42451 -0.0086,-1.09151 0.109585,-2.99671 0.262573,-4.23376 0.450309,-3.64117 0.826694,-25.58151 0.449391,-26.19601 -0.06778,-0.1104 -0.0081,-2.62499 0.132659,-5.58801 0.140738,-2.96303 0.313921,-9.31823 0.384851,-14.12265 0.07093,-4.80445 0.203355,-12.54572 0.294276,-17.20286 0.361359,-18.50933 0.0011,-65.31586 -0.555079,-72.10628 -0.161315,-1.96973 -0.312672,-6.2516 -0.528476,-14.95048 -0.08304,-3.34732 -0.198508,-6.68141 -0.256592,-7.40908 -0.676471,-8.47475 -0.614466,-24.4892 0.274057,-70.78323 0.106362,-5.54171 0.410152,-13.69572 0.552074,-14.81817 0.178891,-1.41485 0.142531,-18.33802 -0.04349,-20.24269 -0.07107,-0.72767 -0.18183,-9.00336 -0.246132,-18.3904 -0.113164,-16.52007 -0.277458,-24.1907 -0.526833,-24.59685 -0.06604,-0.10756 -0.19579,-2.32735 -0.288327,-4.93286 -0.09254,-2.60554 -0.244611,-4.85639 -0.337941,-5.00193 -0.09333,-0.14553 -0.196668,-23.78184 -0.229641,-52.52512 -0.03297,-28.74328 -0.106631,-53.9871 -0.163684,-56.09736 -0.05705,-2.11027 -0.1820154,-8.064 -0.2776934,-13.23051 -0.09568,-5.16652 -0.30089,-11.71562 -0.456027,-14.55357 -0.155136,-2.83794 -0.315329,-8.37491 -0.355984,-12.30437 -0.04065,-3.92946 -0.210596,-8.39476 -0.377649,-9.92288 -0.192312,-1.75918 -0.244514,-4.7198 -0.142303,-8.07061 0.266327,-8.73108 0.306848,-22.41664 0.09712,-32.80193 -0.18836,-9.32722 -0.174034,-9.8327 0.308908,-10.8998 0.452054,-0.99885 0.479583,-1.38343 0.256411,-3.582 -0.137509,-1.35465 -0.273683,-3.17744 -0.30261,-4.05065 -0.02893,-0.87322 -0.147574,-1.84939 -0.26366,-2.16928 -0.116086,-0.31986 -0.395904,-2.58228 -0.621817,-5.02759 -0.225915,-2.44529 -0.528137,-4.92228 -0.671606,-5.50442 -0.143469,-0.58214 -0.324768,-3.61855 -0.402887,-6.74756 -0.07812,-3.12902 -0.205834,-5.98681 -0.283809,-6.35065 -0.07798,-0.36384 -0.242423,-3.57885 -0.36544,-7.14447 -0.123016,-3.56563 -0.285744,-6.95925 -0.361619,-7.54139 -0.07587,-0.58215 -0.205549,-3.32086 -0.288167,-6.08604 -0.08262,-2.76517 -0.283483,-6.93279 -0.446368,-9.26136 -0.45703,-6.53363 -0.342965,-31.77739 0.199076,-44.05759 0.09292,-2.10505 0.60335,-9.20154 0.894542,-12.43668 0.137545,-1.52813 0.225766,-3.01656 0.196047,-3.30763 -0.09997,-0.97908 0.363178,-8.96495 0.728945,-12.56899 0.199397,-1.96473 0.355249,-4.40576 0.346338,-5.4245 -0.01692,-1.93378 0.08445,-3.38588 0.711152,-10.1875 0.20785,-2.2558 0.443904,-5.69581 0.524564,-7.64448 0.08066,-1.94866 0.202747,-3.63437 0.271305,-3.74603 0.06856,-0.11166 0.131357,-1.25602 0.139554,-2.54302 0.0082,-1.28699 0.182544,-3.66319 0.387437,-5.28042 0.208499,-1.6457 0.302798,-3.6921 0.214162,-4.64753 -0.0871,-0.93891 -0.02694,-2.89027 0.133693,-4.33636 0.3623204,-3.26171 0.5070594,-6.354299 0.6927304,-14.801309 0.232148,-10.56143 0.539336,-19.70683 0.795484,-23.68262 0.06095,-0.94598 0.17508,-3.08932 0.253628,-4.76298 0.181173,-3.86029 0.310787,-6.203019 0.805193,-14.553558 0.219725,-3.711158 0.515207,-11.093783 0.656628,-16.405833 0.308561,-11.590147 0.542837,-14.689969 1.274274,-16.860553 0.304966,-0.905007 0.554485,-1.839231 0.554485,-2.076054 0,-0.236823 0.203996,-0.778198 0.453323,-1.203054 0.496946,-0.8467994 1.631834,-1.2856894 3.35844,-1.2987954 0.578336,-0.0044 1.749435,-0.242988 2.602441,-0.530216 0.868412,-0.292416 1.678206,-0.42642 1.840162,-0.304507 0.159082,0.11975 1.945386,0.11301 3.969563,-0.01498 4.250076,-0.268729 8.75226,-0.147748 11.987669,0.322127 1.705401,0.247673 3.869722,0.267726 8.806485,0.0816 6.326641,-0.238535 11.02707,-0.09413 14.037472,0.431252 2.326931,0.406101 27.578358,0.536126 33.648667,0.173263 1.807301,-0.108034 6.716591,-0.170379 10.909531,-0.138546 16.14136,0.122551 20.09376,0.110778 31.93994,-0.09514 6.72316,-0.116866 12.34223,-0.216098 12.48681,-0.220515 0.14458,-0.0044 1.97817,0.0039 4.07464,0.01838 2.09647,0.01453 4.81728,-0.0213 6.04625,-0.07962 12.08995,-0.573704 14.82664,-0.730813 15.03978,-0.863407 0.13585,-0.08452 4.70375,-0.139952 10.15087,-0.12319 40.77513,0.125478 64.6759,0.08207 69.84054,-0.126854 3.32543,-0.134521 9.83172,-0.159959 14.45841,-0.05653 11.15556,0.24938 42.45195,0.719357 56.25636,0.8448 6.07254,0.05518 12.69712,0.23457 14.7213,0.398639 2.02417,0.16407 5.98709,0.34833 8.80648,0.409469 2.81939,0.06114 6.28063,0.236763 7.69164,0.390277 1.41101,0.153515 4.8416,0.28459 7.62353,0.291279 2.78193,0.0067 8.19289,0.122539 12.02437,0.257446 3.83148,0.134906 8.75573,0.2603494 10.94276,0.2787624 2.18703,0.01841 5.32188,0.131791 6.96633,0.251949 1.64444,0.120159 7.07365,0.286533 12.06494,0.369721 6.00281,0.100046 9.96308,0.285973 11.69816,0.549207 1.44272,0.218877 3.27376,0.399559 4.06897,0.401516 0.79521,0.002 2.15562,0.112708 3.02312,0.246112 2.29063,0.352252 8.55412,0.677687 15.51756,0.806253 1.73919,0.03211 4.35795,0.202929 5.81943,0.379596 1.55909,0.188464 3.40282,0.242613 4.46134,0.131024 0.99224,-0.104603 3.1359,-0.2034 4.76365,-0.219548 2.48214,-0.02463 3.12638,0.0563 3.9937,0.501685 1.12681,0.578643 2.09671,1.760443 2.56837,3.12955 0.35163,1.020744 0.29684,1.433092 -0.39826,2.996722 -0.6693,1.505592 -0.84396,3.541328 -0.98812,11.516518 -0.0654,3.616663 -0.17476,7.230665 -0.24306,8.03111 -0.0683,0.800446 -0.19059,2.515679 -0.27176,3.811626 -0.0812,1.295947 -0.19007,2.427155 -0.24198,2.513797 -0.0519,0.08664 -0.16749,0.931512 -0.25679,1.877494 -0.0893,0.945981 -0.27397,2.910712 -0.41038,4.366068 -0.33273,3.549899 -0.58007,12.608708 -0.64324,23.559278 -0.0286,4.95313 -0.13772,9.14536 -0.24253,9.31605 -0.21131,0.34417 -0.24751,13.36503 -0.0561,20.179019 0.0675,2.40134 0.18975,7.52155 0.27174,11.37824 0.082,3.85669 0.26882,12.19192 0.41517,18.52271 0.14637,6.3308 0.31814,18.05965 0.38173,26.06411 0.0636,8.00446 0.19377,20.44775 0.28927,27.65177 0.14201,10.71097 0.14814,34.21125 0.0124,46.96831 -0.0213,2.00141 0.18911,18.26577 0.40139,31.02554 0.006,0.32746 -0.006,3.78062 -0.026,7.6737 -0.0197,3.89308 0.0811,8.50722 0.22403,10.25364 0.14293,1.74643 0.32639,6.8071 0.40773,11.24594 0.0813,4.43883 0.21346,10.09488 0.29363,12.56898 0.0802,2.47411 0.19506,6.40357 0.25526,8.73214 0.28418,10.99175 0.64713,20.91804 1.0256,28.04868 0.14025,2.64261 0.54519,23.16594 0.50641,25.66719 -0.0313,2.01733 -0.0323,22.05637 0,24.87336 0.0129,1.16428 -0.0265,4.14115 -0.0874,6.61525 -0.0609,2.47411 -0.0891,9.3209 -0.0625,15.21509 0.0265,5.89419 -0.0221,16.37276 -0.10796,23.2857 -0.27721,22.30921 -0.0683,70.53404 0.40462,93.4074 0.21309,10.30577 0.20237,30.23264 -0.0173,32.54705 -0.29051,3.05795 -0.53075,7.96893 -0.64726,13.23051 -0.0789,3.56563 -0.19164,7.6737 -0.25045,9.12906 -0.0588,1.45535 -0.171,6.33741 -0.24934,10.84901 -0.34574,19.91232 -0.43099,24.2682 -0.53341,27.25486 -0.17673,5.15323 -0.49761,18.82611 -0.5123,21.83034 -0.0389,7.94579 0.44803,26.76238 0.77381,29.90095 0.61251,5.90097 0.91291,9.49342 1.06201,12.70129 0.0778,1.67366 0.25815,4.62406 0.40079,6.55643 0.33709,4.56694 0.33935,13.49446 0.004,18.18462 -0.14545,2.0375 -0.26777,6.48298 -0.27187,9.87883 -0.004,3.39585 -0.0592,6.25864 -0.12253,6.36173 -0.0633,0.10309 -0.18651,1.78998 -0.27382,3.7486 -0.0873,1.95865 -0.23183,3.91838 -0.32121,4.35498 -0.0893,0.43661 -0.19345,5.73543 -0.23128,11.77516 -0.083,13.24379 -0.47182,29.14874 -0.72266,29.55727 -0.10002,0.16292 -0.23678,3.37307 -0.30386,7.13366 -0.1076,6.03025 -0.18136,6.96239 -0.62495,7.89589 -0.47873,1.00745 -0.49098,1.4345 -0.2541,8.86444 0.42101,13.20402 0.42579,14.87921 0.0449,15.65479 -0.66458,1.35324 -1.44389,1.71435 -4.0861,1.89331 -1.3464,0.0912 -3.63093,0.34709 -5.07677,0.56865 -1.44584,0.22155 -3.98921,0.40755 -5.65193,0.41332 -1.66271,0.006 -4.26523,0.13183 -5.78336,0.28014 -1.51813,0.14831 -8.40415,0.31293 -15.30226,0.36582 -6.8981,0.0529 -12.67668,0.17997 -12.8413,0.2824 -0.16462,0.1024 -4.04354,0.29221 -8.61984,0.42181 -4.5763,0.12958 -8.73459,0.28522 -9.24063,0.34582 -0.50605,0.0606 -3.75919,0.18372 -7.22921,0.27355 -3.47002,0.0898 -7.31464,0.27557 -8.54361,0.41272 -3.92627,0.43816 -4.6417,0.50273 -7.40804,0.66856 -1.49206,0.0894 -3.06773,0.24802 -3.50149,0.35238 -0.43375,0.10439 -3.68689,0.21891 -7.2292,0.2545 -3.54231,0.0356 -6.61801,0.11572 -6.83489,0.17803 -0.89403,0.25683 -4.27091,0.39959 -12.48681,0.52785 -6.55226,0.10227 -9.21594,0.24246 -10.8855,0.57288 -1.92812,0.38159 -2.46537,0.39297 -4.20608,0.0891 -2.51421,-0.43893 -4.82385,-0.53358 -13.0366,-0.53427 -10.1335,0 -14.13812,0.16009 -15.56621,0.62556 -1.65071,0.53801 -2.99029,0.67397 -8.35589,0.848 -16.81807,0.54547 -41.99264,0.60794 -49.68435,0.12331 -2.31335,-0.14575 -7.28179,-0.28054 -11.04097,-0.29951 -5.17001,-0.0262 -7.69934,-0.15787 -10.38377,-0.54097 -2.11988,-0.30256 -5.77178,-0.55984 -9.06937,-0.63898 -3.03626,-0.0729 -6.82174,-0.24847 -8.41216,-0.39025 -1.59043,-0.14178 -5.02102,-0.20505 -7.62353,-0.14061 -2.69725,0.0668 -6.28941,-0.0241 -8.35427,-0.21145 -4.02377,-0.36501 -8.05356,-0.34154 -11.46906,0.0668 -4.79815,0.57362 -7.30419,0.68002 -16.58558,0.70408 -9.77105,0.0254 -19.36982,0.41861 -22.21338,0.91015 -2.35388,0.40692 -5.77471,0.68957 -13.01257,1.07524 -2.6748,0.14255 -5.27732,0.30698 -5.78336,0.36543 -0.50604,0.0584 -2.69452,0.17988 -4.86328,0.26987 -2.16876,0.09 -4.29809,0.20566 -4.73185,0.25699 -0.43375,0.0514 -1.73501,-0.0741 -2.89168,-0.27879 z m -83.595901,-9.10267 c 1.156673,-0.14368 3.581743,-0.38522 5.389045,-0.53681 3.638112,-0.3051 9.154937,-0.9842 9.440935,-1.16212 0.101011,-0.0628 1.833174,-0.30245 3.849247,-0.53247 2.016075,-0.23003 4.493663,-0.52377 5.505752,-0.65277 2.855071,-0.36392 12.462618,-0.38887 19.716014,-0.0512 9.007511,0.4193 17.946809,0.65499 22.081938,0.5822 1.301257,-0.023 3.016551,0.0913 3.811763,0.25391 0.795213,0.16258 4.284947,0.39488 7.754966,0.51623 3.789591,0.13252 6.665221,0.35111 7.200831,0.54735 0.64019,0.23458 1.97487,0.28004 4.73184,0.1612 2.29919,-0.0991 6.16085,-0.019 9.6235,0.19933 9.22242,0.58185 21.60425,0.0794 28.13842,-1.14187 2.1097,-0.3943 5.67993,-0.55359 16.55122,-0.73845 14.59934,-0.24823 18.22259,-0.2227 24.39983,0.17205 4.16445,0.26612 5.79811,0.27784 6.83489,0.0491 1.87856,-0.41451 19.91606,-0.48503 21.34132,-0.0834 0.57834,0.16295 2.24391,0.41523 3.70126,0.56063 4.08718,0.40771 26.56802,0.87245 33.62773,0.69513 3.47002,-0.0871 9.44397,-0.21507 13.27545,-0.28429 9.13877,-0.16515 17.17475,-0.42229 17.39052,-0.55653 0.0949,-0.059 2.99324,-0.1128 6.44086,-0.1196 4.95271,-0.01 6.7464,0.0845 8.54581,0.44904 2.05157,0.41562 2.89876,0.4325 8.54361,0.1703 3.44641,-0.16006 8.24219,-0.30705 10.65729,-0.32661 3.54691,-0.0287 4.98723,-0.16051 7.49209,-0.68542 4.68881,-0.9826 6.68523,-1.16595 14.27339,-1.31088 3.83148,-0.0732 7.9127,-0.19332 9.06937,-0.26701 1.15667,-0.0737 5.53363,-0.19772 9.72657,-0.27565 4.19294,-0.0779 8.66658,-0.25858 9.94142,-0.40144 1.27486,-0.14289 2.39868,-0.21571 2.49736,-0.16183 0.0987,0.0539 1.30328,-0.0608 2.67683,-0.2549 1.49921,-0.21185 7.57773,-0.46117 15.20833,-0.62377 6.99104,-0.14897 12.80127,-0.32706 12.91162,-0.3957 0.29033,-0.18062 16.88887,-0.2038 17.35833,-0.0243 0.28953,0.11074 15.27433,0.46804 17.21865,0.41057 0.14458,-0.004 4.08566,-0.0523 8.75796,-0.10667 4.6723,-0.0544 8.53351,-0.14072 8.58046,-0.19184 0.047,-0.0511 0.003,-4.201 -0.1011,-9.22198 -0.17193,-8.41712 -0.22866,-9.22286 -0.72742,-10.33194 -0.50933,-1.13256 -0.53301,-1.55075 -0.40525,-7.1525 0.12034,-5.27595 0.0846,-6.04907 -0.31559,-6.82808 -0.59096,-1.15029 -0.75702,-8.40018 -0.37261,-16.26731 0.15034,-3.07707 0.31464,-8.8692 0.36506,-12.87143 0.11144,-8.84005 0.31714,-14.74093 0.65492,-18.78733 0.13972,-1.67366 0.37053,-6.61525 0.51288,-10.98132 0.33046,-10.13529 0.5317,-15.1347 0.6506,-16.16472 0.0519,-0.44955 -0.006,-2.59289 -0.12766,-4.76298 -0.1221,-2.17012 -0.29011,-5.85085 -0.37337,-8.17942 -0.0832,-2.32857 -0.20178,-4.88868 -0.26345,-5.68912 -0.0617,-0.80045 -0.2439,-3.42009 -0.40492,-5.82143 -0.16104,-2.40133 -0.35399,-4.54468 -0.42881,-4.76298 -0.18012,-0.52562 -0.4597,-19.04349 -0.45344,-30.03326 0.004,-8.0577 0.17963,-16.64803 0.49366,-24.2312 0.0697,-1.68432 0.18701,-6.80453 0.26054,-11.37824 0.1938,-12.05164 0.39217,-21.18215 0.52271,-24.06016 0.0627,-1.38259 0.16688,-5.45592 0.23147,-9.05184 0.0646,-3.59592 0.17297,-6.63232 0.24088,-6.74756 0.0679,-0.11523 0.20896,-2.59101 0.31348,-5.50172 0.10452,-2.91071 0.24327,-5.38127 0.30836,-5.49013 0.13494,-0.22574 0.11325,-11.52094 -0.0453,-23.61699 -0.0592,-4.51161 -0.0967,-13.50174 -0.0834,-19.97807 0.0431,-21.05014 0.0399,-33.3778 -0.0145,-54.24509 -0.0293,-11.27901 0.0213,-23.00786 0.11214,-26.06411 0.36427,-12.23301 0.60654,-84.43084 0.31125,-92.74587 -0.11112,-3.12902 -0.26191,-7.29663 -0.33507,-9.26136 -0.0732,-1.96473 -0.18717,-6.96586 -0.25328,-11.11363 -0.29834,-18.71255 -0.44232,-25.24252 -0.71178,-32.28244 -0.34132,-8.91877 -0.49713,-35.89714 -0.41414,-71.70937 0.0268,-11.55303 -0.49503,-65.98953 -0.71022,-74.09086 -0.0715,-2.6924 -0.19711,-9.65827 -0.2791,-15.47969 -0.082,-5.82143 -0.2081,-12.07284 -0.28026,-13.89204 -0.4551,-11.47523 -0.10967,-51.752229 0.53218,-62.051085 0.42426,-6.807624 0.89447,-12.496942 1.07681,-13.029078 0.15286,-0.446149 0.86122,-7.555315 1.06151,-10.653535 0.0894,-1.382588 0.32968,-3.883155 0.53401,-5.556814 0.20434,-1.67366 0.37245,-3.191861 0.37361,-3.37378 0.003,-0.248806 -0.90092,-0.330763 -3.64234,-0.330763 -2.00443,0 -4.24423,-0.114495 -4.97729,-0.254433 -0.73307,-0.139938 -3.3813,-0.268841 -5.88497,-0.286451 -2.50367,-0.01761 -5.73507,-0.131631 -7.18092,-0.253378 -6.45168,-0.543268 -12.28807,-1.071915 -14.58985,-1.321521 -1.37355,-0.148948 -3.21024,-0.269666 -4.08153,-0.268262 -0.87131,0.0014 -2.52746,-0.111134 -3.68032,-0.250085 -1.15289,-0.138952 -5.231,-0.315755 -9.06248,-0.392896 -3.83148,-0.07714 -7.6761,-0.194788 -8.54361,-0.261436 -1.96765,-0.151169 -8.55443,-0.367285 -16.95577,-0.556328 -3.54231,-0.07971 -7.15034,-0.203035 -8.01785,-0.274061 -1.98563,-0.162573 -14.36842,-0.644967 -20.11033,-0.783437 -2.38564,-0.05753 -5.87537,-0.239569 -7.75497,-0.40453 -1.87959,-0.164961 -9.2731,-0.350906 -16.43001,-0.413213 -7.15691,-0.06231 -16.08827,-0.209164 -19.84745,-0.326351 -3.75919,-0.117187 -12.0656,-0.235822 -18.45872,-0.263635 -6.39309,-0.02781 -11.77556,-0.102631 -11.96105,-0.166264 -1.08856,-0.37346 -17.45968,-0.495815 -22.63305,-0.169156 -1.76195,0.111255 -9.00006,0.166128 -16.08468,0.121941 -7.08462,-0.04419 -21.28015,-0.07291 -31.54562,-0.06384 -10.26547,0.0091 -20.0249,-0.0013 -21.68762,-0.02318 -1.66272,-0.02183 -4.38353,0.08254 -6.04624,0.231929 -4.9161,0.441691 -10.56838,0.639941 -21.03042,0.737628 -19.9538,0.186313 -26.49851,0.340543 -29.91326,0.704924 -1.92159,0.205049 -4.34666,0.305667 -5.38904,0.223595 -2.29264,-0.180432 -19.2634,-0.225837 -26.737374,-0.07146 -7.221924,0.149061 -29.634021,-0.206941 -31.939986,-0.507459 -3.934181,-0.512712 -6.061978,-0.615594 -13.93265,-0.673665 -5.062515,-0.03735 -9.542924,-0.211876 -11.828588,-0.460755 -2.023615,-0.220346 -5.172926,-0.417725 -6.998464,-0.43862 -3.245534,-0.03715 -3.323335,-0.02454 -3.507253,0.568623 -0.280371,0.904233 -1.189869,15.030809 -1.028457,15.97429 0.0766,0.447763 0.0079,3.305553 -0.152662,6.350645 -0.160567,3.045092 -0.349849,6.727278 -0.420626,8.182634 -0.07078,1.455356 -0.240242,4.01546 -0.37659,5.689119 -0.136349,1.67366 -0.318519,5.067284 -0.404824,7.541384 -0.202069,5.79275 -0.312683,8.208 -0.502922,10.98133 -0.28571,4.16511 -0.745078,17.81281 -0.806041,23.94722 -0.03327,3.34732 -0.204942,7.336319 -0.381505,8.864439 -0.176563,1.52812 -0.361284,4.02869 -0.41049,5.55681 -0.192793,5.98719 -0.622763,14.47685 -0.764464,15.09416 -0.151704,0.66089 -1.067886,13.18136 -1.3352,18.24673 -0.08064,1.52812 -0.263604,4.26684 -0.406578,6.08603 -0.451204,5.74107 -0.49454,6.40518 -0.64752,9.92289 -0.08228,1.89196 -0.258115,4.39253 -0.390746,5.55681 -0.132632,1.16429 -0.303905,3.30763 -0.380606,4.76299 -0.169609,3.2182 -0.581888,9.76931 -0.940874,14.95047 -0.146214,2.11027 -0.306008,11.39809 -0.355099,20.6396 -0.101638,19.13387 0.125679,30.68254 0.895849,45.51295 0.391104,7.53109 0.426269,7.96808 0.734622,9.12905 0.61256,2.30633 1.09776,9.59152 1.216006,18.25811 0.06751,4.94821 0.177573,10.48518 0.244579,12.30437 0.117979,3.20311 0.137403,29.31664 0.02519,33.87011 -0.03048,1.23705 -0.130806,4.09484 -0.222936,6.35064 -0.107008,2.62007 -0.06697,4.43598 0.110847,5.0276 0.159465,0.53057 0.327743,4.59929 0.393981,9.52596 0.06359,4.72991 0.240409,11.99346 0.392923,16.14123 0.482869,13.1321 0.591869,37.88239 0.437586,99.36113 -0.05041,20.08516 0.02346,31.04499 0.233611,34.66393 0.169027,2.91072 0.38336,6.7211 0.476296,8.46753 0.09293,1.74643 0.233737,3.71116 0.312892,4.36607 0.07916,0.65491 0.2084,10.47856 0.287212,21.83034 0.07881,11.35178 0.168812,24.21183 0.200002,28.5779 0.03119,4.36607 -0.03711,8.83137 -0.151771,9.92289 -0.509656,4.85154 -1.023864,22.10328 -1.143616,38.36847 -0.05733,7.78616 -0.170358,20.22945 -0.251183,27.65177 -0.08749,8.0342 -0.03631,15.52958 0.12648,18.52271 0.15039,2.76518 0.330337,8.77845 0.399883,13.36282 0.06955,4.58437 0.187975,8.50801 0.263177,8.7192 0.201471,0.56579 0.475606,30.6349 0.480188,52.67037 0.0039,18.81757 -0.09637,24.74076 -0.659881,38.97565 -0.15437,3.89956 -0.227308,7.23365 -0.162084,7.40909 0.06522,0.17541 0.02293,1.63486 -0.09398,3.24319 -0.116915,1.60833 -0.267711,3.98982 -0.335102,5.29221 -0.12661,2.44685 -0.524889,4.63829 -1.003346,5.52072 -0.153816,0.28369 -0.312706,2.71021 -0.361051,5.51384 -0.04749,2.75393 -0.150396,5.32419 -0.228686,5.71169 -0.07829,0.38747 -0.266202,2.72877 -0.417584,5.20287 -0.263207,4.30174 -0.551387,6.85272 -1.434849,12.70129 -0.219839,1.45536 -0.400406,3.43853 -0.401258,4.40703 l -0.0016,1.76095 0.985801,-0.11227 c 0.54219,-0.0618 1.932169,-0.22981 3.088842,-0.37347 z M 232.44408,690.10891 c -0.8675,-0.0934 -2.59064,-0.18266 -3.8292,-0.19846 -3.00727,-0.0383 -7.60609,-0.87359 -7.60609,-1.38143 0,-0.0983 -3.48973,-0.19472 -7.75496,-0.21428 -5.15915,-0.0236 -7.75497,0.0555 -7.75497,0.23651 0,0.3468 -3.06793,0.3626 -3.2802,0.0169 -0.22605,-0.36816 -6.74436,-0.30952 -7.19232,0.0647 -0.52447,0.43815 -5.03248,0.56992 -7.92681,0.2317 -5.79728,-0.67741 -8.54052,-0.84046 -13.01485,-0.77354 -7.78163,0.1164 -14.49709,-0.004 -18.40162,-0.32978 -2.02417,-0.1689 -5.98709,-0.40377 -8.80648,-0.52195 -2.81939,-0.11814 -6.13168,-0.34656 -7.36065,-0.50757 -1.22896,-0.16104 -3.59489,-0.40835 -5.2576,-0.5496 -3.97818,-0.33793 -5.25761,-0.53906 -5.25761,-0.82651 0,-0.13026 -0.70977,-0.23682 -1.57728,-0.23682 -0.87627,0 -1.57728,-0.11759 -1.57728,-0.26461 0,-0.16099 -1.17779,-0.26461 -3.00761,-0.26461 -1.7215,0 -3.07708,-0.11315 -3.17007,-0.26461 -0.0962,-0.15673 -1.71722,-0.26461 -3.976,-0.26461 -2.2552,0 -4.03285,-0.11815 -4.35024,-0.28912 -0.38813,-0.20909 -0.61621,-0.20909 -0.82393,0 -0.35974,0.3621 -1.67307,0.37914 -1.8908,0.0246 -0.0894,-0.14553 -1.21317,-0.26461 -2.49737,-0.26461 -1.28419,0 -2.408,-0.11907 -2.49736,-0.26461 -0.22823,-0.37172 -2.32654,-0.33071 -2.70766,0.0529 -0.24536,0.24696 -0.38556,0.24696 -0.63092,0 -0.17859,-0.17977 -1.033989,-0.31753 -1.971596,-0.31753 -0.928843,0 -1.656145,-0.11621 -1.656145,-0.26461 0,-0.36243 -2.290775,-0.33645 -2.514862,0.0285 -0.124209,0.20229 -1.086021,0.24233 -3.104355,0.12918 -1.608414,-0.0901 -5.526904,-0.27268 -8.707754,-0.40559 -3.249463,-0.1358 -6.186486,-0.38443 -6.703446,-0.56748 -0.506045,-0.17917 -1.984746,-0.41547 -3.286003,-0.5251 -3.178732,-0.26784 -6.289787,-0.8467 -10.646648,-1.98097 -2.69392,-0.70135 -3.600936,-0.9961 -4.531116,-1.4724 -0.251062,-0.12855 -0.617188,-0.23373 -0.813617,-0.23373 -0.19643,0 -0.571257,-0.23815 -0.832952,-0.52922 -0.261695,-0.29107 -0.808762,-0.52922 -1.215708,-0.52922 -0.406946,0 -1.161134,-0.23815 -1.675974,-0.52922 -0.514841,-0.29107 -1.280382,-0.52922 -1.701203,-0.52922 -0.420821,0 -0.838241,-0.11908 -0.927599,-0.26461 -0.08936,-0.14554 -0.562543,-0.26461 -1.051521,-0.26461 -0.488978,0 -0.962163,-0.11908 -1.051521,-0.26461 -0.08936,-0.14554 -0.451229,-0.26461 -0.804155,-0.26461 -0.352927,0 -0.641685,-0.11908 -0.641685,-0.26461 0,-0.14554 -0.297346,-0.26461 -0.660768,-0.26461 -0.363421,0 -0.86618,-0.1041 -1.117241,-0.23135 -0.251061,-0.12723 -0.988805,-0.50927 -1.639434,-0.84898 -0.650628,-0.33971 -1.44634,-0.74165 -1.76825,-0.89324 -0.69336,-0.32651 -1.04033,-1.14629 -1.200219,-2.83578 -0.108267,-1.14401 -0.04466,-1.30831 0.845299,-2.18303 0.529307,-0.52028 1.14436,-0.94593 1.36678,-0.94593 0.451991,0 2.3815,-0.9449 3.377966,-1.65421 0.357483,-0.25448 0.964052,-0.46267 1.347931,-0.46267 0.383878,0 0.839694,-0.17189 1.012924,-0.38202 0.435466,-0.52814 3.510213,-1.5241 4.0553,-1.31355 0.262024,0.10121 0.65631,-0.0199 0.957258,-0.29406 0.411975,-0.37527 0.815044,-0.43846 2.067899,-0.3241 0.965701,0.0881 1.665693,0.0318 1.844791,-0.14847 0.158735,-0.15977 1.146087,-0.32764 2.194111,-0.373 3.86926,-0.16749 5.980146,-0.38834 5.980146,-0.62564 0,-0.13405 0.331229,-0.24371 0.736065,-0.24371 0.404835,0 0.859253,-0.12399 1.009817,-0.27556 0.150562,-0.15154 0.795276,-0.30946 1.432697,-0.3509 1.14874,-0.0747 1.659511,-0.21418 2.801946,-0.76531 0.440206,-0.21235 0.755026,-0.19721 1.230947,0.0592 0.373708,0.20132 0.838028,0.25924 1.117241,0.13934 0.262775,-0.11282 1.010107,-0.2998 1.660735,-0.41549 0.65063,-0.11571 1.715294,-0.33089 2.365923,-0.4782 0.650628,-0.14731 2.154839,-0.19705 3.342692,-0.11055 2.021618,0.14725 2.214948,0.115 3.023123,-0.50438 2.356029,-1.80562 2.788423,-1.91046 8.486916,-2.05763 4.181822,-0.10799 5.418971,-0.22431 6.046245,-0.56849 2.18129,-1.19681 3.27415,-1.38545 9.06937,-1.56533 7.30749,-0.22682 12.42206,-0.81399 14.98395,-1.72023 1.08426,-0.38353 2.95101,-0.86946 4.14834,-1.07982 1.96127,-0.34458 2.34916,-0.33899 3.91517,0.0563 1.60974,0.40636 1.90545,0.40713 4.00094,0.0103 1.90695,-0.36104 4.12281,-0.41925 14.09235,-0.37019 8.18521,0.0403 12.45263,-0.0398 13.85193,-0.2599 1.31092,-0.20619 5.55442,-0.3191 12.06325,-0.32092 5.52252,-0.003 10.17239,-0.10563 10.33305,-0.23124 0.16067,-0.12562 1.95369,-0.43053 3.98451,-0.67759 2.97461,-0.36186 5.96414,-0.44722 15.37849,-0.43912 6.42736,0.006 12.04099,0.0417 12.47474,0.0803 l 0.78864,0.0702 0.22854,-2.23437 c 0.15962,-1.56046 0.13979,-2.37742 -0.0657,-2.70868 -0.36755,-0.59252 -0.40283,-6.5676 -0.0388,-6.5676 0.16197,0 0.2123,-2.59099 0.1375,-7.07832 -0.35362,-21.21489 -0.42674,-23.73549 -0.69815,-24.06466 -0.37174,-0.45087 -0.31121,-10.52979 0.0675,-11.24207 0.47611,-0.8955 -0.0508,-7.56653 -0.62667,-7.9337 -0.35597,-0.22699 -0.27176,-16.11913 0.0873,-16.48059 0.33414,-0.33632 0.32399,-4.0397 -0.0116,-4.2485 -0.14459,-0.0899 -0.26288,-0.68532 -0.26288,-1.32305 0,-0.63774 0.11829,-1.23311 0.26288,-1.32305 0.14656,-0.0912 0.26288,-1.32059 0.26288,-2.77841 0,-1.45782 -0.11632,-2.68722 -0.26288,-2.77841 -0.14459,-0.0899 -0.26288,-0.62577 -0.26288,-1.19074 0,-0.56497 -0.1183,-1.10081 -0.26288,-1.19075 -0.14459,-0.0899 -0.26288,-0.9305 -0.26288,-1.86788 0,-0.95982 0.11483,-1.70436 0.26288,-1.70436 0.14804,0 0.26288,-0.74453 0.26288,-1.70435 0,-0.93738 -0.1183,-1.77794 -0.26288,-1.86788 -0.35383,-0.22013 -0.33625,-1.19075 0.0216,-1.19075 0.19307,0 0.23131,-0.6163 0.11903,-1.91842 -0.091,-1.05514 -0.22507,-3.61524 -0.29796,-5.68912 -0.0741,-2.10749 -0.24253,-3.7707 -0.38191,-3.7707 -0.34106,0 -0.32794,-7.32899 0.0135,-7.54139 0.16314,-0.10148 0.26288,-2.51385 0.26288,-6.35821 0,-5.75591 -0.0382,-6.26314 -0.53927,-7.16112 -0.51286,-0.9191 -0.53251,-1.26619 -0.40131,-7.08637 0.15961,-7.08094 0.15969,-5.93963 -0.001,-16.28647 -0.0829,-5.33194 -0.0338,-8.1416 0.14542,-8.32199 0.15035,-0.15135 0.27055,-1.47957 0.27055,-2.98977 0,-2.22696 -0.0949,-2.88751 -0.52576,-3.65967 -0.46638,-0.8358 -0.52576,-1.43271 -0.52576,-5.28464 0,-2.6095 0.1049,-4.40766 0.26288,-4.50594 0.14458,-0.0899 0.26288,-0.56624 0.26288,-1.05844 0,-0.4922 -0.1183,-0.9685 -0.26288,-1.05844 -0.14459,-0.0899 -0.26288,-1.0853 -0.26288,-2.21188 0,-1.1266 -0.11723,-2.16633 -0.2605,-2.31055 -0.36684,-0.36926 -0.38251,-6.39475 -0.0178,-6.83713 0.36223,-0.43933 0.35482,-19.38867 -0.008,-19.61417 -0.13201,-0.0821 -0.23992,-0.43283 -0.23992,-0.77949 0,-0.34667 -0.1183,-0.70389 -0.26288,-0.79383 -0.16029,-0.0997 -0.26288,-2.11964 -0.26288,-5.17551 0,-3.16493 -0.0969,-5.01199 -0.26288,-5.01199 -0.14459,0 -0.26288,-0.23815 -0.26288,-0.52922 0,-0.29107 -0.10451,-0.52922 -0.23224,-0.52922 -0.42313,0 -0.61772,-1.40733 -0.82322,-5.95373 -0.11184,-2.4741 -0.35929,-6.34403 -0.54989,-8.59983 -0.42513,-5.0314 -0.43621,-9.79902 -0.0396,-17.06736 0.16674,-3.05624 0.38168,-11.451 0.47764,-18.65502 0.0959,-7.20401 0.27957,-13.21132 0.40803,-13.34958 0.37906,-0.40798 0.26937,-0.97834 -0.28046,-1.45835 -0.44243,-0.38625 -0.53306,-0.90647 -0.65073,-3.73558 -0.0752,-1.80776 -0.25453,-4.41804 -0.39853,-5.80062 -0.144,-1.38259 -0.32266,-3.57121 -0.39701,-4.86359 -0.0744,-1.29241 -0.24117,-2.48316 -0.3707,-2.6461 -0.25015,-0.31476 -0.49684,-1.5719 -0.73316,-3.73625 -0.0795,-0.72768 -0.26515,-1.47197 -0.41266,-1.654 -0.14751,-0.18202 -0.29549,-1.01554 -0.32885,-1.85227 -0.0353,-0.8865 -0.29413,-2.01821 -0.62015,-2.71207 -0.74007,-1.57506 -6.07805,-8.99846 -6.73663,-9.36847 -0.28369,-0.1594 -0.99347,-0.58063 -1.57729,-0.93611 -1.91557,-1.16635 -3.41754,-1.86526 -4.01088,-1.86638 -0.32092,0 -1.00472,-0.23926 -1.51956,-0.53033 -0.51484,-0.29107 -1.22461,-0.52922 -1.57728,-0.52922 -0.35266,0 -1.06244,-0.23815 -1.57728,-0.52922 -0.51484,-0.29107 -1.16209,-0.52922 -1.43832,-0.52922 -0.27624,0 -0.57536,-0.11907 -0.66472,-0.26461 -0.20125,-0.32777 -2.03825,-0.35042 -2.37907,-0.0293 -0.13735,0.1294 -2.43101,0.28927 -5.09701,0.35527 -3.72252,0.0921 -5.00349,0.0379 -5.52048,-0.23368 -0.43934,-0.23077 -1.65494,-0.35418 -3.49917,-0.35524 -1.70765,0 -2.82597,-0.10635 -2.82597,-0.26625 0,-0.14553 -0.35488,-0.26461 -0.78864,-0.26461 -0.43375,0 -0.78864,-0.11907 -0.78864,-0.26461 0,-0.14554 -0.41403,-0.26461 -0.92008,-0.26461 -0.50604,0 -0.92008,0.11907 -0.92008,0.26461 0,0.14554 -0.20813,0.26461 -0.46252,0.26461 -0.25439,0 -0.61029,0.23815 -0.79087,0.52922 -0.20948,0.33764 -0.61305,0.52922 -1.11476,0.52922 -0.43252,0 -0.78641,0.099 -0.78641,0.21989 0,0.21505 -0.58328,0.53973 -2.03732,1.13404 -1.19896,0.49006 -3.46552,1.7282 -3.86434,2.11093 -0.13736,0.13183 -0.4912,0.23968 -0.78631,0.23968 -0.65378,0 -4.18422,1.72566 -4.62556,2.26094 -0.17467,0.21185 -0.59185,0.38517 -0.92708,0.38517 -0.33522,0 -0.6826,0.11907 -0.77196,0.26461 -0.0894,0.14553 -0.56254,0.26461 -1.05152,0.26461 -0.48898,0 -0.96217,0.11907 -1.05152,0.26461 -0.212,0.34526 -2.76025,0.34526 -2.76025,0 0,-0.14554 -0.27251,-0.26461 -0.60558,-0.26461 -1.63632,0 -5.23511,-2.7212 -5.97425,-4.5174 -0.17536,-0.42616 -0.42278,-0.77481 -0.54982,-0.77481 -0.12705,0 -0.23099,-0.23815 -0.23099,-0.52922 0,-0.29107 -0.1183,-0.52922 -0.26288,-0.52922 -0.14459,0 -0.26288,-0.23815 -0.26288,-0.52922 0,-0.29107 -0.0894,-0.52922 -0.19871,-0.52922 -0.42705,0 -0.92913,-1.7356 -0.88604,-3.06286 0.0249,-0.76822 -0.0757,-1.47203 -0.2236,-1.56406 -0.40622,-0.2527 -0.35103,-5.09174 0.0597,-5.23087 0.25447,-0.0862 0.24512,-0.21311 -0.0414,-0.56251 -0.28028,-0.34171 -0.29622,-0.52546 -0.0657,-0.75747 0.16738,-0.16848 0.30432,-0.68097 0.30432,-1.13888 0,-1.41159 1.64638,-4.08918 2.51435,-4.08918 0.17213,0 0.45796,-0.17589 0.6352,-0.39083 0.17723,-0.21497 0.97837,-0.71397 1.78031,-1.1089 0.80194,-0.39493 1.7928,-1.00158 2.20193,-1.34811 0.40912,-0.34651 0.86975,-0.55169 1.02363,-0.45598 0.15388,0.0957 0.46276,0.0212 0.68641,-0.16564 0.49529,-0.41375 6.15146,-0.44045 7.01937,-0.0331 0.31285,0.14683 1.07882,0.42107 1.70217,0.60942 0.62334,0.18838 1.24856,0.55917 1.38937,0.824 0.1408,0.26482 0.48146,0.48151 0.75701,0.48151 0.27555,0 0.57644,0.12286 0.66864,0.27305 0.23276,0.37908 2.17249,1.23806 3.28083,1.45287 0.50604,0.0981 1.18958,0.35018 1.51898,0.56023 0.3294,0.21007 0.71857,0.3075 0.86483,0.2165 0.14626,-0.091 1.11886,-0.0274 2.16134,0.14125 1.76721,0.28591 9.29614,2.00604 10.17614,2.32489 0.73569,0.2666 7.48071,0.0146 9.64867,-0.36039 4.12712,-0.71398 6.01974,-0.92598 10.46166,-1.17202 3.16815,-0.17549 4.94302,-0.40009 6.09758,-0.77168 1.24353,-0.4002 2.45558,-0.53451 5.12616,-0.56798 1.92366,-0.0241 3.61585,-0.13609 3.76043,-0.24884 0.45776,-0.35696 3.966,-1.31866 4.8104,-1.31866 0.44577,0 0.88361,-0.11908 0.97297,-0.26461 0.0894,-0.14554 0.3739,-0.26461 0.63233,-0.26461 0.67076,0 1.93156,-0.67857 2.5685,-1.38238 0.4166,-0.46032 0.58298,-1.10091 0.70624,-2.71908 0.0887,-1.16429 0.28253,-3.00994 0.43078,-4.10146 0.61516,-4.52936 0.77061,-7.39162 0.79039,-14.55356 0.0115,-4.14777 0.14082,-8.79167 0.28746,-10.3198 0.14663,-1.52812 0.36951,-4.38591 0.49528,-6.35064 0.34663,-5.41515 0.58439,-7.67656 0.82269,-7.82481 0.11877,-0.0739 0.15079,-1.58832 0.0711,-3.3654 -0.1337,-2.983 -0.006,-4.67639 0.7047,-9.31708 0.13365,-0.87322 0.3192,-2.92725 0.41233,-4.56453 0.0931,-1.63728 0.26457,-2.97686 0.38096,-2.97686 0.11641,0 0.20566,-1.55805 0.19834,-3.46234 -0.0127,-3.29731 0.42988,-6.59285 0.88532,-6.59285 0.11476,0 0.20866,-0.59538 0.20866,-1.32305 0,-0.72768 0.11829,-1.32305 0.26288,-1.32305 0.37152,0 0.32731,-1.15236 -0.0591,-1.54135 -0.2541,-0.25577 -0.2541,-0.4336 0,-0.84316 0.17711,-0.28546 0.32202,-1.21127 0.32202,-2.05735 0,-0.84609 0.13694,-1.67618 0.30431,-1.84465 0.21949,-0.22093 0.22498,-0.40254 0.0197,-0.65149 -0.17417,-0.21124 -0.33577,-2.5 -0.41648,-5.89879 -0.16696,-7.03046 -0.25762,-7.61461 -1.31528,-8.47535 -0.45472,-0.37006 -1.17755,-0.96549 -1.60628,-1.3232 -0.42873,-0.3577 -0.90636,-0.65036 -1.0614,-0.65036 -0.28878,0 -2.75948,-2.40662 -2.75948,-2.6879 0,-0.0858 -0.47318,-0.67699 -1.05152,-1.31385 -0.57834,-0.63685 -1.05152,-1.29223 -1.05152,-1.4564 0,-0.16416 -0.17889,-0.44791 -0.39752,-0.63056 -0.21864,-0.18265 -0.75482,-1.08565 -1.19151,-2.00668 -0.43669,-0.92102 -0.90843,-1.74579 -1.04832,-1.83281 -0.13988,-0.087 -0.25433,-0.36285 -0.25433,-0.61295 0,-0.2501 -0.20499,-0.74914 -0.45554,-1.10897 -0.25055,-0.35984 -0.42233,-0.85209 -0.38174,-1.09388 0.0406,-0.2418 -0.0502,-0.51674 -0.20166,-0.61099 -0.15151,-0.0943 -0.27546,-0.57407 -0.27546,-1.06627 0,-0.49219 -0.1183,-0.96849 -0.26288,-1.05844 -0.34262,-0.21314 -0.34262,-3.4914 0,-3.70454 0.14458,-0.09 0.26288,-0.68532 0.26288,-1.32305 0,-0.63773 0.11829,-1.23311 0.26288,-1.32305 0.14458,-0.0899 0.26288,-0.68532 0.26288,-1.32305 0,-0.63774 0.11829,-1.23311 0.26288,-1.32306 0.14458,-0.0899 0.26288,-0.50164 0.26288,-0.91488 0,-0.41324 0.35489,-1.43044 0.78864,-2.26044 0.43375,-0.83 0.78864,-1.71439 0.78864,-1.96532 0,-0.25092 0.30829,-0.7449 0.68509,-1.09772 0.3768,-0.35283 0.79062,-0.91658 0.91959,-1.2528 0.12897,-0.33621 0.35323,-0.53742 0.49836,-0.44714 0.14513,0.0903 0.37681,-0.13488 0.51486,-0.50035 0.13905,-0.36815 0.69572,-0.88067 1.24818,-1.14921 1.76852,-0.85963 2.9688,-1.70103 2.9688,-2.08112 0,-0.21035 0.26127,-0.37078 0.60385,-0.37078 0.35811,0 1.02171,-0.43074 1.63064,-1.05844 0.56473,-0.58214 1.16573,-1.05844 1.33556,-1.05844 0.16983,0 0.46051,-0.18403 0.64597,-0.40896 0.18545,-0.22493 0.49746,-0.34705 0.69336,-0.27138 0.1959,0.0757 0.77202,-0.0975 1.28028,-0.38487 0.6303,-0.35635 1.41809,-0.52245 2.47787,-0.52245 0.85458,0 1.62688,-0.11908 1.71624,-0.26461 0.21162,-0.34467 2.94294,-0.34467 3.15456,0 0.0894,0.14553 0.85829,0.26461 1.70873,0.26461 0.85043,0 1.61813,0.11707 1.70599,0.26016 0.0879,0.14309 0.86589,0.21991 1.72896,0.1707 1.24642,-0.0711 1.82076,0.0387 2.79201,0.53367 0.67253,0.34272 1.54383,0.62313 1.93621,0.62313 0.50685,0 0.75583,0.16319 0.85985,0.56359 0.0979,0.37667 0.2825,0.51102 0.55673,0.4051 0.22715,-0.0877 0.84318,0.1372 1.37999,0.50388 0.53333,0.36431 1.12467,0.60251 1.31409,0.52934 0.18943,-0.0732 0.34442,-0.0212 0.34442,0.11552 0,0.1367 0.66324,0.55392 1.47388,0.92715 0.81063,0.37324 1.63249,0.83826 1.82634,1.03339 0.57889,0.5827 1.43162,2.25162 1.43162,2.80189 0,0.28222 0.23659,0.93713 0.52576,1.45536 0.28917,0.51823 0.52576,1.09893 0.52576,1.29045 0,0.66307 0.8482,2.05584 1.40868,2.31308 0.55531,0.25487 1.22012,1.34352 1.22012,1.99799 0,0.18486 0.23659,0.76012 0.52576,1.27835 0.41639,0.74622 0.52576,1.43271 0.52576,3.30005 0,1.29681 -0.11829,2.43142 -0.26288,2.52137 -0.3752,0.23341 -0.32562,1.38838 0.0657,1.53104 0.26288,0.0958 0.26288,0.23182 0,0.67998 -0.18073,0.30811 -0.3286,0.79997 -0.3286,1.09302 0,0.29304 -0.11829,0.53281 -0.26288,0.53281 -0.14458,0 -0.26288,0.35722 -0.26288,0.79383 0,0.4366 -0.11829,0.79383 -0.26288,0.79383 -0.14458,0 -0.26288,0.33094 -0.26288,0.73541 0,0.43187 -0.21701,0.89286 -0.52576,1.11686 -0.28917,0.20979 -0.52576,0.66135 -0.52576,1.00345 0,0.34211 -0.18325,0.80647 -0.40723,1.03192 -0.22398,0.22545 -0.47536,0.75278 -0.55862,1.17185 -0.0833,0.41906 -0.2549,0.76193 -0.38141,0.76193 -0.12651,0 -0.23002,0.23815 -0.23002,0.52922 0,0.29107 -0.1183,0.52922 -0.26288,0.52922 -0.14459,0 -0.26288,0.1856 -0.26288,0.41244 0,0.438 -1.2623,2.18101 -2.38131,3.28817 -0.36993,0.366 -1.17812,1.70642 -1.79599,2.97871 -1.19713,2.46504 -1.67004,4.46307 -2.17692,9.1973 -0.19044,1.77875 -0.42501,2.85454 -0.65195,2.99001 -0.43722,0.261 -0.46076,1.03093 -0.0443,1.45009 0.23827,0.23984 0.23471,0.45405 -0.0154,0.92439 -0.23438,0.44082 -0.28595,1.60896 -0.18422,4.17295 0.19499,4.91485 0.19533,5.46175 0.004,7.23325 -0.11192,1.03871 -0.0584,1.76108 0.16119,2.17401 0.26341,0.49543 0.26305,0.69814 -0.002,1.01937 -0.21772,0.26406 -0.27362,0.78662 -0.16374,1.53053 0.0918,0.62126 0.22868,2.08217 0.30424,3.24645 0.0756,1.16428 0.27928,2.40429 0.45271,2.75556 0.24823,0.50278 0.24541,0.6623 -0.0133,0.74972 -0.38847,0.1313 -0.47362,4.70849 -0.092,4.94589 0.13012,0.081 0.23659,1.16287 0.23659,2.40427 0,1.31038 0.12664,2.41068 0.30193,2.62328 0.20711,0.25119 0.21537,0.42006 0.0263,0.53768 -0.35815,0.2228 -0.36998,5.87175 -0.0128,6.09398 0.14459,0.0899 0.26288,0.56624 0.26288,1.05844 0,0.49219 0.1183,0.96849 0.26288,1.05844 0.14459,0.0899 0.26288,0.74485 0.26288,1.45535 0,0.7105 0.1183,1.36541 0.26288,1.45536 0.15492,0.0964 0.26289,1.67861 0.26289,3.85246 0,2.28288 0.10019,3.68893 0.26288,3.68893 0.14458,0 0.26288,0.59537 0.26288,1.32305 0,0.72768 0.10487,1.32305 0.23304,1.32305 0.36051,0 0.59879,1.47053 0.70534,4.35295 0.0535,1.44815 0.17045,2.81751 0.25984,3.04301 0.29142,0.73528 0.88789,5.39847 0.8986,7.0253 0.0104,1.57184 0.5275,5.93092 1.06733,8.99674 0.73003,4.14597 0.84023,4.90328 1.00109,6.87987 0.13166,1.61772 0.26526,2.12045 0.5666,2.13202 0.21688,0.008 0.57176,0.0808 0.78864,0.16107 1.26113,0.46685 2.3454,0.74993 2.8724,0.74993 0.33033,0 1.29154,0.18022 2.13603,0.40049 0.84449,0.22026 2.52063,0.57343 3.72475,0.78478 2.05432,0.36061 6.92092,1.75539 7.85511,2.2513 0.23165,0.12296 0.9649,0.16655 1.62944,0.0969 0.66453,-0.0697 1.45759,0.008 1.76232,0.17176 0.39077,0.21049 4.52075,0.29784 14.01196,0.29631 13.5402,-0.003 15.61574,-0.0655 16.60152,-0.50679 1.5057,-0.67401 4.60209,-1.64582 5.84354,-1.83404 0.46085,-0.0699 1.04108,-0.35304 1.28942,-0.62924 0.24835,-0.2762 0.65345,-0.5022 0.90021,-0.5022 0.24679,0 1.38186,-0.49218 2.52236,-1.09374 1.14048,-0.60154 2.39116,-1.07654 2.77928,-1.05556 0.38809,0.0209 0.77954,-0.0822 0.86987,-0.22931 0.0903,-0.14712 0.68259,-0.26749 1.31616,-0.26749 0.63357,0 1.2286,-0.12487 1.32229,-0.27747 0.11743,-0.19124 0.28039,-0.18552 0.52447,0.0182 0.2541,0.2123 0.50247,0.21593 0.87939,0.013 0.2889,-0.15564 1.11755,-0.28297 1.84145,-0.28297 0.72389,0 1.38283,-0.10855 1.46427,-0.2412 0.0858,-0.13982 0.45149,-0.14667 0.86987,-0.0164 0.39697,0.1237 1.25412,0.37506 1.90475,0.55862 1.5298,0.43152 2.75212,1.2077 4.1412,2.62964 1.35465,1.38669 2.10549,3.28024 2.2062,5.56391 0.0411,0.93103 0.16083,1.75521 0.26614,1.83144 0.10531,0.0762 0.21869,1.75296 0.25194,3.72603 0.0592,3.51103 0.0434,3.62352 -0.74195,5.28588 -0.79235,1.67713 -4.15059,5.53533 -4.81804,5.53533 -0.16733,0 -0.61824,0.2242 -1.00202,0.49823 -1.25907,0.89902 -2.67626,1.61865 -3.18764,1.61865 -0.27623,0 -0.57536,0.11907 -0.66472,0.26461 -0.0893,0.14554 -0.90075,0.26461 -1.80309,0.26461 -0.92555,0 -1.77812,0.13839 -1.95609,0.31753 -0.24535,0.24696 -0.38557,0.24696 -0.63091,0 -0.17351,-0.17464 -0.88799,-0.31753 -1.58775,-0.31753 -1.77263,0 -5.19456,-1.82742 -5.19456,-2.77404 0,-0.2011 -0.22566,-0.43772 -0.50147,-0.52583 -0.27582,-0.0881 -0.56785,-0.33429 -0.64895,-0.54706 -0.0811,-0.21275 -0.32865,-0.38683 -0.55005,-0.38683 -0.22142,0 -0.40258,-0.11908 -0.40258,-0.26461 0,-0.14554 -0.23659,-0.26461 -0.52576,-0.26461 -0.28916,0 -0.52576,-0.11908 -0.52576,-0.26461 0,-0.14554 -0.35488,-0.26461 -0.78864,-0.26461 -0.43375,0 -0.78864,-0.11908 -0.78864,-0.26461 0,-0.14554 -0.19863,-0.26461 -0.44137,-0.26461 -0.64025,0 -2.18743,-0.59908 -2.18743,-0.84699 0,-0.1163 -0.23659,-0.21145 -0.52576,-0.21145 -0.28917,0 -0.52576,-0.11908 -0.52576,-0.26461 0,-0.14554 -0.23659,-0.26461 -0.52576,-0.26461 -0.28917,0 -0.52576,-0.11908 -0.52576,-0.26462 0,-0.14553 -0.41404,-0.26461 -0.92008,-0.26461 -0.50605,0 -0.92008,0.11908 -0.92008,0.26461 0,0.16851 -2.12933,0.26462 -5.86223,0.26462 -4.209,0 -5.95119,0.0895 -6.17769,0.31753 -0.24534,0.24696 -0.38556,0.24696 -0.63091,0 -0.4403,-0.4432 -7.86671,-0.4432 -8.30701,0 -0.24535,0.24696 -0.38557,0.24696 -0.63092,0 -0.5339,-0.53743 -1.36934,-0.36038 -3.4963,0.74091 -1.97799,1.02414 -3.286,1.34014 -3.286,0.79383 0,-0.14554 -0.17745,-0.26461 -0.39432,-0.26461 -0.21688,0 -0.39433,0.11907 -0.39433,0.26461 0,0.14553 -0.3404,0.26461 -0.75646,0.26461 -0.41603,0 -0.89358,0.1663 -1.06117,0.3696 -0.16761,0.20328 -0.51206,0.31502 -0.76545,0.24831 -0.25534,-0.0672 -0.67934,0.12191 -0.95116,0.42425 -0.26974,0.30002 -0.74952,0.5455 -1.06616,0.5455 -0.31664,0 -0.78982,0.23815 -1.05152,0.52922 -0.2617,0.29107 -0.61277,0.52922 -0.7802,0.52922 -0.16743,0 -0.6444,0.35722 -1.05996,0.79383 -0.43357,0.45553 -1.02776,0.79383 -1.39424,0.79383 -0.51325,0 -0.61117,0.10592 -0.49858,0.53933 0.0915,0.3523 -0.0801,0.76102 -0.49508,1.1787 -0.34938,0.35167 -0.63522,0.94413 -0.63522,1.31655 0,0.37244 -0.1045,0.8839 -0.23221,1.13663 -0.5688,1.12549 -0.76143,1.86487 -0.78235,3.00295 -0.0123,0.67124 -0.144,1.54229 -0.29258,1.93565 -0.14858,0.39337 -0.27014,1.05765 -0.27014,1.47621 0,0.41854 -0.1183,0.83458 -0.26288,0.92452 -0.14459,0.0899 -0.26288,0.56624 -0.26288,1.05844 0,0.49221 -0.1183,0.9685 -0.26288,1.05845 -0.14459,0.0899 -0.26289,0.92346 -0.26289,1.85227 0,0.9288 -0.11829,1.76233 -0.26288,1.85227 -0.14458,0.0899 -0.26288,0.74485 -0.26288,1.45535 0,0.71051 -0.11829,1.36542 -0.26288,1.45536 -0.14458,0.0899 -0.26288,0.68531 -0.26288,1.32305 0,0.63774 -0.11829,1.23311 -0.26288,1.32305 -0.34261,0.21315 -0.34261,3.4914 0,3.70455 0.34192,0.21269 0.34192,2.16879 0,2.38149 -0.14458,0.0899 -0.26288,0.55481 -0.26288,1.03304 0,0.53345 -0.20319,1.05463 -0.52576,1.34845 -0.5756,0.52435 -0.69875,1.70459 -0.22737,2.17909 0.2126,0.21399 0.24289,1.31334 0.10537,3.82362 -0.29413,5.36889 -0.34246,10.80694 -0.0974,10.95938 0.31436,0.19558 0.27383,5.59699 -0.0435,5.79439 -0.37326,0.23219 -0.32645,2.68312 0.0632,3.31122 0.25956,0.41835 0.25956,0.6329 0,1.05125 -0.40584,0.65414 -0.44144,5.07387 -0.0441,5.47383 0.42046,0.42324 0.19606,2.07116 -0.28203,2.07116 -0.28311,0 -0.41672,0.34973 -0.47376,1.2402 -0.0658,1.02748 0.0131,1.29002 0.46004,1.53082 0.41874,0.22555 0.53948,0.55155 0.53948,1.45644 0,0.6412 -0.11829,1.23941 -0.26288,1.32935 -0.14458,0.0899 -0.26288,0.609 -0.26288,1.15344 0,0.54446 -0.12896,1.11972 -0.28659,1.27838 -0.18535,0.18658 -0.22804,0.92968 -0.12086,2.10365 0.36596,4.00837 0.44095,7.50429 0.16097,7.50429 -0.1536,0 -0.27928,0.35019 -0.27928,0.77822 0,0.42801 -0.11829,0.85181 -0.26288,0.94175 -0.14458,0.0899 -0.26288,0.51374 -0.26288,0.94175 0,0.6018 0.11918,0.77822 0.52576,0.77822 0.49848,0 0.52556,0.17506 0.5218,3.37378 -0.003,2.21817 -0.13099,3.73632 -0.37485,4.43222 -0.27005,0.77065 -0.32965,1.75992 -0.21921,3.63839 0.1123,1.91014 0.0701,2.57995 -0.16263,2.57995 -0.23746,0 -0.27892,1.14841 -0.16958,4.69683 0.39872,12.93954 0.41911,14.97543 0.15263,15.24366 -0.15065,0.15165 -0.27392,1.29977 -0.27392,2.55137 0,1.25161 -0.11315,2.38954 -0.25145,2.52875 -0.45836,0.46138 -0.98483,26.49825 -0.54475,26.94121 0.35335,0.35569 0.36028,6.69453 0.008,6.91395 -0.14458,0.0899 -0.26288,0.68531 -0.26288,1.32305 0,0.63774 -0.1183,1.23311 -0.26288,1.32305 -0.14459,0.0899 -0.26288,0.80439 -0.26288,1.58766 0,0.78327 -0.1183,1.49772 -0.26288,1.58766 -0.14673,0.0913 -0.26288,1.3258 -0.26288,2.79402 0,1.57726 0.10526,2.63049 0.26288,2.63049 0.14604,0 0.26288,0.70564 0.26288,1.58766 0,0.88203 0.11683,1.58766 0.26288,1.58766 0.14458,0 0.26288,0.29065 0.26288,0.64592 0,0.35524 -0.1183,0.7195 -0.26288,0.80944 -0.14459,0.0899 -0.26288,0.44716 -0.26288,0.79383 0,0.34667 -0.1183,0.70389 -0.26288,0.79383 -0.14459,0.0899 -0.26288,1.10911 -0.26288,2.2648 0,1.22443 0.1097,2.10127 0.26288,2.10127 0.14458,0 0.26288,0.17861 0.26288,0.39691 0,0.21831 -0.0887,0.39785 -0.19716,0.39898 -0.47571,0.005 -0.85436,1.59251 -0.85436,3.58193 0,1.81935 0.082,2.23008 0.52576,2.63435 0.55506,0.50564 0.70632,1.19075 0.26288,1.19075 -0.39927,0 -0.34684,8.86862 0.0563,9.51834 0.26815,0.43222 0.22613,0.61411 -0.26288,1.13806 -0.34459,0.36921 -0.58204,0.96115 -0.58204,1.45094 0,0.45502 -0.1183,0.90092 -0.26288,0.99086 -0.39804,0.24762 -0.3149,1.39407 0.15324,2.11323 0.23395,0.35942 0.34435,0.86686 0.25218,1.15918 -0.0902,0.28594 -0.0408,0.59648 0.10964,0.6901 0.3498,0.21759 0.35855,2.17174 0.0107,2.38813 -0.3563,0.22167 -0.34142,5.50421 0.0165,5.86453 0.1836,0.18481 0.22745,1.3597 0.12787,3.42671 -0.0833,1.72999 -0.21531,6.89629 -0.29324,11.48067 -0.0796,4.68405 -0.2508,8.44532 -0.39075,8.5866 -0.33364,0.33677 -0.32116,5.36163 0.0138,5.57004 0.14458,0.0899 0.26288,0.983 0.26288,1.98458 0,1.00157 -0.1183,1.89463 -0.26288,1.98457 -0.14459,0.0899 -0.26288,0.80439 -0.26288,1.58767 0,0.78327 -0.1183,1.49772 -0.26288,1.58766 -0.14459,0.0899 -0.26289,0.48992 -0.26289,0.88882 0,0.39893 -0.1449,0.87115 -0.32201,1.04945 -0.25411,0.25577 -0.25411,0.43359 0,0.84315 0.2355,0.37958 0.32201,2.65288 0.32201,8.46091 0,5.1182 0.0935,7.94191 0.26289,7.94191 0.14458,0 0.26288,0.12428 0.26288,0.2762 0,0.15191 -0.20702,0.24122 -0.46004,0.19845 -0.37749,-0.0638 -0.47472,0.15509 -0.54181,1.21973 -0.0517,0.82031 0.0369,1.37126 0.24097,1.49822 0.4327,0.26919 0.44725,4.27761 0.016,4.4223 -0.37497,0.12579 -0.40646,1.02393 -0.0438,1.24954 0.14459,0.0899 0.26288,1.04957 0.26288,2.13249 0,1.13624 -0.11118,1.96897 -0.26288,1.96897 -0.16778,0 -0.26288,2.24397 -0.26288,6.20272 0,3.84971 -0.0997,6.26476 -0.26288,6.36626 -0.14458,0.0899 -0.26288,0.44717 -0.26288,0.79383 0,0.34667 0.1183,0.70389 0.26288,0.79383 0.14459,0.0899 0.26288,1.16161 0.26288,2.38149 0,1.21988 -0.11829,2.29156 -0.26288,2.3815 -0.16914,0.10521 -0.26288,4.54002 -0.26288,12.43668 0,7.89665 0.0937,12.33147 0.26288,12.43668 0.14459,0.0899 0.26288,0.44999 0.26288,0.80012 0,0.71953 0.48409,1.05331 1.92124,1.3247 0.77841,0.14699 1.1081,0.081 1.5342,-0.30727 0.47868,-0.43613 1.0439,-0.49908 4.78925,-0.53324 2.48363,-0.0228 4.73668,-0.17676 5.42726,-0.3712 0.80513,-0.22669 4.0661,-0.36542 10.25015,-0.4361 4.98815,-0.057 9.6017,-0.12273 10.25233,-0.14607 1.70822,-0.0613 9.43792,0.55193 10.94386,0.86819 4.32419,0.90812 5.98357,1.04325 15.86992,1.29241 8.22862,0.20737 10.84754,0.36042 12.61825,0.73733 2.77572,0.59088 10.55919,0.56341 14.35018,-0.0506 3.16865,-0.51324 6.44327,-0.50951 8.26595,0.01 0.94916,0.27022 2.82147,0.43246 5.51205,0.47763 3.81126,0.0639 4.23082,0.12301 6.4908,0.9138 1.98122,0.69325 2.81752,0.84543 4.64607,0.84543 2.19591,0 2.69055,0.0712 7.39618,1.06418 2.89213,0.61035 5.15671,0.94413 8.93793,1.31744 3.27667,0.32352 6.16218,0.8113 8.28073,1.39982 0.79521,0.2209 2.39221,0.54557 3.54888,0.72148 2.7972,0.42542 4.79415,0.99097 5.91399,1.67486 0.5056,0.30877 1.10854,0.52911 1.33987,0.48966 0.23134,-0.0395 0.57151,0.11129 0.75594,0.33497 0.20371,0.24706 0.7663,0.40668 1.43349,0.40668 0.60402,0 1.24311,0.14585 1.42023,0.32414 0.2541,0.25578 0.43152,0.2553 0.84122,-0.003 0.36619,-0.23021 0.6741,-0.24776 1.04495,-0.0595 0.28917,0.14678 0.74127,0.37371 1.0047,0.50427 0.26341,0.13058 1.00741,0.17747 1.65333,0.10417 0.87713,-0.0995 1.26312,-0.0257 1.52487,0.29182 0.19298,0.23407 0.74242,0.42504 1.22281,0.42504 0.47981,0 0.94905,0.12487 1.04274,0.27747 0.11767,0.1916 0.27873,0.18692 0.52069,-0.0151 0.24916,-0.20814 0.50804,-0.21185 0.89666,-0.013 0.30049,0.1539 0.78438,0.40078 1.07531,0.54864 0.2909,0.14787 0.80567,0.19894 1.14392,0.1135 0.4184,-0.10572 1.1807,0.1467 2.38459,0.78959 1.09013,0.58212 2.13971,0.94643 2.73356,0.94882 2.19904,0.009 5.56436,1.80424 5.56436,2.96871 0,0.1928 0.23659,0.52218 0.52576,0.73197 0.42652,0.30943 0.52576,0.68499 0.52576,1.98968 0,1.51876 -0.0591,1.67011 -1.06128,2.72001 -0.59655,0.6249 -1.30696,1.11173 -1.62231,1.11173 -0.30857,0 -0.74779,0.1661 -0.97605,0.36913 -0.22826,0.20301 -1.47967,0.93246 -2.78093,1.621 -1.30126,0.68855 -2.49699,1.35653 -2.65719,1.48439 -0.54684,0.43644 -4.39021,1.28846 -5.81205,1.28846 -0.78036,0 -1.97396,0.12246 -2.65248,0.27215 -0.6785,0.14969 -1.82513,0.39782 -2.54805,0.55143 -0.72292,0.15358 -2.08332,0.5008 -3.02312,0.7716 -1.52718,0.44005 -3.26584,0.86848 -7.48838,1.84523 -0.72087,0.16676 -4.56549,0.41213 -8.54361,0.54526 -3.97811,0.13315 -7.88354,0.38609 -8.67875,0.56208 -1.01343,0.22431 -4.50316,0.30745 -11.66854,0.27808 -8.14535,-0.0334 -10.32439,0.0297 -10.72304,0.31081 -0.31475,0.2219 -0.92245,0.30486 -1.63838,0.22362 -0.68803,-0.0781 -1.20967,-0.0124 -1.31924,0.16602 -0.1175,0.19142 -1.32533,0.29515 -3.43618,0.29515 -1.88643,0 -3.32328,0.11127 -3.41745,0.26461 -0.23535,0.38331 -2.16786,0.32796 -2.30966,-0.0662 -0.0952,-0.26461 -0.23031,-0.26461 -0.67555,0 -0.34716,0.20634 -1.56451,0.33076 -3.23595,0.33076 -1.47368,0 -3.04273,0.11344 -3.48674,0.25209 -0.44403,0.13866 -2.4043,0.3785 -4.35619,0.53295 -3.7794,0.29912 -10.12753,0.94794 -11.43528,1.16879 -2.26243,0.38207 -8.45428,0.71399 -15.24706,0.8173 -5.06628,0.0771 -8.41716,0.24992 -9.98944,0.5153 -2.80835,0.47402 -17.21866,0.60246 -17.21866,0.1535 0,-0.32513 -4.11604,-0.36069 -4.31462,-0.0373 -0.0768,0.12503 -2.6567,0.30168 -5.73316,0.39257 -3.07649,0.0909 -7.20321,0.24299 -9.17053,0.33799 -2.55353,0.12328 -3.62975,0.0867 -3.76155,-0.12799 -0.29538,-0.48106 -3.47284,-0.37765 -4.25543,0.13849 -0.50442,0.3327 -1.6656,0.49168 -4.78832,0.65558 -5.56347,0.29202 -15.32384,0.39993 -17.26643,0.19086 z m 26.79414,-45.07164 c -0.39981,-0.61421 -0.39166,-0.71067 0.13204,-1.56361 0.80441,-1.31014 3.63985,-3.89879 5.30913,-4.84708 0.78849,-0.44793 2.0684,-1.35983 2.84421,-2.02641 1.29561,-1.11316 6.35913,-3.87424 7.105,-3.87424 0.17552,0 0.61766,-0.23635 0.98251,-0.52522 1.52024,-1.20369 6.07879,-1.80205 9.3501,-1.22729 3.4981,0.61461 5.03355,1.65805 6.06168,4.11929 0.50683,1.21335 0.29237,4.04597 -0.42182,5.57153 -0.59188,1.26428 -1.44834,2.38149 -1.82565,2.38149 -0.12524,0 -0.5623,0.249 -0.97124,0.55336 -1.21051,0.90083 -4.08957,0.94722 -6.09361,0.0982 -3.13435,-1.32792 -8.26209,-1.56281 -11.24158,-0.51501 -1.04121,0.36617 -2.65945,0.72501 -3.59607,0.79743 -1.68656,0.1304 -3.53649,0.63763 -4.90748,1.34557 -1.13112,0.5841 -2.23546,0.46746 -2.72722,-0.288 z m -48.56401,-5.37979 c -0.38851,-0.40819 -0.70639,-0.92066 -0.70639,-1.1388 0,-0.54219 -1.25096,-3.02887 -1.72146,-3.42189 -0.20987,-0.17533 -0.38158,-0.4818 -0.38158,-0.68105 0,-0.19926 -0.24834,-0.51213 -0.55187,-0.69527 -0.48991,-0.29562 -1.81405,-2.70971 -1.81405,-3.30725 0,-0.12638 -0.37975,-0.81868 -0.84388,-1.53847 -0.46414,-0.7198 -1.86204,-3.33298 -3.10645,-5.80709 -3.51793,-6.99423 -4.67515,-9.10513 -6.16515,-11.24593 -0.75969,-1.09152 -1.58013,-2.3767 -1.82318,-2.85594 -0.24305,-0.47926 -1.0587,-1.61047 -1.81254,-2.5138 -0.75385,-0.90335 -1.51505,-1.97095 -1.69156,-2.37249 -0.54662,-1.24346 -7.12075,-4.16523 -9.37198,-4.16523 -0.74292,0 -5.96641,2.53227 -8.58119,4.16002 -0.94538,0.58852 -2.71983,1.57456 -3.94321,2.19118 -1.22338,0.61665 -2.75666,1.50873 -3.40729,1.98243 -0.65063,0.47371 -1.67772,1.11269 -2.28243,1.41998 -1.56746,0.7965 -5.277,2.13017 -5.44754,1.95851 -0.079,-0.0796 -0.31885,0.003 -0.53289,0.18041 -0.21404,0.1788 -0.51347,0.24776 -0.66541,0.15324 -0.15194,-0.0945 -0.34435,0.007 -0.42759,0.22513 -0.0833,0.21841 -0.32598,0.32952 -0.53958,0.24701 -0.24597,-0.095 -0.43985,0.0486 -0.52904,0.39195 -0.0774,0.29805 -0.51399,0.69174 -0.97012,0.87482 -0.45613,0.18311 -1.54054,0.65483 -2.4098,1.04826 -2.96927,1.34393 -4.14132,1.64005 -7.02102,1.77386 -4.97864,0.23138 -9.36596,-0.5516 -14.17433,-2.52959 -4.89465,-2.0135 -7.1296,-4.49504 -9.22285,-10.24036 -2.34424,-6.43424 -2.60663,-7.77727 -2.63657,-13.49512 -0.0347,-6.62505 0.55938,-8.5934 4.3933,-14.55653 1.3654,-2.12371 5.70274,-6.49864 7.92807,-7.99681 0.56131,-0.37789 1.57143,-1.14558 2.2447,-1.70597 2.10008,-1.74793 3.10673,-2.04885 7.86657,-2.35146 2.48813,-0.15818 4.63111,-0.42779 5.15649,-0.64877 1.51099,-0.63548 3.22708,-0.72254 5.32512,-0.27014 1.07763,0.23236 2.16442,0.60932 2.41508,0.83765 0.26784,0.244 0.59496,0.32854 0.79341,0.2051 0.49064,-0.30523 2.66201,-0.32494 3.04906,-0.0277 0.18848,0.14477 1.0003,0.17753 1.88939,0.0763 1.16405,-0.13257 2.14572,-0.0366 3.87561,0.37884 2.58473,0.62075 6.12845,2.219 6.12845,2.76399 0,0.29303 6.2956,3.68097 6.88746,3.70642 0.10121,0.004 0.33189,0.15676 0.51262,0.33868 0.18073,0.18191 0.46405,0.33076 0.6296,0.33076 0.16555,0 0.51259,0.23534 0.7712,0.52297 0.25861,0.28763 0.55928,0.46757 0.66816,0.39983 0.10888,-0.0677 0.33831,0.0471 0.50985,0.25514 0.17153,0.20803 0.48205,0.31253 0.69003,0.23219 0.99468,-0.38421 5.70401,2.09392 7.17427,3.77522 0.57225,0.65438 1.6122,1.61881 2.311,2.14316 2.71369,2.0362 3.99825,3.65101 4.69088,5.89679 0.11132,0.36095 0.71974,1.25401 1.35203,1.98457 0.63229,0.73054 1.53247,1.97648 2.00039,2.76875 0.60745,1.02851 1.22671,1.65974 2.16518,2.20706 1.70568,0.99475 2.68538,1.93311 3.32459,3.18427 0.66529,1.3022 0.93479,3.4743 0.49696,4.00532 -0.26935,0.32669 -0.16256,0.54886 0.62158,1.29329 1.39277,1.32217 3.31183,5.53326 3.31183,7.26728 0,0.73863 0.1183,1.41656 0.26288,1.5065 0.14459,0.0899 0.26288,0.5067 0.26288,0.92614 0,0.41943 0.1183,0.83619 0.26288,0.92613 0.14459,0.0899 0.26288,0.44717 0.26288,0.79383 0,0.34667 0.1183,0.70389 0.26288,0.79383 0.14459,0.09 0.26288,0.44717 0.26288,0.79383 0,0.34667 0.1183,0.70389 0.26288,0.79384 0.14459,0.0899 0.26288,0.44716 0.26288,0.79383 0,0.34666 0.1183,0.70389 0.26288,0.79383 0.14459,0.0899 0.26288,0.4542 0.26288,0.80944 0,0.35526 0.1183,0.64591 0.26288,0.64591 0.14459,0 0.26288,0.16033 0.26288,0.35627 0,0.44701 0.7425,1.96529 1.05669,2.16073 0.12911,0.0803 0.16945,0.31735 0.0896,0.52671 -0.0798,0.20936 0.10279,0.69791 0.4058,1.08567 0.58185,0.74456 0.72937,1.8144 0.28804,2.08896 -0.14459,0.0899 -0.26288,0.62578 -0.26288,1.19075 0,0.56497 0.11829,1.1008 0.26288,1.19074 0.14458,0.09 0.26288,0.45421 0.26288,0.80945 0,0.35526 0.10547,0.64591 0.23438,0.64591 0.12891,0 0.32057,0.32746 0.42591,0.72768 0.45806,1.74031 1.23519,5.59187 1.35761,6.72851 0.0804,0.74636 0.3325,1.41926 0.63499,1.6948 0.73606,0.67052 0.68492,2.49623 -0.0898,3.20649 -1.51162,1.3859 -3.13523,1.53794 -4.22262,0.39549 z m 45.44787,-11.0519 c -0.54772,-0.55131 -0.52153,-1.16743 0.14459,-3.40228 0.96907,-3.25121 1.31407,-4.11339 2.53183,-6.32704 2.12108,-3.85574 2.95672,-5.50458 2.95672,-5.83396 0,-0.17772 0.34644,-0.87301 0.76986,-1.54506 1.31045,-2.07997 2.58899,-4.73838 3.21638,-6.68768 0.30628,-0.95165 1.17647,-2.80371 1.98924,-4.23376 0.16543,-0.29108 0.79306,-1.54136 1.39471,-2.77841 0.60166,-1.23705 1.71616,-3.08271 2.47668,-4.10146 0.76051,-1.01875 1.82893,-2.56672 2.37428,-3.43993 0.54534,-0.87322 1.71542,-2.5989 2.6002,-3.83487 0.88477,-1.23599 2.02807,-3.08165 2.54066,-4.10145 3.05327,-6.07469 8.25927,-13.28719 11.2029,-15.52072 1.5863,-1.20363 4.31449,-2.69973 5.8724,-3.22033 0.65063,-0.21743 2.36592,-0.86998 3.81176,-1.45011 1.44585,-0.58016 4.16666,-1.57375 6.04625,-2.20797 3.28045,-1.10694 3.54436,-1.15317 6.58402,-1.15317 2.64654,0 3.28929,0.081 3.91365,0.49303 0.53809,0.3551 1.03588,0.45404 1.77941,0.35365 0.74485,-0.10056 1.07203,-0.0352 1.17492,0.23465 0.0891,0.23368 0.52663,0.37403 1.16598,0.37403 0.56285,0 1.02339,0.11225 1.02339,0.24945 0,0.1372 0.60126,0.24479 1.33614,0.23905 0.92968,-0.007 1.50946,0.13823 1.90588,0.47823 0.84406,0.72389 1.7439,1.18685 1.99873,1.02832 0.12356,-0.0769 0.29719,0.0506 0.38583,0.28311 0.0887,0.23257 0.32787,0.35847 0.53157,0.2798 0.20368,-0.0787 0.4387,0.0362 0.52224,0.2554 0.0993,0.26056 0.33438,0.34016 0.67915,0.23 0.96206,-0.30734 3.61931,1.91345 4.60025,3.84471 0.72513,1.42765 1.10572,3.5504 0.68364,3.81298 -0.18985,0.11812 -0.28806,1.65691 -0.28806,4.51404 0,2.8426 -0.0986,4.39618 -0.28649,4.51306 -0.16971,0.10557 -0.22076,0.53088 -0.12526,1.04335 0.12282,0.65891 0.0586,0.90479 -0.26929,1.03143 -0.30868,0.11923 -0.39012,0.3713 -0.28773,0.89068 0.16783,0.85119 -0.90767,2.95797 -2.47927,4.85668 -1.71553,2.07261 -7.10429,5.35486 -8.725,5.31435 -0.4098,-0.0103 -0.80162,0.14905 -0.88141,0.35833 -0.17862,0.4686 -2.03921,0.99642 -2.73208,0.77505 -0.29956,-0.0957 -0.67668,0 -0.90476,0.2296 -0.21511,0.2165 -1.13154,0.46815 -2.03653,0.55917 -2.18462,0.21976 -13.31494,-0.034 -16.62957,-0.37908 -1.44584,-0.15053 -3.96741,-0.34616 -5.6035,-0.43475 -2.66132,-0.14411 -3.14594,-0.0987 -4.6004,0.43065 -2.60039,0.94649 -5.16907,2.61681 -7.10268,4.61861 -2.74016,2.83686 -6.20077,6.83838 -7.6975,8.9007 -0.73967,1.01917 -1.64398,2.17393 -2.00959,2.56611 -0.36564,0.39218 -0.7495,1.117 -0.85302,1.61073 -0.21125,1.00727 -1.70307,2.76208 -3.288,3.86765 -0.8087,0.56412 -1.45423,1.47489 -2.79124,3.93798 -1.96833,3.6262 -2.56483,4.39489 -3.41047,4.39489 -0.46467,0 -0.82302,0.41951 -1.65638,1.93912 -1.30721,2.38368 -2.56373,3.14126 -3.55503,2.14344 z m -62.71571,-3.09863 c -1.27559,-1.13936 -0.44415,-3.10081 1.3144,-3.10081 1.75958,0 2.51402,1.91662 1.23174,3.1292 -0.77315,0.73112 -1.70748,0.72069 -2.54614,-0.0284 z m 77.60224,0.0217 c -0.1735,-0.17464 -0.31546,-0.70741 -0.31546,-1.18394 0,-1.03235 2.04539,-3.56869 4.88949,-6.0631 0.9811,-0.86045 2.38209,-2.17657 3.11329,-2.92471 1.56054,-1.59665 7.94306,-6.45569 9.47184,-7.21097 4.87719,-2.40948 9.53382,-4.38681 11.3095,-4.80228 4.14242,-0.96921 14.67763,-1.59507 18.54302,-1.10154 2.68411,0.34272 4.02995,1.02237 6.35818,3.21099 2.47065,2.32251 3.19641,3.80293 3.18713,6.50105 -0.004,1.25211 -0.15944,2.15237 -0.47884,2.77841 -0.49765,0.97554 -4.96233,5.55681 -5.41538,5.55681 -0.14537,0 -0.52555,0.25008 -0.84482,0.55571 -0.70586,0.67573 -2.70998,1.62497 -4.63713,2.19632 -2.20588,0.65395 -7.70586,0.58539 -9.79234,-0.12212 -1.47772,-0.50109 -5.67093,-3.00944 -6.91856,-4.13864 -0.28916,-0.26172 -0.59029,-0.47585 -0.66916,-0.47585 -0.0789,0 -0.47373,-0.33253 -0.87749,-0.73895 -0.40379,-0.40644 -1.08107,-0.8088 -1.5051,-0.89417 -0.42402,-0.0854 -0.83461,-0.25889 -0.91243,-0.38564 -0.25833,-0.42073 -1.72625,-0.23833 -2.40464,0.2988 -0.36764,0.29107 -0.8337,0.52922 -1.03575,0.52922 -0.37918,0 -2.74975,0.86459 -7.31672,2.66851 -1.44584,0.57111 -2.84691,1.03783 -3.1135,1.0372 -0.70042,-0.003 -5.62918,2.64414 -7.32155,3.93028 -1.48102,1.12554 -2.68732,1.40899 -3.31358,0.77861 z m -90.74549,-15.9869 -1.05228,-0.95691 v -2.03996 c 0,-1.79022 0.0745,-2.11042 0.60842,-2.61533 0.48479,-0.45841 0.92818,-0.57534 2.18191,-0.57534 0.86541,0 1.6936,-0.1209 1.84042,-0.26868 0.35716,-0.35953 1.76137,0.35193 2.46054,1.24663 0.73018,0.93439 0.66777,1.94343 -0.23047,3.72642 -0.9004,1.78731 -1.84982,2.44011 -3.5489,2.44011 -1.01801,0 -1.3724,-0.15009 -2.25964,-0.95694 z m 30.53422,-17.44129 c -1.09023,-0.58471 -2.69318,-2.34013 -3.24796,-3.55694 -0.51963,-1.1397 -4.23097,-5.01008 -4.82064,-5.02717 -0.15002,-0.004 -0.85535,-0.60329 -1.5674,-1.33096 -0.71205,-0.72768 -1.42482,-1.32305 -1.58394,-1.32305 -0.15911,0 -0.6293,-0.35723 -1.04486,-0.79384 -0.41557,-0.4366 -0.88501,-0.79383 -1.04322,-0.79383 -0.1582,0 -0.99001,-0.71444 -1.84847,-1.58766 -0.85845,-0.87321 -1.68506,-1.58766 -1.83691,-1.58766 -0.15184,0 -1.12576,-0.83352 -2.16426,-1.85227 -1.03851,-1.01875 -2.11647,-1.85227 -2.39547,-1.85227 -0.279,0 -0.82308,-0.41676 -1.20906,-0.92614 -0.38598,-0.50937 -0.85577,-0.92613 -1.04397,-0.92613 -0.18821,0 -0.9951,-0.7 -1.79309,-1.55554 -0.79799,-0.85554 -1.61393,-1.65929 -1.81319,-1.78612 -0.19926,-0.12683 -0.49267,-0.46873 -0.65202,-0.7598 -0.15935,-0.29107 -0.56687,-0.57032 -0.9056,-0.62054 -0.80996,-0.12008 -3.41672,-1.91324 -4.27645,-2.9417 -0.78924,-0.9441 -3.85102,-2.77459 -7.87691,-4.70918 -1.55841,-0.74888 -3.15541,-1.58952 -3.54888,-1.8681 -0.39348,-0.27858 -1.89837,-1.1388 -3.34421,-1.91157 -3.55097,-1.89792 -4.482,-2.50163 -6.19204,-4.01517 -0.85612,-0.75776 -2.31218,-1.66522 -3.51967,-2.19359 -2.1108,-0.92365 -2.61443,-1.2922 -4.4214,-3.23552 -0.57875,-0.62245 -1.44297,-1.2319 -1.94444,-1.37129 -2.10894,-0.58614 -5.21953,-3.25386 -6.31097,-5.41247 -0.23025,-0.4554 -0.80695,-1.3655 -1.28154,-2.02242 -0.94702,-1.31085 -2.46352,-4.40941 -3.17114,-6.47927 -0.58557,-1.7129 -0.79046,-6.54042 -0.38152,-8.98968 0.70351,-4.21357 0.911,-5.08949 1.47727,-6.23602 0.32633,-0.66075 1.16583,-1.71435 1.86554,-2.34129 0.69972,-0.62697 2.42246,-2.22651 3.82832,-3.55454 2.83485,-2.67796 3.91505,-3.38762 5.85606,-3.84725 1.32961,-0.31488 3.06681,-0.095 6.04624,0.76512 0.57834,0.16697 2.29363,0.48189 3.81177,0.69979 1.51813,0.21794 3.46874,0.53481 4.33469,0.70413 2.0204,0.39509 5.17818,1.97143 5.51993,2.75552 0.14272,0.32745 0.4497,0.59537 0.68218,0.59537 0.23247,0 0.63679,0.23815 0.89848,0.52922 0.2617,0.29107 0.63492,0.52922 0.82939,0.52922 0.19446,0 0.35357,0.11908 0.35357,0.26461 0,0.14554 0.1824,0.26461 0.40532,0.26461 0.22292,0 0.64993,0.22939 0.94891,0.50977 0.29899,0.28038 0.70808,0.44627 0.90909,0.36861 0.21862,-0.0844 0.36549,0.0297 0.36549,0.28406 0,0.24881 0.21811,0.42522 0.52576,0.42522 0.28917,0 0.52576,0.11908 0.52576,0.26461 0,0.14554 0.29158,0.26461 0.64795,0.26461 0.37891,0 0.76479,0.21976 0.92933,0.52922 0.15476,0.29108 0.48423,0.53219 0.73217,0.53579 0.64776,0.01 2.94815,1.77429 2.94815,2.26183 0,0.25969 0.18926,0.38049 0.51411,0.3282 0.59526,-0.0959 3.16621,2.30197 3.16621,2.95302 0,0.5116 3.52328,4.04624 3.77783,3.79001 0.10243,-0.10312 0.25448,0.0753 0.3379,0.39636 0.0834,0.32111 0.30931,0.58381 0.50196,0.58381 0.42823,0 1.83273,1.79827 1.59298,2.03959 -0.0945,0.0951 0.14775,0.50861 0.53828,0.91894 0.39054,0.4103 0.63893,0.74602 0.552,0.74602 -0.0869,0 0.0979,0.5086 0.41086,1.1302 0.57808,1.14843 1.59216,2.5067 3.42836,4.59207 0.56061,0.63668 0.93059,1.15759 0.82218,1.15759 -0.10841,0 -0.0394,0.19131 0.15341,0.42515 0.53078,0.64374 2.58054,4.61848 3.12401,6.0578 0.1099,0.29107 0.33395,0.85668 0.49787,1.2569 0.16393,0.40022 0.40264,0.9956 0.53047,1.32305 0.69977,1.79258 4.12379,8.48025 4.47903,8.74828 1.5657,1.1813 3.96766,6.60483 4.37363,9.87552 0.10489,0.84503 0.36713,1.95684 0.58275,2.47071 0.21562,0.51385 0.54274,1.52966 0.72694,2.25734 0.18419,0.72768 0.65109,2.07933 1.03753,3.0037 0.56566,1.35303 0.7534,2.37281 0.96305,5.23105 0.18962,2.58527 0.17875,3.79943 -0.04,4.46662 -0.20963,0.63935 -0.22074,1.17759 -0.0368,1.78114 0.145,0.47569 0.40546,1.6984 0.5788,2.71715 0.17334,1.01875 0.40697,1.97135 0.51918,2.11689 0.11221,0.14553 0.27741,0.80044 0.36712,1.45535 0.19635,1.43339 -0.19108,2.3069 -1.29745,2.92529 -0.65518,0.3662 -0.89197,0.38472 -1.40438,0.10992 z m 45.43673,-5.28522 c -0.18036,-0.21875 -0.32748,-0.66528 -0.32693,-0.99228 0.002,-1.17188 0.66061,-5.67949 1.28549,-8.79747 0.35,-1.74643 0.74987,-3.88977 0.88861,-4.76299 0.13873,-0.87321 0.49958,-2.54025 0.80188,-3.70454 0.3249,-1.25129 0.59143,-3.25296 0.65184,-4.89529 0.0562,-1.52812 0.29238,-3.61193 0.52482,-4.63068 0.49785,-2.182 1.03046,-4.88208 1.43539,-7.27678 0.28525,-1.68697 1.01263,-4.11604 1.7036,-5.68912 1.13587,-2.58595 1.71235,-4.30634 1.72215,-5.13936 0.0136,-1.16095 1.36786,-5.29046 1.829,-5.57732 0.20289,-0.12622 0.28013,-0.4967 0.19595,-0.93995 -0.16632,-0.87576 0.70768,-3.5864 1.25594,-3.89522 0.21356,-0.12032 0.3883,-0.44397 0.3883,-0.71921 0,-0.27525 0.12789,-0.58 0.28417,-0.67725 0.15631,-0.0972 0.2163,-0.44907 0.13331,-0.78184 -0.0996,-0.39951 -0.0176,-0.65658 0.24159,-0.75668 0.21585,-0.0833 0.39245,-0.4292 0.39245,-0.76848 0,-0.33931 0.13693,-0.75475 0.30431,-0.92323 0.21546,-0.21687 0.22321,-0.40617 0.0265,-0.64829 -0.37558,-0.46235 0.57965,-3.02577 1.26511,-3.39506 0.31879,-0.1717 0.50712,-0.55322 0.50712,-1.02726 0,-0.50472 0.20936,-0.89216 0.6331,-1.17165 0.34821,-0.22965 0.95998,-1.10665 1.35948,-1.94885 0.3995,-0.84223 0.89676,-1.73402 1.10502,-1.98177 0.55554,-0.66087 1.63409,-2.88036 1.63522,-3.36508 0.003,-0.67245 0.93049,-2.03239 4.08127,-5.97503 3.10448,-3.88471 4.42516,-5.23436 9.24515,-9.44793 4.88842,-4.27343 5.83833,-4.88846 11.90911,-7.71079 0.36146,-0.16806 1.42612,-0.86155 2.36592,-1.54112 3.22591,-2.33262 7.06419,-3.92256 9.66647,-4.00416 0.6837,-0.0214 1.31834,-0.14623 1.41035,-0.27731 0.092,-0.13109 0.68349,-0.24823 1.3144,-0.26035 0.63092,-0.0122 1.21979,-0.12696 1.30865,-0.25525 0.0888,-0.12828 0.97607,-0.23571 1.9716,-0.23875 1.25494,-0.004 1.9517,-0.13138 2.27191,-0.41584 0.25403,-0.22563 0.84551,-0.43264 1.31441,-0.46 0.4689,-0.0273 1.03677,-0.13116 1.26195,-0.23068 0.22519,-0.0996 1.58559,-0.11175 3.02312,-0.0271 1.43754,0.0846 2.96861,0.14025 3.40236,0.12363 2.6782,-0.10272 4.96878,0.0752 6.69729,0.52014 1.08777,0.28001 2.86881,0.56513 3.95787,0.63356 1.45137,0.0912 2.5985,0.37545 4.29578,1.06434 3.23424,1.31273 4.33164,2.01818 6.05618,3.89316 1.27229,1.38327 5.14946,6.86335 5.14946,7.27834 0,0.0738 0.60307,1.0337 1.34016,2.13321 2.0501,3.0581 3.94615,8.2782 3.50966,9.66253 -0.0958,0.30393 -0.0485,0.63083 0.10515,0.72643 0.74188,0.46151 1.16083,3.37675 1.2775,8.88916 0.12452,5.88469 -0.20983,8.69284 -1.09432,9.19108 -0.22348,0.12587 -0.40631,0.44901 -0.40631,0.71807 0,0.26908 -0.35489,1.16831 -0.78864,1.99831 -0.43375,0.83 -0.78864,1.73515 -0.78864,2.01143 0,0.27631 -0.1183,0.50237 -0.26288,0.50237 -0.14458,0 -0.26288,0.23815 -0.26288,0.52922 0,0.29107 -0.1183,0.52922 -0.26288,0.52922 -0.14458,0 -0.26288,0.40702 -0.26288,0.90449 0,1.18704 -0.228,1.74161 -0.71598,1.74161 -0.2795,0 -0.35213,0.17221 -0.24561,0.58222 0.34803,1.33956 -3.06629,5.48209 -6.36591,7.72368 -1.80932,1.22917 -4.49396,2.51811 -6.19366,2.97374 -1.6944,0.45418 -5.49851,0.47408 -6.20645,0.0325 -0.42949,-0.26795 -0.57192,-0.26332 -0.74984,0.0243 -0.168,0.2717 -0.35144,0.28723 -0.78062,0.0661 -0.30854,-0.15895 -0.79598,-0.40808 -1.08317,-0.55361 -0.28723,-0.14554 -0.93086,-0.26462 -1.43033,-0.26462 -0.49948,0 -0.98126,-0.11907 -1.07061,-0.26461 -0.0893,-0.14553 -0.91743,-0.26461 -1.84016,-0.26461 -0.92274,0 -1.75081,-0.11907 -1.84016,-0.26461 -0.0894,-0.14553 -0.44424,-0.26461 -0.78864,-0.26461 -0.3444,0 -0.69929,-0.11907 -0.78864,-0.26461 -0.0894,-0.14553 -0.49787,-0.26461 -0.90781,-0.26461 -0.46527,0 -1.06253,-0.29826 -1.58956,-0.79383 -0.46432,-0.4366 -1.10914,-0.79383 -1.43288,-0.79383 -2.18322,0 -11.66065,-9.53004 -14.26214,-14.34126 -0.48917,-0.90465 -0.89406,-1.32202 -1.37171,-1.41397 -0.37271,-0.0718 -1.21001,-0.29671 -1.86064,-0.4999 -2.45299,-0.76608 -4.43329,-1.04664 -7.49209,-1.06151 -2.80863,-0.0138 -3.38518,0.0664 -5.2576,0.72966 -4.42519,1.56758 -7.96937,4.3807 -12.06294,9.57481 -3.02743,3.84132 -3.5726,4.741 -6.33342,10.45211 -0.80906,1.67365 -1.6945,3.40024 -1.9676,3.83684 -0.27313,0.43661 -0.50523,1.05471 -0.5158,1.37359 -0.0105,0.31886 -0.13751,0.65335 -0.2821,0.74329 -0.14458,0.09 -0.26288,0.50165 -0.26288,0.91489 0,0.41325 -0.33099,1.38857 -0.73554,2.16743 -0.40454,0.77882 -1.01842,2.13051 -1.36419,3.00372 -0.34574,0.87321 -0.84282,1.97828 -1.10462,2.45569 -0.26177,0.47741 -0.47597,1.09554 -0.47597,1.37359 0,0.27805 -0.1183,0.57915 -0.26288,0.66909 -0.14458,0.0899 -0.26288,0.37556 -0.26288,0.63472 0,0.25914 -0.59148,1.64056 -1.3144,3.06983 -0.72292,1.42926 -1.3144,2.73988 -1.3144,2.91248 0,0.41703 -0.75859,1.93287 -1.06164,2.12141 -0.31693,0.19716 -1.8131,3.38965 -3.24877,6.93215 -1.42406,3.51386 -1.81406,4.40237 -2.00686,4.57209 -0.0827,0.0728 -0.36882,0.72768 -0.63592,1.45536 -1.07655,2.93291 -2.62459,4.3123 -3.56269,3.1745 z m -54.28409,-67.29953 c -0.88991,-0.54647 -1.48045,-1.37136 -3.81951,-5.33515 -1.2353,-2.09335 -2.33618,-3.49608 -4.46486,-5.68912 -1.55392,-1.60089 -3.24582,-3.56562 -3.75979,-4.36606 -1.1716,-1.82462 -5.89197,-6.9325 -7.77404,-8.41223 -0.99398,-0.78147 -1.6685,-1.11374 -2.26098,-1.11374 -0.46441,0 -1.18735,-0.10518 -1.60653,-0.23373 -0.41918,-0.12858 -1.29448,-0.38281 -1.94511,-0.56497 -0.65063,-0.18218 -2.09594,-0.67237 -3.2118,-1.08932 -2.57827,-0.96337 -4.18028,-0.95154 -9.35339,0.0692 -1.04967,0.20711 -1.48801,0.19526 -1.77937,-0.0481 -0.30925,-0.25836 -0.48307,-0.23508 -0.86884,0.11632 -0.3969,0.36157 -0.83285,0.411 -2.46349,0.2793 -1.30236,-0.10521 -2.04153,-0.0619 -2.15715,0.12643 -0.0967,0.15755 -0.57596,0.28647 -1.06494,0.28647 -0.48898,0 -0.96216,0.11907 -1.05152,0.26461 -0.0894,0.14553 -0.43674,0.26461 -0.77196,0.26461 -0.33523,0 -0.7459,0.16543 -0.9126,0.36762 -0.36645,0.44444 -1.55868,0.70992 -1.75467,0.39073 -0.18674,-0.30415 -1.51522,-0.29393 -1.83152,0.014 -0.32795,0.31936 -2.96814,0.55084 -8.11015,0.71103 -3.05656,0.0952 -4.32646,0.23342 -4.72462,0.51414 -0.77403,0.54571 -4.32943,0.53552 -4.53855,-0.013 -0.0863,-0.22625 -0.47832,-0.39692 -0.91183,-0.39692 -0.41828,0 -0.76052,-0.11907 -0.76052,-0.26461 0,-0.14554 -0.28875,-0.26461 -0.64168,-0.26461 -0.35293,0 -0.7148,-0.11907 -0.80416,-0.26461 -0.0894,-0.14554 -0.39208,-0.26461 -0.67271,-0.26461 -0.28064,0 -0.51025,-0.11908 -0.51025,-0.26461 0,-0.14554 -0.35489,-0.26461 -0.78864,-0.26461 -0.43375,0 -0.78864,-0.13199 -0.78864,-0.2933 0,-0.18194 -0.25349,-0.22925 -0.66772,-0.1246 -1.77435,0.44825 -6.68236,-3.46719 -6.69037,-5.33737 -10e-4,-0.32746 -0.12085,-0.59538 -0.26544,-0.59538 -0.14458,0 -0.26288,-0.23815 -0.26288,-0.52922 0,-0.29107 -0.11829,-0.52922 -0.26288,-0.52922 -0.14458,0 -0.26288,-0.23815 -0.26288,-0.52922 0,-0.29107 -0.11829,-0.52922 -0.26288,-0.52922 -0.14458,0 -0.26288,-0.29065 -0.26288,-0.64591 0,-0.35524 -0.11829,-0.7195 -0.26288,-0.80944 -0.14458,-0.0899 -0.26288,-0.43039 -0.26288,-0.75652 0,-0.32616 -0.11198,-0.70612 -0.24884,-0.84438 -0.37176,-0.37553 -0.416,-9.99528 -0.0465,-10.11925 0.16246,-0.0545 0.29538,-0.56549 0.29538,-1.13549 0,-0.57002 0.1183,-1.0364 0.26288,-1.0364 0.14459,0 0.26288,-0.23111 0.26288,-0.51361 0,-0.28247 0.1183,-0.58719 0.26288,-0.67714 0.14459,-0.0899 0.26288,-0.4542 0.26288,-0.80944 0,-0.35526 0.1183,-0.64591 0.26288,-0.64591 0.14459,0 0.26288,-0.21187 0.26288,-0.4708 0,-0.25894 0.2366,-0.64247 0.52576,-0.85225 0.28917,-0.20979 0.52576,-0.56701 0.52576,-0.79383 0,-0.22683 0.2366,-0.58405 0.52577,-0.79383 0.28916,-0.20979 0.52576,-0.54312 0.52576,-0.7407 0,-0.19758 0.47318,-0.81685 1.05152,-1.37619 0.57833,-0.55933 1.05152,-1.14795 1.05152,-1.30804 0,-0.41028 2.80787,-3.19033 3.22225,-3.19033 0.1881,0 0.51253,-0.23815 0.72095,-0.52922 0.20842,-0.29107 0.58942,-0.52922 0.84667,-0.52922 0.25725,0 0.46773,-0.11907 0.46773,-0.26461 0,-0.14554 0.23659,-0.26461 0.52576,-0.26461 0.28917,0 0.52576,-0.11907 0.52576,-0.26461 0,-0.14554 0.23659,-0.26461 0.52576,-0.26461 0.28917,0 0.52576,-0.11907 0.52576,-0.26461 0,-0.14554 0.2366,-0.26461 0.52576,-0.26461 0.28917,0 0.52576,-0.11908 0.52576,-0.26461 0,-0.14554 0.2366,-0.26461 0.52576,-0.26461 0.28917,0 0.52576,-0.16697 0.52576,-0.37104 0,-0.44915 1.42664,-0.99358 2.01156,-0.76766 0.24371,0.0941 0.51602,-0.0116 0.64993,-0.25254 0.12677,-0.22802 0.73318,-0.4948 1.34758,-0.59286 0.61441,-0.0981 1.78273,-0.41682 2.59628,-0.70834 1.26348,-0.45274 1.91516,-0.5099 4.46896,-0.3921 5.31483,0.24522 7.70329,0.46813 8.04128,0.75047 0.18197,0.15201 0.51837,0.20396 0.74757,0.11544 0.22919,-0.0885 0.67431,-0.0146 0.98914,0.16454 0.31484,0.17903 1.1998,0.34495 1.96657,0.36868 3.19376,0.0989 5.0178,0.64271 9.5388,2.84408 2.00331,0.97546 4.76617,3.09025 4.92488,3.76967 0.0468,0.20012 0.31291,0.36386 0.59148,0.36386 0.27857,0 0.50648,0.11908 0.50648,0.26461 0,0.14554 0.30682,0.26461 0.68182,0.26461 0.46953,0 0.72634,0.17142 0.82484,0.55055 0.10058,0.38715 0.29332,0.51099 0.64941,0.41727 0.27851,-0.0733 1.17901,0.20965 2.00112,0.62881 0.82211,0.41915 1.79048,0.87235 2.15194,1.00711 1.2018,0.44801 3.7794,2.60255 6.60674,5.52234 2.75063,2.84059 4.0859,4.78656 3.79963,5.53747 -0.18631,0.48871 0.25681,1.28079 1.46011,2.60998 0.52701,0.58214 1.04453,1.35613 1.15004,1.71997 0.10551,0.36384 0.31425,0.81537 0.46388,1.00337 0.40271,0.50607 1.50377,2.74846 1.50377,3.06257 0,0.42796 4.21818,8.97204 4.72046,9.56148 1.1415,1.33959 3.39126,5.80944 4.65687,9.25236 0.21218,0.57722 0.6733,1.68218 1.02471,2.45551 0.35141,0.77332 0.63893,1.50187 0.63893,1.61904 0,0.27162 1.83645,4.79392 2.6276,6.47054 0.50027,1.06016 0.60315,1.7237 0.61121,3.94214 0.009,2.58352 -0.0129,2.68698 -0.70914,3.28979 -0.862,0.74636 -1.855,0.79256 -2.92399,0.13611 z m 59.36512,-11.14149 c -1.55719,-0.95574 -1.71977,-1.72147 -1.75909,-8.28521 -0.0337,-5.61984 0.13456,-7.68036 0.93426,-11.44333 0.15465,-0.72768 0.37106,-1.44213 0.48092,-1.58766 0.10986,-0.14554 0.34573,-0.97906 0.52415,-1.85227 0.17842,-0.87322 0.53676,-2.24257 0.79631,-3.04302 0.60544,-1.86714 1.04086,-4.01916 1.04086,-5.14434 0,-0.48649 0.2405,-2.11789 0.53445,-3.62535 0.44278,-2.27069 0.85873,-3.39902 2.42481,-6.5777 2.05231,-4.16558 4.36213,-7.84588 5.88857,-9.38237 1.99101,-2.0041 5.3264,-3.92377 7.6596,-4.40843 1.54739,-0.32145 4.52298,-0.1272 4.52298,0.29525 0,0.12437 0.6802,0.55391 1.51156,0.95453 1.56848,0.75586 4.49152,3.27773 4.33766,3.74236 -0.0483,0.14598 0.26325,0.56282 0.69242,0.92635 0.60037,0.50847 0.70902,0.73376 0.47106,0.9768 -0.23743,0.24252 -0.21546,0.38856 0.0946,0.62882 0.22213,0.17213 0.36025,0.52705 0.30688,0.78873 -0.0533,0.2617 0.0368,0.63808 0.20037,0.83643 0.21577,0.26173 0.21782,0.41012 0.007,0.54102 -0.20223,0.12582 -0.16635,0.37019 0.11869,0.80807 1.06164,1.63092 -0.13591,8.92292 -1.55543,9.47124 -0.22106,0.0854 -0.4019,0.46924 -0.4019,0.85303 0,1.09641 -0.76416,3.78617 -1.47917,5.20647 -0.86472,1.71764 -2.37418,3.8116 -2.89176,4.01152 -0.25791,0.0996 -0.35216,0.3265 -0.24855,0.59828 0.10031,0.26313 -0.3729,1.5503 -1.18602,3.22597 -1.11892,2.30597 -1.70814,3.15201 -3.40713,4.8923 -1.12984,1.1573 -2.12397,2.38379 -2.20917,2.72554 -0.0852,0.34177 -0.33012,0.62138 -0.54427,0.62138 -0.21411,0 -0.3893,0.21293 -0.3893,0.47318 0,0.26027 -0.5399,0.92745 -1.19978,1.48269 -0.65988,0.55523 -1.30759,1.29489 -1.43935,1.6437 -0.13173,0.34881 -0.40541,0.63419 -0.60817,0.63419 -0.20276,0 -0.52077,0.18452 -0.7067,0.41002 -0.18594,0.2255 -0.82148,0.63204 -1.4123,0.9034 -0.59085,0.27139 -1.36104,0.80132 -1.71156,1.17765 -0.35053,0.37635 -0.77579,0.68426 -0.94506,0.68426 -0.16926,0 -0.52187,0.23814 -0.78356,0.52922 -0.2617,0.29107 -0.62695,0.52922 -0.81167,0.52922 -0.18473,0 -0.4113,0.23926 -0.50352,0.5317 -0.0922,0.29245 -0.63767,0.91193 -1.21209,1.37659 -0.57445,0.46468 -1.28759,1.24086 -1.58476,1.72483 -0.29716,0.484 -0.95709,1.05529 -1.46652,1.26952 -1.1556,0.48604 -1.0895,0.48998 -2.09078,-0.12458 z"
       id="path447" /></g></svg>
